<?xml version="1.0" encoding="UTF-8" standalone="no"?>
<!DOCTYPE svg PUBLIC "-//W3C//DTD SVG 1.1//EN"
 "http://www.w3.org/Graphics/SVG/1.1/DTD/svg11.dtd">
<!-- Generated by graphviz version 2.42.3 (20191010.1750)
 -->
<!-- Title: snakemake_dag Pages: 1 -->
<svg width="1716pt" height="332pt"
 viewBox="0.00 0.00 1715.50 332.00" xmlns="http://www.w3.org/2000/svg" xmlns:xlink="http://www.w3.org/1999/xlink">
<g id="graph0" class="graph" transform="scale(1 1) rotate(0) translate(4 328)">
<title>snakemake_dag</title>
<polygon fill="white" stroke="transparent" points="-4,4 -4,-328 1711.5,-328 1711.5,4 -4,4"/>
<!-- 0 -->
<g id="node1" class="node">
<title>0</title>
<path fill="none" stroke="#5682d8" stroke-width="2" d="M841,-36C841,-36 769,-36 769,-36 763,-36 757,-30 757,-24 757,-24 757,-12 757,-12 757,-6 763,0 769,0 769,0 841,0 841,0 847,0 853,-6 853,-12 853,-12 853,-24 853,-24 853,-30 847,-36 841,-36"/>
<text text-anchor="middle" x="805" y="-15.5" font-family="sans" font-size="10.00">make_summary</text>
</g>
<!-- 1 -->
<g id="node2" class="node">
<title>1</title>
<path fill="none" stroke="#9fd856" stroke-width="2" d="M447,-108C447,-108 403,-108 403,-108 397,-108 391,-102 391,-96 391,-96 391,-84 391,-84 391,-78 397,-72 403,-72 403,-72 447,-72 447,-72 453,-72 459,-78 459,-84 459,-84 459,-96 459,-96 459,-102 453,-108 447,-108"/>
<text text-anchor="middle" x="425" y="-87.5" font-family="sans" font-size="10.00">make_dag</text>
</g>
<!-- 1&#45;&gt;0 -->
<g id="edge1" class="edge">
<title>1&#45;&gt;0</title>
<path fill="none" stroke="grey" stroke-width="2" d="M459.04,-74.76C462.04,-73.74 465.06,-72.8 468,-72 563.93,-45.84 678.97,-31.2 746.8,-24.22"/>
<polygon fill="grey" stroke="grey" stroke-width="2" points="747.27,-27.69 756.86,-23.2 746.56,-20.72 747.27,-27.69"/>
</g>
<!-- 2 -->
<g id="node3" class="node">
<title>2</title>
<path fill="none" stroke="#56d86b" stroke-width="2" d="M575,-108C575,-108 489,-108 489,-108 483,-108 477,-102 477,-96 477,-96 477,-84 477,-84 477,-78 483,-72 489,-72 489,-72 575,-72 575,-72 581,-72 587,-78 587,-84 587,-84 587,-96 587,-96 587,-102 581,-108 575,-108"/>
<text text-anchor="middle" x="532" y="-87.5" font-family="sans" font-size="10.00">get_mut_bind_expr</text>
</g>
<!-- 2&#45;&gt;0 -->
<g id="edge2" class="edge">
<title>2&#45;&gt;0</title>
<path fill="none" stroke="grey" stroke-width="2" d="M587.25,-74.83C633.65,-62.94 699.74,-45.99 746.92,-33.89"/>
<polygon fill="grey" stroke="grey" stroke-width="2" points="747.87,-37.26 756.69,-31.39 746.13,-30.48 747.87,-37.26"/>
</g>
<!-- 3 -->
<g id="node4" class="node">
<title>3</title>
<path fill="none" stroke="#70d856" stroke-width="2" d="M735,-252C735,-252 615,-252 615,-252 609,-252 603,-246 603,-240 603,-240 603,-228 603,-228 603,-222 609,-216 615,-216 615,-216 735,-216 735,-216 741,-216 747,-222 747,-228 747,-228 747,-240 747,-240 747,-246 741,-252 735,-252"/>
<text text-anchor="middle" x="675" y="-231.5" font-family="sans" font-size="10.00">process_ccs_Wuhan_Hu_1</text>
</g>
<!-- 3&#45;&gt;0 -->
<g id="edge3" class="edge">
<title>3&#45;&gt;0</title>
<path fill="none" stroke="grey" stroke-width="2" d="M680.77,-215.96C691.59,-185.37 716.98,-119.87 751,-72 758.37,-61.63 767.9,-51.52 776.89,-42.95"/>
<polygon fill="grey" stroke="grey" stroke-width="2" points="779.29,-45.51 784.26,-36.15 774.54,-40.36 779.29,-45.51"/>
</g>
<!-- 15 -->
<g id="node16" class="node">
<title>15</title>
<path fill="none" stroke="#d8b456" stroke-width="2" d="M910.5,-180C910.5,-180 845.5,-180 845.5,-180 839.5,-180 833.5,-174 833.5,-168 833.5,-168 833.5,-156 833.5,-156 833.5,-150 839.5,-144 845.5,-144 845.5,-144 910.5,-144 910.5,-144 916.5,-144 922.5,-150 922.5,-156 922.5,-156 922.5,-168 922.5,-168 922.5,-174 916.5,-180 910.5,-180"/>
<text text-anchor="middle" x="878" y="-159.5" font-family="sans" font-size="10.00">count_variants</text>
</g>
<!-- 3&#45;&gt;15 -->
<g id="edge42" class="edge">
<title>3&#45;&gt;15</title>
<path fill="none" stroke="grey" stroke-width="2" d="M724.4,-215.97C754.37,-205.63 792.65,-192.43 823.5,-181.79"/>
<polygon fill="grey" stroke="grey" stroke-width="2" points="824.92,-185 833.24,-178.44 822.64,-178.39 824.92,-185"/>
</g>
<!-- 16 -->
<g id="node17" class="node">
<title>16</title>
<path fill="none" stroke="#d85656" stroke-width="2" d="M831,-108C831,-108 779,-108 779,-108 773,-108 767,-102 767,-96 767,-96 767,-84 767,-84 767,-78 773,-72 779,-72 779,-72 831,-72 831,-72 837,-72 843,-78 843,-84 843,-84 843,-96 843,-96 843,-102 837,-108 831,-108"/>
<text text-anchor="middle" x="805" y="-87.5" font-family="sans" font-size="10.00">fit_titrations</text>
</g>
<!-- 3&#45;&gt;16 -->
<g id="edge46" class="edge">
<title>3&#45;&gt;16</title>
<path fill="none" stroke="grey" stroke-width="2" d="M690.68,-215.87C713.52,-190.92 756.07,-144.45 782.32,-115.77"/>
<polygon fill="grey" stroke="grey" stroke-width="2" points="785.09,-117.93 789.26,-108.19 779.93,-113.2 785.09,-117.93"/>
</g>
<!-- 17 -->
<g id="node18" class="node">
<title>17</title>
<path fill="none" stroke="#56b1d8" stroke-width="2" d="M1019.5,-108C1019.5,-108 924.5,-108 924.5,-108 918.5,-108 912.5,-102 912.5,-96 912.5,-96 912.5,-84 912.5,-84 912.5,-78 918.5,-72 924.5,-72 924.5,-72 1019.5,-72 1019.5,-72 1025.5,-72 1031.5,-78 1031.5,-84 1031.5,-84 1031.5,-96 1031.5,-96 1031.5,-102 1025.5,-108 1019.5,-108"/>
<text text-anchor="middle" x="972" y="-87.5" font-family="sans" font-size="10.00">calculate_expression</text>
</g>
<!-- 3&#45;&gt;17 -->
<g id="edge51" class="edge">
<title>3&#45;&gt;17</title>
<path fill="none" stroke="grey" stroke-width="2" d="M700.01,-216C728.95,-196.81 778.5,-165.49 824,-144 850.37,-131.55 880.51,-120.26 906.68,-111.33"/>
<polygon fill="grey" stroke="grey" stroke-width="2" points="908.14,-114.53 916.5,-108.02 905.9,-107.9 908.14,-114.53"/>
</g>
<!-- 4 -->
<g id="node5" class="node">
<title>4</title>
<path fill="none" stroke="#ced856" stroke-width="2" d="M210,-324C210,-324 12,-324 12,-324 6,-324 0,-318 0,-312 0,-312 0,-300 0,-300 0,-294 6,-288 12,-288 12,-288 210,-288 210,-288 216,-288 222,-294 222,-300 222,-300 222,-312 222,-312 222,-318 216,-324 210,-324"/>
<text text-anchor="middle" x="111" y="-309" font-family="sans" font-size="10.00">get_ccs</text>
<text text-anchor="middle" x="111" y="-298" font-family="sans" font-size="10.00">pacbioRun: pool1_Wuhan_Hu_1_210701_A</text>
</g>
<!-- 4&#45;&gt;3 -->
<g id="edge10" class="edge">
<title>4&#45;&gt;3</title>
<path fill="none" stroke="grey" stroke-width="2" d="M222.13,-289.17C225.12,-288.77 228.08,-288.38 231,-288 357.01,-271.56 503.4,-254.47 592.6,-244.29"/>
<polygon fill="grey" stroke="grey" stroke-width="2" points="593.11,-247.75 602.65,-243.14 592.32,-240.8 593.11,-247.75"/>
</g>
<!-- 12 -->
<g id="node13" class="node">
<title>12</title>
<path fill="none" stroke="#56d8c9" stroke-width="2" d="M864.5,-252C864.5,-252 777.5,-252 777.5,-252 771.5,-252 765.5,-246 765.5,-240 765.5,-240 765.5,-228 765.5,-228 765.5,-222 771.5,-216 777.5,-216 777.5,-216 864.5,-216 864.5,-216 870.5,-216 876.5,-222 876.5,-228 876.5,-228 876.5,-240 876.5,-240 876.5,-246 870.5,-252 864.5,-252"/>
<text text-anchor="middle" x="821" y="-231.5" font-family="sans" font-size="10.00">process_ccs_E484K</text>
</g>
<!-- 4&#45;&gt;12 -->
<g id="edge18" class="edge">
<title>4&#45;&gt;12</title>
<path fill="none" stroke="grey" stroke-width="2" d="M222.11,-288.97C225.1,-288.63 228.07,-288.31 231,-288 460.31,-263.93 523.41,-289.02 755.38,-251.89"/>
<polygon fill="grey" stroke="grey" stroke-width="2" points="756.17,-255.31 765.48,-250.25 755.05,-248.4 756.17,-255.31"/>
</g>
<!-- 13 -->
<g id="node14" class="node">
<title>13</title>
<path fill="none" stroke="#56d89a" stroke-width="2" d="M995,-252C995,-252 907,-252 907,-252 901,-252 895,-246 895,-240 895,-240 895,-228 895,-228 895,-222 901,-216 907,-216 907,-216 995,-216 995,-216 1001,-216 1007,-222 1007,-228 1007,-228 1007,-240 1007,-240 1007,-246 1001,-252 995,-252"/>
<text text-anchor="middle" x="951" y="-231.5" font-family="sans" font-size="10.00">process_ccs_N501Y</text>
</g>
<!-- 4&#45;&gt;13 -->
<g id="edge26" class="edge">
<title>4&#45;&gt;13</title>
<path fill="none" stroke="grey" stroke-width="2" d="M222.1,-288.92C225.1,-288.59 228.07,-288.29 231,-288 520.71,-259.56 597.32,-296.52 885,-252 885.1,-251.98 885.2,-251.97 885.31,-251.95"/>
<polygon fill="grey" stroke="grey" stroke-width="2" points="885.76,-255.43 894.99,-250.23 884.53,-248.54 885.76,-255.43"/>
</g>
<!-- 14 -->
<g id="node15" class="node">
<title>14</title>
<path fill="none" stroke="#d88556" stroke-width="2" d="M1124.5,-252C1124.5,-252 1037.5,-252 1037.5,-252 1031.5,-252 1025.5,-246 1025.5,-240 1025.5,-240 1025.5,-228 1025.5,-228 1025.5,-222 1031.5,-216 1037.5,-216 1037.5,-216 1124.5,-216 1124.5,-216 1130.5,-216 1136.5,-222 1136.5,-228 1136.5,-228 1136.5,-240 1136.5,-240 1136.5,-246 1130.5,-252 1124.5,-252"/>
<text text-anchor="middle" x="1081" y="-231.5" font-family="sans" font-size="10.00">process_ccs_B1351</text>
</g>
<!-- 4&#45;&gt;14 -->
<g id="edge34" class="edge">
<title>4&#45;&gt;14</title>
<path fill="none" stroke="grey" stroke-width="2" d="M222.1,-288.88C225.1,-288.57 228.07,-288.27 231,-288 575.43,-255.78 668.93,-303.55 1015.43,-251.86"/>
<polygon fill="grey" stroke="grey" stroke-width="2" points="1016.13,-255.29 1025.49,-250.34 1015.08,-248.37 1016.13,-255.29"/>
</g>
<!-- 5 -->
<g id="node6" class="node">
<title>5</title>
<path fill="none" stroke="#ced856" stroke-width="2" d="M450,-324C450,-324 252,-324 252,-324 246,-324 240,-318 240,-312 240,-312 240,-300 240,-300 240,-294 246,-288 252,-288 252,-288 450,-288 450,-288 456,-288 462,-294 462,-300 462,-300 462,-312 462,-312 462,-318 456,-324 450,-324"/>
<text text-anchor="middle" x="351" y="-309" font-family="sans" font-size="10.00">get_ccs</text>
<text text-anchor="middle" x="351" y="-298" font-family="sans" font-size="10.00">pacbioRun: pool2_Wuhan_Hu_1_210701_A</text>
</g>
<!-- 5&#45;&gt;3 -->
<g id="edge11" class="edge">
<title>5&#45;&gt;3</title>
<path fill="none" stroke="grey" stroke-width="2" d="M429.85,-287.97C479.28,-277.29 542.88,-263.54 592.92,-252.73"/>
<polygon fill="grey" stroke="grey" stroke-width="2" points="593.7,-256.15 602.74,-250.61 592.22,-249.3 593.7,-256.15"/>
</g>
<!-- 5&#45;&gt;12 -->
<g id="edge19" class="edge">
<title>5&#45;&gt;12</title>
<path fill="none" stroke="grey" stroke-width="2" d="M462.14,-289.2C465.12,-288.79 468.08,-288.39 471,-288 594.33,-271.48 628.9,-275.96 755.37,-251.97"/>
<polygon fill="grey" stroke="grey" stroke-width="2" points="756.28,-255.36 765.44,-250.04 754.96,-248.49 756.28,-255.36"/>
</g>
<!-- 5&#45;&gt;13 -->
<g id="edge27" class="edge">
<title>5&#45;&gt;13</title>
<path fill="none" stroke="grey" stroke-width="2" d="M462.12,-289.04C465.11,-288.68 468.07,-288.33 471,-288 654.5,-267.04 702.95,-283.14 885,-252 885.1,-251.98 885.2,-251.97 885.31,-251.95"/>
<polygon fill="grey" stroke="grey" stroke-width="2" points="885.8,-255.42 894.97,-250.11 884.49,-248.54 885.8,-255.42"/>
</g>
<!-- 5&#45;&gt;14 -->
<g id="edge35" class="edge">
<title>5&#45;&gt;14</title>
<path fill="none" stroke="grey" stroke-width="2" d="M462.11,-288.96C465.1,-288.63 468.07,-288.3 471,-288 709.15,-263.3 774.6,-290.13 1015.37,-251.89"/>
<polygon fill="grey" stroke="grey" stroke-width="2" points="1016.16,-255.31 1025.48,-250.26 1015.05,-248.4 1016.16,-255.31"/>
</g>
<!-- 6 -->
<g id="node7" class="node">
<title>6</title>
<path fill="none" stroke="#ced856" stroke-width="2" d="M657.5,-324C657.5,-324 492.5,-324 492.5,-324 486.5,-324 480.5,-318 480.5,-312 480.5,-312 480.5,-300 480.5,-300 480.5,-294 486.5,-288 492.5,-288 492.5,-288 657.5,-288 657.5,-288 663.5,-288 669.5,-294 669.5,-300 669.5,-300 669.5,-312 669.5,-312 669.5,-318 663.5,-324 657.5,-324"/>
<text text-anchor="middle" x="575" y="-309" font-family="sans" font-size="10.00">get_ccs</text>
<text text-anchor="middle" x="575" y="-298" font-family="sans" font-size="10.00">pacbioRun: pool1_E484K_210701_A</text>
</g>
<!-- 6&#45;&gt;3 -->
<g id="edge12" class="edge">
<title>6&#45;&gt;3</title>
<path fill="none" stroke="grey" stroke-width="2" d="M599.46,-287.88C612.3,-278.89 628.2,-267.76 642.09,-258.03"/>
<polygon fill="grey" stroke="grey" stroke-width="2" points="644.26,-260.79 650.44,-252.19 640.24,-255.06 644.26,-260.79"/>
</g>
<!-- 6&#45;&gt;12 -->
<g id="edge20" class="edge">
<title>6&#45;&gt;12</title>
<path fill="none" stroke="grey" stroke-width="2" d="M634.86,-287.97C671.29,-277.6 717.85,-264.35 755.29,-253.7"/>
<polygon fill="grey" stroke="grey" stroke-width="2" points="756.43,-257.01 765.09,-250.91 754.52,-250.28 756.43,-257.01"/>
</g>
<!-- 6&#45;&gt;13 -->
<g id="edge28" class="edge">
<title>6&#45;&gt;13</title>
<path fill="none" stroke="grey" stroke-width="2" d="M669.62,-289.23C752.91,-275.28 864.11,-256.47 885,-252 885.1,-251.98 885.2,-251.96 885.3,-251.93"/>
<polygon fill="grey" stroke="grey" stroke-width="2" points="885.91,-255.39 894.91,-249.79 884.38,-248.55 885.91,-255.39"/>
</g>
<!-- 6&#45;&gt;14 -->
<g id="edge36" class="edge">
<title>6&#45;&gt;14</title>
<path fill="none" stroke="grey" stroke-width="2" d="M669.54,-289.18C672.39,-288.77 675.22,-288.38 678,-288 824.48,-268.13 865.64,-278.71 1015.43,-251.93"/>
<polygon fill="grey" stroke="grey" stroke-width="2" points="1016.24,-255.34 1025.45,-250.11 1014.99,-248.45 1016.24,-255.34"/>
</g>
<!-- 7 -->
<g id="node8" class="node">
<title>7</title>
<path fill="none" stroke="#ced856" stroke-width="2" d="M864.5,-324C864.5,-324 699.5,-324 699.5,-324 693.5,-324 687.5,-318 687.5,-312 687.5,-312 687.5,-300 687.5,-300 687.5,-294 693.5,-288 699.5,-288 699.5,-288 864.5,-288 864.5,-288 870.5,-288 876.5,-294 876.5,-300 876.5,-300 876.5,-312 876.5,-312 876.5,-318 870.5,-324 864.5,-324"/>
<text text-anchor="middle" x="782" y="-309" font-family="sans" font-size="10.00">get_ccs</text>
<text text-anchor="middle" x="782" y="-298" font-family="sans" font-size="10.00">pacbioRun: pool2_E484K_210701_A</text>
</g>
<!-- 7&#45;&gt;3 -->
<g id="edge13" class="edge">
<title>7&#45;&gt;3</title>
<path fill="none" stroke="grey" stroke-width="2" d="M755.82,-287.88C741.96,-278.81 724.76,-267.55 709.79,-257.76"/>
<polygon fill="grey" stroke="grey" stroke-width="2" points="711.56,-254.74 701.28,-252.19 707.73,-260.59 711.56,-254.74"/>
</g>
<!-- 7&#45;&gt;12 -->
<g id="edge21" class="edge">
<title>7&#45;&gt;12</title>
<path fill="none" stroke="grey" stroke-width="2" d="M791.64,-287.7C796.13,-279.64 801.56,-269.89 806.52,-260.98"/>
<polygon fill="grey" stroke="grey" stroke-width="2" points="809.66,-262.54 811.47,-252.1 803.55,-259.14 809.66,-262.54"/>
</g>
<!-- 7&#45;&gt;13 -->
<g id="edge29" class="edge">
<title>7&#45;&gt;13</title>
<path fill="none" stroke="grey" stroke-width="2" d="M823.34,-287.88C846.55,-278.26 875.69,-266.19 900.27,-256.01"/>
<polygon fill="grey" stroke="grey" stroke-width="2" points="901.89,-259.13 909.79,-252.07 899.21,-252.66 901.89,-259.13"/>
</g>
<!-- 7&#45;&gt;14 -->
<g id="edge37" class="edge">
<title>7&#45;&gt;14</title>
<path fill="none" stroke="grey" stroke-width="2" d="M860.15,-287.98C903.21,-278.44 957.84,-266.08 1015.35,-252.12"/>
<polygon fill="grey" stroke="grey" stroke-width="2" points="1016.47,-255.45 1025.36,-249.68 1014.82,-248.65 1016.47,-255.45"/>
</g>
<!-- 8 -->
<g id="node9" class="node">
<title>8</title>
<path fill="none" stroke="#ced856" stroke-width="2" d="M1073,-324C1073,-324 907,-324 907,-324 901,-324 895,-318 895,-312 895,-312 895,-300 895,-300 895,-294 901,-288 907,-288 907,-288 1073,-288 1073,-288 1079,-288 1085,-294 1085,-300 1085,-300 1085,-312 1085,-312 1085,-318 1079,-324 1073,-324"/>
<text text-anchor="middle" x="990" y="-309" font-family="sans" font-size="10.00">get_ccs</text>
<text text-anchor="middle" x="990" y="-298" font-family="sans" font-size="10.00">pacbioRun: pool1_N501Y_210701_A</text>
</g>
<!-- 8&#45;&gt;3 -->
<g id="edge14" class="edge">
<title>8&#45;&gt;3</title>
<path fill="none" stroke="grey" stroke-width="2" d="M913.35,-287.97C865.98,-277.44 805.23,-263.94 756.92,-253.21"/>
<polygon fill="grey" stroke="grey" stroke-width="2" points="757.65,-249.78 747.12,-251.03 756.13,-256.61 757.65,-249.78"/>
</g>
<!-- 8&#45;&gt;12 -->
<g id="edge22" class="edge">
<title>8&#45;&gt;12</title>
<path fill="none" stroke="grey" stroke-width="2" d="M948.66,-287.88C925.45,-278.26 896.31,-266.19 871.73,-256.01"/>
<polygon fill="grey" stroke="grey" stroke-width="2" points="872.79,-252.66 862.21,-252.07 870.11,-259.13 872.79,-252.66"/>
</g>
<!-- 8&#45;&gt;13 -->
<g id="edge30" class="edge">
<title>8&#45;&gt;13</title>
<path fill="none" stroke="grey" stroke-width="2" d="M980.36,-287.7C975.87,-279.64 970.44,-269.89 965.48,-260.98"/>
<polygon fill="grey" stroke="grey" stroke-width="2" points="968.45,-259.14 960.53,-252.1 962.34,-262.54 968.45,-259.14"/>
</g>
<!-- 8&#45;&gt;14 -->
<g id="edge38" class="edge">
<title>8&#45;&gt;14</title>
<path fill="none" stroke="grey" stroke-width="2" d="M1012.49,-287.7C1023.96,-278.88 1038.06,-268.03 1050.48,-258.47"/>
<polygon fill="grey" stroke="grey" stroke-width="2" points="1052.97,-260.98 1058.76,-252.1 1048.7,-255.43 1052.97,-260.98"/>
</g>
<!-- 9 -->
<g id="node10" class="node">
<title>9</title>
<path fill="none" stroke="#ced856" stroke-width="2" d="M1281,-324C1281,-324 1115,-324 1115,-324 1109,-324 1103,-318 1103,-312 1103,-312 1103,-300 1103,-300 1103,-294 1109,-288 1115,-288 1115,-288 1281,-288 1281,-288 1287,-288 1293,-294 1293,-300 1293,-300 1293,-312 1293,-312 1293,-318 1287,-324 1281,-324"/>
<text text-anchor="middle" x="1198" y="-309" font-family="sans" font-size="10.00">get_ccs</text>
<text text-anchor="middle" x="1198" y="-298" font-family="sans" font-size="10.00">pacbioRun: pool2_N501Y_210701_A</text>
</g>
<!-- 9&#45;&gt;3 -->
<g id="edge15" class="edge">
<title>9&#45;&gt;3</title>
<path fill="none" stroke="grey" stroke-width="2" d="M1102.82,-289.22C1099.85,-288.8 1096.9,-288.39 1094,-288 947.5,-268.24 906.96,-275.23 757.37,-252.13"/>
<polygon fill="grey" stroke="grey" stroke-width="2" points="757.78,-248.65 747.36,-250.56 756.7,-255.57 757.78,-248.65"/>
</g>
<!-- 9&#45;&gt;12 -->
<g id="edge23" class="edge">
<title>9&#45;&gt;12</title>
<path fill="none" stroke="grey" stroke-width="2" d="M1102.76,-289.25C1026.3,-276.55 926.47,-259.79 886.43,-251.9"/>
<polygon fill="grey" stroke="grey" stroke-width="2" points="887.09,-248.47 876.59,-249.88 885.68,-255.32 887.09,-248.47"/>
</g>
<!-- 9&#45;&gt;13 -->
<g id="edge31" class="edge">
<title>9&#45;&gt;13</title>
<path fill="none" stroke="grey" stroke-width="2" d="M1137.89,-287.97C1101.32,-277.6 1054.57,-264.35 1016.98,-253.7"/>
<polygon fill="grey" stroke="grey" stroke-width="2" points="1017.71,-250.27 1007.13,-250.91 1015.8,-257 1017.71,-250.27"/>
</g>
<!-- 9&#45;&gt;14 -->
<g id="edge39" class="edge">
<title>9&#45;&gt;14</title>
<path fill="none" stroke="grey" stroke-width="2" d="M1169.38,-287.88C1154.08,-278.72 1135.06,-267.34 1118.58,-257.48"/>
<polygon fill="grey" stroke="grey" stroke-width="2" points="1120.11,-254.32 1109.73,-252.19 1116.52,-260.33 1120.11,-254.32"/>
</g>
<!-- 10 -->
<g id="node11" class="node">
<title>10</title>
<path fill="none" stroke="#ced856" stroke-width="2" d="M1488.5,-324C1488.5,-324 1323.5,-324 1323.5,-324 1317.5,-324 1311.5,-318 1311.5,-312 1311.5,-312 1311.5,-300 1311.5,-300 1311.5,-294 1317.5,-288 1323.5,-288 1323.5,-288 1488.5,-288 1488.5,-288 1494.5,-288 1500.5,-294 1500.5,-300 1500.5,-300 1500.5,-312 1500.5,-312 1500.5,-318 1494.5,-324 1488.5,-324"/>
<text text-anchor="middle" x="1406" y="-309" font-family="sans" font-size="10.00">get_ccs</text>
<text text-anchor="middle" x="1406" y="-298" font-family="sans" font-size="10.00">pacbioRun: pool1_B1351_210701_A</text>
</g>
<!-- 10&#45;&gt;3 -->
<g id="edge16" class="edge">
<title>10&#45;&gt;3</title>
<path fill="none" stroke="grey" stroke-width="2" d="M1311.39,-289.14C1308.23,-288.74 1305.09,-288.35 1302,-288 1063.69,-260.73 998.7,-284.39 757.47,-252.08"/>
<polygon fill="grey" stroke="grey" stroke-width="2" points="757.72,-248.59 747.34,-250.71 756.77,-255.52 757.72,-248.59"/>
</g>
<!-- 10&#45;&gt;12 -->
<g id="edge24" class="edge">
<title>10&#45;&gt;12</title>
<path fill="none" stroke="grey" stroke-width="2" d="M1311.38,-289.22C1308.22,-288.79 1305.09,-288.39 1302,-288 1121.09,-265.42 1070.63,-282.95 886.54,-251.9"/>
<polygon fill="grey" stroke="grey" stroke-width="2" points="886.98,-248.42 876.53,-250.19 885.8,-255.32 886.98,-248.42"/>
</g>
<!-- 10&#45;&gt;13 -->
<g id="edge32" class="edge">
<title>10&#45;&gt;13</title>
<path fill="none" stroke="grey" stroke-width="2" d="M1311.36,-289.38C1308.21,-288.91 1305.08,-288.45 1302,-288 1175.65,-269.7 1142.4,-275.97 1017,-252 1016.9,-251.98 1016.8,-251.96 1016.69,-251.94"/>
<polygon fill="grey" stroke="grey" stroke-width="2" points="1017.56,-248.55 1007.06,-249.95 1016.15,-255.4 1017.56,-248.55"/>
</g>
<!-- 10&#45;&gt;14 -->
<g id="edge40" class="edge">
<title>10&#45;&gt;14</title>
<path fill="none" stroke="grey" stroke-width="2" d="M1326.91,-287.97C1271.57,-276.05 1198.53,-260.31 1146.46,-249.1"/>
<polygon fill="grey" stroke="grey" stroke-width="2" points="1147.18,-245.67 1136.67,-246.99 1145.7,-252.52 1147.18,-245.67"/>
</g>
<!-- 11 -->
<g id="node12" class="node">
<title>11</title>
<path fill="none" stroke="#ced856" stroke-width="2" d="M1695.5,-324C1695.5,-324 1530.5,-324 1530.5,-324 1524.5,-324 1518.5,-318 1518.5,-312 1518.5,-312 1518.5,-300 1518.5,-300 1518.5,-294 1524.5,-288 1530.5,-288 1530.5,-288 1695.5,-288 1695.5,-288 1701.5,-288 1707.5,-294 1707.5,-300 1707.5,-300 1707.5,-312 1707.5,-312 1707.5,-318 1701.5,-324 1695.5,-324"/>
<text text-anchor="middle" x="1613" y="-309" font-family="sans" font-size="10.00">get_ccs</text>
<text text-anchor="middle" x="1613" y="-298" font-family="sans" font-size="10.00">pacbioRun: pool2_B1351_210701_A</text>
</g>
<!-- 11&#45;&gt;3 -->
<g id="edge17" class="edge">
<title>11&#45;&gt;3</title>
<path fill="none" stroke="grey" stroke-width="2" d="M1518.48,-288.96C1515.63,-288.62 1512.79,-288.3 1510,-288 1179.64,-252.97 1090.51,-293.78 757.26,-252.03"/>
<polygon fill="grey" stroke="grey" stroke-width="2" points="757.69,-248.56 747.33,-250.77 756.81,-255.5 757.69,-248.56"/>
</g>
<!-- 11&#45;&gt;12 -->
<g id="edge25" class="edge">
<title>11&#45;&gt;12</title>
<path fill="none" stroke="grey" stroke-width="2" d="M1518.48,-289C1515.62,-288.64 1512.79,-288.31 1510,-288 1237.14,-257.7 1162.14,-294.48 886.41,-251.84"/>
<polygon fill="grey" stroke="grey" stroke-width="2" points="886.94,-248.38 876.52,-250.29 885.85,-255.3 886.94,-248.38"/>
</g>
<!-- 11&#45;&gt;13 -->
<g id="edge33" class="edge">
<title>11&#45;&gt;13</title>
<path fill="none" stroke="grey" stroke-width="2" d="M1518.47,-289.06C1515.62,-288.68 1512.79,-288.33 1510,-288 1291.84,-262.09 1233.8,-287.54 1017,-252 1016.9,-251.98 1016.8,-251.97 1016.69,-251.95"/>
<polygon fill="grey" stroke="grey" stroke-width="2" points="1017.49,-248.54 1007.02,-250.16 1016.22,-255.42 1017.49,-248.54"/>
</g>
<!-- 11&#45;&gt;14 -->
<g id="edge41" class="edge">
<title>11&#45;&gt;14</title>
<path fill="none" stroke="grey" stroke-width="2" d="M1518.45,-289.24C1515.6,-288.82 1512.78,-288.4 1510,-288 1381.52,-269.47 1230.82,-251.78 1146.57,-242.26"/>
<polygon fill="grey" stroke="grey" stroke-width="2" points="1146.96,-238.78 1136.63,-241.14 1146.17,-245.74 1146.96,-238.78"/>
</g>
<!-- 12&#45;&gt;0 -->
<g id="edge4" class="edge">
<title>12&#45;&gt;0</title>
<path fill="none" stroke="grey" stroke-width="2" d="M807.91,-215.98C800.55,-205.89 791.55,-192.64 785,-180 769.29,-149.65 764.1,-141.63 758,-108 755.15,-92.26 752.32,-86.96 758,-72 761.97,-61.54 769.05,-51.83 776.53,-43.65"/>
<polygon fill="grey" stroke="grey" stroke-width="2" points="779.23,-45.89 783.73,-36.3 774.23,-40.99 779.23,-45.89"/>
</g>
<!-- 12&#45;&gt;15 -->
<g id="edge43" class="edge">
<title>12&#45;&gt;15</title>
<path fill="none" stroke="grey" stroke-width="2" d="M835.09,-215.7C841.92,-207.3 850.26,-197.07 857.76,-187.86"/>
<polygon fill="grey" stroke="grey" stroke-width="2" points="860.47,-190.07 864.07,-180.1 855.04,-185.65 860.47,-190.07"/>
</g>
<!-- 12&#45;&gt;16 -->
<g id="edge47" class="edge">
<title>12&#45;&gt;16</title>
<path fill="none" stroke="grey" stroke-width="2" d="M808.27,-215.85C801.71,-205.92 794.39,-192.88 791,-180 785.61,-159.52 789.84,-135.8 795.02,-118"/>
<polygon fill="grey" stroke="grey" stroke-width="2" points="798.42,-118.87 798.11,-108.28 791.74,-116.74 798.42,-118.87"/>
</g>
<!-- 12&#45;&gt;17 -->
<g id="edge52" class="edge">
<title>12&#45;&gt;17</title>
<path fill="none" stroke="grey" stroke-width="2" d="M874.66,-215.88C894.29,-207.53 915.47,-195.8 931,-180 947.98,-162.72 958.76,-137.13 964.98,-117.81"/>
<polygon fill="grey" stroke="grey" stroke-width="2" points="968.37,-118.68 967.9,-108.09 961.67,-116.66 968.37,-118.68"/>
</g>
<!-- 13&#45;&gt;0 -->
<g id="edge5" class="edge">
<title>13&#45;&gt;0</title>
<path fill="none" stroke="grey" stroke-width="2" d="M979.74,-215.95C993.03,-206.78 1008.04,-194.39 1018,-180 1045.93,-139.64 1071.67,-110.32 1041,-72 1019.16,-44.71 925.92,-30.5 863.38,-23.9"/>
<polygon fill="grey" stroke="grey" stroke-width="2" points="863.54,-20.4 853.24,-22.87 862.83,-27.36 863.54,-20.4"/>
</g>
<!-- 13&#45;&gt;15 -->
<g id="edge44" class="edge">
<title>13&#45;&gt;15</title>
<path fill="none" stroke="grey" stroke-width="2" d="M932.96,-215.7C923.94,-207.05 912.88,-196.45 903.06,-187.03"/>
<polygon fill="grey" stroke="grey" stroke-width="2" points="905.48,-184.5 895.84,-180.1 900.63,-189.55 905.48,-184.5"/>
</g>
<!-- 13&#45;&gt;16 -->
<g id="edge48" class="edge">
<title>13&#45;&gt;16</title>
<path fill="none" stroke="grey" stroke-width="2" d="M896.54,-215.92C866.77,-205.53 833.96,-191.99 824,-180 809.76,-162.85 805.45,-137.57 804.44,-118.33"/>
<polygon fill="grey" stroke="grey" stroke-width="2" points="807.93,-117.99 804.18,-108.08 800.94,-118.17 807.93,-117.99"/>
</g>
<!-- 13&#45;&gt;17 -->
<g id="edge53" class="edge">
<title>13&#45;&gt;17</title>
<path fill="none" stroke="grey" stroke-width="2" d="M974.75,-215.91C985.55,-206.65 997.2,-194.2 1003,-180 1011.54,-159.11 1001.87,-134.89 991.14,-116.99"/>
<polygon fill="grey" stroke="grey" stroke-width="2" points="993.88,-114.78 985.53,-108.26 987.99,-118.57 993.88,-114.78"/>
</g>
<!-- 14&#45;&gt;0 -->
<g id="edge6" class="edge">
<title>14&#45;&gt;0</title>
<path fill="none" stroke="grey" stroke-width="2" d="M1084.66,-215.81C1090.51,-183.17 1097.86,-111.96 1061,-72 1034.8,-43.6 930.21,-29.53 863.1,-23.3"/>
<polygon fill="grey" stroke="grey" stroke-width="2" points="863.35,-19.8 853.07,-22.4 862.72,-26.78 863.35,-19.8"/>
</g>
<!-- 14&#45;&gt;15 -->
<g id="edge45" class="edge">
<title>14&#45;&gt;15</title>
<path fill="none" stroke="grey" stroke-width="2" d="M1031.6,-215.97C1001.63,-205.63 963.35,-192.43 932.5,-181.79"/>
<polygon fill="grey" stroke="grey" stroke-width="2" points="933.36,-178.39 922.76,-178.44 931.08,-185 933.36,-178.39"/>
</g>
<!-- 14&#45;&gt;16 -->
<g id="edge49" class="edge">
<title>14&#45;&gt;16</title>
<path fill="none" stroke="grey" stroke-width="2" d="M1054.79,-215.95C1025.33,-197.14 975.75,-166.55 931,-144 905.67,-131.23 876.52,-118.83 852.65,-109.24"/>
<polygon fill="grey" stroke="grey" stroke-width="2" points="853.69,-105.89 843.1,-105.44 851.1,-112.39 853.69,-105.89"/>
</g>
<!-- 14&#45;&gt;17 -->
<g id="edge54" class="edge">
<title>14&#45;&gt;17</title>
<path fill="none" stroke="grey" stroke-width="2" d="M1069.64,-215.91C1057.38,-197.72 1037.05,-168.27 1018,-144 1010.63,-134.61 1002.16,-124.64 994.51,-115.91"/>
<polygon fill="grey" stroke="grey" stroke-width="2" points="997.03,-113.47 987.78,-108.3 991.78,-118.11 997.03,-113.47"/>
</g>
<!-- 15&#45;&gt;0 -->
<g id="edge7" class="edge">
<title>15&#45;&gt;0</title>
<path fill="none" stroke="grey" stroke-width="2" d="M875.29,-143.73C871.85,-125.13 864.77,-95.11 852,-72 846.35,-61.78 838.43,-51.85 830.7,-43.4"/>
<polygon fill="grey" stroke="grey" stroke-width="2" points="833.16,-40.91 823.72,-36.1 828.09,-45.75 833.16,-40.91"/>
</g>
<!-- 15&#45;&gt;16 -->
<g id="edge50" class="edge">
<title>15&#45;&gt;16</title>
<path fill="none" stroke="grey" stroke-width="2" d="M859.96,-143.7C850.94,-135.05 839.88,-124.45 830.06,-115.03"/>
<polygon fill="grey" stroke="grey" stroke-width="2" points="832.48,-112.5 822.84,-108.1 827.63,-117.55 832.48,-112.5"/>
</g>
<!-- 15&#45;&gt;17 -->
<g id="edge55" class="edge">
<title>15&#45;&gt;17</title>
<path fill="none" stroke="grey" stroke-width="2" d="M901.24,-143.7C913.19,-134.8 927.92,-123.82 940.85,-114.2"/>
<polygon fill="grey" stroke="grey" stroke-width="2" points="943.1,-116.88 949.03,-108.1 938.92,-111.27 943.1,-116.88"/>
</g>
<!-- 16&#45;&gt;0 -->
<g id="edge8" class="edge">
<title>16&#45;&gt;0</title>
<path fill="none" stroke="grey" stroke-width="2" d="M805,-71.7C805,-63.98 805,-54.71 805,-46.11"/>
<polygon fill="grey" stroke="grey" stroke-width="2" points="808.5,-46.1 805,-36.1 801.5,-46.1 808.5,-46.1"/>
</g>
<!-- 17&#45;&gt;0 -->
<g id="edge9" class="edge">
<title>17&#45;&gt;0</title>
<path fill="none" stroke="grey" stroke-width="2" d="M931.15,-71.88C908.22,-62.26 879.42,-50.19 855.13,-40.01"/>
<polygon fill="grey" stroke="grey" stroke-width="2" points="856.3,-36.71 845.72,-36.07 853.59,-43.16 856.3,-36.71"/>
</g>
</g>
</svg>
