<?xml version="1.0" encoding="UTF-8" standalone="no"?>
<!DOCTYPE svg PUBLIC "-//W3C//DTD SVG 1.1//EN"
 "http://www.w3.org/Graphics/SVG/1.1/DTD/svg11.dtd">
<!-- Generated by graphviz version 2.49.1 (20211004.0028)
 -->
<!-- Title: snakemake_dag Pages: 1 -->
<svg width="1724pt" height="404pt"
 viewBox="0.00 0.00 1723.50 404.00" xmlns="http://www.w3.org/2000/svg" xmlns:xlink="http://www.w3.org/1999/xlink">
<g id="graph0" class="graph" transform="scale(1 1) rotate(0) translate(4 400)">
<title>snakemake_dag</title>
<polygon fill="white" stroke="transparent" points="-4,4 -4,-400 1719.5,-400 1719.5,4 -4,4"/>
<!-- 0 -->
<g id="node1" class="node">
<title>0</title>
<path fill="none" stroke="#97d856" stroke-width="2" d="M812.5,-36C812.5,-36 741.5,-36 741.5,-36 735.5,-36 729.5,-30 729.5,-24 729.5,-24 729.5,-12 729.5,-12 729.5,-6 735.5,0 741.5,0 741.5,0 812.5,0 812.5,0 818.5,0 824.5,-6 824.5,-12 824.5,-12 824.5,-24 824.5,-24 824.5,-30 818.5,-36 812.5,-36"/>
<text text-anchor="middle" x="777" y="-15.5" font-family="sans" font-size="10.00">make_summary</text>
</g>
<!-- 1 -->
<g id="node2" class="node">
<title>1</title>
<path fill="none" stroke="#567bd8" stroke-width="2" d="M243.5,-108C243.5,-108 200.5,-108 200.5,-108 194.5,-108 188.5,-102 188.5,-96 188.5,-96 188.5,-84 188.5,-84 188.5,-78 194.5,-72 200.5,-72 200.5,-72 243.5,-72 243.5,-72 249.5,-72 255.5,-78 255.5,-84 255.5,-84 255.5,-96 255.5,-96 255.5,-102 249.5,-108 243.5,-108"/>
<text text-anchor="middle" x="222" y="-87.5" font-family="sans" font-size="10.00">make_dag</text>
</g>
<!-- 1&#45;&gt;0 -->
<g id="edge1" class="edge">
<title>1&#45;&gt;0</title>
<path fill="none" stroke="grey" stroke-width="2" d="M255.52,-74.74C258.69,-73.7 261.88,-72.76 265,-72 426.44,-32.52 623.52,-22.43 719.27,-19.87"/>
<polygon fill="grey" stroke="grey" stroke-width="2" points="719.41,-23.36 729.32,-19.61 719.24,-16.37 719.41,-23.36"/>
</g>
<!-- 2 -->
<g id="node3" class="node">
<title>2</title>
<path fill="none" stroke="#b6d856" stroke-width="2" d="M372,-108C372,-108 286,-108 286,-108 280,-108 274,-102 274,-96 274,-96 274,-84 274,-84 274,-78 280,-72 286,-72 286,-72 372,-72 372,-72 378,-72 384,-78 384,-84 384,-84 384,-96 384,-96 384,-102 378,-108 372,-108"/>
<text text-anchor="middle" x="329" y="-87.5" font-family="sans" font-size="10.00">get_mut_bind_expr</text>
</g>
<!-- 2&#45;&gt;0 -->
<g id="edge2" class="edge">
<title>2&#45;&gt;0</title>
<path fill="none" stroke="grey" stroke-width="2" d="M384.06,-73.92C387.07,-73.23 390.07,-72.59 393,-72 507.69,-48.94 643.67,-32.76 719.15,-24.75"/>
<polygon fill="grey" stroke="grey" stroke-width="2" points="719.81,-28.2 729.39,-23.67 719.08,-21.24 719.81,-28.2"/>
</g>
<!-- 3 -->
<g id="node4" class="node">
<title>3</title>
<path fill="none" stroke="#78d856" stroke-width="2" d="M530,-108C530,-108 414,-108 414,-108 408,-108 402,-102 402,-96 402,-96 402,-84 402,-84 402,-78 408,-72 414,-72 414,-72 530,-72 530,-72 536,-72 542,-78 542,-84 542,-84 542,-96 542,-96 542,-102 536,-108 530,-108"/>
<text text-anchor="middle" x="472" y="-87.5" font-family="sans" font-size="10.00">get_delta_mut_bind_expr</text>
</g>
<!-- 3&#45;&gt;0 -->
<g id="edge3" class="edge">
<title>3&#45;&gt;0</title>
<path fill="none" stroke="grey" stroke-width="2" d="M542.36,-72.85C596.01,-60.54 669,-43.79 719.26,-32.25"/>
<polygon fill="grey" stroke="grey" stroke-width="2" points="720.34,-35.59 729.31,-29.95 718.78,-28.77 720.34,-35.59"/>
</g>
<!-- 4 -->
<g id="node5" class="node">
<title>4</title>
<path fill="none" stroke="#56d87b" stroke-width="2" d="M674,-324C674,-324 554,-324 554,-324 548,-324 542,-318 542,-312 542,-312 542,-300 542,-300 542,-294 548,-288 554,-288 554,-288 674,-288 674,-288 680,-288 686,-294 686,-300 686,-300 686,-312 686,-312 686,-318 680,-324 674,-324"/>
<text text-anchor="middle" x="614" y="-303.5" font-family="sans" font-size="10.00">process_ccs_Wuhan_Hu_1</text>
</g>
<!-- 4&#45;&gt;0 -->
<g id="edge4" class="edge">
<title>4&#45;&gt;0</title>
<path fill="none" stroke="grey" stroke-width="2" d="M614.58,-287.76C616.81,-246.17 627.73,-138.8 681,-72 691.42,-58.93 705.98,-48.6 720.62,-40.65"/>
<polygon fill="grey" stroke="grey" stroke-width="2" points="722.39,-43.68 729.71,-36.01 719.21,-37.44 722.39,-43.68"/>
</g>
<!-- 16 -->
<g id="node17" class="node">
<title>16</title>
<path fill="none" stroke="#56b9d8" stroke-width="2" d="M903.5,-252C903.5,-252 838.5,-252 838.5,-252 832.5,-252 826.5,-246 826.5,-240 826.5,-240 826.5,-228 826.5,-228 826.5,-222 832.5,-216 838.5,-216 838.5,-216 903.5,-216 903.5,-216 909.5,-216 915.5,-222 915.5,-228 915.5,-228 915.5,-240 915.5,-240 915.5,-246 909.5,-252 903.5,-252"/>
<text text-anchor="middle" x="871" y="-231.5" font-family="sans" font-size="10.00">count_variants</text>
</g>
<!-- 4&#45;&gt;16 -->
<g id="edge46" class="edge">
<title>4&#45;&gt;16</title>
<path fill="none" stroke="grey" stroke-width="2" d="M676.54,-287.97C719.37,-276.3 775.6,-260.98 816.58,-249.82"/>
<polygon fill="grey" stroke="grey" stroke-width="2" points="817.66,-253.16 826.39,-247.15 815.82,-246.4 817.66,-253.16"/>
</g>
<!-- 17 -->
<g id="node18" class="node">
<title>17</title>
<path fill="none" stroke="#56d8d8" stroke-width="2" d="M745,-180C745,-180 693,-180 693,-180 687,-180 681,-174 681,-168 681,-168 681,-156 681,-156 681,-150 687,-144 693,-144 693,-144 745,-144 745,-144 751,-144 757,-150 757,-156 757,-156 757,-168 757,-168 757,-174 751,-180 745,-180"/>
<text text-anchor="middle" x="719" y="-159.5" font-family="sans" font-size="10.00">fit_titrations</text>
</g>
<!-- 4&#45;&gt;17 -->
<g id="edge50" class="edge">
<title>4&#45;&gt;17</title>
<path fill="none" stroke="grey" stroke-width="2" d="M626.67,-287.87C644.95,-263.14 678.89,-217.24 700.14,-188.51"/>
<polygon fill="grey" stroke="grey" stroke-width="2" points="703.16,-190.31 706.29,-180.19 697.53,-186.15 703.16,-190.31"/>
</g>
<!-- 18 -->
<g id="node19" class="node">
<title>18</title>
<path fill="none" stroke="#d8b456" stroke-width="2" d="M882.5,-180C882.5,-180 787.5,-180 787.5,-180 781.5,-180 775.5,-174 775.5,-168 775.5,-168 775.5,-156 775.5,-156 775.5,-150 781.5,-144 787.5,-144 787.5,-144 882.5,-144 882.5,-144 888.5,-144 894.5,-150 894.5,-156 894.5,-156 894.5,-168 894.5,-168 894.5,-174 888.5,-180 882.5,-180"/>
<text text-anchor="middle" x="835" y="-159.5" font-family="sans" font-size="10.00">calculate_expression</text>
</g>
<!-- 4&#45;&gt;18 -->
<g id="edge55" class="edge">
<title>4&#45;&gt;18</title>
<path fill="none" stroke="grey" stroke-width="2" d="M640.66,-287.87C680.48,-262.28 755.55,-214.05 799.82,-185.6"/>
<polygon fill="grey" stroke="grey" stroke-width="2" points="801.73,-188.54 808.25,-180.19 797.94,-182.65 801.73,-188.54"/>
</g>
<!-- 5 -->
<g id="node6" class="node">
<title>5</title>
<path fill="none" stroke="#59d856" stroke-width="2" d="M1462.5,-396C1462.5,-396 1263.5,-396 1263.5,-396 1257.5,-396 1251.5,-390 1251.5,-384 1251.5,-384 1251.5,-372 1251.5,-372 1251.5,-366 1257.5,-360 1263.5,-360 1263.5,-360 1462.5,-360 1462.5,-360 1468.5,-360 1474.5,-366 1474.5,-372 1474.5,-372 1474.5,-384 1474.5,-384 1474.5,-390 1468.5,-396 1462.5,-396"/>
<text text-anchor="middle" x="1363" y="-381" font-family="sans" font-size="10.00">get_ccs</text>
<text text-anchor="middle" x="1363" y="-370" font-family="sans" font-size="10.00">pacbioRun: pool1_Wuhan_Hu_1_210701_A</text>
</g>
<!-- 5&#45;&gt;4 -->
<g id="edge14" class="edge">
<title>5&#45;&gt;4</title>
<path fill="none" stroke="grey" stroke-width="2" d="M1251.29,-361C1248.16,-360.65 1245.06,-360.32 1242,-360 1002.96,-335.38 938.14,-356.51 696.49,-324.09"/>
<polygon fill="grey" stroke="grey" stroke-width="2" points="696.72,-320.59 686.34,-322.71 695.77,-327.52 696.72,-320.59"/>
</g>
<!-- 13 -->
<g id="node14" class="node">
<title>13</title>
<path fill="none" stroke="#d87556" stroke-width="2" d="M803.5,-324C803.5,-324 716.5,-324 716.5,-324 710.5,-324 704.5,-318 704.5,-312 704.5,-312 704.5,-300 704.5,-300 704.5,-294 710.5,-288 716.5,-288 716.5,-288 803.5,-288 803.5,-288 809.5,-288 815.5,-294 815.5,-300 815.5,-300 815.5,-312 815.5,-312 815.5,-318 809.5,-324 803.5,-324"/>
<text text-anchor="middle" x="760" y="-303.5" font-family="sans" font-size="10.00">process_ccs_E484K</text>
</g>
<!-- 5&#45;&gt;13 -->
<g id="edge22" class="edge">
<title>5&#45;&gt;13</title>
<path fill="none" stroke="grey" stroke-width="2" d="M1251.28,-361.08C1248.15,-360.71 1245.06,-360.35 1242,-360 1060.41,-339.42 1010.07,-355.08 825.57,-323.91"/>
<polygon fill="grey" stroke="grey" stroke-width="2" points="825.98,-320.42 815.53,-322.19 824.8,-327.32 825.98,-320.42"/>
</g>
<!-- 14 -->
<g id="node15" class="node">
<title>14</title>
<path fill="none" stroke="#d89556" stroke-width="2" d="M934,-324C934,-324 846,-324 846,-324 840,-324 834,-318 834,-312 834,-312 834,-300 834,-300 834,-294 840,-288 846,-288 846,-288 934,-288 934,-288 940,-288 946,-294 946,-300 946,-300 946,-312 946,-312 946,-318 940,-324 934,-324"/>
<text text-anchor="middle" x="890" y="-303.5" font-family="sans" font-size="10.00">process_ccs_N501Y</text>
</g>
<!-- 5&#45;&gt;14 -->
<g id="edge30" class="edge">
<title>5&#45;&gt;14</title>
<path fill="none" stroke="grey" stroke-width="2" d="M1251.26,-361.24C1248.14,-360.82 1245.05,-360.41 1242,-360 1117.8,-343.49 1082.99,-348.06 956.35,-324.13"/>
<polygon fill="grey" stroke="grey" stroke-width="2" points="956.75,-320.64 946.27,-322.2 955.43,-327.51 956.75,-320.64"/>
</g>
<!-- 15 -->
<g id="node16" class="node">
<title>15</title>
<path fill="none" stroke="#56d8b9" stroke-width="2" d="M1063.5,-324C1063.5,-324 976.5,-324 976.5,-324 970.5,-324 964.5,-318 964.5,-312 964.5,-312 964.5,-300 964.5,-300 964.5,-294 970.5,-288 976.5,-288 976.5,-288 1063.5,-288 1063.5,-288 1069.5,-288 1075.5,-294 1075.5,-300 1075.5,-300 1075.5,-312 1075.5,-312 1075.5,-318 1069.5,-324 1063.5,-324"/>
<text text-anchor="middle" x="1020" y="-303.5" font-family="sans" font-size="10.00">process_ccs_B1351</text>
</g>
<!-- 5&#45;&gt;15 -->
<g id="edge38" class="edge">
<title>5&#45;&gt;15</title>
<path fill="none" stroke="grey" stroke-width="2" d="M1279.53,-359.97C1219.89,-347.79 1140.75,-331.64 1085.61,-320.39"/>
<polygon fill="grey" stroke="grey" stroke-width="2" points="1086.1,-316.92 1075.61,-318.35 1084.7,-323.78 1086.1,-316.92"/>
</g>
<!-- 6 -->
<g id="node7" class="node">
<title>6</title>
<path fill="none" stroke="#59d856" stroke-width="2" d="M1703.5,-396C1703.5,-396 1504.5,-396 1504.5,-396 1498.5,-396 1492.5,-390 1492.5,-384 1492.5,-384 1492.5,-372 1492.5,-372 1492.5,-366 1498.5,-360 1504.5,-360 1504.5,-360 1703.5,-360 1703.5,-360 1709.5,-360 1715.5,-366 1715.5,-372 1715.5,-372 1715.5,-384 1715.5,-384 1715.5,-390 1709.5,-396 1703.5,-396"/>
<text text-anchor="middle" x="1604" y="-381" font-family="sans" font-size="10.00">get_ccs</text>
<text text-anchor="middle" x="1604" y="-370" font-family="sans" font-size="10.00">pacbioRun: pool2_Wuhan_Hu_1_210701_A</text>
</g>
<!-- 6&#45;&gt;4 -->
<g id="edge15" class="edge">
<title>6&#45;&gt;4</title>
<path fill="none" stroke="grey" stroke-width="2" d="M1492.26,-360.81C1489.48,-360.53 1486.72,-360.25 1484,-360 1137.82,-327.66 1045,-367.42 696.45,-324.06"/>
<polygon fill="grey" stroke="grey" stroke-width="2" points="696.68,-320.56 686.33,-322.78 695.81,-327.5 696.68,-320.56"/>
</g>
<!-- 6&#45;&gt;13 -->
<g id="edge23" class="edge">
<title>6&#45;&gt;13</title>
<path fill="none" stroke="grey" stroke-width="2" d="M1492.26,-360.85C1489.48,-360.55 1486.72,-360.27 1484,-360 1195.35,-331.72 1116.56,-368.5 825.51,-323.86"/>
<polygon fill="grey" stroke="grey" stroke-width="2" points="825.93,-320.38 815.51,-322.3 824.86,-327.3 825.93,-320.38"/>
</g>
<!-- 6&#45;&gt;14 -->
<g id="edge31" class="edge">
<title>6&#45;&gt;14</title>
<path fill="none" stroke="grey" stroke-width="2" d="M1492.25,-360.9C1489.47,-360.58 1486.72,-360.28 1484,-360 1252.95,-335.8 1189.37,-361.24 956.38,-324.04"/>
<polygon fill="grey" stroke="grey" stroke-width="2" points="956.66,-320.54 946.23,-322.4 955.54,-327.45 956.66,-320.54"/>
</g>
<!-- 6&#45;&gt;15 -->
<g id="edge39" class="edge">
<title>6&#45;&gt;15</title>
<path fill="none" stroke="grey" stroke-width="2" d="M1492.23,-361.07C1489.46,-360.7 1486.71,-360.35 1484,-360 1342.29,-341.87 1175.83,-323.59 1085.83,-313.95"/>
<polygon fill="grey" stroke="grey" stroke-width="2" points="1086.08,-310.46 1075.77,-312.88 1085.34,-317.42 1086.08,-310.46"/>
</g>
<!-- 7 -->
<g id="node8" class="node">
<title>7</title>
<path fill="none" stroke="#59d856" stroke-width="2" d="M178,-396C178,-396 12,-396 12,-396 6,-396 0,-390 0,-384 0,-384 0,-372 0,-372 0,-366 6,-360 12,-360 12,-360 178,-360 178,-360 184,-360 190,-366 190,-372 190,-372 190,-384 190,-384 190,-390 184,-396 178,-396"/>
<text text-anchor="middle" x="95" y="-381" font-family="sans" font-size="10.00">get_ccs</text>
<text text-anchor="middle" x="95" y="-370" font-family="sans" font-size="10.00">pacbioRun: pool1_E484K_210701_A</text>
</g>
<!-- 7&#45;&gt;4 -->
<g id="edge16" class="edge">
<title>7&#45;&gt;4</title>
<path fill="none" stroke="grey" stroke-width="2" d="M190.19,-361.3C193.16,-360.86 196.1,-360.42 199,-360 314.34,-343.21 448.16,-326.65 531.96,-316.62"/>
<polygon fill="grey" stroke="grey" stroke-width="2" points="532.41,-320.09 541.92,-315.43 531.58,-313.14 532.41,-320.09"/>
</g>
<!-- 7&#45;&gt;13 -->
<g id="edge24" class="edge">
<title>7&#45;&gt;13</title>
<path fill="none" stroke="grey" stroke-width="2" d="M190.17,-361.09C193.14,-360.71 196.09,-360.34 199,-360 415.29,-334.52 475.2,-359.36 694.58,-323.86"/>
<polygon fill="grey" stroke="grey" stroke-width="2" points="695.17,-327.31 704.48,-322.24 694.04,-320.4 695.17,-327.31"/>
</g>
<!-- 7&#45;&gt;14 -->
<g id="edge32" class="edge">
<title>7&#45;&gt;14</title>
<path fill="none" stroke="grey" stroke-width="2" d="M190.16,-361.04C193.14,-360.67 196.09,-360.32 199,-360 475.56,-329.52 549.09,-366.9 824,-324 824.1,-323.98 824.2,-323.97 824.31,-323.95"/>
<polygon fill="grey" stroke="grey" stroke-width="2" points="824.76,-327.43 833.99,-322.22 823.53,-320.54 824.76,-327.43"/>
</g>
<!-- 7&#45;&gt;15 -->
<g id="edge40" class="edge">
<title>7&#45;&gt;15</title>
<path fill="none" stroke="grey" stroke-width="2" d="M190.16,-361C193.14,-360.64 196.09,-360.31 199,-360 530.27,-325.15 620.72,-373.86 954.54,-323.84"/>
<polygon fill="grey" stroke="grey" stroke-width="2" points="955.13,-327.29 964.49,-322.33 954.08,-320.37 955.13,-327.29"/>
</g>
<!-- 8 -->
<g id="node9" class="node">
<title>8</title>
<path fill="none" stroke="#59d856" stroke-width="2" d="M386,-396C386,-396 220,-396 220,-396 214,-396 208,-390 208,-384 208,-384 208,-372 208,-372 208,-366 214,-360 220,-360 220,-360 386,-360 386,-360 392,-360 398,-366 398,-372 398,-372 398,-384 398,-384 398,-390 392,-396 386,-396"/>
<text text-anchor="middle" x="303" y="-381" font-family="sans" font-size="10.00">get_ccs</text>
<text text-anchor="middle" x="303" y="-370" font-family="sans" font-size="10.00">pacbioRun: pool2_E484K_210701_A</text>
</g>
<!-- 8&#45;&gt;4 -->
<g id="edge17" class="edge">
<title>8&#45;&gt;4</title>
<path fill="none" stroke="grey" stroke-width="2" d="M378.68,-359.97C425.09,-349.52 484.52,-336.14 532.05,-325.45"/>
<polygon fill="grey" stroke="grey" stroke-width="2" points="533.01,-328.82 542,-323.21 531.47,-321.99 533.01,-328.82"/>
</g>
<!-- 8&#45;&gt;13 -->
<g id="edge25" class="edge">
<title>8&#45;&gt;13</title>
<path fill="none" stroke="grey" stroke-width="2" d="M398.19,-361.29C401.16,-360.85 404.1,-360.42 407,-360 531.43,-342.06 566.56,-348.04 694.27,-323.99"/>
<polygon fill="grey" stroke="grey" stroke-width="2" points="695.27,-327.36 704.44,-322.04 693.96,-320.48 695.27,-327.36"/>
</g>
<!-- 8&#45;&gt;14 -->
<g id="edge33" class="edge">
<title>8&#45;&gt;14</title>
<path fill="none" stroke="grey" stroke-width="2" d="M398.17,-361.15C401.15,-360.75 404.1,-360.36 407,-360 591.59,-336.98 640.63,-355.31 824,-324 824.1,-323.98 824.2,-323.97 824.31,-323.95"/>
<polygon fill="grey" stroke="grey" stroke-width="2" points="824.8,-327.42 833.97,-322.11 823.49,-320.54 824.8,-327.42"/>
</g>
<!-- 8&#45;&gt;15 -->
<g id="edge41" class="edge">
<title>8&#45;&gt;15</title>
<path fill="none" stroke="grey" stroke-width="2" d="M398.16,-361.07C401.14,-360.69 404.09,-360.33 407,-360 646.19,-332.66 712.27,-362.23 954.31,-323.9"/>
<polygon fill="grey" stroke="grey" stroke-width="2" points="955.16,-327.3 964.48,-322.26 954.05,-320.39 955.16,-327.3"/>
</g>
<!-- 9 -->
<g id="node10" class="node">
<title>9</title>
<path fill="none" stroke="#59d856" stroke-width="2" d="M595.5,-396C595.5,-396 428.5,-396 428.5,-396 422.5,-396 416.5,-390 416.5,-384 416.5,-384 416.5,-372 416.5,-372 416.5,-366 422.5,-360 428.5,-360 428.5,-360 595.5,-360 595.5,-360 601.5,-360 607.5,-366 607.5,-372 607.5,-372 607.5,-384 607.5,-384 607.5,-390 601.5,-396 595.5,-396"/>
<text text-anchor="middle" x="512" y="-381" font-family="sans" font-size="10.00">get_ccs</text>
<text text-anchor="middle" x="512" y="-370" font-family="sans" font-size="10.00">pacbioRun: pool1_N501Y_210701_A</text>
</g>
<!-- 9&#45;&gt;4 -->
<g id="edge18" class="edge">
<title>9&#45;&gt;4</title>
<path fill="none" stroke="grey" stroke-width="2" d="M536.95,-359.88C550.04,-350.89 566.26,-339.76 580.44,-330.03"/>
<polygon fill="grey" stroke="grey" stroke-width="2" points="582.69,-332.73 588.95,-324.19 578.73,-326.96 582.69,-332.73"/>
</g>
<!-- 9&#45;&gt;13 -->
<g id="edge26" class="edge">
<title>9&#45;&gt;13</title>
<path fill="none" stroke="grey" stroke-width="2" d="M572.35,-359.97C609.33,-349.53 656.68,-336.16 694.56,-325.47"/>
<polygon fill="grey" stroke="grey" stroke-width="2" points="695.81,-328.76 704.48,-322.67 693.9,-322.02 695.81,-328.76"/>
</g>
<!-- 9&#45;&gt;14 -->
<g id="edge34" class="edge">
<title>9&#45;&gt;14</title>
<path fill="none" stroke="grey" stroke-width="2" d="M607.63,-361.17C691.41,-347.23 803.01,-328.48 824,-324 824.1,-323.98 824.2,-323.96 824.3,-323.94"/>
<polygon fill="grey" stroke="grey" stroke-width="2" points="824.91,-327.39 833.91,-321.79 823.38,-320.55 824.91,-327.39"/>
</g>
<!-- 9&#45;&gt;15 -->
<g id="edge42" class="edge">
<title>9&#45;&gt;15</title>
<path fill="none" stroke="grey" stroke-width="2" d="M607.74,-361.14C610.52,-360.75 613.28,-360.37 616,-360 762.93,-340.21 804.19,-350.77 954.4,-323.94"/>
<polygon fill="grey" stroke="grey" stroke-width="2" points="955.24,-327.34 964.45,-322.11 953.99,-320.45 955.24,-327.34"/>
</g>
<!-- 10 -->
<g id="node11" class="node">
<title>10</title>
<path fill="none" stroke="#59d856" stroke-width="2" d="M804.5,-396C804.5,-396 637.5,-396 637.5,-396 631.5,-396 625.5,-390 625.5,-384 625.5,-384 625.5,-372 625.5,-372 625.5,-366 631.5,-360 637.5,-360 637.5,-360 804.5,-360 804.5,-360 810.5,-360 816.5,-366 816.5,-372 816.5,-372 816.5,-384 816.5,-384 816.5,-390 810.5,-396 804.5,-396"/>
<text text-anchor="middle" x="721" y="-381" font-family="sans" font-size="10.00">get_ccs</text>
<text text-anchor="middle" x="721" y="-370" font-family="sans" font-size="10.00">pacbioRun: pool2_N501Y_210701_A</text>
</g>
<!-- 10&#45;&gt;4 -->
<g id="edge19" class="edge">
<title>10&#45;&gt;4</title>
<path fill="none" stroke="grey" stroke-width="2" d="M694.82,-359.88C680.96,-350.81 663.76,-339.55 648.79,-329.76"/>
<polygon fill="grey" stroke="grey" stroke-width="2" points="650.56,-326.74 640.28,-324.19 646.73,-332.59 650.56,-326.74"/>
</g>
<!-- 10&#45;&gt;13 -->
<g id="edge27" class="edge">
<title>10&#45;&gt;13</title>
<path fill="none" stroke="grey" stroke-width="2" d="M730.64,-359.7C735.13,-351.64 740.56,-341.89 745.52,-332.98"/>
<polygon fill="grey" stroke="grey" stroke-width="2" points="748.66,-334.54 750.47,-324.1 742.55,-331.14 748.66,-334.54"/>
</g>
<!-- 10&#45;&gt;14 -->
<g id="edge35" class="edge">
<title>10&#45;&gt;14</title>
<path fill="none" stroke="grey" stroke-width="2" d="M762.34,-359.88C785.55,-350.26 814.69,-338.19 839.27,-328.01"/>
<polygon fill="grey" stroke="grey" stroke-width="2" points="840.89,-331.13 848.79,-324.07 838.21,-324.66 840.89,-331.13"/>
</g>
<!-- 10&#45;&gt;15 -->
<g id="edge43" class="edge">
<title>10&#45;&gt;15</title>
<path fill="none" stroke="grey" stroke-width="2" d="M799.15,-359.98C842.21,-350.44 896.84,-338.08 954.35,-324.12"/>
<polygon fill="grey" stroke="grey" stroke-width="2" points="955.47,-327.45 964.36,-321.68 953.82,-320.65 955.47,-327.45"/>
</g>
<!-- 11 -->
<g id="node12" class="node">
<title>11</title>
<path fill="none" stroke="#59d856" stroke-width="2" d="M1013,-396C1013,-396 847,-396 847,-396 841,-396 835,-390 835,-384 835,-384 835,-372 835,-372 835,-366 841,-360 847,-360 847,-360 1013,-360 1013,-360 1019,-360 1025,-366 1025,-372 1025,-372 1025,-384 1025,-384 1025,-390 1019,-396 1013,-396"/>
<text text-anchor="middle" x="930" y="-381" font-family="sans" font-size="10.00">get_ccs</text>
<text text-anchor="middle" x="930" y="-370" font-family="sans" font-size="10.00">pacbioRun: pool1_B1351_210701_A</text>
</g>
<!-- 11&#45;&gt;4 -->
<g id="edge20" class="edge">
<title>11&#45;&gt;4</title>
<path fill="none" stroke="grey" stroke-width="2" d="M853.1,-359.97C805.5,-349.42 744.43,-335.89 695.92,-325.15"/>
<polygon fill="grey" stroke="grey" stroke-width="2" points="696.6,-321.71 686.08,-322.97 695.09,-328.55 696.6,-321.71"/>
</g>
<!-- 11&#45;&gt;13 -->
<g id="edge28" class="edge">
<title>11&#45;&gt;13</title>
<path fill="none" stroke="grey" stroke-width="2" d="M888.41,-359.88C864.97,-350.22 835.5,-338.09 810.7,-327.88"/>
<polygon fill="grey" stroke="grey" stroke-width="2" points="812.03,-324.64 801.45,-324.07 809.37,-331.11 812.03,-324.64"/>
</g>
<!-- 11&#45;&gt;14 -->
<g id="edge36" class="edge">
<title>11&#45;&gt;14</title>
<path fill="none" stroke="grey" stroke-width="2" d="M920.11,-359.7C915.51,-351.64 909.94,-341.89 904.85,-332.98"/>
<polygon fill="grey" stroke="grey" stroke-width="2" points="907.77,-331.05 899.77,-324.1 901.7,-334.52 907.77,-331.05"/>
</g>
<!-- 11&#45;&gt;15 -->
<g id="edge44" class="edge">
<title>11&#45;&gt;15</title>
<path fill="none" stroke="grey" stroke-width="2" d="M952.25,-359.7C963.58,-350.88 977.53,-340.03 989.82,-330.47"/>
<polygon fill="grey" stroke="grey" stroke-width="2" points="992.26,-333.01 998.01,-324.1 987.97,-327.48 992.26,-333.01"/>
</g>
<!-- 12 -->
<g id="node13" class="node">
<title>12</title>
<path fill="none" stroke="#59d856" stroke-width="2" d="M1221,-396C1221,-396 1055,-396 1055,-396 1049,-396 1043,-390 1043,-384 1043,-384 1043,-372 1043,-372 1043,-366 1049,-360 1055,-360 1055,-360 1221,-360 1221,-360 1227,-360 1233,-366 1233,-372 1233,-372 1233,-384 1233,-384 1233,-390 1227,-396 1221,-396"/>
<text text-anchor="middle" x="1138" y="-381" font-family="sans" font-size="10.00">get_ccs</text>
<text text-anchor="middle" x="1138" y="-370" font-family="sans" font-size="10.00">pacbioRun: pool2_B1351_210701_A</text>
</g>
<!-- 12&#45;&gt;4 -->
<g id="edge21" class="edge">
<title>12&#45;&gt;4</title>
<path fill="none" stroke="grey" stroke-width="2" d="M1042.82,-361.22C1039.85,-360.8 1036.9,-360.39 1034,-360 887.07,-340.21 846.4,-347.27 696.4,-324.13"/>
<polygon fill="grey" stroke="grey" stroke-width="2" points="696.78,-320.65 686.36,-322.56 695.7,-327.57 696.78,-320.65"/>
</g>
<!-- 12&#45;&gt;13 -->
<g id="edge29" class="edge">
<title>12&#45;&gt;13</title>
<path fill="none" stroke="grey" stroke-width="2" d="M1042.86,-361.33C966.12,-348.62 865.69,-331.82 825.47,-323.91"/>
<polygon fill="grey" stroke="grey" stroke-width="2" points="826.09,-320.46 815.59,-321.88 824.68,-327.32 826.09,-320.46"/>
</g>
<!-- 12&#45;&gt;14 -->
<g id="edge37" class="edge">
<title>12&#45;&gt;14</title>
<path fill="none" stroke="grey" stroke-width="2" d="M1077.65,-359.97C1040.93,-349.6 993.99,-336.35 956.25,-325.7"/>
<polygon fill="grey" stroke="grey" stroke-width="2" points="956.94,-322.26 946.36,-322.91 955.03,-328.99 956.94,-322.26"/>
</g>
<!-- 12&#45;&gt;15 -->
<g id="edge45" class="edge">
<title>12&#45;&gt;15</title>
<path fill="none" stroke="grey" stroke-width="2" d="M1109.13,-359.88C1093.71,-350.72 1074.52,-339.34 1057.9,-329.48"/>
<polygon fill="grey" stroke="grey" stroke-width="2" points="1059.36,-326.28 1048.98,-324.19 1055.79,-332.3 1059.36,-326.28"/>
</g>
<!-- 13&#45;&gt;0 -->
<g id="edge5" class="edge">
<title>13&#45;&gt;0</title>
<path fill="none" stroke="grey" stroke-width="2" d="M740.18,-287.92C710.1,-259.81 657.83,-201.2 672,-144 680.7,-108.88 686.87,-99.82 710,-72 719.14,-61 730.9,-50.77 742.01,-42.29"/>
<polygon fill="grey" stroke="grey" stroke-width="2" points="744.35,-44.91 750.33,-36.16 740.2,-39.28 744.35,-44.91"/>
</g>
<!-- 13&#45;&gt;16 -->
<g id="edge47" class="edge">
<title>13&#45;&gt;16</title>
<path fill="none" stroke="grey" stroke-width="2" d="M787.15,-287.88C801.53,-278.81 819.38,-267.55 834.91,-257.76"/>
<polygon fill="grey" stroke="grey" stroke-width="2" points="837.15,-260.48 843.74,-252.19 833.42,-254.56 837.15,-260.48"/>
</g>
<!-- 13&#45;&gt;17 -->
<g id="edge51" class="edge">
<title>13&#45;&gt;17</title>
<path fill="none" stroke="grey" stroke-width="2" d="M755.05,-287.87C748.04,-263.56 735.12,-218.82 726.8,-190.01"/>
<polygon fill="grey" stroke="grey" stroke-width="2" points="730.1,-188.83 723.96,-180.19 723.37,-190.77 730.1,-188.83"/>
</g>
<!-- 13&#45;&gt;18 -->
<g id="edge56" class="edge">
<title>13&#45;&gt;18</title>
<path fill="none" stroke="grey" stroke-width="2" d="M769.05,-287.87C782,-263.35 805.93,-218.03 821.13,-189.26"/>
<polygon fill="grey" stroke="grey" stroke-width="2" points="824.35,-190.67 825.92,-180.19 818.16,-187.4 824.35,-190.67"/>
</g>
<!-- 14&#45;&gt;0 -->
<g id="edge6" class="edge">
<title>14&#45;&gt;0</title>
<path fill="none" stroke="grey" stroke-width="2" d="M913.3,-287.82C923.9,-278.54 935.32,-266.09 941,-252 959.31,-206.56 937.17,-189.49 919,-144 905.73,-110.78 908.3,-97.3 883,-72 869.31,-58.31 851.37,-47.53 834.15,-39.36"/>
<polygon fill="grey" stroke="grey" stroke-width="2" points="835.24,-36.01 824.69,-35.09 832.36,-42.39 835.24,-36.01"/>
</g>
<!-- 14&#45;&gt;16 -->
<g id="edge48" class="edge">
<title>14&#45;&gt;16</title>
<path fill="none" stroke="grey" stroke-width="2" d="M885.3,-287.7C883.19,-279.9 880.64,-270.51 878.28,-261.83"/>
<polygon fill="grey" stroke="grey" stroke-width="2" points="881.64,-260.84 875.64,-252.1 874.88,-262.67 881.64,-260.84"/>
</g>
<!-- 14&#45;&gt;17 -->
<g id="edge52" class="edge">
<title>14&#45;&gt;17</title>
<path fill="none" stroke="grey" stroke-width="2" d="M865.17,-287.98C850.8,-277.9 832.55,-264.65 817,-252 791.18,-231.01 763.22,-205.29 743.8,-186.91"/>
<polygon fill="grey" stroke="grey" stroke-width="2" points="746.2,-184.37 736.54,-180.01 741.38,-189.44 746.2,-184.37"/>
</g>
<!-- 14&#45;&gt;18 -->
<g id="edge57" class="edge">
<title>14&#45;&gt;18</title>
<path fill="none" stroke="grey" stroke-width="2" d="M905.21,-287.92C919.68,-269.48 937.4,-239.58 924,-216 916.64,-203.04 904.71,-192.92 891.95,-185.16"/>
<polygon fill="grey" stroke="grey" stroke-width="2" points="893.47,-181.99 883.03,-180.15 890.04,-188.1 893.47,-181.99"/>
</g>
<!-- 15&#45;&gt;0 -->
<g id="edge7" class="edge">
<title>15&#45;&gt;0</title>
<path fill="none" stroke="grey" stroke-width="2" d="M1016.37,-287.81C1006.55,-245.38 975.63,-134.57 909,-72 888.42,-52.67 859.9,-40.04 834.63,-31.97"/>
<polygon fill="grey" stroke="grey" stroke-width="2" points="835.35,-28.53 824.76,-29 833.33,-35.24 835.35,-28.53"/>
</g>
<!-- 15&#45;&gt;16 -->
<g id="edge49" class="edge">
<title>15&#45;&gt;16</title>
<path fill="none" stroke="grey" stroke-width="2" d="M983.55,-287.88C963.36,-278.39 938.08,-266.51 916.59,-256.42"/>
<polygon fill="grey" stroke="grey" stroke-width="2" points="917.87,-253.15 907.33,-252.07 914.89,-259.49 917.87,-253.15"/>
</g>
<!-- 15&#45;&gt;17 -->
<g id="edge53" class="edge">
<title>15&#45;&gt;17</title>
<path fill="none" stroke="grey" stroke-width="2" d="M998.85,-287.87C986.63,-277.75 971.13,-264.5 958,-252 942.06,-236.83 943.11,-226.92 924,-216 864.15,-181.81 837.44,-198.67 766.87,-179.96"/>
<polygon fill="grey" stroke="grey" stroke-width="2" points="767.66,-176.55 757.09,-177.22 765.77,-183.29 767.66,-176.55"/>
</g>
<!-- 15&#45;&gt;18 -->
<g id="edge58" class="edge">
<title>15&#45;&gt;18</title>
<path fill="none" stroke="grey" stroke-width="2" d="M1007.92,-287.82C993.66,-268.47 968.38,-237 941,-216 924.8,-203.58 905.24,-192.82 887.35,-184.31"/>
<polygon fill="grey" stroke="grey" stroke-width="2" points="888.73,-181.09 878.18,-180.07 885.79,-187.44 888.73,-181.09"/>
</g>
<!-- 16&#45;&gt;0 -->
<g id="edge8" class="edge">
<title>16&#45;&gt;0</title>
<path fill="none" stroke="grey" stroke-width="2" d="M884.56,-215.97C891.56,-206.09 899.37,-193.05 903,-180 907.29,-164.59 907.92,-159.22 903,-144 888.53,-99.25 846.52,-63.42 814.95,-41.79"/>
<polygon fill="grey" stroke="grey" stroke-width="2" points="816.62,-38.69 806.36,-36.07 812.74,-44.52 816.62,-38.69"/>
</g>
<!-- 16&#45;&gt;17 -->
<g id="edge54" class="edge">
<title>16&#45;&gt;17</title>
<path fill="none" stroke="grey" stroke-width="2" d="M833.82,-215.88C813.13,-206.35 787.2,-194.41 765.22,-184.28"/>
<polygon fill="grey" stroke="grey" stroke-width="2" points="766.61,-181.07 756.06,-180.07 763.68,-187.43 766.61,-181.07"/>
</g>
<!-- 16&#45;&gt;18 -->
<g id="edge59" class="edge">
<title>16&#45;&gt;18</title>
<path fill="none" stroke="grey" stroke-width="2" d="M862.1,-215.7C858,-207.73 853.05,-198.1 848.51,-189.26"/>
<polygon fill="grey" stroke="grey" stroke-width="2" points="851.48,-187.4 843.8,-180.1 845.26,-190.6 851.48,-187.4"/>
</g>
<!-- 17&#45;&gt;0 -->
<g id="edge9" class="edge">
<title>17&#45;&gt;0</title>
<path fill="none" stroke="grey" stroke-width="2" d="M715.61,-143.75C712.79,-125.18 710.72,-95.17 721,-72 725.96,-60.83 734.5,-50.89 743.43,-42.72"/>
<polygon fill="grey" stroke="grey" stroke-width="2" points="745.97,-45.16 751.31,-36.01 741.43,-39.83 745.97,-45.16"/>
</g>
<!-- 19 -->
<g id="node20" class="node">
<title>19</title>
<path fill="none" stroke="#d6d856" stroke-width="2" d="M812,-108C812,-108 742,-108 742,-108 736,-108 730,-102 730,-96 730,-96 730,-84 730,-84 730,-78 736,-72 742,-72 742,-72 812,-72 812,-72 818,-72 824,-78 824,-84 824,-84 824,-96 824,-96 824,-102 818,-108 812,-108"/>
<text text-anchor="middle" x="777" y="-87.5" font-family="sans" font-size="10.00">collapse_scores</text>
</g>
<!-- 17&#45;&gt;19 -->
<g id="edge60" class="edge">
<title>17&#45;&gt;19</title>
<path fill="none" stroke="grey" stroke-width="2" d="M733.34,-143.7C740.29,-135.3 748.77,-125.07 756.4,-115.86"/>
<polygon fill="grey" stroke="grey" stroke-width="2" points="759.14,-118.04 762.83,-108.1 753.75,-113.57 759.14,-118.04"/>
</g>
<!-- 18&#45;&gt;0 -->
<g id="edge10" class="edge">
<title>18&#45;&gt;0</title>
<path fill="none" stroke="grey" stroke-width="2" d="M838.39,-143.75C841.21,-125.18 843.28,-95.17 833,-72 828.04,-60.83 819.5,-50.89 810.57,-42.72"/>
<polygon fill="grey" stroke="grey" stroke-width="2" points="812.57,-39.83 802.69,-36.01 808.03,-45.16 812.57,-39.83"/>
</g>
<!-- 18&#45;&gt;19 -->
<g id="edge61" class="edge">
<title>18&#45;&gt;19</title>
<path fill="none" stroke="grey" stroke-width="2" d="M820.66,-143.7C813.71,-135.3 805.23,-125.07 797.6,-115.86"/>
<polygon fill="grey" stroke="grey" stroke-width="2" points="800.25,-113.57 791.17,-108.1 794.86,-118.04 800.25,-113.57"/>
</g>
<!-- 19&#45;&gt;0 -->
<g id="edge11" class="edge">
<title>19&#45;&gt;0</title>
<path fill="none" stroke="grey" stroke-width="2" d="M777,-71.7C777,-63.98 777,-54.71 777,-46.11"/>
<polygon fill="grey" stroke="grey" stroke-width="2" points="780.5,-46.1 777,-36.1 773.5,-46.1 780.5,-46.1"/>
</g>
<!-- 20 -->
<g id="node21" class="node">
<title>20</title>
<path fill="none" stroke="#d85656" stroke-width="2" d="M1207.5,-108C1207.5,-108 1136.5,-108 1136.5,-108 1130.5,-108 1124.5,-102 1124.5,-96 1124.5,-96 1124.5,-84 1124.5,-84 1124.5,-78 1130.5,-72 1136.5,-72 1136.5,-72 1207.5,-72 1207.5,-72 1213.5,-72 1219.5,-78 1219.5,-84 1219.5,-84 1219.5,-96 1219.5,-96 1219.5,-102 1213.5,-108 1207.5,-108"/>
<text text-anchor="middle" x="1172" y="-87.5" font-family="sans" font-size="10.00">get_UShER_tree</text>
</g>
<!-- 20&#45;&gt;0 -->
<g id="edge12" class="edge">
<title>20&#45;&gt;0</title>
<path fill="none" stroke="grey" stroke-width="2" d="M1124.4,-75.38C1119.56,-74.17 1114.69,-73.01 1110,-72 1014.41,-51.35 901.76,-35.08 835.04,-26.27"/>
<polygon fill="grey" stroke="grey" stroke-width="2" points="835.1,-22.75 824.73,-24.92 834.19,-29.69 835.1,-22.75"/>
</g>
<!-- 21 -->
<g id="node22" class="node">
<title>21</title>
<path fill="none" stroke="#569ad8" stroke-width="2" d="M1340,-108C1340,-108 1250,-108 1250,-108 1244,-108 1238,-102 1238,-96 1238,-96 1238,-84 1238,-84 1238,-78 1244,-72 1250,-72 1250,-72 1340,-72 1340,-72 1346,-72 1352,-78 1352,-84 1352,-84 1352,-96 1352,-96 1352,-102 1346,-108 1340,-108"/>
<text text-anchor="middle" x="1295" y="-87.5" font-family="sans" font-size="10.00">get_UShER_ref_files</text>
</g>
<!-- 21&#45;&gt;0 -->
<g id="edge13" class="edge">
<title>21&#45;&gt;0</title>
<path fill="none" stroke="grey" stroke-width="2" d="M1237.87,-73.78C1234.88,-73.14 1231.91,-72.54 1229,-72 1088.68,-45.83 921.31,-30.2 834.95,-23.27"/>
<polygon fill="grey" stroke="grey" stroke-width="2" points="835.07,-19.77 824.82,-22.47 834.52,-26.75 835.07,-19.77"/>
</g>
</g>
</svg>
