<?xml version="1.0" encoding="UTF-8" standalone="no"?>
<!DOCTYPE svg PUBLIC "-//W3C//DTD SVG 1.1//EN"
 "http://www.w3.org/Graphics/SVG/1.1/DTD/svg11.dtd">
<!-- Generated by graphviz version 2.42.3 (20191010.1750)
 -->
<!-- Title: snakemake_dag Pages: 1 -->
<svg width="1716pt" height="260pt"
 viewBox="0.00 0.00 1715.50 260.00" xmlns="http://www.w3.org/2000/svg" xmlns:xlink="http://www.w3.org/1999/xlink">
<g id="graph0" class="graph" transform="scale(1 1) rotate(0) translate(4 256)">
<title>snakemake_dag</title>
<polygon fill="white" stroke="transparent" points="-4,4 -4,-256 1711.5,-256 1711.5,4 -4,4"/>
<!-- 0 -->
<g id="node1" class="node">
<title>0</title>
<path fill="none" stroke="#56d873" stroke-width="2" d="M840.5,-36C840.5,-36 768.5,-36 768.5,-36 762.5,-36 756.5,-30 756.5,-24 756.5,-24 756.5,-12 756.5,-12 756.5,-6 762.5,0 768.5,0 768.5,0 840.5,0 840.5,0 846.5,0 852.5,-6 852.5,-12 852.5,-12 852.5,-24 852.5,-24 852.5,-30 846.5,-36 840.5,-36"/>
<text text-anchor="middle" x="804.5" y="-15.5" font-family="sans" font-size="10.00">make_summary</text>
</g>
<!-- 1 -->
<g id="node2" class="node">
<title>1</title>
<path fill="none" stroke="#d85656" stroke-width="2" d="M598.5,-108C598.5,-108 554.5,-108 554.5,-108 548.5,-108 542.5,-102 542.5,-96 542.5,-96 542.5,-84 542.5,-84 542.5,-78 548.5,-72 554.5,-72 554.5,-72 598.5,-72 598.5,-72 604.5,-72 610.5,-78 610.5,-84 610.5,-84 610.5,-96 610.5,-96 610.5,-102 604.5,-108 598.5,-108"/>
<text text-anchor="middle" x="576.5" y="-87.5" font-family="sans" font-size="10.00">make_dag</text>
</g>
<!-- 1&#45;&gt;0 -->
<g id="edge1" class="edge">
<title>1&#45;&gt;0</title>
<path fill="none" stroke="grey" stroke-width="2" d="M610.66,-75.15C613.63,-74.05 616.61,-72.98 619.5,-72 661.42,-57.75 709.53,-44.04 746.17,-34.14"/>
<polygon fill="grey" stroke="grey" stroke-width="2" points="747.44,-37.43 756.19,-31.46 745.62,-30.67 747.44,-37.43"/>
</g>
<!-- 2 -->
<g id="node3" class="node">
<title>2</title>
<path fill="none" stroke="#56d8a9" stroke-width="2" d="M726.5,-108C726.5,-108 640.5,-108 640.5,-108 634.5,-108 628.5,-102 628.5,-96 628.5,-96 628.5,-84 628.5,-84 628.5,-78 634.5,-72 640.5,-72 640.5,-72 726.5,-72 726.5,-72 732.5,-72 738.5,-78 738.5,-84 738.5,-84 738.5,-96 738.5,-96 738.5,-102 732.5,-108 726.5,-108"/>
<text text-anchor="middle" x="683.5" y="-87.5" font-family="sans" font-size="10.00">get_mut_bind_expr</text>
</g>
<!-- 2&#45;&gt;0 -->
<g id="edge2" class="edge">
<title>2&#45;&gt;0</title>
<path fill="none" stroke="grey" stroke-width="2" d="M713.1,-71.88C729.07,-62.64 748.96,-51.13 766.11,-41.21"/>
<polygon fill="grey" stroke="grey" stroke-width="2" points="767.88,-44.23 774.79,-36.19 764.38,-38.17 767.88,-44.23"/>
</g>
<!-- 3 -->
<g id="node4" class="node">
<title>3</title>
<path fill="none" stroke="#d88d56" stroke-width="2" d="M726.5,-180C726.5,-180 606.5,-180 606.5,-180 600.5,-180 594.5,-174 594.5,-168 594.5,-168 594.5,-156 594.5,-156 594.5,-150 600.5,-144 606.5,-144 606.5,-144 726.5,-144 726.5,-144 732.5,-144 738.5,-150 738.5,-156 738.5,-156 738.5,-168 738.5,-168 738.5,-174 732.5,-180 726.5,-180"/>
<text text-anchor="middle" x="666.5" y="-159.5" font-family="sans" font-size="10.00">process_ccs_Wuhan_Hu_1</text>
</g>
<!-- 3&#45;&gt;0 -->
<g id="edge3" class="edge">
<title>3&#45;&gt;0</title>
<path fill="none" stroke="grey" stroke-width="2" d="M699.17,-143.92C714.94,-134.66 733.43,-122.21 747.5,-108 765.83,-89.49 781.37,-64.13 791.57,-45.21"/>
<polygon fill="grey" stroke="grey" stroke-width="2" points="794.72,-46.72 796.27,-36.24 788.52,-43.47 794.72,-46.72"/>
</g>
<!-- 15 -->
<g id="node16" class="node">
<title>15</title>
<path fill="none" stroke="#70d856" stroke-width="2" d="M910,-108C910,-108 845,-108 845,-108 839,-108 833,-102 833,-96 833,-96 833,-84 833,-84 833,-78 839,-72 845,-72 845,-72 910,-72 910,-72 916,-72 922,-78 922,-84 922,-84 922,-96 922,-96 922,-102 916,-108 910,-108"/>
<text text-anchor="middle" x="877.5" y="-87.5" font-family="sans" font-size="10.00">count_variants</text>
</g>
<!-- 3&#45;&gt;15 -->
<g id="edge40" class="edge">
<title>3&#45;&gt;15</title>
<path fill="none" stroke="grey" stroke-width="2" d="M717.85,-143.97C749.68,-133.4 790.55,-119.85 822.97,-109.09"/>
<polygon fill="grey" stroke="grey" stroke-width="2" points="824.35,-112.32 832.74,-105.85 822.14,-105.68 824.35,-112.32"/>
</g>
<!-- 4 -->
<g id="node5" class="node">
<title>4</title>
<path fill="none" stroke="#5692d8" stroke-width="2" d="M624.5,-252C624.5,-252 426.5,-252 426.5,-252 420.5,-252 414.5,-246 414.5,-240 414.5,-240 414.5,-228 414.5,-228 414.5,-222 420.5,-216 426.5,-216 426.5,-216 624.5,-216 624.5,-216 630.5,-216 636.5,-222 636.5,-228 636.5,-228 636.5,-240 636.5,-240 636.5,-246 630.5,-252 624.5,-252"/>
<text text-anchor="middle" x="525.5" y="-237" font-family="sans" font-size="10.00">get_ccs</text>
<text text-anchor="middle" x="525.5" y="-226" font-family="sans" font-size="10.00">pacbioRun: pool1_Wuhan_Hu_1_210701_A</text>
</g>
<!-- 4&#45;&gt;3 -->
<g id="edge8" class="edge">
<title>4&#45;&gt;3</title>
<path fill="none" stroke="grey" stroke-width="2" d="M559.99,-215.88C578.94,-206.47 602.63,-194.71 622.86,-184.67"/>
<polygon fill="grey" stroke="grey" stroke-width="2" points="624.47,-187.77 631.87,-180.19 621.36,-181.5 624.47,-187.77"/>
</g>
<!-- 12 -->
<g id="node13" class="node">
<title>12</title>
<path fill="none" stroke="#afd856" stroke-width="2" d="M856,-180C856,-180 769,-180 769,-180 763,-180 757,-174 757,-168 757,-168 757,-156 757,-156 757,-150 763,-144 769,-144 769,-144 856,-144 856,-144 862,-144 868,-150 868,-156 868,-156 868,-168 868,-168 868,-174 862,-180 856,-180"/>
<text text-anchor="middle" x="812.5" y="-159.5" font-family="sans" font-size="10.00">process_ccs_E484K</text>
</g>
<!-- 4&#45;&gt;12 -->
<g id="edge16" class="edge">
<title>4&#45;&gt;12</title>
<path fill="none" stroke="grey" stroke-width="2" d="M598.59,-215.97C639.47,-206.34 691.61,-193.91 746.87,-180.13"/>
<polygon fill="grey" stroke="grey" stroke-width="2" points="748,-183.46 756.85,-177.64 746.3,-176.67 748,-183.46"/>
</g>
<!-- 13 -->
<g id="node14" class="node">
<title>13</title>
<path fill="none" stroke="#56c9d8" stroke-width="2" d="M986.5,-180C986.5,-180 898.5,-180 898.5,-180 892.5,-180 886.5,-174 886.5,-168 886.5,-168 886.5,-156 886.5,-156 886.5,-150 892.5,-144 898.5,-144 898.5,-144 986.5,-144 986.5,-144 992.5,-144 998.5,-150 998.5,-156 998.5,-156 998.5,-168 998.5,-168 998.5,-174 992.5,-180 986.5,-180"/>
<text text-anchor="middle" x="942.5" y="-159.5" font-family="sans" font-size="10.00">process_ccs_N501Y</text>
</g>
<!-- 4&#45;&gt;13 -->
<g id="edge24" class="edge">
<title>4&#45;&gt;13</title>
<path fill="none" stroke="grey" stroke-width="2" d="M636.6,-216.88C722.84,-204.27 833.6,-187.85 876.27,-180.03"/>
<polygon fill="grey" stroke="grey" stroke-width="2" points="877.06,-183.45 886.22,-178.11 875.73,-176.57 877.06,-183.45"/>
</g>
<!-- 14 -->
<g id="node15" class="node">
<title>14</title>
<path fill="none" stroke="#d8cb56" stroke-width="2" d="M1116,-180C1116,-180 1029,-180 1029,-180 1023,-180 1017,-174 1017,-168 1017,-168 1017,-156 1017,-156 1017,-150 1023,-144 1029,-144 1029,-144 1116,-144 1116,-144 1122,-144 1128,-150 1128,-156 1128,-156 1128,-168 1128,-168 1128,-174 1122,-180 1116,-180"/>
<text text-anchor="middle" x="1072.5" y="-159.5" font-family="sans" font-size="10.00">process_ccs_B1351</text>
</g>
<!-- 4&#45;&gt;14 -->
<g id="edge32" class="edge">
<title>4&#45;&gt;14</title>
<path fill="none" stroke="grey" stroke-width="2" d="M636.62,-217.09C639.61,-216.72 642.58,-216.35 645.5,-216 802.73,-197.05 846.57,-208.07 1006.74,-179.96"/>
<polygon fill="grey" stroke="grey" stroke-width="2" points="1007.73,-183.34 1016.96,-178.14 1006.5,-176.44 1007.73,-183.34"/>
</g>
<!-- 5 -->
<g id="node6" class="node">
<title>5</title>
<path fill="none" stroke="#5692d8" stroke-width="2" d="M864.5,-252C864.5,-252 666.5,-252 666.5,-252 660.5,-252 654.5,-246 654.5,-240 654.5,-240 654.5,-228 654.5,-228 654.5,-222 660.5,-216 666.5,-216 666.5,-216 864.5,-216 864.5,-216 870.5,-216 876.5,-222 876.5,-228 876.5,-228 876.5,-240 876.5,-240 876.5,-246 870.5,-252 864.5,-252"/>
<text text-anchor="middle" x="765.5" y="-237" font-family="sans" font-size="10.00">get_ccs</text>
<text text-anchor="middle" x="765.5" y="-226" font-family="sans" font-size="10.00">pacbioRun: pool2_Wuhan_Hu_1_210701_A</text>
</g>
<!-- 5&#45;&gt;3 -->
<g id="edge9" class="edge">
<title>5&#45;&gt;3</title>
<path fill="none" stroke="grey" stroke-width="2" d="M741.28,-215.88C728.58,-206.89 712.84,-195.76 699.08,-186.03"/>
<polygon fill="grey" stroke="grey" stroke-width="2" points="701,-183.11 690.81,-180.19 696.96,-188.82 701,-183.11"/>
</g>
<!-- 5&#45;&gt;12 -->
<g id="edge17" class="edge">
<title>5&#45;&gt;12</title>
<path fill="none" stroke="grey" stroke-width="2" d="M777.12,-215.7C782.64,-207.47 789.35,-197.48 795.43,-188.42"/>
<polygon fill="grey" stroke="grey" stroke-width="2" points="798.35,-190.36 801.02,-180.1 792.54,-186.46 798.35,-190.36"/>
</g>
<!-- 5&#45;&gt;13 -->
<g id="edge25" class="edge">
<title>5&#45;&gt;13</title>
<path fill="none" stroke="grey" stroke-width="2" d="M808.8,-215.88C833.21,-206.22 863.9,-194.09 889.71,-183.88"/>
<polygon fill="grey" stroke="grey" stroke-width="2" points="891.33,-187 899.34,-180.07 888.76,-180.49 891.33,-187"/>
</g>
<!-- 5&#45;&gt;14 -->
<g id="edge33" class="edge">
<title>5&#45;&gt;14</title>
<path fill="none" stroke="grey" stroke-width="2" d="M847.18,-215.97C891.7,-206.48 947.98,-194.16 1006.99,-180.08"/>
<polygon fill="grey" stroke="grey" stroke-width="2" points="1007.96,-183.44 1016.87,-177.71 1006.33,-176.64 1007.96,-183.44"/>
</g>
<!-- 6 -->
<g id="node7" class="node">
<title>6</title>
<path fill="none" stroke="#5692d8" stroke-width="2" d="M1072,-252C1072,-252 907,-252 907,-252 901,-252 895,-246 895,-240 895,-240 895,-228 895,-228 895,-222 901,-216 907,-216 907,-216 1072,-216 1072,-216 1078,-216 1084,-222 1084,-228 1084,-228 1084,-240 1084,-240 1084,-246 1078,-252 1072,-252"/>
<text text-anchor="middle" x="989.5" y="-237" font-family="sans" font-size="10.00">get_ccs</text>
<text text-anchor="middle" x="989.5" y="-226" font-family="sans" font-size="10.00">pacbioRun: pool1_E484K_210701_A</text>
</g>
<!-- 6&#45;&gt;3 -->
<g id="edge10" class="edge">
<title>6&#45;&gt;3</title>
<path fill="none" stroke="grey" stroke-width="2" d="M910.9,-215.97C861.62,-205.29 798.21,-191.54 748.33,-180.73"/>
<polygon fill="grey" stroke="grey" stroke-width="2" points="749.05,-177.31 738.54,-178.61 747.57,-184.15 749.05,-177.31"/>
</g>
<!-- 6&#45;&gt;12 -->
<g id="edge18" class="edge">
<title>6&#45;&gt;12</title>
<path fill="none" stroke="grey" stroke-width="2" d="M946.2,-215.88C921.79,-206.22 891.1,-194.09 865.29,-183.88"/>
<polygon fill="grey" stroke="grey" stroke-width="2" points="866.24,-180.49 855.66,-180.07 863.67,-187 866.24,-180.49"/>
</g>
<!-- 6&#45;&gt;13 -->
<g id="edge26" class="edge">
<title>6&#45;&gt;13</title>
<path fill="none" stroke="grey" stroke-width="2" d="M977.88,-215.7C972.36,-207.47 965.65,-197.48 959.57,-188.42"/>
<polygon fill="grey" stroke="grey" stroke-width="2" points="962.46,-186.46 953.98,-180.1 956.65,-190.36 962.46,-186.46"/>
</g>
<!-- 6&#45;&gt;14 -->
<g id="edge34" class="edge">
<title>6&#45;&gt;14</title>
<path fill="none" stroke="grey" stroke-width="2" d="M1010.02,-215.7C1020.37,-206.97 1033.09,-196.24 1044.34,-186.75"/>
<polygon fill="grey" stroke="grey" stroke-width="2" points="1046.83,-189.23 1052.22,-180.1 1042.32,-183.88 1046.83,-189.23"/>
</g>
<!-- 7 -->
<g id="node8" class="node">
<title>7</title>
<path fill="none" stroke="#5692d8" stroke-width="2" d="M1279,-252C1279,-252 1114,-252 1114,-252 1108,-252 1102,-246 1102,-240 1102,-240 1102,-228 1102,-228 1102,-222 1108,-216 1114,-216 1114,-216 1279,-216 1279,-216 1285,-216 1291,-222 1291,-228 1291,-228 1291,-240 1291,-240 1291,-246 1285,-252 1279,-252"/>
<text text-anchor="middle" x="1196.5" y="-237" font-family="sans" font-size="10.00">get_ccs</text>
<text text-anchor="middle" x="1196.5" y="-226" font-family="sans" font-size="10.00">pacbioRun: pool2_E484K_210701_A</text>
</g>
<!-- 7&#45;&gt;3 -->
<g id="edge11" class="edge">
<title>7&#45;&gt;3</title>
<path fill="none" stroke="grey" stroke-width="2" d="M1101.96,-217.17C1099.11,-216.77 1096.28,-216.37 1093.5,-216 943.99,-195.88 902.6,-203.34 749.14,-180"/>
<polygon fill="grey" stroke="grey" stroke-width="2" points="749.28,-176.48 738.87,-178.41 748.22,-183.4 749.28,-176.48"/>
</g>
<!-- 7&#45;&gt;12 -->
<g id="edge19" class="edge">
<title>7&#45;&gt;12</title>
<path fill="none" stroke="grey" stroke-width="2" d="M1101.73,-217.36C1020.86,-204 913.23,-186.18 878.18,-179.83"/>
<polygon fill="grey" stroke="grey" stroke-width="2" points="878.57,-176.34 868.09,-177.89 877.25,-183.21 878.57,-176.34"/>
</g>
<!-- 7&#45;&gt;13 -->
<g id="edge27" class="edge">
<title>7&#45;&gt;13</title>
<path fill="none" stroke="grey" stroke-width="2" d="M1134.69,-215.97C1096.38,-205.41 1047.21,-191.86 1008.2,-181.11"/>
<polygon fill="grey" stroke="grey" stroke-width="2" points="1009.08,-177.72 998.51,-178.44 1007.22,-184.47 1009.08,-177.72"/>
</g>
<!-- 7&#45;&gt;14 -->
<g id="edge35" class="edge">
<title>7&#45;&gt;14</title>
<path fill="none" stroke="grey" stroke-width="2" d="M1166.17,-215.88C1149.8,-206.64 1129.42,-195.13 1111.85,-185.21"/>
<polygon fill="grey" stroke="grey" stroke-width="2" points="1113.38,-182.06 1102.95,-180.19 1109.94,-188.15 1113.38,-182.06"/>
</g>
<!-- 8 -->
<g id="node9" class="node">
<title>8</title>
<path fill="none" stroke="#5692d8" stroke-width="2" d="M1487.5,-252C1487.5,-252 1321.5,-252 1321.5,-252 1315.5,-252 1309.5,-246 1309.5,-240 1309.5,-240 1309.5,-228 1309.5,-228 1309.5,-222 1315.5,-216 1321.5,-216 1321.5,-216 1487.5,-216 1487.5,-216 1493.5,-216 1499.5,-222 1499.5,-228 1499.5,-228 1499.5,-240 1499.5,-240 1499.5,-246 1493.5,-252 1487.5,-252"/>
<text text-anchor="middle" x="1404.5" y="-237" font-family="sans" font-size="10.00">get_ccs</text>
<text text-anchor="middle" x="1404.5" y="-226" font-family="sans" font-size="10.00">pacbioRun: pool1_N501Y_210701_A</text>
</g>
<!-- 8&#45;&gt;3 -->
<g id="edge12" class="edge">
<title>8&#45;&gt;3</title>
<path fill="none" stroke="grey" stroke-width="2" d="M1309.34,-217.07C1306.36,-216.69 1303.41,-216.33 1300.5,-216 1059.45,-188.5 993.85,-212.39 748.76,-179.9"/>
<polygon fill="grey" stroke="grey" stroke-width="2" points="749.22,-176.43 738.84,-178.57 748.29,-183.37 749.22,-176.43"/>
</g>
<!-- 8&#45;&gt;12 -->
<g id="edge20" class="edge">
<title>8&#45;&gt;12</title>
<path fill="none" stroke="grey" stroke-width="2" d="M1309.33,-217.14C1306.35,-216.74 1303.4,-216.36 1300.5,-216 1116.46,-193.16 1065.19,-211.34 877.93,-179.88"/>
<polygon fill="grey" stroke="grey" stroke-width="2" points="878.48,-176.42 868.03,-178.19 877.3,-183.32 878.48,-176.42"/>
</g>
<!-- 8&#45;&gt;13 -->
<g id="edge28" class="edge">
<title>8&#45;&gt;13</title>
<path fill="none" stroke="grey" stroke-width="2" d="M1309.31,-217.29C1306.34,-216.85 1303.4,-216.42 1300.5,-216 1171.06,-197.45 1136.97,-204.36 1008.5,-180 1008.4,-179.98 1008.3,-179.96 1008.19,-179.94"/>
<polygon fill="grey" stroke="grey" stroke-width="2" points="1009.06,-176.55 998.56,-177.97 1007.65,-183.4 1009.06,-176.55"/>
</g>
<!-- 8&#45;&gt;14 -->
<g id="edge36" class="edge">
<title>8&#45;&gt;14</title>
<path fill="none" stroke="grey" stroke-width="2" d="M1323.71,-215.97C1266.73,-203.95 1191.37,-188.06 1138.1,-176.83"/>
<polygon fill="grey" stroke="grey" stroke-width="2" points="1138.6,-173.36 1128.09,-174.72 1137.15,-180.21 1138.6,-173.36"/>
</g>
<!-- 9 -->
<g id="node10" class="node">
<title>9</title>
<path fill="none" stroke="#5692d8" stroke-width="2" d="M1695.5,-252C1695.5,-252 1529.5,-252 1529.5,-252 1523.5,-252 1517.5,-246 1517.5,-240 1517.5,-240 1517.5,-228 1517.5,-228 1517.5,-222 1523.5,-216 1529.5,-216 1529.5,-216 1695.5,-216 1695.5,-216 1701.5,-216 1707.5,-222 1707.5,-228 1707.5,-228 1707.5,-240 1707.5,-240 1707.5,-246 1701.5,-252 1695.5,-252"/>
<text text-anchor="middle" x="1612.5" y="-237" font-family="sans" font-size="10.00">get_ccs</text>
<text text-anchor="middle" x="1612.5" y="-226" font-family="sans" font-size="10.00">pacbioRun: pool2_N501Y_210701_A</text>
</g>
<!-- 9&#45;&gt;3 -->
<g id="edge13" class="edge">
<title>9&#45;&gt;3</title>
<path fill="none" stroke="grey" stroke-width="2" d="M1517.34,-217C1514.36,-216.64 1511.41,-216.31 1508.5,-216 1175.48,-181.01 1085.73,-221.65 748.87,-179.9"/>
<polygon fill="grey" stroke="grey" stroke-width="2" points="749.19,-176.41 738.83,-178.64 748.32,-183.36 749.19,-176.41"/>
</g>
<!-- 9&#45;&gt;12 -->
<g id="edge21" class="edge">
<title>9&#45;&gt;12</title>
<path fill="none" stroke="grey" stroke-width="2" d="M1517.34,-217.03C1514.36,-216.67 1511.41,-216.32 1508.5,-216 1232.55,-185.66 1156.74,-222.86 878.02,-179.86"/>
<polygon fill="grey" stroke="grey" stroke-width="2" points="878.44,-176.38 868.02,-178.29 877.35,-183.3 878.44,-176.38"/>
</g>
<!-- 9&#45;&gt;13 -->
<g id="edge29" class="edge">
<title>9&#45;&gt;13</title>
<path fill="none" stroke="grey" stroke-width="2" d="M1517.33,-217.09C1514.36,-216.71 1511.41,-216.34 1508.5,-216 1287.22,-190 1228.38,-215.93 1008.5,-180 1008.4,-179.98 1008.3,-179.97 1008.19,-179.95"/>
<polygon fill="grey" stroke="grey" stroke-width="2" points="1008.99,-176.54 998.52,-178.16 1007.72,-183.42 1008.99,-176.54"/>
</g>
<!-- 9&#45;&gt;14 -->
<g id="edge37" class="edge">
<title>9&#45;&gt;14</title>
<path fill="none" stroke="grey" stroke-width="2" d="M1517.31,-217.28C1514.34,-216.84 1511.4,-216.41 1508.5,-216 1377.38,-197.32 1223.48,-179.59 1138.07,-170.12"/>
<polygon fill="grey" stroke="grey" stroke-width="2" points="1138.32,-166.63 1128,-169.01 1137.56,-173.59 1138.32,-166.63"/>
</g>
<!-- 10 -->
<g id="node11" class="node">
<title>10</title>
<path fill="none" stroke="#5692d8" stroke-width="2" d="M177,-252C177,-252 12,-252 12,-252 6,-252 0,-246 0,-240 0,-240 0,-228 0,-228 0,-222 6,-216 12,-216 12,-216 177,-216 177,-216 183,-216 189,-222 189,-228 189,-228 189,-240 189,-240 189,-246 183,-252 177,-252"/>
<text text-anchor="middle" x="94.5" y="-237" font-family="sans" font-size="10.00">get_ccs</text>
<text text-anchor="middle" x="94.5" y="-226" font-family="sans" font-size="10.00">pacbioRun: pool1_B1351_210701_A</text>
</g>
<!-- 10&#45;&gt;3 -->
<g id="edge14" class="edge">
<title>10&#45;&gt;3</title>
<path fill="none" stroke="grey" stroke-width="2" d="M189.05,-217.2C191.89,-216.79 194.72,-216.39 197.5,-216 332.78,-197.21 490.71,-180.42 584.46,-170.99"/>
<polygon fill="grey" stroke="grey" stroke-width="2" points="584.85,-174.47 594.45,-169.99 584.15,-167.5 584.85,-174.47"/>
</g>
<!-- 10&#45;&gt;12 -->
<g id="edge22" class="edge">
<title>10&#45;&gt;12</title>
<path fill="none" stroke="grey" stroke-width="2" d="M189.02,-217.03C191.88,-216.67 194.71,-216.32 197.5,-216 437.54,-188.4 503.88,-218.33 746.78,-179.9"/>
<polygon fill="grey" stroke="grey" stroke-width="2" points="747.66,-183.3 756.98,-178.26 746.55,-176.39 747.66,-183.3"/>
</g>
<!-- 10&#45;&gt;13 -->
<g id="edge30" class="edge">
<title>10&#45;&gt;13</title>
<path fill="none" stroke="grey" stroke-width="2" d="M189.02,-216.98C191.88,-216.63 194.71,-216.3 197.5,-216 495,-183.67 576.63,-225.57 875.99,-180.04"/>
<polygon fill="grey" stroke="grey" stroke-width="2" points="876.93,-183.43 886.28,-178.45 875.86,-176.51 876.93,-183.43"/>
</g>
<!-- 10&#45;&gt;14 -->
<g id="edge38" class="edge">
<title>10&#45;&gt;14</title>
<path fill="none" stroke="grey" stroke-width="2" d="M189.02,-216.95C191.87,-216.61 194.71,-216.29 197.5,-216 552.58,-178.94 649.41,-232.87 1006.88,-179.86"/>
<polygon fill="grey" stroke="grey" stroke-width="2" points="1007.62,-183.29 1016.99,-178.34 1006.58,-176.37 1007.62,-183.29"/>
</g>
<!-- 11 -->
<g id="node12" class="node">
<title>11</title>
<path fill="none" stroke="#5692d8" stroke-width="2" d="M384,-252C384,-252 219,-252 219,-252 213,-252 207,-246 207,-240 207,-240 207,-228 207,-228 207,-222 213,-216 219,-216 219,-216 384,-216 384,-216 390,-216 396,-222 396,-228 396,-228 396,-240 396,-240 396,-246 390,-252 384,-252"/>
<text text-anchor="middle" x="301.5" y="-237" font-family="sans" font-size="10.00">get_ccs</text>
<text text-anchor="middle" x="301.5" y="-226" font-family="sans" font-size="10.00">pacbioRun: pool2_B1351_210701_A</text>
</g>
<!-- 11&#45;&gt;3 -->
<g id="edge15" class="edge">
<title>11&#45;&gt;3</title>
<path fill="none" stroke="grey" stroke-width="2" d="M390.32,-215.97C449.44,-204.63 526.56,-189.84 584.28,-178.77"/>
<polygon fill="grey" stroke="grey" stroke-width="2" points="585.29,-182.14 594.46,-176.82 583.97,-175.26 585.29,-182.14"/>
</g>
<!-- 11&#45;&gt;12 -->
<g id="edge23" class="edge">
<title>11&#45;&gt;12</title>
<path fill="none" stroke="grey" stroke-width="2" d="M396.12,-217.3C399.29,-216.85 402.42,-216.41 405.5,-216 553.73,-196.1 595.36,-206.92 746.82,-179.95"/>
<polygon fill="grey" stroke="grey" stroke-width="2" points="747.74,-183.34 756.95,-178.12 746.49,-176.45 747.74,-183.34"/>
</g>
<!-- 11&#45;&gt;13 -->
<g id="edge31" class="edge">
<title>11&#45;&gt;13</title>
<path fill="none" stroke="grey" stroke-width="2" d="M396.11,-217.18C399.28,-216.76 402.41,-216.37 405.5,-216 611.13,-191.4 668.23,-214.03 876.24,-180.03"/>
<polygon fill="grey" stroke="grey" stroke-width="2" points="876.97,-183.46 886.26,-178.37 875.83,-176.55 876.97,-183.46"/>
</g>
<!-- 11&#45;&gt;14 -->
<g id="edge39" class="edge">
<title>11&#45;&gt;14</title>
<path fill="none" stroke="grey" stroke-width="2" d="M396.1,-217.11C399.27,-216.72 402.41,-216.34 405.5,-216 668.64,-186.7 741.04,-221.25 1007.03,-179.85"/>
<polygon fill="grey" stroke="grey" stroke-width="2" points="1007.65,-183.3 1016.98,-178.28 1006.56,-176.39 1007.65,-183.3"/>
</g>
<!-- 12&#45;&gt;0 -->
<g id="edge4" class="edge">
<title>12&#45;&gt;0</title>
<path fill="none" stroke="grey" stroke-width="2" d="M811.54,-143.87C810.17,-119.67 807.67,-75.21 806.04,-46.39"/>
<polygon fill="grey" stroke="grey" stroke-width="2" points="809.53,-45.98 805.47,-36.19 802.54,-46.37 809.53,-45.98"/>
</g>
<!-- 12&#45;&gt;15 -->
<g id="edge41" class="edge">
<title>12&#45;&gt;15</title>
<path fill="none" stroke="grey" stroke-width="2" d="M828.57,-143.7C836.44,-135.22 846.06,-124.86 854.67,-115.58"/>
<polygon fill="grey" stroke="grey" stroke-width="2" points="857.38,-117.81 861.62,-108.1 852.25,-113.05 857.38,-117.81"/>
</g>
<!-- 13&#45;&gt;0 -->
<g id="edge5" class="edge">
<title>13&#45;&gt;0</title>
<path fill="none" stroke="grey" stroke-width="2" d="M945.14,-143.72C947.11,-124.27 947.22,-92.71 931.5,-72 914.86,-50.07 887.48,-37.15 862.39,-29.56"/>
<polygon fill="grey" stroke="grey" stroke-width="2" points="863.12,-26.14 852.55,-26.82 861.24,-32.88 863.12,-26.14"/>
</g>
<!-- 13&#45;&gt;15 -->
<g id="edge42" class="edge">
<title>13&#45;&gt;15</title>
<path fill="none" stroke="grey" stroke-width="2" d="M926.43,-143.7C918.56,-135.22 908.94,-124.86 900.33,-115.58"/>
<polygon fill="grey" stroke="grey" stroke-width="2" points="902.75,-113.05 893.38,-108.1 897.62,-117.81 902.75,-113.05"/>
</g>
<!-- 14&#45;&gt;0 -->
<g id="edge6" class="edge">
<title>14&#45;&gt;0</title>
<path fill="none" stroke="grey" stroke-width="2" d="M1053.14,-143.99C1030.18,-124.51 990.15,-92.62 951.5,-72 923.34,-56.98 890.03,-44.57 862.24,-35.55"/>
<polygon fill="grey" stroke="grey" stroke-width="2" points="863.24,-32.2 852.65,-32.5 861.12,-38.87 863.24,-32.2"/>
</g>
<!-- 14&#45;&gt;15 -->
<g id="edge43" class="edge">
<title>14&#45;&gt;15</title>
<path fill="none" stroke="grey" stroke-width="2" d="M1024.8,-143.88C996.64,-133.77 960.9,-120.94 931.68,-110.45"/>
<polygon fill="grey" stroke="grey" stroke-width="2" points="932.63,-107.07 922.04,-106.99 930.27,-113.66 932.63,-107.07"/>
</g>
<!-- 15&#45;&gt;0 -->
<g id="edge7" class="edge">
<title>15&#45;&gt;0</title>
<path fill="none" stroke="grey" stroke-width="2" d="M859.46,-71.7C850.44,-63.05 839.38,-52.45 829.56,-43.03"/>
<polygon fill="grey" stroke="grey" stroke-width="2" points="831.98,-40.5 822.34,-36.1 827.13,-45.55 831.98,-40.5"/>
</g>
</g>
</svg>
