<?xml version="1.0" encoding="UTF-8" standalone="no"?>
<!DOCTYPE svg PUBLIC "-//W3C//DTD SVG 1.1//EN"
 "http://www.w3.org/Graphics/SVG/1.1/DTD/svg11.dtd">
<!-- Generated by graphviz version 2.50.0 (20211209.0339)
 -->
<!-- Title: snakemake_dag Pages: 1 -->
<svg width="2624pt" height="548pt"
 viewBox="0.00 0.00 2623.50 548.00" xmlns="http://www.w3.org/2000/svg" xmlns:xlink="http://www.w3.org/1999/xlink">
<g id="graph0" class="graph" transform="scale(1 1) rotate(0) translate(4 544)">
<title>snakemake_dag</title>
<polygon fill="white" stroke="transparent" points="-4,4 -4,-544 2619.5,-544 2619.5,4 -4,4"/>
<!-- 0 -->
<g id="node1" class="node">
<title>0</title>
<path fill="none" stroke="#56d8a9" stroke-width="2" d="M1314.5,-36C1314.5,-36 1243.5,-36 1243.5,-36 1237.5,-36 1231.5,-30 1231.5,-24 1231.5,-24 1231.5,-12 1231.5,-12 1231.5,-6 1237.5,0 1243.5,0 1243.5,0 1314.5,0 1314.5,0 1320.5,0 1326.5,-6 1326.5,-12 1326.5,-12 1326.5,-24 1326.5,-24 1326.5,-30 1320.5,-36 1314.5,-36"/>
<text text-anchor="middle" x="1279" y="-15.5" font-family="sans" font-size="10.00">make_summary</text>
</g>
<!-- 1 -->
<g id="node2" class="node">
<title>1</title>
<path fill="none" stroke="#5673d8" stroke-width="2" d="M826.5,-108C826.5,-108 783.5,-108 783.5,-108 777.5,-108 771.5,-102 771.5,-96 771.5,-96 771.5,-84 771.5,-84 771.5,-78 777.5,-72 783.5,-72 783.5,-72 826.5,-72 826.5,-72 832.5,-72 838.5,-78 838.5,-84 838.5,-84 838.5,-96 838.5,-96 838.5,-102 832.5,-108 826.5,-108"/>
<text text-anchor="middle" x="805" y="-87.5" font-family="sans" font-size="10.00">make_dag</text>
</g>
<!-- 1&#45;&gt;0 -->
<g id="edge1" class="edge">
<title>1&#45;&gt;0</title>
<path fill="none" stroke="grey" stroke-width="2" d="M838.53,-74.81C841.7,-73.75 844.89,-72.79 848,-72 978.97,-38.64 1137.87,-26.01 1221.35,-21.44"/>
<polygon fill="grey" stroke="grey" stroke-width="2" points="1221.6,-24.93 1231.4,-20.91 1221.23,-17.94 1221.6,-24.93"/>
</g>
<!-- 2 -->
<g id="node3" class="node">
<title>2</title>
<path fill="none" stroke="#d86e56" stroke-width="2" d="M955,-108C955,-108 869,-108 869,-108 863,-108 857,-102 857,-96 857,-96 857,-84 857,-84 857,-78 863,-72 869,-72 869,-72 955,-72 955,-72 961,-72 967,-78 967,-84 967,-84 967,-96 967,-96 967,-102 961,-108 955,-108"/>
<text text-anchor="middle" x="912" y="-87.5" font-family="sans" font-size="10.00">get_mut_bind_expr</text>
</g>
<!-- 2&#45;&gt;0 -->
<g id="edge2" class="edge">
<title>2&#45;&gt;0</title>
<path fill="none" stroke="grey" stroke-width="2" d="M967.29,-75.04C971.92,-73.97 976.53,-72.95 981,-72 1064.1,-54.39 1161.07,-37.89 1221.26,-28.12"/>
<polygon fill="grey" stroke="grey" stroke-width="2" points="1222.02,-31.54 1231.33,-26.49 1220.9,-24.63 1222.02,-31.54"/>
</g>
<!-- 3 -->
<g id="node4" class="node">
<title>3</title>
<path fill="none" stroke="#97d856" stroke-width="2" d="M1283,-324C1283,-324 1167,-324 1167,-324 1161,-324 1155,-318 1155,-312 1155,-312 1155,-300 1155,-300 1155,-294 1161,-288 1167,-288 1167,-288 1283,-288 1283,-288 1289,-288 1295,-294 1295,-300 1295,-300 1295,-312 1295,-312 1295,-318 1289,-324 1283,-324"/>
<text text-anchor="middle" x="1225" y="-303.5" font-family="sans" font-size="10.00">get_delta_mut_bind_expr</text>
</g>
<!-- 3&#45;&gt;0 -->
<g id="edge3" class="edge">
<title>3&#45;&gt;0</title>
<path fill="none" stroke="grey" stroke-width="2" d="M1170.98,-287.96C1154.23,-279.85 1137.64,-268.26 1128,-252 1119.84,-238.24 1125.84,-231.85 1128,-216 1136.97,-150.19 1125.3,-122.88 1168,-72 1181.98,-55.34 1202.4,-43.55 1221.93,-35.39"/>
<polygon fill="grey" stroke="grey" stroke-width="2" points="1223.38,-38.58 1231.41,-31.67 1220.82,-32.06 1223.38,-38.58"/>
</g>
<!-- 24 -->
<g id="node25" class="node">
<title>24</title>
<path fill="none" stroke="#56d87b" stroke-width="2" d="M1219,-252C1219,-252 1149,-252 1149,-252 1143,-252 1137,-246 1137,-240 1137,-240 1137,-228 1137,-228 1137,-222 1143,-216 1149,-216 1149,-216 1219,-216 1219,-216 1225,-216 1231,-222 1231,-228 1231,-228 1231,-240 1231,-240 1231,-246 1225,-252 1219,-252"/>
<text text-anchor="middle" x="1184" y="-231.5" font-family="sans" font-size="10.00">collapse_scores</text>
</g>
<!-- 3&#45;&gt;24 -->
<g id="edge81" class="edge">
<title>3&#45;&gt;24</title>
<path fill="none" stroke="grey" stroke-width="2" d="M1214.87,-287.7C1210.15,-279.64 1204.44,-269.89 1199.22,-260.98"/>
<polygon fill="grey" stroke="grey" stroke-width="2" points="1202.09,-258.96 1194.02,-252.1 1196.05,-262.5 1202.09,-258.96"/>
</g>
<!-- 4 -->
<g id="node5" class="node">
<title>4</title>
<path fill="none" stroke="#56d0d8" stroke-width="2" d="M1382.5,-252C1382.5,-252 1261.5,-252 1261.5,-252 1255.5,-252 1249.5,-246 1249.5,-240 1249.5,-240 1249.5,-228 1249.5,-228 1249.5,-222 1255.5,-216 1261.5,-216 1261.5,-216 1382.5,-216 1382.5,-216 1388.5,-216 1394.5,-222 1394.5,-228 1394.5,-228 1394.5,-240 1394.5,-240 1394.5,-246 1388.5,-252 1382.5,-252"/>
<text text-anchor="middle" x="1322" y="-231.5" font-family="sans" font-size="10.00">get_mut_antibody_escape</text>
</g>
<!-- 4&#45;&gt;0 -->
<g id="edge4" class="edge">
<title>4&#45;&gt;0</title>
<path fill="none" stroke="grey" stroke-width="2" d="M1327.82,-215.56C1330.93,-205.33 1334.43,-192.08 1336,-180 1338.06,-164.13 1338.56,-159.79 1336,-144 1330.6,-110.7 1326.35,-102.53 1312,-72 1307.62,-62.68 1301.95,-52.98 1296.54,-44.46"/>
<polygon fill="grey" stroke="grey" stroke-width="2" points="1299.47,-42.54 1291.07,-36.08 1293.61,-46.37 1299.47,-42.54"/>
</g>
<!-- 30 -->
<g id="node31" class="node">
<title>30</title>
<path fill="none" stroke="#c6d856" stroke-width="2" d="M1315,-180C1315,-180 1249,-180 1249,-180 1243,-180 1237,-174 1237,-168 1237,-168 1237,-156 1237,-156 1237,-150 1243,-144 1249,-144 1249,-144 1315,-144 1315,-144 1321,-144 1327,-150 1327,-156 1327,-156 1327,-168 1327,-168 1327,-174 1321,-180 1315,-180"/>
<text text-anchor="middle" x="1282" y="-159.5" font-family="sans" font-size="10.00">epistatic_shifts</text>
</g>
<!-- 4&#45;&gt;30 -->
<g id="edge88" class="edge">
<title>4&#45;&gt;30</title>
<path fill="none" stroke="grey" stroke-width="2" d="M1312.11,-215.7C1307.51,-207.64 1301.94,-197.89 1296.85,-188.98"/>
<polygon fill="grey" stroke="grey" stroke-width="2" points="1299.77,-187.05 1291.77,-180.1 1293.7,-190.52 1299.77,-187.05"/>
</g>
<!-- 5 -->
<g id="node6" class="node">
<title>5</title>
<path fill="none" stroke="#56a2d8" stroke-width="2" d="M1099,-468C1099,-468 979,-468 979,-468 973,-468 967,-462 967,-456 967,-456 967,-444 967,-444 967,-438 973,-432 979,-432 979,-432 1099,-432 1099,-432 1105,-432 1111,-438 1111,-444 1111,-444 1111,-456 1111,-456 1111,-462 1105,-468 1099,-468"/>
<text text-anchor="middle" x="1039" y="-447.5" font-family="sans" font-size="10.00">process_ccs_Wuhan_Hu_1</text>
</g>
<!-- 5&#45;&gt;0 -->
<g id="edge5" class="edge">
<title>5&#45;&gt;0</title>
<path fill="none" stroke="grey" stroke-width="2" d="M1029.88,-431.61C1017,-405.36 995,-353.71 995,-307 995,-307 995,-307 995,-161 995,-60.72 1138.4,-31.25 1221.41,-22.6"/>
<polygon fill="grey" stroke="grey" stroke-width="2" points="1221.85,-26.07 1231.46,-21.62 1221.17,-19.11 1221.85,-26.07"/>
</g>
<!-- 21 -->
<g id="node22" class="node">
<title>21</title>
<path fill="none" stroke="#568ad8" stroke-width="2" d="M1328.5,-396C1328.5,-396 1263.5,-396 1263.5,-396 1257.5,-396 1251.5,-390 1251.5,-384 1251.5,-384 1251.5,-372 1251.5,-372 1251.5,-366 1257.5,-360 1263.5,-360 1263.5,-360 1328.5,-360 1328.5,-360 1334.5,-360 1340.5,-366 1340.5,-372 1340.5,-372 1340.5,-384 1340.5,-384 1340.5,-390 1334.5,-396 1328.5,-396"/>
<text text-anchor="middle" x="1296" y="-375.5" font-family="sans" font-size="10.00">count_variants</text>
</g>
<!-- 5&#45;&gt;21 -->
<g id="edge65" class="edge">
<title>5&#45;&gt;21</title>
<path fill="none" stroke="grey" stroke-width="2" d="M1101.54,-431.97C1144.37,-420.3 1200.6,-404.98 1241.58,-393.82"/>
<polygon fill="grey" stroke="grey" stroke-width="2" points="1242.66,-397.16 1251.39,-391.15 1240.82,-390.4 1242.66,-397.16"/>
</g>
<!-- 22 -->
<g id="node23" class="node">
<title>22</title>
<path fill="none" stroke="#61d856" stroke-width="2" d="M1125,-324C1125,-324 1073,-324 1073,-324 1067,-324 1061,-318 1061,-312 1061,-312 1061,-300 1061,-300 1061,-294 1067,-288 1073,-288 1073,-288 1125,-288 1125,-288 1131,-288 1137,-294 1137,-300 1137,-300 1137,-312 1137,-312 1137,-318 1131,-324 1125,-324"/>
<text text-anchor="middle" x="1099" y="-303.5" font-family="sans" font-size="10.00">fit_titrations</text>
</g>
<!-- 5&#45;&gt;22 -->
<g id="edge69" class="edge">
<title>5&#45;&gt;22</title>
<path fill="none" stroke="grey" stroke-width="2" d="M1046.24,-431.87C1056.55,-407.46 1075.58,-362.43 1087.75,-333.64"/>
<polygon fill="grey" stroke="grey" stroke-width="2" points="1091.07,-334.76 1091.74,-324.19 1084.62,-332.04 1091.07,-334.76"/>
</g>
<!-- 23 -->
<g id="node24" class="node">
<title>23</title>
<path fill="none" stroke="#d88556" stroke-width="2" d="M1420.5,-324C1420.5,-324 1325.5,-324 1325.5,-324 1319.5,-324 1313.5,-318 1313.5,-312 1313.5,-312 1313.5,-300 1313.5,-300 1313.5,-294 1319.5,-288 1325.5,-288 1325.5,-288 1420.5,-288 1420.5,-288 1426.5,-288 1432.5,-294 1432.5,-300 1432.5,-300 1432.5,-312 1432.5,-312 1432.5,-318 1426.5,-324 1420.5,-324"/>
<text text-anchor="middle" x="1373" y="-303.5" font-family="sans" font-size="10.00">calculate_expression</text>
</g>
<!-- 5&#45;&gt;23 -->
<g id="edge74" class="edge">
<title>5&#45;&gt;23</title>
<path fill="none" stroke="grey" stroke-width="2" d="M1068.05,-431.84C1101.33,-412.66 1157.86,-381.47 1209,-360 1239.37,-347.25 1273.93,-335.67 1303.48,-326.61"/>
<polygon fill="grey" stroke="grey" stroke-width="2" points="1304.74,-329.88 1313.29,-323.63 1302.71,-323.18 1304.74,-329.88"/>
</g>
<!-- 6 -->
<g id="node7" class="node">
<title>6</title>
<path fill="none" stroke="#d8d356" stroke-width="2" d="M2362.5,-540C2362.5,-540 2163.5,-540 2163.5,-540 2157.5,-540 2151.5,-534 2151.5,-528 2151.5,-528 2151.5,-516 2151.5,-516 2151.5,-510 2157.5,-504 2163.5,-504 2163.5,-504 2362.5,-504 2362.5,-504 2368.5,-504 2374.5,-510 2374.5,-516 2374.5,-516 2374.5,-528 2374.5,-528 2374.5,-534 2368.5,-540 2362.5,-540"/>
<text text-anchor="middle" x="2263" y="-525" font-family="sans" font-size="10.00">get_ccs</text>
<text text-anchor="middle" x="2263" y="-514" font-family="sans" font-size="10.00">pacbioRun: pool1_Wuhan_Hu_1_210701_A</text>
</g>
<!-- 6&#45;&gt;5 -->
<g id="edge17" class="edge">
<title>6&#45;&gt;5</title>
<path fill="none" stroke="grey" stroke-width="2" d="M2151.26,-504.78C2148.48,-504.5 2145.72,-504.24 2143,-504 1693.13,-464.33 1573.37,-522.07 1121.38,-468.03"/>
<polygon fill="grey" stroke="grey" stroke-width="2" points="1121.67,-464.54 1111.32,-466.82 1120.83,-471.49 1121.67,-464.54"/>
</g>
<!-- 18 -->
<g id="node19" class="node">
<title>18</title>
<path fill="none" stroke="#d8bc56" stroke-width="2" d="M1228.5,-468C1228.5,-468 1141.5,-468 1141.5,-468 1135.5,-468 1129.5,-462 1129.5,-456 1129.5,-456 1129.5,-444 1129.5,-444 1129.5,-438 1135.5,-432 1141.5,-432 1141.5,-432 1228.5,-432 1228.5,-432 1234.5,-432 1240.5,-438 1240.5,-444 1240.5,-444 1240.5,-456 1240.5,-456 1240.5,-462 1234.5,-468 1228.5,-468"/>
<text text-anchor="middle" x="1185" y="-447.5" font-family="sans" font-size="10.00">process_ccs_E484K</text>
</g>
<!-- 6&#45;&gt;18 -->
<g id="edge29" class="edge">
<title>6&#45;&gt;18</title>
<path fill="none" stroke="grey" stroke-width="2" d="M2151.26,-504.8C2148.48,-504.51 2145.72,-504.25 2143,-504 1750.7,-468.4 1644.62,-525.63 1250.46,-467.83"/>
<polygon fill="grey" stroke="grey" stroke-width="2" points="1250.91,-464.36 1240.51,-466.36 1249.88,-471.29 1250.91,-464.36"/>
</g>
<!-- 19 -->
<g id="node20" class="node">
<title>19</title>
<path fill="none" stroke="#56d8c9" stroke-width="2" d="M1359,-468C1359,-468 1271,-468 1271,-468 1265,-468 1259,-462 1259,-456 1259,-456 1259,-444 1259,-444 1259,-438 1265,-432 1271,-432 1271,-432 1359,-432 1359,-432 1365,-432 1371,-438 1371,-444 1371,-444 1371,-456 1371,-456 1371,-462 1365,-468 1359,-468"/>
<text text-anchor="middle" x="1315" y="-447.5" font-family="sans" font-size="10.00">process_ccs_N501Y</text>
</g>
<!-- 6&#45;&gt;19 -->
<g id="edge41" class="edge">
<title>6&#45;&gt;19</title>
<path fill="none" stroke="grey" stroke-width="2" d="M2151.26,-504.82C2148.48,-504.53 2145.72,-504.26 2143,-504 1805.45,-472.19 1716.25,-518.55 1381,-468 1380.9,-467.98 1380.8,-467.97 1380.69,-467.95"/>
<polygon fill="grey" stroke="grey" stroke-width="2" points="1381.46,-464.53 1371.01,-466.26 1380.26,-471.43 1381.46,-464.53"/>
</g>
<!-- 20 -->
<g id="node21" class="node">
<title>20</title>
<path fill="none" stroke="#afd856" stroke-width="2" d="M1488.5,-468C1488.5,-468 1401.5,-468 1401.5,-468 1395.5,-468 1389.5,-462 1389.5,-456 1389.5,-456 1389.5,-444 1389.5,-444 1389.5,-438 1395.5,-432 1401.5,-432 1401.5,-432 1488.5,-432 1488.5,-432 1494.5,-432 1500.5,-438 1500.5,-444 1500.5,-444 1500.5,-456 1500.5,-456 1500.5,-462 1494.5,-468 1488.5,-468"/>
<text text-anchor="middle" x="1445" y="-447.5" font-family="sans" font-size="10.00">process_ccs_B1351</text>
</g>
<!-- 6&#45;&gt;20 -->
<g id="edge53" class="edge">
<title>6&#45;&gt;20</title>
<path fill="none" stroke="grey" stroke-width="2" d="M2151.25,-504.93C2148.47,-504.6 2145.72,-504.3 2143,-504 1911.2,-478.81 1634.8,-461.61 1510.85,-454.57"/>
<polygon fill="grey" stroke="grey" stroke-width="2" points="1510.94,-451.07 1500.76,-454 1510.54,-458.06 1510.94,-451.07"/>
</g>
<!-- 7 -->
<g id="node8" class="node">
<title>7</title>
<path fill="none" stroke="#d8d356" stroke-width="2" d="M2603.5,-540C2603.5,-540 2404.5,-540 2404.5,-540 2398.5,-540 2392.5,-534 2392.5,-528 2392.5,-528 2392.5,-516 2392.5,-516 2392.5,-510 2398.5,-504 2404.5,-504 2404.5,-504 2603.5,-504 2603.5,-504 2609.5,-504 2615.5,-510 2615.5,-516 2615.5,-516 2615.5,-528 2615.5,-528 2615.5,-534 2609.5,-540 2603.5,-540"/>
<text text-anchor="middle" x="2504" y="-525" font-family="sans" font-size="10.00">get_ccs</text>
<text text-anchor="middle" x="2504" y="-514" font-family="sans" font-size="10.00">pacbioRun: pool2_Wuhan_Hu_1_210701_A</text>
</g>
<!-- 7&#45;&gt;5 -->
<g id="edge18" class="edge">
<title>7&#45;&gt;5</title>
<path fill="none" stroke="grey" stroke-width="2" d="M2392.26,-504.75C2389.48,-504.48 2386.73,-504.23 2384,-504 1827.42,-456.8 1679.92,-533.04 1121.65,-468.06"/>
<polygon fill="grey" stroke="grey" stroke-width="2" points="1121.66,-464.53 1111.32,-466.84 1120.84,-471.49 1121.66,-464.53"/>
</g>
<!-- 7&#45;&gt;18 -->
<g id="edge30" class="edge">
<title>7&#45;&gt;18</title>
<path fill="none" stroke="grey" stroke-width="2" d="M2392.26,-504.76C2389.48,-504.49 2386.73,-504.24 2384,-504 1884.93,-460.86 1750.82,-539.2 1250.51,-467.83"/>
<polygon fill="grey" stroke="grey" stroke-width="2" points="1250.9,-464.35 1240.5,-466.39 1249.9,-471.28 1250.9,-464.35"/>
</g>
<!-- 7&#45;&gt;19 -->
<g id="edge42" class="edge">
<title>7&#45;&gt;19</title>
<path fill="none" stroke="grey" stroke-width="2" d="M2392.26,-504.78C2389.48,-504.5 2386.72,-504.24 2384,-504 1939.67,-464.66 1822.45,-532.01 1381,-468 1380.9,-467.99 1380.8,-467.97 1380.69,-467.96"/>
<polygon fill="grey" stroke="grey" stroke-width="2" points="1381.45,-464.53 1371,-466.3 1380.27,-471.43 1381.45,-464.53"/>
</g>
<!-- 7&#45;&gt;20 -->
<g id="edge54" class="edge">
<title>7&#45;&gt;20</title>
<path fill="none" stroke="grey" stroke-width="2" d="M2392.25,-504.85C2389.48,-504.55 2386.72,-504.27 2384,-504 2057.19,-471.69 1664.3,-457.43 1510.88,-452.81"/>
<polygon fill="grey" stroke="grey" stroke-width="2" points="1510.79,-449.3 1500.69,-452.5 1510.58,-456.3 1510.79,-449.3"/>
</g>
<!-- 8 -->
<g id="node9" class="node">
<title>8</title>
<path fill="none" stroke="#d8d356" stroke-width="2" d="M178,-540C178,-540 12,-540 12,-540 6,-540 0,-534 0,-528 0,-528 0,-516 0,-516 0,-510 6,-504 12,-504 12,-504 178,-504 178,-504 184,-504 190,-510 190,-516 190,-516 190,-528 190,-528 190,-534 184,-540 178,-540"/>
<text text-anchor="middle" x="95" y="-525" font-family="sans" font-size="10.00">get_ccs</text>
<text text-anchor="middle" x="95" y="-514" font-family="sans" font-size="10.00">pacbioRun: pool1_E484K_210701_A</text>
</g>
<!-- 8&#45;&gt;5 -->
<g id="edge19" class="edge">
<title>8&#45;&gt;5</title>
<path fill="none" stroke="grey" stroke-width="2" d="M190.16,-505.06C193.14,-504.68 196.09,-504.33 199,-504 475.78,-472.72 806.11,-458.64 956.78,-453.49"/>
<polygon fill="grey" stroke="grey" stroke-width="2" points="957,-456.98 966.88,-453.14 956.76,-449.98 957,-456.98"/>
</g>
<!-- 8&#45;&gt;18 -->
<g id="edge31" class="edge">
<title>8&#45;&gt;18</title>
<path fill="none" stroke="grey" stroke-width="2" d="M190.15,-504.97C193.13,-504.62 196.09,-504.29 199,-504 603.29,-463.21 713.04,-527.13 1119.53,-467.83"/>
<polygon fill="grey" stroke="grey" stroke-width="2" points="1120.11,-471.28 1129.49,-466.36 1119.09,-464.36 1120.11,-471.28"/>
</g>
<!-- 8&#45;&gt;19 -->
<g id="edge43" class="edge">
<title>8&#45;&gt;19</title>
<path fill="none" stroke="grey" stroke-width="2" d="M190.15,-504.95C193.13,-504.6 196.09,-504.29 199,-504 663.69,-458.24 786.84,-534.63 1249,-468 1249.1,-467.99 1249.21,-467.97 1249.31,-467.96"/>
<polygon fill="grey" stroke="grey" stroke-width="2" points="1249.73,-471.43 1259,-466.31 1248.55,-464.53 1249.73,-471.43"/>
</g>
<!-- 8&#45;&gt;20 -->
<g id="edge55" class="edge">
<title>8&#45;&gt;20</title>
<path fill="none" stroke="grey" stroke-width="2" d="M190.15,-504.93C193.13,-504.59 196.09,-504.28 199,-504 718.38,-453.85 858.46,-541.78 1379.47,-467.83"/>
<polygon fill="grey" stroke="grey" stroke-width="2" points="1380.1,-471.28 1389.5,-466.39 1379.1,-464.35 1380.1,-471.28"/>
</g>
<!-- 9 -->
<g id="node10" class="node">
<title>9</title>
<path fill="none" stroke="#d8d356" stroke-width="2" d="M386,-540C386,-540 220,-540 220,-540 214,-540 208,-534 208,-528 208,-528 208,-516 208,-516 208,-510 214,-504 220,-504 220,-504 386,-504 386,-504 392,-504 398,-510 398,-516 398,-516 398,-528 398,-528 398,-534 392,-540 386,-540"/>
<text text-anchor="middle" x="303" y="-525" font-family="sans" font-size="10.00">get_ccs</text>
<text text-anchor="middle" x="303" y="-514" font-family="sans" font-size="10.00">pacbioRun: pool2_E484K_210701_A</text>
</g>
<!-- 9&#45;&gt;5 -->
<g id="edge20" class="edge">
<title>9&#45;&gt;5</title>
<path fill="none" stroke="grey" stroke-width="2" d="M398.17,-505.14C401.15,-504.74 404.09,-504.36 407,-504 603.44,-479.75 835.62,-463.42 956.5,-455.85"/>
<polygon fill="grey" stroke="grey" stroke-width="2" points="957.01,-459.32 966.78,-455.21 956.58,-452.34 957.01,-459.32"/>
</g>
<!-- 9&#45;&gt;18 -->
<g id="edge32" class="edge">
<title>9&#45;&gt;18</title>
<path fill="none" stroke="grey" stroke-width="2" d="M398.16,-505.01C401.14,-504.65 404.09,-504.31 407,-504 719.11,-470.72 804.59,-515.42 1119.16,-467.9"/>
<polygon fill="grey" stroke="grey" stroke-width="2" points="1120.13,-471.29 1129.49,-466.32 1119.07,-464.37 1120.13,-471.29"/>
</g>
<!-- 9&#45;&gt;19 -->
<g id="edge44" class="edge">
<title>9&#45;&gt;19</title>
<path fill="none" stroke="grey" stroke-width="2" d="M398.15,-504.98C401.13,-504.63 404.09,-504.3 407,-504 779.6,-465.72 878.5,-523.02 1249,-468 1249.1,-467.98 1249.2,-467.97 1249.31,-467.95"/>
<polygon fill="grey" stroke="grey" stroke-width="2" points="1249.74,-471.43 1258.99,-466.28 1248.54,-464.53 1249.74,-471.43"/>
</g>
<!-- 9&#45;&gt;20 -->
<g id="edge56" class="edge">
<title>9&#45;&gt;20</title>
<path fill="none" stroke="grey" stroke-width="2" d="M398.15,-504.96C401.13,-504.61 404.09,-504.29 407,-504 834.24,-461.35 950.08,-530.04 1379.3,-467.86"/>
<polygon fill="grey" stroke="grey" stroke-width="2" points="1380.11,-471.28 1389.5,-466.37 1379.09,-464.36 1380.11,-471.28"/>
</g>
<!-- 10 -->
<g id="node11" class="node">
<title>10</title>
<path fill="none" stroke="#d8d356" stroke-width="2" d="M595.5,-540C595.5,-540 428.5,-540 428.5,-540 422.5,-540 416.5,-534 416.5,-528 416.5,-528 416.5,-516 416.5,-516 416.5,-510 422.5,-504 428.5,-504 428.5,-504 595.5,-504 595.5,-504 601.5,-504 607.5,-510 607.5,-516 607.5,-516 607.5,-528 607.5,-528 607.5,-534 601.5,-540 595.5,-540"/>
<text text-anchor="middle" x="512" y="-525" font-family="sans" font-size="10.00">get_ccs</text>
<text text-anchor="middle" x="512" y="-514" font-family="sans" font-size="10.00">pacbioRun: pool1_N501Y_210701_A</text>
</g>
<!-- 10&#45;&gt;5 -->
<g id="edge21" class="edge">
<title>10&#45;&gt;5</title>
<path fill="none" stroke="grey" stroke-width="2" d="M607.75,-505.21C610.53,-504.8 613.28,-504.39 616,-504 734.08,-486.96 871.17,-470.36 956.52,-460.41"/>
<polygon fill="grey" stroke="grey" stroke-width="2" points="957.13,-463.86 966.66,-459.23 956.32,-456.91 957.13,-463.86"/>
</g>
<!-- 10&#45;&gt;18 -->
<g id="edge33" class="edge">
<title>10&#45;&gt;18</title>
<path fill="none" stroke="grey" stroke-width="2" d="M607.72,-505.02C610.51,-504.66 613.27,-504.32 616,-504 835.78,-478.24 896.65,-503.8 1119.43,-467.88"/>
<polygon fill="grey" stroke="grey" stroke-width="2" points="1120.17,-471.31 1129.48,-466.24 1119.04,-464.4 1120.17,-471.31"/>
</g>
<!-- 10&#45;&gt;19 -->
<g id="edge45" class="edge">
<title>10&#45;&gt;19</title>
<path fill="none" stroke="grey" stroke-width="2" d="M607.72,-504.97C610.51,-504.62 613.27,-504.3 616,-504 896.1,-473.23 970.57,-511.35 1249,-468 1249.1,-467.98 1249.2,-467.97 1249.31,-467.95"/>
<polygon fill="grey" stroke="grey" stroke-width="2" points="1249.76,-471.43 1258.99,-466.22 1248.53,-464.54 1249.76,-471.43"/>
</g>
<!-- 10&#45;&gt;20 -->
<g id="edge57" class="edge">
<title>10&#45;&gt;20</title>
<path fill="none" stroke="grey" stroke-width="2" d="M607.71,-504.93C610.5,-504.6 613.27,-504.29 616,-504 950.77,-468.87 1042.18,-518.3 1379.44,-467.85"/>
<polygon fill="grey" stroke="grey" stroke-width="2" points="1380.13,-471.29 1389.49,-466.33 1379.08,-464.37 1380.13,-471.29"/>
</g>
<!-- 11 -->
<g id="node12" class="node">
<title>11</title>
<path fill="none" stroke="#d8d356" stroke-width="2" d="M804.5,-540C804.5,-540 637.5,-540 637.5,-540 631.5,-540 625.5,-534 625.5,-528 625.5,-528 625.5,-516 625.5,-516 625.5,-510 631.5,-504 637.5,-504 637.5,-504 804.5,-504 804.5,-504 810.5,-504 816.5,-510 816.5,-516 816.5,-516 816.5,-528 816.5,-528 816.5,-534 810.5,-540 804.5,-540"/>
<text text-anchor="middle" x="721" y="-525" font-family="sans" font-size="10.00">get_ccs</text>
<text text-anchor="middle" x="721" y="-514" font-family="sans" font-size="10.00">pacbioRun: pool2_N501Y_210701_A</text>
</g>
<!-- 11&#45;&gt;5 -->
<g id="edge22" class="edge">
<title>11&#45;&gt;5</title>
<path fill="none" stroke="grey" stroke-width="2" d="M798.38,-503.97C846.46,-493.38 908.19,-479.8 957.08,-469.03"/>
<polygon fill="grey" stroke="grey" stroke-width="2" points="957.99,-472.42 967,-466.85 956.48,-465.58 957.99,-472.42"/>
</g>
<!-- 11&#45;&gt;18 -->
<g id="edge34" class="edge">
<title>11&#45;&gt;18</title>
<path fill="none" stroke="grey" stroke-width="2" d="M816.55,-505.37C819.73,-504.9 822.89,-504.44 826,-504 953.15,-485.93 988.96,-492.37 1119.46,-467.95"/>
<polygon fill="grey" stroke="grey" stroke-width="2" points="1120.27,-471.36 1129.44,-466.05 1118.97,-464.48 1120.27,-471.36"/>
</g>
<!-- 11&#45;&gt;19 -->
<g id="edge46" class="edge">
<title>11&#45;&gt;19</title>
<path fill="none" stroke="grey" stroke-width="2" d="M816.53,-505.22C819.72,-504.79 822.88,-504.38 826,-504 1013.26,-480.91 1062.99,-499.64 1249,-468 1249.1,-467.98 1249.2,-467.97 1249.31,-467.95"/>
<polygon fill="grey" stroke="grey" stroke-width="2" points="1249.8,-471.42 1258.97,-466.11 1248.49,-464.54 1249.8,-471.42"/>
</g>
<!-- 11&#45;&gt;20 -->
<g id="edge58" class="edge">
<title>11&#45;&gt;20</title>
<path fill="none" stroke="grey" stroke-width="2" d="M816.52,-505.14C819.71,-504.73 822.88,-504.35 826,-504 1067.94,-476.62 1134.67,-506.58 1379.57,-467.85"/>
<polygon fill="grey" stroke="grey" stroke-width="2" points="1380.16,-471.3 1389.48,-466.27 1379.05,-464.39 1380.16,-471.3"/>
</g>
<!-- 12 -->
<g id="node13" class="node">
<title>12</title>
<path fill="none" stroke="#d8d356" stroke-width="2" d="M1013,-540C1013,-540 847,-540 847,-540 841,-540 835,-534 835,-528 835,-528 835,-516 835,-516 835,-510 841,-504 847,-504 847,-504 1013,-504 1013,-504 1019,-504 1025,-510 1025,-516 1025,-516 1025,-528 1025,-528 1025,-534 1019,-540 1013,-540"/>
<text text-anchor="middle" x="930" y="-525" font-family="sans" font-size="10.00">get_ccs</text>
<text text-anchor="middle" x="930" y="-514" font-family="sans" font-size="10.00">pacbioRun: pool1_B1351_210701_A</text>
</g>
<!-- 12&#45;&gt;5 -->
<g id="edge23" class="edge">
<title>12&#45;&gt;5</title>
<path fill="none" stroke="grey" stroke-width="2" d="M956.66,-503.88C970.78,-494.81 988.31,-483.55 1003.56,-473.76"/>
<polygon fill="grey" stroke="grey" stroke-width="2" points="1005.71,-476.54 1012.23,-468.19 1001.93,-470.65 1005.71,-476.54"/>
</g>
<!-- 12&#45;&gt;18 -->
<g id="edge35" class="edge">
<title>12&#45;&gt;18</title>
<path fill="none" stroke="grey" stroke-width="2" d="M992.05,-503.97C1030.65,-493.37 1080.23,-479.76 1119.46,-468.99"/>
<polygon fill="grey" stroke="grey" stroke-width="2" points="1120.48,-472.34 1129.2,-466.32 1118.63,-465.59 1120.48,-472.34"/>
</g>
<!-- 12&#45;&gt;19 -->
<g id="edge47" class="edge">
<title>12&#45;&gt;19</title>
<path fill="none" stroke="grey" stroke-width="2" d="M1025.04,-505.42C1115.01,-490.63 1237.96,-470.33 1249,-468 1249.1,-467.98 1249.2,-467.96 1249.3,-467.94"/>
<polygon fill="grey" stroke="grey" stroke-width="2" points="1249.91,-471.39 1258.91,-465.8 1248.39,-464.55 1249.91,-471.39"/>
</g>
<!-- 12&#45;&gt;20 -->
<g id="edge59" class="edge">
<title>12&#45;&gt;20</title>
<path fill="none" stroke="grey" stroke-width="2" d="M1025.18,-505.21C1028.15,-504.79 1031.1,-504.39 1034,-504 1183.95,-483.96 1226.08,-495.13 1379.21,-467.97"/>
<polygon fill="grey" stroke="grey" stroke-width="2" points="1380.23,-471.34 1389.46,-466.12 1378.99,-464.45 1380.23,-471.34"/>
</g>
<!-- 13 -->
<g id="node14" class="node">
<title>13</title>
<path fill="none" stroke="#d8d356" stroke-width="2" d="M1221,-540C1221,-540 1055,-540 1055,-540 1049,-540 1043,-534 1043,-528 1043,-528 1043,-516 1043,-516 1043,-510 1049,-504 1055,-504 1055,-504 1221,-504 1221,-504 1227,-504 1233,-510 1233,-516 1233,-516 1233,-528 1233,-528 1233,-534 1227,-540 1221,-540"/>
<text text-anchor="middle" x="1138" y="-525" font-family="sans" font-size="10.00">get_ccs</text>
<text text-anchor="middle" x="1138" y="-514" font-family="sans" font-size="10.00">pacbioRun: pool2_B1351_210701_A</text>
</g>
<!-- 13&#45;&gt;5 -->
<g id="edge24" class="edge">
<title>13&#45;&gt;5</title>
<path fill="none" stroke="grey" stroke-width="2" d="M1113.78,-503.88C1101.08,-494.89 1085.34,-483.76 1071.58,-474.03"/>
<polygon fill="grey" stroke="grey" stroke-width="2" points="1073.5,-471.11 1063.31,-468.19 1069.46,-476.82 1073.5,-471.11"/>
</g>
<!-- 13&#45;&gt;18 -->
<g id="edge36" class="edge">
<title>13&#45;&gt;18</title>
<path fill="none" stroke="grey" stroke-width="2" d="M1149.62,-503.7C1155.14,-495.47 1161.85,-485.48 1167.93,-476.42"/>
<polygon fill="grey" stroke="grey" stroke-width="2" points="1170.85,-478.36 1173.52,-468.1 1165.04,-474.46 1170.85,-478.36"/>
</g>
<!-- 13&#45;&gt;19 -->
<g id="edge48" class="edge">
<title>13&#45;&gt;19</title>
<path fill="none" stroke="grey" stroke-width="2" d="M1181.3,-503.88C1205.71,-494.22 1236.4,-482.09 1262.21,-471.88"/>
<polygon fill="grey" stroke="grey" stroke-width="2" points="1263.83,-475 1271.84,-468.07 1261.26,-468.49 1263.83,-475"/>
</g>
<!-- 13&#45;&gt;20 -->
<g id="edge60" class="edge">
<title>13&#45;&gt;20</title>
<path fill="none" stroke="grey" stroke-width="2" d="M1219.68,-503.97C1264.2,-494.48 1320.48,-482.16 1379.49,-468.08"/>
<polygon fill="grey" stroke="grey" stroke-width="2" points="1380.46,-471.44 1389.37,-465.71 1378.83,-464.64 1380.46,-471.44"/>
</g>
<!-- 14 -->
<g id="node15" class="node">
<title>14</title>
<path fill="none" stroke="#d8d356" stroke-width="2" d="M1462.5,-540C1462.5,-540 1263.5,-540 1263.5,-540 1257.5,-540 1251.5,-534 1251.5,-528 1251.5,-528 1251.5,-516 1251.5,-516 1251.5,-510 1257.5,-504 1263.5,-504 1263.5,-504 1462.5,-504 1462.5,-504 1468.5,-504 1474.5,-510 1474.5,-516 1474.5,-516 1474.5,-528 1474.5,-528 1474.5,-534 1468.5,-540 1462.5,-540"/>
<text text-anchor="middle" x="1363" y="-525" font-family="sans" font-size="10.00">get_ccs</text>
<text text-anchor="middle" x="1363" y="-514" font-family="sans" font-size="10.00">pacbioRun: pool1_Wuhan_Hu_1_211118_A</text>
</g>
<!-- 14&#45;&gt;5 -->
<g id="edge25" class="edge">
<title>14&#45;&gt;5</title>
<path fill="none" stroke="grey" stroke-width="2" d="M1284.15,-503.97C1234.72,-493.29 1171.12,-479.54 1121.08,-468.73"/>
<polygon fill="grey" stroke="grey" stroke-width="2" points="1121.78,-465.3 1111.26,-466.61 1120.3,-472.15 1121.78,-465.3"/>
</g>
<!-- 14&#45;&gt;18 -->
<g id="edge37" class="edge">
<title>14&#45;&gt;18</title>
<path fill="none" stroke="grey" stroke-width="2" d="M1319.46,-503.88C1294.8,-494.18 1263.78,-481.98 1237.75,-471.74"/>
<polygon fill="grey" stroke="grey" stroke-width="2" points="1238.99,-468.47 1228.4,-468.07 1236.43,-474.99 1238.99,-468.47"/>
</g>
<!-- 14&#45;&gt;19 -->
<g id="edge49" class="edge">
<title>14&#45;&gt;19</title>
<path fill="none" stroke="grey" stroke-width="2" d="M1351.13,-503.7C1345.5,-495.47 1338.65,-485.48 1332.43,-476.42"/>
<polygon fill="grey" stroke="grey" stroke-width="2" points="1335.27,-474.37 1326.73,-468.1 1329.5,-478.33 1335.27,-474.37"/>
</g>
<!-- 14&#45;&gt;20 -->
<g id="edge61" class="edge">
<title>14&#45;&gt;20</title>
<path fill="none" stroke="grey" stroke-width="2" d="M1383.27,-503.7C1393.5,-494.97 1406.06,-484.24 1417.18,-474.75"/>
<polygon fill="grey" stroke="grey" stroke-width="2" points="1419.63,-477.26 1424.96,-468.1 1415.09,-471.94 1419.63,-477.26"/>
</g>
<!-- 15 -->
<g id="node16" class="node">
<title>15</title>
<path fill="none" stroke="#d8d356" stroke-width="2" d="M1703.5,-540C1703.5,-540 1504.5,-540 1504.5,-540 1498.5,-540 1492.5,-534 1492.5,-528 1492.5,-528 1492.5,-516 1492.5,-516 1492.5,-510 1498.5,-504 1504.5,-504 1504.5,-504 1703.5,-504 1703.5,-504 1709.5,-504 1715.5,-510 1715.5,-516 1715.5,-516 1715.5,-528 1715.5,-528 1715.5,-534 1709.5,-540 1703.5,-540"/>
<text text-anchor="middle" x="1604" y="-525" font-family="sans" font-size="10.00">get_ccs</text>
<text text-anchor="middle" x="1604" y="-514" font-family="sans" font-size="10.00">pacbioRun: pool1_Wuhan_Hu_1_211118_B</text>
</g>
<!-- 15&#45;&gt;5 -->
<g id="edge26" class="edge">
<title>15&#45;&gt;5</title>
<path fill="none" stroke="grey" stroke-width="2" d="M1492.24,-505.01C1489.47,-504.66 1486.72,-504.33 1484,-504 1325.91,-484.99 1282.44,-492.41 1121.61,-468.16"/>
<polygon fill="grey" stroke="grey" stroke-width="2" points="1121.77,-464.64 1111.35,-466.59 1120.71,-471.56 1121.77,-464.64"/>
</g>
<!-- 15&#45;&gt;18 -->
<g id="edge38" class="edge">
<title>15&#45;&gt;18</title>
<path fill="none" stroke="grey" stroke-width="2" d="M1492.27,-504.89C1405.35,-492.26 1293.67,-475.79 1250.46,-467.87"/>
<polygon fill="grey" stroke="grey" stroke-width="2" points="1251.06,-464.42 1240.58,-465.95 1249.73,-471.29 1251.06,-464.42"/>
</g>
<!-- 15&#45;&gt;19 -->
<g id="edge50" class="edge">
<title>15&#45;&gt;19</title>
<path fill="none" stroke="grey" stroke-width="2" d="M1530.85,-503.98C1487.28,-493.75 1430.93,-480.36 1381,-468 1380.9,-467.98 1380.8,-467.95 1380.7,-467.93"/>
<polygon fill="grey" stroke="grey" stroke-width="2" points="1381.7,-464.57 1371.15,-465.54 1380,-471.36 1381.7,-464.57"/>
</g>
<!-- 15&#45;&gt;20 -->
<g id="edge62" class="edge">
<title>15&#45;&gt;20</title>
<path fill="none" stroke="grey" stroke-width="2" d="M1565.1,-503.88C1543.37,-494.31 1516.1,-482.3 1493.04,-472.15"/>
<polygon fill="grey" stroke="grey" stroke-width="2" points="1494.33,-468.89 1483.77,-468.07 1491.51,-475.3 1494.33,-468.89"/>
</g>
<!-- 16 -->
<g id="node17" class="node">
<title>16</title>
<path fill="none" stroke="#d8d356" stroke-width="2" d="M1912.5,-540C1912.5,-540 1745.5,-540 1745.5,-540 1739.5,-540 1733.5,-534 1733.5,-528 1733.5,-528 1733.5,-516 1733.5,-516 1733.5,-510 1739.5,-504 1745.5,-504 1745.5,-504 1912.5,-504 1912.5,-504 1918.5,-504 1924.5,-510 1924.5,-516 1924.5,-516 1924.5,-528 1924.5,-528 1924.5,-534 1918.5,-540 1912.5,-540"/>
<text text-anchor="middle" x="1829" y="-525" font-family="sans" font-size="10.00">get_ccs</text>
<text text-anchor="middle" x="1829" y="-514" font-family="sans" font-size="10.00">pacbioRun: pool1_N501Y_211118_A</text>
</g>
<!-- 16&#45;&gt;5 -->
<g id="edge27" class="edge">
<title>16&#45;&gt;5</title>
<path fill="none" stroke="grey" stroke-width="2" d="M1733.28,-504.97C1730.49,-504.63 1727.73,-504.3 1725,-504 1460.55,-474.6 1388.73,-503.05 1121.34,-468.06"/>
<polygon fill="grey" stroke="grey" stroke-width="2" points="1121.71,-464.58 1111.33,-466.73 1120.79,-471.52 1121.71,-464.58"/>
</g>
<!-- 16&#45;&gt;18 -->
<g id="edge39" class="edge">
<title>16&#45;&gt;18</title>
<path fill="none" stroke="grey" stroke-width="2" d="M1733.27,-505.03C1730.49,-504.67 1727.72,-504.33 1725,-504 1518.06,-479.29 1460.6,-502.19 1250.64,-467.9"/>
<polygon fill="grey" stroke="grey" stroke-width="2" points="1250.96,-464.41 1240.53,-466.23 1249.82,-471.31 1250.96,-464.41"/>
</g>
<!-- 16&#45;&gt;19 -->
<g id="edge51" class="edge">
<title>16&#45;&gt;19</title>
<path fill="none" stroke="grey" stroke-width="2" d="M1733.26,-505.14C1730.48,-504.74 1727.72,-504.36 1725,-504 1572.64,-483.59 1532.29,-495.25 1381,-468 1380.9,-467.98 1380.8,-467.96 1380.69,-467.94"/>
<polygon fill="grey" stroke="grey" stroke-width="2" points="1381.53,-464.54 1371.05,-466.04 1380.18,-471.41 1381.53,-464.54"/>
</g>
<!-- 16&#45;&gt;20 -->
<g id="edge63" class="edge">
<title>16&#45;&gt;20</title>
<path fill="none" stroke="grey" stroke-width="2" d="M1735.55,-503.97C1665.95,-491.28 1572.63,-474.27 1510.74,-462.98"/>
<polygon fill="grey" stroke="grey" stroke-width="2" points="1511.18,-459.51 1500.71,-461.16 1509.92,-466.39 1511.18,-459.51"/>
</g>
<!-- 17 -->
<g id="node18" class="node">
<title>17</title>
<path fill="none" stroke="#d8d356" stroke-width="2" d="M2121.5,-540C2121.5,-540 1954.5,-540 1954.5,-540 1948.5,-540 1942.5,-534 1942.5,-528 1942.5,-528 1942.5,-516 1942.5,-516 1942.5,-510 1948.5,-504 1954.5,-504 1954.5,-504 2121.5,-504 2121.5,-504 2127.5,-504 2133.5,-510 2133.5,-516 2133.5,-516 2133.5,-528 2133.5,-528 2133.5,-534 2127.5,-540 2121.5,-540"/>
<text text-anchor="middle" x="2038" y="-525" font-family="sans" font-size="10.00">get_ccs</text>
<text text-anchor="middle" x="2038" y="-514" font-family="sans" font-size="10.00">pacbioRun: pool1_N501Y_211118_B</text>
</g>
<!-- 17&#45;&gt;5 -->
<g id="edge28" class="edge">
<title>17&#45;&gt;5</title>
<path fill="none" stroke="grey" stroke-width="2" d="M1942.29,-504.92C1939.5,-504.59 1936.73,-504.28 1934,-504 1577.13,-467.07 1481.06,-512.48 1121.5,-468.06"/>
<polygon fill="grey" stroke="grey" stroke-width="2" points="1121.68,-464.56 1111.32,-466.79 1120.81,-471.5 1121.68,-464.56"/>
</g>
<!-- 17&#45;&gt;18 -->
<g id="edge40" class="edge">
<title>17&#45;&gt;18</title>
<path fill="none" stroke="grey" stroke-width="2" d="M1942.28,-504.95C1939.49,-504.61 1936.73,-504.29 1934,-504 1634.58,-471.75 1552.56,-513.83 1250.43,-467.84"/>
<polygon fill="grey" stroke="grey" stroke-width="2" points="1250.93,-464.38 1240.51,-466.31 1249.86,-471.29 1250.93,-464.38"/>
</g>
<!-- 17&#45;&gt;19 -->
<g id="edge52" class="edge">
<title>17&#45;&gt;19</title>
<path fill="none" stroke="grey" stroke-width="2" d="M1942.28,-504.99C1939.49,-504.64 1936.73,-504.31 1934,-504 1689.29,-476.1 1624.21,-506.89 1381,-468 1380.9,-467.98 1380.8,-467.97 1380.69,-467.95"/>
<polygon fill="grey" stroke="grey" stroke-width="2" points="1381.48,-464.54 1371.02,-466.19 1380.23,-471.42 1381.48,-464.54"/>
</g>
<!-- 17&#45;&gt;20 -->
<g id="edge64" class="edge">
<title>17&#45;&gt;20</title>
<path fill="none" stroke="grey" stroke-width="2" d="M1942.26,-505.15C1939.48,-504.75 1936.72,-504.37 1934,-504 1783.12,-483.51 1605.18,-465.85 1511.08,-457.02"/>
<polygon fill="grey" stroke="grey" stroke-width="2" points="1511.14,-453.51 1500.85,-456.06 1510.49,-460.48 1511.14,-453.51"/>
</g>
<!-- 18&#45;&gt;0 -->
<g id="edge6" class="edge">
<title>18&#45;&gt;0</title>
<path fill="none" stroke="grey" stroke-width="2" d="M1143.87,-431.9C1098.85,-410.12 1033,-367.85 1033,-307 1033,-307 1033,-307 1033,-161 1033,-74.46 1148.61,-39.84 1221.32,-26.62"/>
<polygon fill="grey" stroke="grey" stroke-width="2" points="1222.02,-30.05 1231.28,-24.9 1220.83,-23.15 1222.02,-30.05"/>
</g>
<!-- 18&#45;&gt;21 -->
<g id="edge66" class="edge">
<title>18&#45;&gt;21</title>
<path fill="none" stroke="grey" stroke-width="2" d="M1212.15,-431.88C1226.53,-422.81 1244.38,-411.55 1259.91,-401.76"/>
<polygon fill="grey" stroke="grey" stroke-width="2" points="1262.15,-404.48 1268.74,-396.19 1258.42,-398.56 1262.15,-404.48"/>
</g>
<!-- 18&#45;&gt;22 -->
<g id="edge70" class="edge">
<title>18&#45;&gt;22</title>
<path fill="none" stroke="grey" stroke-width="2" d="M1174.63,-431.87C1159.71,-407.24 1132.09,-361.64 1114.68,-332.88"/>
<polygon fill="grey" stroke="grey" stroke-width="2" points="1117.58,-330.93 1109.41,-324.19 1111.6,-334.56 1117.58,-330.93"/>
</g>
<!-- 18&#45;&gt;23 -->
<g id="edge75" class="edge">
<title>18&#45;&gt;23</title>
<path fill="none" stroke="grey" stroke-width="2" d="M1192.17,-431.66C1201.15,-411.86 1218.28,-379.69 1242,-360 1259.84,-345.19 1282.37,-334.09 1303.69,-325.98"/>
<polygon fill="grey" stroke="grey" stroke-width="2" points="1305.17,-329.16 1313.38,-322.46 1302.78,-322.59 1305.17,-329.16"/>
</g>
<!-- 19&#45;&gt;0 -->
<g id="edge7" class="edge">
<title>19&#45;&gt;0</title>
<path fill="none" stroke="grey" stroke-width="2" d="M1371.03,-433.86C1374.39,-433.17 1377.73,-432.54 1381,-432 1432.45,-423.46 1809.74,-430.34 1849,-396 1879.44,-369.37 1868,-347.45 1868,-307 1868,-307 1868,-307 1868,-161 1868,-52.5 1485.5,-26.66 1336.98,-20.71"/>
<polygon fill="grey" stroke="grey" stroke-width="2" points="1336.83,-17.2 1326.7,-20.32 1336.56,-24.2 1336.83,-17.2"/>
</g>
<!-- 19&#45;&gt;21 -->
<g id="edge67" class="edge">
<title>19&#45;&gt;21</title>
<path fill="none" stroke="grey" stroke-width="2" d="M1310.3,-431.7C1308.19,-423.9 1305.64,-414.51 1303.28,-405.83"/>
<polygon fill="grey" stroke="grey" stroke-width="2" points="1306.64,-404.84 1300.64,-396.1 1299.88,-406.67 1306.64,-404.84"/>
</g>
<!-- 19&#45;&gt;22 -->
<g id="edge71" class="edge">
<title>19&#45;&gt;22</title>
<path fill="none" stroke="grey" stroke-width="2" d="M1288.95,-431.87C1250.11,-406.34 1176.96,-358.25 1133.65,-329.78"/>
<polygon fill="grey" stroke="grey" stroke-width="2" points="1135.43,-326.76 1125.15,-324.19 1131.58,-332.61 1135.43,-326.76"/>
</g>
<!-- 19&#45;&gt;23 -->
<g id="edge76" class="edge">
<title>19&#45;&gt;23</title>
<path fill="none" stroke="grey" stroke-width="2" d="M1328.08,-431.62C1335.1,-421.63 1343.42,-408.59 1349,-396 1357.83,-376.06 1364.06,-352.13 1367.95,-334.11"/>
<polygon fill="grey" stroke="grey" stroke-width="2" points="1371.4,-334.76 1369.98,-324.26 1364.54,-333.35 1371.4,-334.76"/>
</g>
<!-- 20&#45;&gt;0 -->
<g id="edge8" class="edge">
<title>20&#45;&gt;0</title>
<path fill="none" stroke="grey" stroke-width="2" d="M1500.51,-449.09C1602.96,-448.15 1816.49,-440.72 1873,-396 1906.08,-369.82 1906,-349.19 1906,-307 1906,-307 1906,-307 1906,-161 1906,-101.17 1859.84,-95.92 1805,-72 1722.22,-35.88 1455.83,-23.97 1337.08,-20.4"/>
<polygon fill="grey" stroke="grey" stroke-width="2" points="1336.84,-16.89 1326.74,-20.1 1336.63,-23.89 1336.84,-16.89"/>
</g>
<!-- 20&#45;&gt;21 -->
<g id="edge68" class="edge">
<title>20&#45;&gt;21</title>
<path fill="none" stroke="grey" stroke-width="2" d="M1408.55,-431.88C1388.36,-422.39 1363.08,-410.51 1341.59,-400.42"/>
<polygon fill="grey" stroke="grey" stroke-width="2" points="1342.87,-397.15 1332.33,-396.07 1339.89,-403.49 1342.87,-397.15"/>
</g>
<!-- 20&#45;&gt;22 -->
<g id="edge72" class="edge">
<title>20&#45;&gt;22</title>
<path fill="none" stroke="grey" stroke-width="2" d="M1428.74,-431.76C1406.45,-408.52 1367.11,-369.01 1349,-360 1269.76,-320.59 1236.8,-345.8 1146.82,-323.89"/>
<polygon fill="grey" stroke="grey" stroke-width="2" points="1147.6,-320.48 1137.05,-321.38 1145.86,-327.26 1147.6,-320.48"/>
</g>
<!-- 20&#45;&gt;23 -->
<g id="edge77" class="edge">
<title>20&#45;&gt;23</title>
<path fill="none" stroke="grey" stroke-width="2" d="M1436.32,-431.87C1423.88,-407.35 1400.9,-362.03 1386.31,-333.26"/>
<polygon fill="grey" stroke="grey" stroke-width="2" points="1389.36,-331.53 1381.72,-324.19 1383.12,-334.69 1389.36,-331.53"/>
</g>
<!-- 21&#45;&gt;0 -->
<g id="edge9" class="edge">
<title>21&#45;&gt;0</title>
<path fill="none" stroke="grey" stroke-width="2" d="M1340.74,-372.26C1373.49,-366.39 1416.5,-353.28 1442,-324 1468.56,-293.5 1461,-275.45 1461,-235 1461,-235 1461,-235 1461,-161 1461,-96.73 1389.58,-57.26 1336.22,-36.74"/>
<polygon fill="grey" stroke="grey" stroke-width="2" points="1337.41,-33.45 1326.82,-33.24 1334.97,-40.01 1337.41,-33.45"/>
</g>
<!-- 21&#45;&gt;22 -->
<g id="edge73" class="edge">
<title>21&#45;&gt;22</title>
<path fill="none" stroke="grey" stroke-width="2" d="M1251.34,-361.32C1223.65,-351.57 1187.12,-338.67 1146.72,-324.25"/>
<polygon fill="grey" stroke="grey" stroke-width="2" points="1147.81,-320.92 1137.21,-320.85 1145.45,-327.51 1147.81,-320.92"/>
</g>
<!-- 21&#45;&gt;23 -->
<g id="edge78" class="edge">
<title>21&#45;&gt;23</title>
<path fill="none" stroke="grey" stroke-width="2" d="M1315.03,-359.7C1324.54,-351.05 1336.21,-340.45 1346.57,-331.03"/>
<polygon fill="grey" stroke="grey" stroke-width="2" points="1349.14,-333.42 1354.19,-324.1 1344.43,-328.24 1349.14,-333.42"/>
</g>
<!-- 22&#45;&gt;0 -->
<g id="edge10" class="edge">
<title>22&#45;&gt;0</title>
<path fill="none" stroke="grey" stroke-width="2" d="M1096.85,-287.75C1092.59,-245.66 1087.67,-136.44 1141,-72 1160.98,-47.86 1193.3,-34.69 1221.63,-27.52"/>
<polygon fill="grey" stroke="grey" stroke-width="2" points="1222.52,-30.9 1231.46,-25.22 1220.93,-24.09 1222.52,-30.9"/>
</g>
<!-- 22&#45;&gt;24 -->
<g id="edge79" class="edge">
<title>22&#45;&gt;24</title>
<path fill="none" stroke="grey" stroke-width="2" d="M1120.01,-287.7C1130.72,-278.88 1143.89,-268.03 1155.5,-258.47"/>
<polygon fill="grey" stroke="grey" stroke-width="2" points="1157.74,-261.16 1163.23,-252.1 1153.29,-255.76 1157.74,-261.16"/>
</g>
<!-- 23&#45;&gt;0 -->
<g id="edge11" class="edge">
<title>23&#45;&gt;0</title>
<path fill="none" stroke="grey" stroke-width="2" d="M1386.15,-287.91C1392.92,-278.01 1400.49,-264.96 1404,-252 1408.18,-236.56 1407.63,-231.58 1404,-216 1387.8,-146.51 1374.83,-129.81 1333,-72 1325.54,-61.69 1315.99,-51.59 1307.01,-43.03"/>
<polygon fill="grey" stroke="grey" stroke-width="2" points="1309.37,-40.44 1299.65,-36.22 1304.61,-45.58 1309.37,-40.44"/>
</g>
<!-- 23&#45;&gt;24 -->
<g id="edge80" class="edge">
<title>23&#45;&gt;24</title>
<path fill="none" stroke="grey" stroke-width="2" d="M1326.77,-287.88C1300.47,-278.14 1267.36,-265.87 1239.64,-255.61"/>
<polygon fill="grey" stroke="grey" stroke-width="2" points="1240.68,-252.26 1230.08,-252.07 1238.25,-258.82 1240.68,-252.26"/>
</g>
<!-- 24&#45;&gt;0 -->
<g id="edge12" class="edge">
<title>24&#45;&gt;0</title>
<path fill="none" stroke="grey" stroke-width="2" d="M1178.64,-215.55C1170.13,-184.3 1157.11,-117.8 1184,-72 1192.63,-57.3 1206.99,-46.38 1221.96,-38.39"/>
<polygon fill="grey" stroke="grey" stroke-width="2" points="1223.88,-41.35 1231.31,-33.8 1220.79,-35.07 1223.88,-41.35"/>
</g>
<!-- 24&#45;&gt;30 -->
<g id="edge87" class="edge">
<title>24&#45;&gt;30</title>
<path fill="none" stroke="grey" stroke-width="2" d="M1207.97,-215.88C1220.55,-206.89 1236.13,-195.76 1249.75,-186.03"/>
<polygon fill="grey" stroke="grey" stroke-width="2" points="1251.83,-188.85 1257.93,-180.19 1247.76,-183.15 1251.83,-188.85"/>
</g>
<!-- 31 -->
<g id="node32" class="node">
<title>31</title>
<path fill="none" stroke="#78d856" stroke-width="2" d="M1276.5,-108C1276.5,-108 1205.5,-108 1205.5,-108 1199.5,-108 1193.5,-102 1193.5,-96 1193.5,-96 1193.5,-84 1193.5,-84 1193.5,-78 1199.5,-72 1205.5,-72 1205.5,-72 1276.5,-72 1276.5,-72 1282.5,-72 1288.5,-78 1288.5,-84 1288.5,-84 1288.5,-96 1288.5,-96 1288.5,-102 1282.5,-108 1276.5,-108"/>
<text text-anchor="middle" x="1241" y="-87.5" font-family="sans" font-size="10.00">structural_shifts</text>
</g>
<!-- 24&#45;&gt;31 -->
<g id="edge90" class="edge">
<title>24&#45;&gt;31</title>
<path fill="none" stroke="grey" stroke-width="2" d="M1190.88,-215.87C1200.68,-191.46 1218.75,-146.43 1230.31,-117.64"/>
<polygon fill="grey" stroke="grey" stroke-width="2" points="1233.62,-118.77 1234.1,-108.19 1227.13,-116.17 1233.62,-118.77"/>
</g>
<!-- 25 -->
<g id="node26" class="node">
<title>25</title>
<path fill="none" stroke="#56d863" stroke-width="2" d="M1696.5,-324C1696.5,-324 1585.5,-324 1585.5,-324 1579.5,-324 1573.5,-318 1573.5,-312 1573.5,-312 1573.5,-300 1573.5,-300 1573.5,-294 1579.5,-288 1585.5,-288 1585.5,-288 1696.5,-288 1696.5,-288 1702.5,-288 1708.5,-294 1708.5,-300 1708.5,-300 1708.5,-312 1708.5,-312 1708.5,-318 1702.5,-324 1696.5,-324"/>
<text text-anchor="middle" x="1641" y="-303.5" font-family="sans" font-size="10.00">enumerate_UShER_subs</text>
</g>
<!-- 25&#45;&gt;0 -->
<g id="edge13" class="edge">
<title>25&#45;&gt;0</title>
<path fill="none" stroke="grey" stroke-width="2" d="M1645.58,-287.88C1649.62,-269.41 1653.54,-239.49 1644,-216 1610.42,-133.29 1581.67,-116 1504,-72 1451.95,-42.51 1384.23,-29.4 1336.74,-23.58"/>
<polygon fill="grey" stroke="grey" stroke-width="2" points="1336.96,-20.09 1326.62,-22.42 1336.16,-27.04 1336.96,-20.09"/>
</g>
<!-- 29 -->
<g id="node30" class="node">
<title>29</title>
<path fill="none" stroke="#56b9d8" stroke-width="2" d="M1623,-252C1623,-252 1501,-252 1501,-252 1495,-252 1489,-246 1489,-240 1489,-240 1489,-228 1489,-228 1489,-222 1495,-216 1501,-216 1501,-216 1623,-216 1623,-216 1629,-216 1635,-222 1635,-228 1635,-228 1635,-240 1635,-240 1635,-246 1629,-252 1623,-252"/>
<text text-anchor="middle" x="1562" y="-231.5" font-family="sans" font-size="10.00">parse_UShER_subs_N501Y</text>
</g>
<!-- 25&#45;&gt;29 -->
<g id="edge86" class="edge">
<title>25&#45;&gt;29</title>
<path fill="none" stroke="grey" stroke-width="2" d="M1621.47,-287.7C1611.62,-278.97 1599.51,-268.24 1588.8,-258.75"/>
<polygon fill="grey" stroke="grey" stroke-width="2" points="1591.11,-256.12 1581.3,-252.1 1586.47,-261.36 1591.11,-256.12"/>
</g>
<!-- 26 -->
<g id="node27" class="node">
<title>26</title>
<path fill="none" stroke="#d85656" stroke-width="2" d="M1556.5,-396C1556.5,-396 1485.5,-396 1485.5,-396 1479.5,-396 1473.5,-390 1473.5,-384 1473.5,-384 1473.5,-372 1473.5,-372 1473.5,-366 1479.5,-360 1485.5,-360 1485.5,-360 1556.5,-360 1556.5,-360 1562.5,-360 1568.5,-366 1568.5,-372 1568.5,-372 1568.5,-384 1568.5,-384 1568.5,-390 1562.5,-396 1556.5,-396"/>
<text text-anchor="middle" x="1521" y="-375.5" font-family="sans" font-size="10.00">get_UShER_tree</text>
</g>
<!-- 26&#45;&gt;25 -->
<g id="edge82" class="edge">
<title>26&#45;&gt;25</title>
<path fill="none" stroke="grey" stroke-width="2" d="M1550.36,-359.88C1566.05,-350.72 1585.56,-339.34 1602.45,-329.48"/>
<polygon fill="grey" stroke="grey" stroke-width="2" points="1604.66,-332.25 1611.53,-324.19 1601.13,-326.21 1604.66,-332.25"/>
</g>
<!-- 26&#45;&gt;29 -->
<g id="edge85" class="edge">
<title>26&#45;&gt;29</title>
<path fill="none" stroke="grey" stroke-width="2" d="M1525.95,-359.87C1532.96,-335.56 1545.88,-290.82 1554.2,-262.01"/>
<polygon fill="grey" stroke="grey" stroke-width="2" points="1557.63,-262.77 1557.04,-252.19 1550.9,-260.83 1557.63,-262.77"/>
</g>
<!-- 27 -->
<g id="node28" class="node">
<title>27</title>
<path fill="none" stroke="#56d892" stroke-width="2" d="M1683.5,-396C1683.5,-396 1598.5,-396 1598.5,-396 1592.5,-396 1586.5,-390 1586.5,-384 1586.5,-384 1586.5,-372 1586.5,-372 1586.5,-366 1592.5,-360 1598.5,-360 1598.5,-360 1683.5,-360 1683.5,-360 1689.5,-360 1695.5,-366 1695.5,-372 1695.5,-372 1695.5,-384 1695.5,-384 1695.5,-390 1689.5,-396 1683.5,-396"/>
<text text-anchor="middle" x="1641" y="-375.5" font-family="sans" font-size="10.00">get_UShER_gtf_file</text>
</g>
<!-- 27&#45;&gt;25 -->
<g id="edge83" class="edge">
<title>27&#45;&gt;25</title>
<path fill="none" stroke="grey" stroke-width="2" d="M1641,-359.7C1641,-351.98 1641,-342.71 1641,-334.11"/>
<polygon fill="grey" stroke="grey" stroke-width="2" points="1644.5,-334.1 1641,-324.1 1637.5,-334.1 1644.5,-334.1"/>
</g>
<!-- 28 -->
<g id="node29" class="node">
<title>28</title>
<path fill="none" stroke="#d8a456" stroke-width="2" d="M1828,-396C1828,-396 1726,-396 1726,-396 1720,-396 1714,-390 1714,-384 1714,-384 1714,-372 1714,-372 1714,-366 1720,-360 1726,-360 1726,-360 1828,-360 1828,-360 1834,-360 1840,-366 1840,-372 1840,-372 1840,-384 1840,-384 1840,-390 1834,-396 1828,-396"/>
<text text-anchor="middle" x="1777" y="-375.5" font-family="sans" font-size="10.00">get_UShER_refseq_file</text>
</g>
<!-- 28&#45;&gt;25 -->
<g id="edge84" class="edge">
<title>28&#45;&gt;25</title>
<path fill="none" stroke="grey" stroke-width="2" d="M1743.73,-359.88C1725.54,-350.51 1702.81,-338.81 1683.36,-328.8"/>
<polygon fill="grey" stroke="grey" stroke-width="2" points="1684.89,-325.65 1674.4,-324.19 1681.69,-331.88 1684.89,-325.65"/>
</g>
<!-- 29&#45;&gt;0 -->
<g id="edge14" class="edge">
<title>29&#45;&gt;0</title>
<path fill="none" stroke="grey" stroke-width="2" d="M1557.67,-215.98C1548.37,-182.99 1523.32,-110.26 1475,-72 1435.56,-40.77 1379.17,-27.89 1336.99,-22.6"/>
<polygon fill="grey" stroke="grey" stroke-width="2" points="1337.2,-19.1 1326.87,-21.44 1336.4,-26.06 1337.2,-19.1"/>
</g>
<!-- 29&#45;&gt;30 -->
<g id="edge89" class="edge">
<title>29&#45;&gt;30</title>
<path fill="none" stroke="grey" stroke-width="2" d="M1493.86,-215.97C1445.7,-203.93 1381.98,-188 1337.04,-176.76"/>
<polygon fill="grey" stroke="grey" stroke-width="2" points="1337.73,-173.33 1327.18,-174.3 1336.03,-180.12 1337.73,-173.33"/>
</g>
<!-- 30&#45;&gt;0 -->
<g id="edge15" class="edge">
<title>30&#45;&gt;0</title>
<path fill="none" stroke="grey" stroke-width="2" d="M1288.24,-143.59C1291.57,-133.37 1295.32,-120.12 1297,-108 1299.2,-92.15 1299.61,-87.79 1297,-72 1295.56,-63.28 1292.87,-54.06 1290,-45.8"/>
<polygon fill="grey" stroke="grey" stroke-width="2" points="1293.23,-44.46 1286.48,-36.3 1286.67,-46.89 1293.23,-44.46"/>
</g>
<!-- 30&#45;&gt;31 -->
<g id="edge91" class="edge">
<title>30&#45;&gt;31</title>
<path fill="none" stroke="grey" stroke-width="2" d="M1271.87,-143.7C1267.15,-135.64 1261.44,-125.89 1256.22,-116.98"/>
<polygon fill="grey" stroke="grey" stroke-width="2" points="1259.09,-114.96 1251.02,-108.1 1253.05,-118.5 1259.09,-114.96"/>
</g>
<!-- 31&#45;&gt;0 -->
<g id="edge16" class="edge">
<title>31&#45;&gt;0</title>
<path fill="none" stroke="grey" stroke-width="2" d="M1250.39,-71.7C1254.76,-63.64 1260.06,-53.89 1264.9,-44.98"/>
<polygon fill="grey" stroke="grey" stroke-width="2" points="1268.02,-46.56 1269.71,-36.1 1261.87,-43.22 1268.02,-46.56"/>
</g>
</g>
</svg>
