<?xml version="1.0" encoding="UTF-8" standalone="no"?>
<!DOCTYPE svg PUBLIC "-//W3C//DTD SVG 1.1//EN"
 "http://www.w3.org/Graphics/SVG/1.1/DTD/svg11.dtd">
<!-- Generated by graphviz version 2.49.3 (20211104.1129)
 -->
<!-- Title: snakemake_dag Pages: 1 -->
<svg width="2624pt" height="404pt"
 viewBox="0.00 0.00 2624.00 404.00" xmlns="http://www.w3.org/2000/svg" xmlns:xlink="http://www.w3.org/1999/xlink">
<g id="graph0" class="graph" transform="scale(1 1) rotate(0) translate(4 400)">
<title>snakemake_dag</title>
<polygon fill="white" stroke="transparent" points="-4,4 -4,-400 2620,-400 2620,4 -4,4"/>
<!-- 0 -->
<g id="node1" class="node">
<title>0</title>
<path fill="none" stroke="#d88d56" stroke-width="2" d="M1391,-36C1391,-36 1320,-36 1320,-36 1314,-36 1308,-30 1308,-24 1308,-24 1308,-12 1308,-12 1308,-6 1314,0 1320,0 1320,0 1391,0 1391,0 1397,0 1403,-6 1403,-12 1403,-12 1403,-24 1403,-24 1403,-30 1397,-36 1391,-36"/>
<text text-anchor="middle" x="1355.5" y="-15.5" font-family="sans" font-size="10.00">make_summary</text>
</g>
<!-- 1 -->
<g id="node2" class="node">
<title>1</title>
<path fill="none" stroke="#56d8c9" stroke-width="2" d="M884,-108C884,-108 841,-108 841,-108 835,-108 829,-102 829,-96 829,-96 829,-84 829,-84 829,-78 835,-72 841,-72 841,-72 884,-72 884,-72 890,-72 896,-78 896,-84 896,-84 896,-96 896,-96 896,-102 890,-108 884,-108"/>
<text text-anchor="middle" x="862.5" y="-87.5" font-family="sans" font-size="10.00">make_dag</text>
</g>
<!-- 1&#45;&gt;0 -->
<g id="edge1" class="edge">
<title>1&#45;&gt;0</title>
<path fill="none" stroke="grey" stroke-width="2" d="M896.03,-74.79C899.2,-73.74 902.39,-72.78 905.5,-72 1043.49,-37.23 1211.16,-25.13 1297.66,-21.03"/>
<polygon fill="grey" stroke="grey" stroke-width="2" points="1297.97,-24.52 1307.8,-20.57 1297.65,-17.53 1297.97,-24.52"/>
</g>
<!-- 2 -->
<g id="node3" class="node">
<title>2</title>
<path fill="none" stroke="#8fd856" stroke-width="2" d="M1012.5,-108C1012.5,-108 926.5,-108 926.5,-108 920.5,-108 914.5,-102 914.5,-96 914.5,-96 914.5,-84 914.5,-84 914.5,-78 920.5,-72 926.5,-72 926.5,-72 1012.5,-72 1012.5,-72 1018.5,-72 1024.5,-78 1024.5,-84 1024.5,-84 1024.5,-96 1024.5,-96 1024.5,-102 1018.5,-108 1012.5,-108"/>
<text text-anchor="middle" x="969.5" y="-87.5" font-family="sans" font-size="10.00">get_mut_bind_expr</text>
</g>
<!-- 2&#45;&gt;0 -->
<g id="edge2" class="edge">
<title>2&#45;&gt;0</title>
<path fill="none" stroke="grey" stroke-width="2" d="M1024.78,-74.99C1029.41,-73.93 1034.03,-72.92 1038.5,-72 1128.44,-53.43 1233.76,-36.83 1297.51,-27.34"/>
<polygon fill="grey" stroke="grey" stroke-width="2" points="1298.38,-30.75 1307.76,-25.83 1297.36,-23.83 1298.38,-30.75"/>
</g>
<!-- 3 -->
<g id="node4" class="node">
<title>3</title>
<path fill="none" stroke="#d85656" stroke-width="2" d="M1340.5,-180C1340.5,-180 1224.5,-180 1224.5,-180 1218.5,-180 1212.5,-174 1212.5,-168 1212.5,-168 1212.5,-156 1212.5,-156 1212.5,-150 1218.5,-144 1224.5,-144 1224.5,-144 1340.5,-144 1340.5,-144 1346.5,-144 1352.5,-150 1352.5,-156 1352.5,-156 1352.5,-168 1352.5,-168 1352.5,-174 1346.5,-180 1340.5,-180"/>
<text text-anchor="middle" x="1282.5" y="-159.5" font-family="sans" font-size="10.00">get_delta_mut_bind_expr</text>
</g>
<!-- 3&#45;&gt;0 -->
<g id="edge3" class="edge">
<title>3&#45;&gt;0</title>
<path fill="none" stroke="grey" stroke-width="2" d="M1282.69,-143.89C1283.58,-125.16 1287.04,-94.77 1299.5,-72 1305.53,-60.99 1314.65,-50.94 1323.79,-42.62"/>
<polygon fill="grey" stroke="grey" stroke-width="2" points="1326.12,-45.23 1331.41,-36.05 1321.55,-39.93 1326.12,-45.23"/>
</g>
<!-- 23 -->
<g id="node24" class="node">
<title>23</title>
<path fill="none" stroke="#afd856" stroke-width="2" d="M1390.5,-108C1390.5,-108 1320.5,-108 1320.5,-108 1314.5,-108 1308.5,-102 1308.5,-96 1308.5,-96 1308.5,-84 1308.5,-84 1308.5,-78 1314.5,-72 1320.5,-72 1320.5,-72 1390.5,-72 1390.5,-72 1396.5,-72 1402.5,-78 1402.5,-84 1402.5,-84 1402.5,-96 1402.5,-96 1402.5,-102 1396.5,-108 1390.5,-108"/>
<text text-anchor="middle" x="1355.5" y="-87.5" font-family="sans" font-size="10.00">collapse_scores</text>
</g>
<!-- 3&#45;&gt;23 -->
<g id="edge78" class="edge">
<title>3&#45;&gt;23</title>
<path fill="none" stroke="grey" stroke-width="2" d="M1300.54,-143.7C1309.56,-135.05 1320.62,-124.45 1330.44,-115.03"/>
<polygon fill="grey" stroke="grey" stroke-width="2" points="1332.87,-117.55 1337.66,-108.1 1328.02,-112.5 1332.87,-117.55"/>
</g>
<!-- 4 -->
<g id="node5" class="node">
<title>4</title>
<path fill="none" stroke="#56c9d8" stroke-width="2" d="M1156.5,-324C1156.5,-324 1036.5,-324 1036.5,-324 1030.5,-324 1024.5,-318 1024.5,-312 1024.5,-312 1024.5,-300 1024.5,-300 1024.5,-294 1030.5,-288 1036.5,-288 1036.5,-288 1156.5,-288 1156.5,-288 1162.5,-288 1168.5,-294 1168.5,-300 1168.5,-300 1168.5,-312 1168.5,-312 1168.5,-318 1162.5,-324 1156.5,-324"/>
<text text-anchor="middle" x="1096.5" y="-303.5" font-family="sans" font-size="10.00">process_ccs_Wuhan_Hu_1</text>
</g>
<!-- 4&#45;&gt;0 -->
<g id="edge4" class="edge">
<title>4&#45;&gt;0</title>
<path fill="none" stroke="grey" stroke-width="2" d="M1092.85,-287.75C1084.53,-243.16 1069.77,-123.93 1136.5,-72 1182.81,-35.96 1250.03,-23.96 1297.76,-20.2"/>
<polygon fill="grey" stroke="grey" stroke-width="2" points="1298.21,-23.68 1307.94,-19.5 1297.72,-16.69 1298.21,-23.68"/>
</g>
<!-- 20 -->
<g id="node21" class="node">
<title>20</title>
<path fill="none" stroke="#5692d8" stroke-width="2" d="M1386,-252C1386,-252 1321,-252 1321,-252 1315,-252 1309,-246 1309,-240 1309,-240 1309,-228 1309,-228 1309,-222 1315,-216 1321,-216 1321,-216 1386,-216 1386,-216 1392,-216 1398,-222 1398,-228 1398,-228 1398,-240 1398,-240 1398,-246 1392,-252 1386,-252"/>
<text text-anchor="middle" x="1353.5" y="-231.5" font-family="sans" font-size="10.00">count_variants</text>
</g>
<!-- 4&#45;&gt;20 -->
<g id="edge62" class="edge">
<title>4&#45;&gt;20</title>
<path fill="none" stroke="grey" stroke-width="2" d="M1159.04,-287.97C1201.87,-276.3 1258.1,-260.98 1299.08,-249.82"/>
<polygon fill="grey" stroke="grey" stroke-width="2" points="1300.16,-253.16 1308.89,-247.15 1298.32,-246.4 1300.16,-253.16"/>
</g>
<!-- 21 -->
<g id="node22" class="node">
<title>21</title>
<path fill="none" stroke="#70d856" stroke-width="2" d="M1182.5,-180C1182.5,-180 1130.5,-180 1130.5,-180 1124.5,-180 1118.5,-174 1118.5,-168 1118.5,-168 1118.5,-156 1118.5,-156 1118.5,-150 1124.5,-144 1130.5,-144 1130.5,-144 1182.5,-144 1182.5,-144 1188.5,-144 1194.5,-150 1194.5,-156 1194.5,-156 1194.5,-168 1194.5,-168 1194.5,-174 1188.5,-180 1182.5,-180"/>
<text text-anchor="middle" x="1156.5" y="-159.5" font-family="sans" font-size="10.00">fit_titrations</text>
</g>
<!-- 4&#45;&gt;21 -->
<g id="edge66" class="edge">
<title>4&#45;&gt;21</title>
<path fill="none" stroke="grey" stroke-width="2" d="M1103.74,-287.87C1114.05,-263.46 1133.08,-218.43 1145.25,-189.64"/>
<polygon fill="grey" stroke="grey" stroke-width="2" points="1148.57,-190.76 1149.24,-180.19 1142.12,-188.04 1148.57,-190.76"/>
</g>
<!-- 22 -->
<g id="node23" class="node">
<title>22</title>
<path fill="none" stroke="#56d892" stroke-width="2" d="M1478,-180C1478,-180 1383,-180 1383,-180 1377,-180 1371,-174 1371,-168 1371,-168 1371,-156 1371,-156 1371,-150 1377,-144 1383,-144 1383,-144 1478,-144 1478,-144 1484,-144 1490,-150 1490,-156 1490,-156 1490,-168 1490,-168 1490,-174 1484,-180 1478,-180"/>
<text text-anchor="middle" x="1430.5" y="-159.5" font-family="sans" font-size="10.00">calculate_expression</text>
</g>
<!-- 4&#45;&gt;22 -->
<g id="edge71" class="edge">
<title>4&#45;&gt;22</title>
<path fill="none" stroke="grey" stroke-width="2" d="M1125.55,-287.84C1158.83,-268.66 1215.36,-237.47 1266.5,-216 1296.87,-203.25 1331.43,-191.67 1360.98,-182.61"/>
<polygon fill="grey" stroke="grey" stroke-width="2" points="1362.24,-185.88 1370.79,-179.63 1360.21,-179.18 1362.24,-185.88"/>
</g>
<!-- 5 -->
<g id="node6" class="node">
<title>5</title>
<path fill="none" stroke="#56a9d8" stroke-width="2" d="M211,-396C211,-396 12,-396 12,-396 6,-396 0,-390 0,-384 0,-384 0,-372 0,-372 0,-366 6,-360 12,-360 12,-360 211,-360 211,-360 217,-360 223,-366 223,-372 223,-372 223,-384 223,-384 223,-390 217,-396 211,-396"/>
<text text-anchor="middle" x="111.5" y="-381" font-family="sans" font-size="10.00">get_ccs</text>
<text text-anchor="middle" x="111.5" y="-370" font-family="sans" font-size="10.00">pacbioRun: pool1_Wuhan_Hu_1_210701_A</text>
</g>
<!-- 5&#45;&gt;4 -->
<g id="edge14" class="edge">
<title>5&#45;&gt;4</title>
<path fill="none" stroke="grey" stroke-width="2" d="M223.25,-360.87C226.02,-360.57 228.78,-360.28 231.5,-360 518.12,-330.96 859.89,-315.71 1013.97,-309.87"/>
<polygon fill="grey" stroke="grey" stroke-width="2" points="1014.43,-313.36 1024.29,-309.48 1014.17,-306.36 1014.43,-313.36"/>
</g>
<!-- 17 -->
<g id="node18" class="node">
<title>17</title>
<path fill="none" stroke="#d87556" stroke-width="2" d="M1286,-324C1286,-324 1199,-324 1199,-324 1193,-324 1187,-318 1187,-312 1187,-312 1187,-300 1187,-300 1187,-294 1193,-288 1199,-288 1199,-288 1286,-288 1286,-288 1292,-288 1298,-294 1298,-300 1298,-300 1298,-312 1298,-312 1298,-318 1292,-324 1286,-324"/>
<text text-anchor="middle" x="1242.5" y="-303.5" font-family="sans" font-size="10.00">process_ccs_E484K</text>
</g>
<!-- 5&#45;&gt;17 -->
<g id="edge26" class="edge">
<title>5&#45;&gt;17</title>
<path fill="none" stroke="grey" stroke-width="2" d="M223.24,-360.79C226.02,-360.51 228.78,-360.24 231.5,-360 647.3,-322.74 759.54,-384.61 1177.08,-323.82"/>
<polygon fill="grey" stroke="grey" stroke-width="2" points="1177.61,-327.28 1187,-322.37 1176.59,-320.36 1177.61,-327.28"/>
</g>
<!-- 18 -->
<g id="node19" class="node">
<title>18</title>
<path fill="none" stroke="#59d856" stroke-width="2" d="M1416.5,-324C1416.5,-324 1328.5,-324 1328.5,-324 1322.5,-324 1316.5,-318 1316.5,-312 1316.5,-312 1316.5,-300 1316.5,-300 1316.5,-294 1322.5,-288 1328.5,-288 1328.5,-288 1416.5,-288 1416.5,-288 1422.5,-288 1428.5,-294 1428.5,-300 1428.5,-300 1428.5,-312 1428.5,-312 1428.5,-318 1422.5,-324 1416.5,-324"/>
<text text-anchor="middle" x="1372.5" y="-303.5" font-family="sans" font-size="10.00">process_ccs_N501Y</text>
</g>
<!-- 5&#45;&gt;18 -->
<g id="edge38" class="edge">
<title>5&#45;&gt;18</title>
<path fill="none" stroke="grey" stroke-width="2" d="M223.24,-360.77C226.02,-360.5 228.77,-360.24 231.5,-360 707.73,-318.41 833.32,-392.03 1306.5,-324 1306.6,-323.99 1306.71,-323.97 1306.81,-323.96"/>
<polygon fill="grey" stroke="grey" stroke-width="2" points="1307.23,-327.43 1316.5,-322.31 1306.06,-320.53 1307.23,-327.43"/>
</g>
<!-- 19 -->
<g id="node20" class="node">
<title>19</title>
<path fill="none" stroke="#56d873" stroke-width="2" d="M1546,-324C1546,-324 1459,-324 1459,-324 1453,-324 1447,-318 1447,-312 1447,-312 1447,-300 1447,-300 1447,-294 1453,-288 1459,-288 1459,-288 1546,-288 1546,-288 1552,-288 1558,-294 1558,-300 1558,-300 1558,-312 1558,-312 1558,-318 1552,-324 1546,-324"/>
<text text-anchor="middle" x="1502.5" y="-303.5" font-family="sans" font-size="10.00">process_ccs_B1351</text>
</g>
<!-- 5&#45;&gt;19 -->
<g id="edge50" class="edge">
<title>5&#45;&gt;19</title>
<path fill="none" stroke="grey" stroke-width="2" d="M223.24,-360.76C226.02,-360.49 228.77,-360.23 231.5,-360 762.4,-314.61 904.92,-399.24 1436.76,-323.86"/>
<polygon fill="grey" stroke="grey" stroke-width="2" points="1437.6,-327.28 1447,-322.4 1436.61,-320.35 1437.6,-327.28"/>
</g>
<!-- 6 -->
<g id="node7" class="node">
<title>6</title>
<path fill="none" stroke="#56a9d8" stroke-width="2" d="M452,-396C452,-396 253,-396 253,-396 247,-396 241,-390 241,-384 241,-384 241,-372 241,-372 241,-366 247,-360 253,-360 253,-360 452,-360 452,-360 458,-360 464,-366 464,-372 464,-372 464,-384 464,-384 464,-390 458,-396 452,-396"/>
<text text-anchor="middle" x="352.5" y="-381" font-family="sans" font-size="10.00">get_ccs</text>
<text text-anchor="middle" x="352.5" y="-370" font-family="sans" font-size="10.00">pacbioRun: pool2_Wuhan_Hu_1_210701_A</text>
</g>
<!-- 6&#45;&gt;4 -->
<g id="edge15" class="edge">
<title>6&#45;&gt;4</title>
<path fill="none" stroke="grey" stroke-width="2" d="M464.22,-361.08C467.34,-360.7 470.44,-360.34 473.5,-360 666.88,-338.21 894.94,-320.94 1014.27,-312.56"/>
<polygon fill="grey" stroke="grey" stroke-width="2" points="1014.69,-316.03 1024.43,-311.84 1014.21,-309.05 1014.69,-316.03"/>
</g>
<!-- 6&#45;&gt;17 -->
<g id="edge27" class="edge">
<title>6&#45;&gt;17</title>
<path fill="none" stroke="grey" stroke-width="2" d="M464.2,-360.94C467.33,-360.61 470.44,-360.29 473.5,-360 782.02,-330.5 866.08,-371 1176.79,-323.88"/>
<polygon fill="grey" stroke="grey" stroke-width="2" points="1177.63,-327.29 1186.99,-322.32 1176.57,-320.37 1177.63,-327.29"/>
</g>
<!-- 6&#45;&gt;18 -->
<g id="edge39" class="edge">
<title>6&#45;&gt;18</title>
<path fill="none" stroke="grey" stroke-width="2" d="M464.2,-360.91C467.33,-360.58 470.44,-360.28 473.5,-360 842.52,-326.18 939.96,-378.51 1306.5,-324 1306.6,-323.98 1306.7,-323.97 1306.81,-323.95"/>
<polygon fill="grey" stroke="grey" stroke-width="2" points="1307.24,-327.43 1316.49,-322.27 1306.04,-320.53 1307.24,-327.43"/>
</g>
<!-- 6&#45;&gt;19 -->
<g id="edge51" class="edge">
<title>6&#45;&gt;19</title>
<path fill="none" stroke="grey" stroke-width="2" d="M464.2,-360.88C467.33,-360.57 470.44,-360.27 473.5,-360 897.23,-322.42 1011.57,-385.61 1436.89,-323.85"/>
<polygon fill="grey" stroke="grey" stroke-width="2" points="1437.61,-327.28 1447,-322.37 1436.59,-320.36 1437.61,-327.28"/>
</g>
<!-- 7 -->
<g id="node8" class="node">
<title>7</title>
<path fill="none" stroke="#56a9d8" stroke-width="2" d="M660.5,-396C660.5,-396 494.5,-396 494.5,-396 488.5,-396 482.5,-390 482.5,-384 482.5,-384 482.5,-372 482.5,-372 482.5,-366 488.5,-360 494.5,-360 494.5,-360 660.5,-360 660.5,-360 666.5,-360 672.5,-366 672.5,-372 672.5,-372 672.5,-384 672.5,-384 672.5,-390 666.5,-396 660.5,-396"/>
<text text-anchor="middle" x="577.5" y="-381" font-family="sans" font-size="10.00">get_ccs</text>
<text text-anchor="middle" x="577.5" y="-370" font-family="sans" font-size="10.00">pacbioRun: pool1_E484K_210701_A</text>
</g>
<!-- 7&#45;&gt;4 -->
<g id="edge16" class="edge">
<title>7&#45;&gt;4</title>
<path fill="none" stroke="grey" stroke-width="2" d="M672.69,-361.3C675.66,-360.86 678.6,-360.42 681.5,-360 796.84,-343.21 930.66,-326.65 1014.46,-316.62"/>
<polygon fill="grey" stroke="grey" stroke-width="2" points="1014.91,-320.09 1024.42,-315.43 1014.08,-313.14 1014.91,-320.09"/>
</g>
<!-- 7&#45;&gt;17 -->
<g id="edge28" class="edge">
<title>7&#45;&gt;17</title>
<path fill="none" stroke="grey" stroke-width="2" d="M672.67,-361.09C675.64,-360.71 678.59,-360.34 681.5,-360 897.79,-334.52 957.7,-359.36 1177.08,-323.86"/>
<polygon fill="grey" stroke="grey" stroke-width="2" points="1177.67,-327.31 1186.98,-322.24 1176.54,-320.4 1177.67,-327.31"/>
</g>
<!-- 7&#45;&gt;18 -->
<g id="edge40" class="edge">
<title>7&#45;&gt;18</title>
<path fill="none" stroke="grey" stroke-width="2" d="M672.66,-361.04C675.64,-360.67 678.59,-360.32 681.5,-360 958.06,-329.52 1031.59,-366.9 1306.5,-324 1306.6,-323.98 1306.7,-323.97 1306.81,-323.95"/>
<polygon fill="grey" stroke="grey" stroke-width="2" points="1307.26,-327.43 1316.49,-322.22 1306.03,-320.54 1307.26,-327.43"/>
</g>
<!-- 7&#45;&gt;19 -->
<g id="edge52" class="edge">
<title>7&#45;&gt;19</title>
<path fill="none" stroke="grey" stroke-width="2" d="M672.66,-361C675.64,-360.64 678.59,-360.31 681.5,-360 1012.77,-325.15 1103.22,-373.86 1437.04,-323.84"/>
<polygon fill="grey" stroke="grey" stroke-width="2" points="1437.63,-327.29 1446.99,-322.33 1436.58,-320.37 1437.63,-327.29"/>
</g>
<!-- 8 -->
<g id="node9" class="node">
<title>8</title>
<path fill="none" stroke="#56a9d8" stroke-width="2" d="M868.5,-396C868.5,-396 702.5,-396 702.5,-396 696.5,-396 690.5,-390 690.5,-384 690.5,-384 690.5,-372 690.5,-372 690.5,-366 696.5,-360 702.5,-360 702.5,-360 868.5,-360 868.5,-360 874.5,-360 880.5,-366 880.5,-372 880.5,-372 880.5,-384 880.5,-384 880.5,-390 874.5,-396 868.5,-396"/>
<text text-anchor="middle" x="785.5" y="-381" font-family="sans" font-size="10.00">get_ccs</text>
<text text-anchor="middle" x="785.5" y="-370" font-family="sans" font-size="10.00">pacbioRun: pool2_E484K_210701_A</text>
</g>
<!-- 8&#45;&gt;4 -->
<g id="edge17" class="edge">
<title>8&#45;&gt;4</title>
<path fill="none" stroke="grey" stroke-width="2" d="M861.18,-359.97C907.59,-349.52 967.02,-336.14 1014.55,-325.45"/>
<polygon fill="grey" stroke="grey" stroke-width="2" points="1015.51,-328.82 1024.5,-323.21 1013.97,-321.99 1015.51,-328.82"/>
</g>
<!-- 8&#45;&gt;17 -->
<g id="edge29" class="edge">
<title>8&#45;&gt;17</title>
<path fill="none" stroke="grey" stroke-width="2" d="M880.69,-361.29C883.66,-360.85 886.6,-360.42 889.5,-360 1013.93,-342.06 1049.06,-348.04 1176.77,-323.99"/>
<polygon fill="grey" stroke="grey" stroke-width="2" points="1177.77,-327.36 1186.94,-322.04 1176.46,-320.48 1177.77,-327.36"/>
</g>
<!-- 8&#45;&gt;18 -->
<g id="edge41" class="edge">
<title>8&#45;&gt;18</title>
<path fill="none" stroke="grey" stroke-width="2" d="M880.67,-361.15C883.65,-360.75 886.6,-360.36 889.5,-360 1074.09,-336.98 1123.13,-355.31 1306.5,-324 1306.6,-323.98 1306.7,-323.97 1306.81,-323.95"/>
<polygon fill="grey" stroke="grey" stroke-width="2" points="1307.3,-327.42 1316.47,-322.11 1305.99,-320.54 1307.3,-327.42"/>
</g>
<!-- 8&#45;&gt;19 -->
<g id="edge53" class="edge">
<title>8&#45;&gt;19</title>
<path fill="none" stroke="grey" stroke-width="2" d="M880.66,-361.07C883.64,-360.69 886.59,-360.33 889.5,-360 1128.69,-332.66 1194.77,-362.23 1436.81,-323.9"/>
<polygon fill="grey" stroke="grey" stroke-width="2" points="1437.66,-327.3 1446.98,-322.26 1436.55,-320.39 1437.66,-327.3"/>
</g>
<!-- 9 -->
<g id="node10" class="node">
<title>9</title>
<path fill="none" stroke="#56a9d8" stroke-width="2" d="M1078,-396C1078,-396 911,-396 911,-396 905,-396 899,-390 899,-384 899,-384 899,-372 899,-372 899,-366 905,-360 911,-360 911,-360 1078,-360 1078,-360 1084,-360 1090,-366 1090,-372 1090,-372 1090,-384 1090,-384 1090,-390 1084,-396 1078,-396"/>
<text text-anchor="middle" x="994.5" y="-381" font-family="sans" font-size="10.00">get_ccs</text>
<text text-anchor="middle" x="994.5" y="-370" font-family="sans" font-size="10.00">pacbioRun: pool1_N501Y_210701_A</text>
</g>
<!-- 9&#45;&gt;4 -->
<g id="edge18" class="edge">
<title>9&#45;&gt;4</title>
<path fill="none" stroke="grey" stroke-width="2" d="M1019.45,-359.88C1032.54,-350.89 1048.76,-339.76 1062.94,-330.03"/>
<polygon fill="grey" stroke="grey" stroke-width="2" points="1065.19,-332.73 1071.45,-324.19 1061.23,-326.96 1065.19,-332.73"/>
</g>
<!-- 9&#45;&gt;17 -->
<g id="edge30" class="edge">
<title>9&#45;&gt;17</title>
<path fill="none" stroke="grey" stroke-width="2" d="M1054.85,-359.97C1091.83,-349.53 1139.18,-336.16 1177.06,-325.47"/>
<polygon fill="grey" stroke="grey" stroke-width="2" points="1178.31,-328.76 1186.98,-322.67 1176.4,-322.02 1178.31,-328.76"/>
</g>
<!-- 9&#45;&gt;18 -->
<g id="edge42" class="edge">
<title>9&#45;&gt;18</title>
<path fill="none" stroke="grey" stroke-width="2" d="M1090.13,-361.17C1173.91,-347.23 1285.51,-328.48 1306.5,-324 1306.6,-323.98 1306.7,-323.96 1306.8,-323.94"/>
<polygon fill="grey" stroke="grey" stroke-width="2" points="1307.41,-327.39 1316.41,-321.79 1305.88,-320.55 1307.41,-327.39"/>
</g>
<!-- 9&#45;&gt;19 -->
<g id="edge54" class="edge">
<title>9&#45;&gt;19</title>
<path fill="none" stroke="grey" stroke-width="2" d="M1090.24,-361.14C1093.02,-360.75 1095.78,-360.37 1098.5,-360 1245.43,-340.21 1286.69,-350.77 1436.9,-323.94"/>
<polygon fill="grey" stroke="grey" stroke-width="2" points="1437.74,-327.34 1446.95,-322.11 1436.49,-320.45 1437.74,-327.34"/>
</g>
<!-- 10 -->
<g id="node11" class="node">
<title>10</title>
<path fill="none" stroke="#56a9d8" stroke-width="2" d="M1287,-396C1287,-396 1120,-396 1120,-396 1114,-396 1108,-390 1108,-384 1108,-384 1108,-372 1108,-372 1108,-366 1114,-360 1120,-360 1120,-360 1287,-360 1287,-360 1293,-360 1299,-366 1299,-372 1299,-372 1299,-384 1299,-384 1299,-390 1293,-396 1287,-396"/>
<text text-anchor="middle" x="1203.5" y="-381" font-family="sans" font-size="10.00">get_ccs</text>
<text text-anchor="middle" x="1203.5" y="-370" font-family="sans" font-size="10.00">pacbioRun: pool2_N501Y_210701_A</text>
</g>
<!-- 10&#45;&gt;4 -->
<g id="edge19" class="edge">
<title>10&#45;&gt;4</title>
<path fill="none" stroke="grey" stroke-width="2" d="M1177.32,-359.88C1163.46,-350.81 1146.26,-339.55 1131.29,-329.76"/>
<polygon fill="grey" stroke="grey" stroke-width="2" points="1133.06,-326.74 1122.78,-324.19 1129.23,-332.59 1133.06,-326.74"/>
</g>
<!-- 10&#45;&gt;17 -->
<g id="edge31" class="edge">
<title>10&#45;&gt;17</title>
<path fill="none" stroke="grey" stroke-width="2" d="M1213.14,-359.7C1217.63,-351.64 1223.06,-341.89 1228.02,-332.98"/>
<polygon fill="grey" stroke="grey" stroke-width="2" points="1231.16,-334.54 1232.97,-324.1 1225.05,-331.14 1231.16,-334.54"/>
</g>
<!-- 10&#45;&gt;18 -->
<g id="edge43" class="edge">
<title>10&#45;&gt;18</title>
<path fill="none" stroke="grey" stroke-width="2" d="M1244.84,-359.88C1268.05,-350.26 1297.19,-338.19 1321.77,-328.01"/>
<polygon fill="grey" stroke="grey" stroke-width="2" points="1323.39,-331.13 1331.29,-324.07 1320.71,-324.66 1323.39,-331.13"/>
</g>
<!-- 10&#45;&gt;19 -->
<g id="edge55" class="edge">
<title>10&#45;&gt;19</title>
<path fill="none" stroke="grey" stroke-width="2" d="M1281.65,-359.98C1324.71,-350.44 1379.34,-338.08 1436.85,-324.12"/>
<polygon fill="grey" stroke="grey" stroke-width="2" points="1437.97,-327.45 1446.86,-321.68 1436.32,-320.65 1437.97,-327.45"/>
</g>
<!-- 11 -->
<g id="node12" class="node">
<title>11</title>
<path fill="none" stroke="#56a9d8" stroke-width="2" d="M1495.5,-396C1495.5,-396 1329.5,-396 1329.5,-396 1323.5,-396 1317.5,-390 1317.5,-384 1317.5,-384 1317.5,-372 1317.5,-372 1317.5,-366 1323.5,-360 1329.5,-360 1329.5,-360 1495.5,-360 1495.5,-360 1501.5,-360 1507.5,-366 1507.5,-372 1507.5,-372 1507.5,-384 1507.5,-384 1507.5,-390 1501.5,-396 1495.5,-396"/>
<text text-anchor="middle" x="1412.5" y="-381" font-family="sans" font-size="10.00">get_ccs</text>
<text text-anchor="middle" x="1412.5" y="-370" font-family="sans" font-size="10.00">pacbioRun: pool1_B1351_210701_A</text>
</g>
<!-- 11&#45;&gt;4 -->
<g id="edge20" class="edge">
<title>11&#45;&gt;4</title>
<path fill="none" stroke="grey" stroke-width="2" d="M1335.6,-359.97C1288,-349.42 1226.93,-335.89 1178.42,-325.15"/>
<polygon fill="grey" stroke="grey" stroke-width="2" points="1179.1,-321.71 1168.58,-322.97 1177.59,-328.55 1179.1,-321.71"/>
</g>
<!-- 11&#45;&gt;17 -->
<g id="edge32" class="edge">
<title>11&#45;&gt;17</title>
<path fill="none" stroke="grey" stroke-width="2" d="M1370.91,-359.88C1347.47,-350.22 1318,-338.09 1293.2,-327.88"/>
<polygon fill="grey" stroke="grey" stroke-width="2" points="1294.53,-324.64 1283.95,-324.07 1291.87,-331.11 1294.53,-324.64"/>
</g>
<!-- 11&#45;&gt;18 -->
<g id="edge44" class="edge">
<title>11&#45;&gt;18</title>
<path fill="none" stroke="grey" stroke-width="2" d="M1402.61,-359.7C1398.01,-351.64 1392.44,-341.89 1387.35,-332.98"/>
<polygon fill="grey" stroke="grey" stroke-width="2" points="1390.27,-331.05 1382.27,-324.1 1384.2,-334.52 1390.27,-331.05"/>
</g>
<!-- 11&#45;&gt;19 -->
<g id="edge56" class="edge">
<title>11&#45;&gt;19</title>
<path fill="none" stroke="grey" stroke-width="2" d="M1434.75,-359.7C1446.08,-350.88 1460.03,-340.03 1472.32,-330.47"/>
<polygon fill="grey" stroke="grey" stroke-width="2" points="1474.76,-333.01 1480.51,-324.1 1470.47,-327.48 1474.76,-333.01"/>
</g>
<!-- 12 -->
<g id="node13" class="node">
<title>12</title>
<path fill="none" stroke="#56a9d8" stroke-width="2" d="M1703.5,-396C1703.5,-396 1537.5,-396 1537.5,-396 1531.5,-396 1525.5,-390 1525.5,-384 1525.5,-384 1525.5,-372 1525.5,-372 1525.5,-366 1531.5,-360 1537.5,-360 1537.5,-360 1703.5,-360 1703.5,-360 1709.5,-360 1715.5,-366 1715.5,-372 1715.5,-372 1715.5,-384 1715.5,-384 1715.5,-390 1709.5,-396 1703.5,-396"/>
<text text-anchor="middle" x="1620.5" y="-381" font-family="sans" font-size="10.00">get_ccs</text>
<text text-anchor="middle" x="1620.5" y="-370" font-family="sans" font-size="10.00">pacbioRun: pool2_B1351_210701_A</text>
</g>
<!-- 12&#45;&gt;4 -->
<g id="edge21" class="edge">
<title>12&#45;&gt;4</title>
<path fill="none" stroke="grey" stroke-width="2" d="M1525.32,-361.22C1522.35,-360.8 1519.4,-360.39 1516.5,-360 1369.57,-340.21 1328.9,-347.27 1178.9,-324.13"/>
<polygon fill="grey" stroke="grey" stroke-width="2" points="1179.28,-320.65 1168.86,-322.56 1178.2,-327.57 1179.28,-320.65"/>
</g>
<!-- 12&#45;&gt;17 -->
<g id="edge33" class="edge">
<title>12&#45;&gt;17</title>
<path fill="none" stroke="grey" stroke-width="2" d="M1525.36,-361.33C1448.62,-348.62 1348.19,-331.82 1307.97,-323.91"/>
<polygon fill="grey" stroke="grey" stroke-width="2" points="1308.59,-320.46 1298.09,-321.88 1307.18,-327.32 1308.59,-320.46"/>
</g>
<!-- 12&#45;&gt;18 -->
<g id="edge45" class="edge">
<title>12&#45;&gt;18</title>
<path fill="none" stroke="grey" stroke-width="2" d="M1560.15,-359.97C1523.43,-349.6 1476.49,-336.35 1438.75,-325.7"/>
<polygon fill="grey" stroke="grey" stroke-width="2" points="1439.44,-322.26 1428.86,-322.91 1437.53,-328.99 1439.44,-322.26"/>
</g>
<!-- 12&#45;&gt;19 -->
<g id="edge57" class="edge">
<title>12&#45;&gt;19</title>
<path fill="none" stroke="grey" stroke-width="2" d="M1591.63,-359.88C1576.21,-350.72 1557.02,-339.34 1540.4,-329.48"/>
<polygon fill="grey" stroke="grey" stroke-width="2" points="1541.86,-326.28 1531.48,-324.19 1538.29,-332.3 1541.86,-326.28"/>
</g>
<!-- 13 -->
<g id="node14" class="node">
<title>13</title>
<path fill="none" stroke="#56a9d8" stroke-width="2" d="M1945,-396C1945,-396 1746,-396 1746,-396 1740,-396 1734,-390 1734,-384 1734,-384 1734,-372 1734,-372 1734,-366 1740,-360 1746,-360 1746,-360 1945,-360 1945,-360 1951,-360 1957,-366 1957,-372 1957,-372 1957,-384 1957,-384 1957,-390 1951,-396 1945,-396"/>
<text text-anchor="middle" x="1845.5" y="-381" font-family="sans" font-size="10.00">get_ccs</text>
<text text-anchor="middle" x="1845.5" y="-370" font-family="sans" font-size="10.00">pacbioRun: pool1_Wuhan_Hu_1_211118_A</text>
</g>
<!-- 13&#45;&gt;4 -->
<g id="edge22" class="edge">
<title>13&#45;&gt;4</title>
<path fill="none" stroke="grey" stroke-width="2" d="M1733.79,-361C1730.66,-360.65 1727.56,-360.32 1724.5,-360 1485.46,-335.38 1420.64,-356.51 1178.99,-324.09"/>
<polygon fill="grey" stroke="grey" stroke-width="2" points="1179.22,-320.59 1168.84,-322.71 1178.27,-327.52 1179.22,-320.59"/>
</g>
<!-- 13&#45;&gt;17 -->
<g id="edge34" class="edge">
<title>13&#45;&gt;17</title>
<path fill="none" stroke="grey" stroke-width="2" d="M1733.78,-361.08C1730.65,-360.71 1727.56,-360.35 1724.5,-360 1542.91,-339.42 1492.57,-355.08 1308.07,-323.91"/>
<polygon fill="grey" stroke="grey" stroke-width="2" points="1308.48,-320.42 1298.03,-322.19 1307.3,-327.32 1308.48,-320.42"/>
</g>
<!-- 13&#45;&gt;18 -->
<g id="edge46" class="edge">
<title>13&#45;&gt;18</title>
<path fill="none" stroke="grey" stroke-width="2" d="M1733.76,-361.24C1730.64,-360.82 1727.55,-360.41 1724.5,-360 1600.3,-343.49 1565.49,-348.06 1438.85,-324.13"/>
<polygon fill="grey" stroke="grey" stroke-width="2" points="1439.25,-320.64 1428.77,-322.2 1437.93,-327.51 1439.25,-320.64"/>
</g>
<!-- 13&#45;&gt;19 -->
<g id="edge58" class="edge">
<title>13&#45;&gt;19</title>
<path fill="none" stroke="grey" stroke-width="2" d="M1762.03,-359.97C1702.39,-347.79 1623.25,-331.64 1568.11,-320.39"/>
<polygon fill="grey" stroke="grey" stroke-width="2" points="1568.6,-316.92 1558.11,-318.35 1567.2,-323.78 1568.6,-316.92"/>
</g>
<!-- 14 -->
<g id="node15" class="node">
<title>14</title>
<path fill="none" stroke="#56a9d8" stroke-width="2" d="M2186,-396C2186,-396 1987,-396 1987,-396 1981,-396 1975,-390 1975,-384 1975,-384 1975,-372 1975,-372 1975,-366 1981,-360 1987,-360 1987,-360 2186,-360 2186,-360 2192,-360 2198,-366 2198,-372 2198,-372 2198,-384 2198,-384 2198,-390 2192,-396 2186,-396"/>
<text text-anchor="middle" x="2086.5" y="-381" font-family="sans" font-size="10.00">get_ccs</text>
<text text-anchor="middle" x="2086.5" y="-370" font-family="sans" font-size="10.00">pacbioRun: pool1_Wuhan_Hu_1_211118_B</text>
</g>
<!-- 14&#45;&gt;4 -->
<g id="edge23" class="edge">
<title>14&#45;&gt;4</title>
<path fill="none" stroke="grey" stroke-width="2" d="M1974.76,-360.81C1971.98,-360.53 1969.22,-360.25 1966.5,-360 1620.32,-327.66 1527.5,-367.42 1178.95,-324.06"/>
<polygon fill="grey" stroke="grey" stroke-width="2" points="1179.18,-320.56 1168.83,-322.78 1178.31,-327.5 1179.18,-320.56"/>
</g>
<!-- 14&#45;&gt;17 -->
<g id="edge35" class="edge">
<title>14&#45;&gt;17</title>
<path fill="none" stroke="grey" stroke-width="2" d="M1974.76,-360.85C1971.98,-360.55 1969.22,-360.27 1966.5,-360 1677.85,-331.72 1599.06,-368.5 1308.01,-323.86"/>
<polygon fill="grey" stroke="grey" stroke-width="2" points="1308.43,-320.38 1298.01,-322.3 1307.36,-327.3 1308.43,-320.38"/>
</g>
<!-- 14&#45;&gt;18 -->
<g id="edge47" class="edge">
<title>14&#45;&gt;18</title>
<path fill="none" stroke="grey" stroke-width="2" d="M1974.75,-360.9C1971.97,-360.58 1969.22,-360.28 1966.5,-360 1735.45,-335.8 1671.87,-361.24 1438.88,-324.04"/>
<polygon fill="grey" stroke="grey" stroke-width="2" points="1439.16,-320.54 1428.73,-322.4 1438.04,-327.45 1439.16,-320.54"/>
</g>
<!-- 14&#45;&gt;19 -->
<g id="edge59" class="edge">
<title>14&#45;&gt;19</title>
<path fill="none" stroke="grey" stroke-width="2" d="M1974.73,-361.07C1971.96,-360.7 1969.21,-360.35 1966.5,-360 1824.79,-341.87 1658.33,-323.59 1568.33,-313.95"/>
<polygon fill="grey" stroke="grey" stroke-width="2" points="1568.58,-310.46 1558.27,-312.88 1567.84,-317.42 1568.58,-310.46"/>
</g>
<!-- 15 -->
<g id="node16" class="node">
<title>15</title>
<path fill="none" stroke="#56a9d8" stroke-width="2" d="M2395,-396C2395,-396 2228,-396 2228,-396 2222,-396 2216,-390 2216,-384 2216,-384 2216,-372 2216,-372 2216,-366 2222,-360 2228,-360 2228,-360 2395,-360 2395,-360 2401,-360 2407,-366 2407,-372 2407,-372 2407,-384 2407,-384 2407,-390 2401,-396 2395,-396"/>
<text text-anchor="middle" x="2311.5" y="-381" font-family="sans" font-size="10.00">get_ccs</text>
<text text-anchor="middle" x="2311.5" y="-370" font-family="sans" font-size="10.00">pacbioRun: pool1_N501Y_211118_A</text>
</g>
<!-- 15&#45;&gt;4 -->
<g id="edge24" class="edge">
<title>15&#45;&gt;4</title>
<path fill="none" stroke="grey" stroke-width="2" d="M2215.79,-360.89C2213,-360.57 2210.23,-360.27 2207.5,-360 1755,-315.29 1633.98,-378.31 1178.95,-324.04"/>
<polygon fill="grey" stroke="grey" stroke-width="2" points="1179.17,-320.54 1168.82,-322.82 1178.33,-327.49 1179.17,-320.54"/>
</g>
<!-- 15&#45;&gt;17 -->
<g id="edge36" class="edge">
<title>15&#45;&gt;17</title>
<path fill="none" stroke="grey" stroke-width="2" d="M2215.79,-360.9C2213,-360.58 2210.23,-360.28 2207.5,-360 1812.53,-319.97 1705.23,-381.94 1308.04,-323.84"/>
<polygon fill="grey" stroke="grey" stroke-width="2" points="1308.41,-320.36 1298.01,-322.36 1307.39,-327.28 1308.41,-320.36"/>
</g>
<!-- 15&#45;&gt;18 -->
<g id="edge48" class="edge">
<title>15&#45;&gt;18</title>
<path fill="none" stroke="grey" stroke-width="2" d="M2215.79,-360.93C2213,-360.6 2210.23,-360.29 2207.5,-360 1870.1,-324.66 1777.98,-374.63 1438.83,-324"/>
<polygon fill="grey" stroke="grey" stroke-width="2" points="1439.13,-320.51 1428.72,-322.47 1438.08,-327.43 1439.13,-320.51"/>
</g>
<!-- 15&#45;&gt;19 -->
<g id="edge60" class="edge">
<title>15&#45;&gt;19</title>
<path fill="none" stroke="grey" stroke-width="2" d="M2215.77,-361.03C2212.99,-360.67 2210.23,-360.32 2207.5,-360 1973.37,-332.12 1693.64,-316.24 1568.58,-310.05"/>
<polygon fill="grey" stroke="grey" stroke-width="2" points="1568.57,-306.54 1558.41,-309.55 1568.23,-313.53 1568.57,-306.54"/>
</g>
<!-- 16 -->
<g id="node17" class="node">
<title>16</title>
<path fill="none" stroke="#56a9d8" stroke-width="2" d="M2604,-396C2604,-396 2437,-396 2437,-396 2431,-396 2425,-390 2425,-384 2425,-384 2425,-372 2425,-372 2425,-366 2431,-360 2437,-360 2437,-360 2604,-360 2604,-360 2610,-360 2616,-366 2616,-372 2616,-372 2616,-384 2616,-384 2616,-390 2610,-396 2604,-396"/>
<text text-anchor="middle" x="2520.5" y="-381" font-family="sans" font-size="10.00">get_ccs</text>
<text text-anchor="middle" x="2520.5" y="-370" font-family="sans" font-size="10.00">pacbioRun: pool1_N501Y_211118_B</text>
</g>
<!-- 16&#45;&gt;4 -->
<g id="edge25" class="edge">
<title>16&#45;&gt;4</title>
<path fill="none" stroke="grey" stroke-width="2" d="M2424.79,-360.86C2422,-360.55 2419.23,-360.26 2416.5,-360 1871.46,-307.77 1726.34,-387.85 1178.95,-324.03"/>
<polygon fill="grey" stroke="grey" stroke-width="2" points="1179.16,-320.54 1168.82,-322.84 1178.34,-327.49 1179.16,-320.54"/>
</g>
<!-- 16&#45;&gt;17 -->
<g id="edge37" class="edge">
<title>16&#45;&gt;17</title>
<path fill="none" stroke="grey" stroke-width="2" d="M2424.79,-360.88C2422,-360.56 2419.23,-360.27 2416.5,-360 1929.04,-312.45 1797.33,-393.71 1308.15,-323.85"/>
<polygon fill="grey" stroke="grey" stroke-width="2" points="1308.4,-320.35 1298,-322.39 1307.4,-327.28 1308.4,-320.35"/>
</g>
<!-- 16&#45;&gt;18 -->
<g id="edge49" class="edge">
<title>16&#45;&gt;18</title>
<path fill="none" stroke="grey" stroke-width="2" d="M2424.79,-360.89C2422,-360.57 2419.23,-360.27 2416.5,-360 1986.52,-317.12 1870.01,-386.4 1438.64,-323.96"/>
<polygon fill="grey" stroke="grey" stroke-width="2" points="1439.12,-320.49 1428.71,-322.51 1438.1,-327.42 1439.12,-320.49"/>
</g>
<!-- 16&#45;&gt;19 -->
<g id="edge61" class="edge">
<title>16&#45;&gt;19</title>
<path fill="none" stroke="grey" stroke-width="2" d="M2424.78,-360.97C2421.99,-360.63 2419.23,-360.3 2416.5,-360 2099.71,-325.02 1718.43,-312.32 1568.05,-308.46"/>
<polygon fill="grey" stroke="grey" stroke-width="2" points="1568.13,-304.96 1558.05,-308.21 1567.96,-311.96 1568.13,-304.96"/>
</g>
<!-- 17&#45;&gt;0 -->
<g id="edge5" class="edge">
<title>17&#45;&gt;0</title>
<path fill="none" stroke="grey" stroke-width="2" d="M1209.48,-287.97C1160.23,-260.17 1076.65,-202.27 1109.5,-144 1148.03,-75.65 1237.94,-43.6 1297.73,-29.37"/>
<polygon fill="grey" stroke="grey" stroke-width="2" points="1298.81,-32.71 1307.78,-27.08 1297.25,-25.89 1298.81,-32.71"/>
</g>
<!-- 17&#45;&gt;20 -->
<g id="edge63" class="edge">
<title>17&#45;&gt;20</title>
<path fill="none" stroke="grey" stroke-width="2" d="M1269.65,-287.88C1284.03,-278.81 1301.88,-267.55 1317.41,-257.76"/>
<polygon fill="grey" stroke="grey" stroke-width="2" points="1319.65,-260.48 1326.24,-252.19 1315.92,-254.56 1319.65,-260.48"/>
</g>
<!-- 17&#45;&gt;21 -->
<g id="edge67" class="edge">
<title>17&#45;&gt;21</title>
<path fill="none" stroke="grey" stroke-width="2" d="M1232.13,-287.87C1217.21,-263.24 1189.59,-217.64 1172.18,-188.88"/>
<polygon fill="grey" stroke="grey" stroke-width="2" points="1175.08,-186.93 1166.91,-180.19 1169.1,-190.56 1175.08,-186.93"/>
</g>
<!-- 17&#45;&gt;22 -->
<g id="edge72" class="edge">
<title>17&#45;&gt;22</title>
<path fill="none" stroke="grey" stroke-width="2" d="M1249.67,-287.66C1258.65,-267.86 1275.78,-235.69 1299.5,-216 1317.34,-201.19 1339.87,-190.09 1361.19,-181.98"/>
<polygon fill="grey" stroke="grey" stroke-width="2" points="1362.67,-185.16 1370.88,-178.46 1360.28,-178.59 1362.67,-185.16"/>
</g>
<!-- 18&#45;&gt;0 -->
<g id="edge6" class="edge">
<title>18&#45;&gt;0</title>
<path fill="none" stroke="grey" stroke-width="2" d="M1405.46,-287.93C1440.7,-267.6 1494.59,-230.01 1517.5,-180 1524.17,-165.45 1520.91,-159.63 1517.5,-144 1509.99,-109.61 1509.88,-96.39 1484.5,-72 1464.77,-53.04 1437.32,-40.5 1412.82,-32.39"/>
<polygon fill="grey" stroke="grey" stroke-width="2" points="1413.83,-29.04 1403.24,-29.4 1411.74,-35.72 1413.83,-29.04"/>
</g>
<!-- 18&#45;&gt;20 -->
<g id="edge64" class="edge">
<title>18&#45;&gt;20</title>
<path fill="none" stroke="grey" stroke-width="2" d="M1367.8,-287.7C1365.69,-279.9 1363.14,-270.51 1360.78,-261.83"/>
<polygon fill="grey" stroke="grey" stroke-width="2" points="1364.14,-260.84 1358.14,-252.1 1357.38,-262.67 1364.14,-260.84"/>
</g>
<!-- 18&#45;&gt;21 -->
<g id="edge68" class="edge">
<title>18&#45;&gt;21</title>
<path fill="none" stroke="grey" stroke-width="2" d="M1346.45,-287.87C1307.61,-262.34 1234.46,-214.25 1191.15,-185.78"/>
<polygon fill="grey" stroke="grey" stroke-width="2" points="1192.93,-182.76 1182.65,-180.19 1189.08,-188.61 1192.93,-182.76"/>
</g>
<!-- 18&#45;&gt;22 -->
<g id="edge73" class="edge">
<title>18&#45;&gt;22</title>
<path fill="none" stroke="grey" stroke-width="2" d="M1385.58,-287.62C1392.6,-277.63 1400.92,-264.59 1406.5,-252 1415.33,-232.06 1421.56,-208.13 1425.45,-190.11"/>
<polygon fill="grey" stroke="grey" stroke-width="2" points="1428.9,-190.76 1427.48,-180.26 1422.04,-189.35 1428.9,-190.76"/>
</g>
<!-- 19&#45;&gt;0 -->
<g id="edge7" class="edge">
<title>19&#45;&gt;0</title>
<path fill="none" stroke="grey" stroke-width="2" d="M1510.44,-287.72C1528.94,-244.6 1569.12,-131.44 1511.5,-72 1485.7,-45.39 1446.04,-32.14 1413.17,-25.54"/>
<polygon fill="grey" stroke="grey" stroke-width="2" points="1413.68,-22.07 1403.21,-23.7 1412.41,-28.96 1413.68,-22.07"/>
</g>
<!-- 19&#45;&gt;20 -->
<g id="edge65" class="edge">
<title>19&#45;&gt;20</title>
<path fill="none" stroke="grey" stroke-width="2" d="M1466.05,-287.88C1445.86,-278.39 1420.58,-266.51 1399.09,-256.42"/>
<polygon fill="grey" stroke="grey" stroke-width="2" points="1400.37,-253.15 1389.83,-252.07 1397.39,-259.49 1400.37,-253.15"/>
</g>
<!-- 19&#45;&gt;21 -->
<g id="edge69" class="edge">
<title>19&#45;&gt;21</title>
<path fill="none" stroke="grey" stroke-width="2" d="M1486.24,-287.76C1463.95,-264.52 1424.61,-225.01 1406.5,-216 1327.26,-176.59 1294.3,-201.8 1204.32,-179.89"/>
<polygon fill="grey" stroke="grey" stroke-width="2" points="1205.1,-176.48 1194.55,-177.38 1203.36,-183.26 1205.1,-176.48"/>
</g>
<!-- 19&#45;&gt;22 -->
<g id="edge74" class="edge">
<title>19&#45;&gt;22</title>
<path fill="none" stroke="grey" stroke-width="2" d="M1493.82,-287.87C1481.38,-263.35 1458.4,-218.03 1443.81,-189.26"/>
<polygon fill="grey" stroke="grey" stroke-width="2" points="1446.86,-187.53 1439.22,-180.19 1440.62,-190.69 1446.86,-187.53"/>
</g>
<!-- 20&#45;&gt;0 -->
<g id="edge8" class="edge">
<title>20&#45;&gt;0</title>
<path fill="none" stroke="grey" stroke-width="2" d="M1398.04,-229.87C1431.77,-224.89 1476,-212.18 1498.5,-180 1536.04,-126.31 1455.17,-70.68 1400.42,-40.93"/>
<polygon fill="grey" stroke="grey" stroke-width="2" points="1402.01,-37.81 1391.54,-36.2 1398.73,-43.99 1402.01,-37.81"/>
</g>
<!-- 20&#45;&gt;21 -->
<g id="edge70" class="edge">
<title>20&#45;&gt;21</title>
<path fill="none" stroke="grey" stroke-width="2" d="M1308.84,-217.32C1281.15,-207.57 1244.62,-194.67 1204.22,-180.25"/>
<polygon fill="grey" stroke="grey" stroke-width="2" points="1205.31,-176.92 1194.71,-176.85 1202.95,-183.51 1205.31,-176.92"/>
</g>
<!-- 20&#45;&gt;22 -->
<g id="edge75" class="edge">
<title>20&#45;&gt;22</title>
<path fill="none" stroke="grey" stroke-width="2" d="M1372.53,-215.7C1382.04,-207.05 1393.71,-196.45 1404.07,-187.03"/>
<polygon fill="grey" stroke="grey" stroke-width="2" points="1406.64,-189.42 1411.69,-180.1 1401.93,-184.24 1406.64,-189.42"/>
</g>
<!-- 21&#45;&gt;0 -->
<g id="edge9" class="edge">
<title>21&#45;&gt;0</title>
<path fill="none" stroke="grey" stroke-width="2" d="M1180.5,-143.87C1216.14,-118.44 1283.11,-70.65 1323.07,-42.14"/>
<polygon fill="grey" stroke="grey" stroke-width="2" points="1325.3,-44.85 1331.41,-36.19 1321.24,-39.15 1325.3,-44.85"/>
</g>
<!-- 21&#45;&gt;23 -->
<g id="edge76" class="edge">
<title>21&#45;&gt;23</title>
<path fill="none" stroke="grey" stroke-width="2" d="M1194.71,-147.14C1197.68,-146.07 1200.64,-145.02 1203.5,-144 1234.83,-132.87 1269.87,-120.64 1298.4,-110.73"/>
<polygon fill="grey" stroke="grey" stroke-width="2" points="1299.91,-113.92 1308.21,-107.33 1297.61,-107.3 1299.91,-113.92"/>
</g>
<!-- 22&#45;&gt;0 -->
<g id="edge10" class="edge">
<title>22&#45;&gt;0</title>
<path fill="none" stroke="grey" stroke-width="2" d="M1429.84,-143.87C1428.47,-125.13 1424.26,-94.73 1411.5,-72 1405.36,-61.06 1396.2,-51.02 1387.07,-42.7"/>
<polygon fill="grey" stroke="grey" stroke-width="2" points="1389.32,-40.02 1379.46,-36.12 1384.74,-45.31 1389.32,-40.02"/>
</g>
<!-- 22&#45;&gt;23 -->
<g id="edge77" class="edge">
<title>22&#45;&gt;23</title>
<path fill="none" stroke="grey" stroke-width="2" d="M1411.96,-143.7C1402.7,-135.05 1391.34,-124.45 1381.24,-115.03"/>
<polygon fill="grey" stroke="grey" stroke-width="2" points="1383.52,-112.37 1373.83,-108.1 1378.75,-117.49 1383.52,-112.37"/>
</g>
<!-- 23&#45;&gt;0 -->
<g id="edge11" class="edge">
<title>23&#45;&gt;0</title>
<path fill="none" stroke="grey" stroke-width="2" d="M1355.5,-71.7C1355.5,-63.98 1355.5,-54.71 1355.5,-46.11"/>
<polygon fill="grey" stroke="grey" stroke-width="2" points="1359,-46.1 1355.5,-36.1 1352,-46.1 1359,-46.1"/>
</g>
<!-- 24 -->
<g id="node25" class="node">
<title>24</title>
<path fill="none" stroke="#c6d856" stroke-width="2" d="M1849,-180C1849,-180 1738,-180 1738,-180 1732,-180 1726,-174 1726,-168 1726,-168 1726,-156 1726,-156 1726,-150 1732,-144 1738,-144 1738,-144 1849,-144 1849,-144 1855,-144 1861,-150 1861,-156 1861,-156 1861,-168 1861,-168 1861,-174 1855,-180 1849,-180"/>
<text text-anchor="middle" x="1793.5" y="-159.5" font-family="sans" font-size="10.00">enumerate_UShER_subs</text>
</g>
<!-- 24&#45;&gt;0 -->
<g id="edge12" class="edge">
<title>24&#45;&gt;0</title>
<path fill="none" stroke="grey" stroke-width="2" d="M1763.68,-143.86C1727.89,-123.95 1665.53,-91.37 1608.5,-72 1543.17,-49.81 1465.05,-35.16 1413.07,-26.99"/>
<polygon fill="grey" stroke="grey" stroke-width="2" points="1413.46,-23.51 1403.04,-25.44 1412.39,-30.43 1413.46,-23.51"/>
</g>
<!-- 28 -->
<g id="node29" class="node">
<title>28</title>
<path fill="none" stroke="#5673d8" stroke-width="2" d="M1854.5,-108C1854.5,-108 1732.5,-108 1732.5,-108 1726.5,-108 1720.5,-102 1720.5,-96 1720.5,-96 1720.5,-84 1720.5,-84 1720.5,-78 1726.5,-72 1732.5,-72 1732.5,-72 1854.5,-72 1854.5,-72 1860.5,-72 1866.5,-78 1866.5,-84 1866.5,-84 1866.5,-96 1866.5,-96 1866.5,-102 1860.5,-108 1854.5,-108"/>
<text text-anchor="middle" x="1793.5" y="-87.5" font-family="sans" font-size="10.00">parse_UShER_subs_N501Y</text>
</g>
<!-- 24&#45;&gt;28 -->
<g id="edge83" class="edge">
<title>24&#45;&gt;28</title>
<path fill="none" stroke="grey" stroke-width="2" d="M1793.5,-143.7C1793.5,-135.98 1793.5,-126.71 1793.5,-118.11"/>
<polygon fill="grey" stroke="grey" stroke-width="2" points="1797,-118.1 1793.5,-108.1 1790,-118.1 1797,-118.1"/>
</g>
<!-- 25 -->
<g id="node26" class="node">
<title>25</title>
<path fill="none" stroke="#d8cb56" stroke-width="2" d="M1978,-252C1978,-252 1907,-252 1907,-252 1901,-252 1895,-246 1895,-240 1895,-240 1895,-228 1895,-228 1895,-222 1901,-216 1907,-216 1907,-216 1978,-216 1978,-216 1984,-216 1990,-222 1990,-228 1990,-228 1990,-240 1990,-240 1990,-246 1984,-252 1978,-252"/>
<text text-anchor="middle" x="1942.5" y="-231.5" font-family="sans" font-size="10.00">get_UShER_tree</text>
</g>
<!-- 25&#45;&gt;24 -->
<g id="edge79" class="edge">
<title>25&#45;&gt;24</title>
<path fill="none" stroke="grey" stroke-width="2" d="M1906.05,-215.88C1885.86,-206.39 1860.58,-194.51 1839.09,-184.42"/>
<polygon fill="grey" stroke="grey" stroke-width="2" points="1840.37,-181.15 1829.83,-180.07 1837.39,-187.49 1840.37,-181.15"/>
</g>
<!-- 25&#45;&gt;28 -->
<g id="edge82" class="edge">
<title>25&#45;&gt;28</title>
<path fill="none" stroke="grey" stroke-width="2" d="M1930.8,-215.7C1917.52,-196.81 1894.57,-166.27 1870.5,-144 1858.48,-132.88 1843.98,-122.29 1830.81,-113.54"/>
<polygon fill="grey" stroke="grey" stroke-width="2" points="1832.68,-110.59 1822.39,-108.07 1828.87,-116.46 1832.68,-110.59"/>
</g>
<!-- 26 -->
<g id="node27" class="node">
<title>26</title>
<path fill="none" stroke="#56d8a9" stroke-width="2" d="M1720,-252C1720,-252 1635,-252 1635,-252 1629,-252 1623,-246 1623,-240 1623,-240 1623,-228 1623,-228 1623,-222 1629,-216 1635,-216 1635,-216 1720,-216 1720,-216 1726,-216 1732,-222 1732,-228 1732,-228 1732,-240 1732,-240 1732,-246 1726,-252 1720,-252"/>
<text text-anchor="middle" x="1677.5" y="-231.5" font-family="sans" font-size="10.00">get_UShER_gtf_file</text>
</g>
<!-- 26&#45;&gt;24 -->
<g id="edge80" class="edge">
<title>26&#45;&gt;24</title>
<path fill="none" stroke="grey" stroke-width="2" d="M1705.88,-215.88C1721.04,-206.72 1739.91,-195.34 1756.24,-185.48"/>
<polygon fill="grey" stroke="grey" stroke-width="2" points="1758.26,-188.35 1765.01,-180.19 1754.64,-182.36 1758.26,-188.35"/>
</g>
<!-- 27 -->
<g id="node28" class="node">
<title>27</title>
<path fill="none" stroke="#d8ac56" stroke-width="2" d="M1864.5,-252C1864.5,-252 1762.5,-252 1762.5,-252 1756.5,-252 1750.5,-246 1750.5,-240 1750.5,-240 1750.5,-228 1750.5,-228 1750.5,-222 1756.5,-216 1762.5,-216 1762.5,-216 1864.5,-216 1864.5,-216 1870.5,-216 1876.5,-222 1876.5,-228 1876.5,-228 1876.5,-240 1876.5,-240 1876.5,-246 1870.5,-252 1864.5,-252"/>
<text text-anchor="middle" x="1813.5" y="-231.5" font-family="sans" font-size="10.00">get_UShER_refseq_file</text>
</g>
<!-- 27&#45;&gt;24 -->
<g id="edge81" class="edge">
<title>27&#45;&gt;24</title>
<path fill="none" stroke="grey" stroke-width="2" d="M1808.56,-215.7C1806.33,-207.9 1803.65,-198.51 1801.17,-189.83"/>
<polygon fill="grey" stroke="grey" stroke-width="2" points="1804.5,-188.76 1798.39,-180.1 1797.77,-190.68 1804.5,-188.76"/>
</g>
<!-- 28&#45;&gt;0 -->
<g id="edge13" class="edge">
<title>28&#45;&gt;0</title>
<path fill="none" stroke="grey" stroke-width="2" d="M1720.19,-77.28C1633.95,-63.5 1492.56,-40.91 1413.56,-28.28"/>
<polygon fill="grey" stroke="grey" stroke-width="2" points="1413.73,-24.76 1403.3,-26.64 1412.62,-31.67 1413.73,-24.76"/>
</g>
</g>
</svg>
