<?xml version="1.0" encoding="UTF-8" standalone="no"?>
<!DOCTYPE svg PUBLIC "-//W3C//DTD SVG 1.1//EN"
 "http://www.w3.org/Graphics/SVG/1.1/DTD/svg11.dtd">
<!-- Generated by graphviz version 2.49.1 (20211004.0028)
 -->
<!-- Title: snakemake_dag Pages: 1 -->
<svg width="1724pt" height="404pt"
 viewBox="0.00 0.00 1723.50 404.00" xmlns="http://www.w3.org/2000/svg" xmlns:xlink="http://www.w3.org/1999/xlink">
<g id="graph0" class="graph" transform="scale(1 1) rotate(0) translate(4 400)">
<title>snakemake_dag</title>
<polygon fill="white" stroke="transparent" points="-4,4 -4,-400 1719.5,-400 1719.5,4 -4,4"/>
<!-- 0 -->
<g id="node1" class="node">
<title>0</title>
<path fill="none" stroke="#d87556" stroke-width="2" d="M797,-36C797,-36 726,-36 726,-36 720,-36 714,-30 714,-24 714,-24 714,-12 714,-12 714,-6 720,0 726,0 726,0 797,0 797,0 803,0 809,-6 809,-12 809,-12 809,-24 809,-24 809,-30 803,-36 797,-36"/>
<text text-anchor="middle" x="761.5" y="-15.5" font-family="sans" font-size="10.00">make_summary</text>
</g>
<!-- 1 -->
<g id="node2" class="node">
<title>1</title>
<path fill="none" stroke="#d85656" stroke-width="2" d="M379,-108C379,-108 336,-108 336,-108 330,-108 324,-102 324,-96 324,-96 324,-84 324,-84 324,-78 330,-72 336,-72 336,-72 379,-72 379,-72 385,-72 391,-78 391,-84 391,-84 391,-96 391,-96 391,-102 385,-108 379,-108"/>
<text text-anchor="middle" x="357.5" y="-87.5" font-family="sans" font-size="10.00">make_dag</text>
</g>
<!-- 1&#45;&gt;0 -->
<g id="edge1" class="edge">
<title>1&#45;&gt;0</title>
<path fill="none" stroke="grey" stroke-width="2" d="M391.05,-74.89C394.22,-73.81 397.4,-72.83 400.5,-72 505.35,-43.98 631.54,-29.73 703.55,-23.36"/>
<polygon fill="grey" stroke="grey" stroke-width="2" points="704.11,-26.83 713.78,-22.48 703.51,-19.85 704.11,-26.83"/>
</g>
<!-- 2 -->
<g id="node3" class="node">
<title>2</title>
<path fill="none" stroke="#9fd856" stroke-width="2" d="M507.5,-108C507.5,-108 421.5,-108 421.5,-108 415.5,-108 409.5,-102 409.5,-96 409.5,-96 409.5,-84 409.5,-84 409.5,-78 415.5,-72 421.5,-72 421.5,-72 507.5,-72 507.5,-72 513.5,-72 519.5,-78 519.5,-84 519.5,-84 519.5,-96 519.5,-96 519.5,-102 513.5,-108 507.5,-108"/>
<text text-anchor="middle" x="464.5" y="-87.5" font-family="sans" font-size="10.00">get_mut_bind_expr</text>
</g>
<!-- 2&#45;&gt;0 -->
<g id="edge2" class="edge">
<title>2&#45;&gt;0</title>
<path fill="none" stroke="grey" stroke-width="2" d="M519.85,-75.3C524.46,-74.17 529.06,-73.06 533.5,-72 591.49,-58.12 657.91,-42.74 704.04,-32.14"/>
<polygon fill="grey" stroke="grey" stroke-width="2" points="704.9,-35.53 713.86,-29.88 703.33,-28.71 704.9,-35.53"/>
</g>
<!-- 3 -->
<g id="node4" class="node">
<title>3</title>
<path fill="none" stroke="#5673d8" stroke-width="2" d="M779.5,-180C779.5,-180 663.5,-180 663.5,-180 657.5,-180 651.5,-174 651.5,-168 651.5,-168 651.5,-156 651.5,-156 651.5,-150 657.5,-144 663.5,-144 663.5,-144 779.5,-144 779.5,-144 785.5,-144 791.5,-150 791.5,-156 791.5,-156 791.5,-168 791.5,-168 791.5,-174 785.5,-180 779.5,-180"/>
<text text-anchor="middle" x="721.5" y="-159.5" font-family="sans" font-size="10.00">get_delta_mut_bind_expr</text>
</g>
<!-- 3&#45;&gt;0 -->
<g id="edge3" class="edge">
<title>3&#45;&gt;0</title>
<path fill="none" stroke="grey" stroke-width="2" d="M726.32,-143.87C733.17,-119.56 745.78,-74.82 753.89,-46.01"/>
<polygon fill="grey" stroke="grey" stroke-width="2" points="757.32,-46.76 756.66,-36.19 750.58,-44.87 757.32,-46.76"/>
</g>
<!-- 19 -->
<g id="node20" class="node">
<title>19</title>
<path fill="none" stroke="#d89556" stroke-width="2" d="M900.5,-108C900.5,-108 830.5,-108 830.5,-108 824.5,-108 818.5,-102 818.5,-96 818.5,-96 818.5,-84 818.5,-84 818.5,-78 824.5,-72 830.5,-72 830.5,-72 900.5,-72 900.5,-72 906.5,-72 912.5,-78 912.5,-84 912.5,-84 912.5,-96 912.5,-96 912.5,-102 906.5,-108 900.5,-108"/>
<text text-anchor="middle" x="865.5" y="-87.5" font-family="sans" font-size="10.00">collapse_scores</text>
</g>
<!-- 3&#45;&gt;19 -->
<g id="edge61" class="edge">
<title>3&#45;&gt;19</title>
<path fill="none" stroke="grey" stroke-width="2" d="M756.73,-143.88C776.08,-134.47 800.27,-122.71 820.93,-112.67"/>
<polygon fill="grey" stroke="grey" stroke-width="2" points="822.67,-115.71 830.14,-108.19 819.61,-109.41 822.67,-115.71"/>
</g>
<!-- 4 -->
<g id="node5" class="node">
<title>4</title>
<path fill="none" stroke="#56d863" stroke-width="2" d="M738.5,-324C738.5,-324 618.5,-324 618.5,-324 612.5,-324 606.5,-318 606.5,-312 606.5,-312 606.5,-300 606.5,-300 606.5,-294 612.5,-288 618.5,-288 618.5,-288 738.5,-288 738.5,-288 744.5,-288 750.5,-294 750.5,-300 750.5,-300 750.5,-312 750.5,-312 750.5,-318 744.5,-324 738.5,-324"/>
<text text-anchor="middle" x="678.5" y="-303.5" font-family="sans" font-size="10.00">process_ccs_Wuhan_Hu_1</text>
</g>
<!-- 4&#45;&gt;0 -->
<g id="edge4" class="edge">
<title>4&#45;&gt;0</title>
<path fill="none" stroke="grey" stroke-width="2" d="M666.61,-287.72C639.53,-246.03 579.4,-138.47 630.5,-72 648.2,-48.97 677.54,-35.91 703.97,-28.52"/>
<polygon fill="grey" stroke="grey" stroke-width="2" points="705.12,-31.84 713.93,-25.96 703.37,-25.06 705.12,-31.84"/>
</g>
<!-- 16 -->
<g id="node17" class="node">
<title>16</title>
<path fill="none" stroke="#d8d356" stroke-width="2" d="M859,-252C859,-252 794,-252 794,-252 788,-252 782,-246 782,-240 782,-240 782,-228 782,-228 782,-222 788,-216 794,-216 794,-216 859,-216 859,-216 865,-216 871,-222 871,-228 871,-228 871,-240 871,-240 871,-246 865,-252 859,-252"/>
<text text-anchor="middle" x="826.5" y="-231.5" font-family="sans" font-size="10.00">count_variants</text>
</g>
<!-- 4&#45;&gt;16 -->
<g id="edge45" class="edge">
<title>4&#45;&gt;16</title>
<path fill="none" stroke="grey" stroke-width="2" d="M714.7,-287.88C734.76,-278.39 759.87,-266.51 781.21,-256.42"/>
<polygon fill="grey" stroke="grey" stroke-width="2" points="782.87,-259.51 790.41,-252.07 779.88,-253.18 782.87,-259.51"/>
</g>
<!-- 17 -->
<g id="node18" class="node">
<title>17</title>
<path fill="none" stroke="#56d882" stroke-width="2" d="M1011.5,-180C1011.5,-180 959.5,-180 959.5,-180 953.5,-180 947.5,-174 947.5,-168 947.5,-168 947.5,-156 947.5,-156 947.5,-150 953.5,-144 959.5,-144 959.5,-144 1011.5,-144 1011.5,-144 1017.5,-144 1023.5,-150 1023.5,-156 1023.5,-156 1023.5,-168 1023.5,-168 1023.5,-174 1017.5,-180 1011.5,-180"/>
<text text-anchor="middle" x="985.5" y="-159.5" font-family="sans" font-size="10.00">fit_titrations</text>
</g>
<!-- 4&#45;&gt;17 -->
<g id="edge49" class="edge">
<title>4&#45;&gt;17</title>
<path fill="none" stroke="grey" stroke-width="2" d="M691.76,-287.66C708.36,-267.25 738.73,-233.86 772.5,-216 838.85,-180.91 865.32,-200.57 937.5,-180 937.6,-179.97 937.7,-179.94 937.8,-179.91"/>
<polygon fill="grey" stroke="grey" stroke-width="2" points="938.85,-183.25 947.39,-176.98 936.8,-176.56 938.85,-183.25"/>
</g>
<!-- 18 -->
<g id="node19" class="node">
<title>18</title>
<path fill="none" stroke="#bed856" stroke-width="2" d="M917,-180C917,-180 822,-180 822,-180 816,-180 810,-174 810,-168 810,-168 810,-156 810,-156 810,-150 816,-144 822,-144 822,-144 917,-144 917,-144 923,-144 929,-150 929,-156 929,-156 929,-168 929,-168 929,-174 923,-180 917,-180"/>
<text text-anchor="middle" x="869.5" y="-159.5" font-family="sans" font-size="10.00">calculate_expression</text>
</g>
<!-- 4&#45;&gt;18 -->
<g id="edge54" class="edge">
<title>4&#45;&gt;18</title>
<path fill="none" stroke="grey" stroke-width="2" d="M678.23,-287.93C678.86,-268.09 682.94,-235.57 701.5,-216 708.75,-208.36 756.85,-193.59 799.74,-181.58"/>
<polygon fill="grey" stroke="grey" stroke-width="2" points="800.94,-184.88 809.64,-178.83 799.07,-178.14 800.94,-184.88"/>
</g>
<!-- 5 -->
<g id="node6" class="node">
<title>5</title>
<path fill="none" stroke="#d8b456" stroke-width="2" d="M211,-396C211,-396 12,-396 12,-396 6,-396 0,-390 0,-384 0,-384 0,-372 0,-372 0,-366 6,-360 12,-360 12,-360 211,-360 211,-360 217,-360 223,-366 223,-372 223,-372 223,-384 223,-384 223,-390 217,-396 211,-396"/>
<text text-anchor="middle" x="111.5" y="-381" font-family="sans" font-size="10.00">get_ccs</text>
<text text-anchor="middle" x="111.5" y="-370" font-family="sans" font-size="10.00">pacbioRun: pool1_Wuhan_Hu_1_210701_A</text>
</g>
<!-- 5&#45;&gt;4 -->
<g id="edge13" class="edge">
<title>5&#45;&gt;4</title>
<path fill="none" stroke="grey" stroke-width="2" d="M223.27,-361.08C226.04,-360.71 228.79,-360.35 231.5,-360 358.73,-343.45 506.61,-326.33 596.33,-316.18"/>
<polygon fill="grey" stroke="grey" stroke-width="2" points="596.89,-319.64 606.44,-315.03 596.11,-312.68 596.89,-319.64"/>
</g>
<!-- 13 -->
<g id="node14" class="node">
<title>13</title>
<path fill="none" stroke="#5692d8" stroke-width="2" d="M868,-324C868,-324 781,-324 781,-324 775,-324 769,-318 769,-312 769,-312 769,-300 769,-300 769,-294 775,-288 781,-288 781,-288 868,-288 868,-288 874,-288 880,-294 880,-300 880,-300 880,-312 880,-312 880,-318 874,-324 868,-324"/>
<text text-anchor="middle" x="824.5" y="-303.5" font-family="sans" font-size="10.00">process_ccs_E484K</text>
</g>
<!-- 5&#45;&gt;13 -->
<g id="edge21" class="edge">
<title>5&#45;&gt;13</title>
<path fill="none" stroke="grey" stroke-width="2" d="M223.25,-360.9C226.03,-360.59 228.78,-360.29 231.5,-360 462.12,-335.83 525.58,-361.19 758.82,-323.9"/>
<polygon fill="grey" stroke="grey" stroke-width="2" points="759.67,-327.31 768.98,-322.25 758.55,-320.4 759.67,-327.31"/>
</g>
<!-- 14 -->
<g id="node15" class="node">
<title>14</title>
<path fill="none" stroke="#56d8c1" stroke-width="2" d="M998.5,-324C998.5,-324 910.5,-324 910.5,-324 904.5,-324 898.5,-318 898.5,-312 898.5,-312 898.5,-300 898.5,-300 898.5,-294 904.5,-288 910.5,-288 910.5,-288 998.5,-288 998.5,-288 1004.5,-288 1010.5,-294 1010.5,-300 1010.5,-300 1010.5,-312 1010.5,-312 1010.5,-318 1004.5,-324 998.5,-324"/>
<text text-anchor="middle" x="954.5" y="-303.5" font-family="sans" font-size="10.00">process_ccs_N501Y</text>
</g>
<!-- 5&#45;&gt;14 -->
<g id="edge29" class="edge">
<title>5&#45;&gt;14</title>
<path fill="none" stroke="grey" stroke-width="2" d="M223.24,-360.85C226.02,-360.55 228.78,-360.27 231.5,-360 522.54,-331.46 599.5,-368.69 888.5,-324 888.6,-323.98 888.7,-323.97 888.81,-323.95"/>
<polygon fill="grey" stroke="grey" stroke-width="2" points="889.26,-327.43 898.49,-322.23 888.03,-320.54 889.26,-327.43"/>
</g>
<!-- 15 -->
<g id="node16" class="node">
<title>15</title>
<path fill="none" stroke="#88d856" stroke-width="2" d="M1128,-324C1128,-324 1041,-324 1041,-324 1035,-324 1029,-318 1029,-312 1029,-312 1029,-300 1029,-300 1029,-294 1035,-288 1041,-288 1041,-288 1128,-288 1128,-288 1134,-288 1140,-294 1140,-300 1140,-300 1140,-312 1140,-312 1140,-318 1134,-324 1128,-324"/>
<text text-anchor="middle" x="1084.5" y="-303.5" font-family="sans" font-size="10.00">process_ccs_B1351</text>
</g>
<!-- 5&#45;&gt;15 -->
<g id="edge37" class="edge">
<title>5&#45;&gt;15</title>
<path fill="none" stroke="grey" stroke-width="2" d="M223.24,-360.82C226.02,-360.53 228.78,-360.25 231.5,-360 577.24,-327.69 671.11,-375.71 1018.89,-323.86"/>
<polygon fill="grey" stroke="grey" stroke-width="2" points="1019.62,-327.29 1028.99,-322.34 1018.58,-320.37 1019.62,-327.29"/>
</g>
<!-- 6 -->
<g id="node7" class="node">
<title>6</title>
<path fill="none" stroke="#d8b456" stroke-width="2" d="M452,-396C452,-396 253,-396 253,-396 247,-396 241,-390 241,-384 241,-384 241,-372 241,-372 241,-366 247,-360 253,-360 253,-360 452,-360 452,-360 458,-360 464,-366 464,-372 464,-372 464,-384 464,-384 464,-390 458,-396 452,-396"/>
<text text-anchor="middle" x="352.5" y="-381" font-family="sans" font-size="10.00">get_ccs</text>
<text text-anchor="middle" x="352.5" y="-370" font-family="sans" font-size="10.00">pacbioRun: pool2_Wuhan_Hu_1_210701_A</text>
</g>
<!-- 6&#45;&gt;4 -->
<g id="edge14" class="edge">
<title>6&#45;&gt;4</title>
<path fill="none" stroke="grey" stroke-width="2" d="M431.83,-359.97C481.75,-349.25 546.02,-335.45 596.45,-324.62"/>
<polygon fill="grey" stroke="grey" stroke-width="2" points="597.3,-328.02 606.34,-322.49 595.83,-321.17 597.3,-328.02"/>
</g>
<!-- 6&#45;&gt;13 -->
<g id="edge22" class="edge">
<title>6&#45;&gt;13</title>
<path fill="none" stroke="grey" stroke-width="2" d="M464.24,-361.24C467.36,-360.82 470.45,-360.41 473.5,-360 597.27,-343.52 631.96,-348.01 758.83,-323.98"/>
<polygon fill="grey" stroke="grey" stroke-width="2" points="759.78,-327.36 768.94,-322.04 758.46,-320.49 759.78,-327.36"/>
</g>
<!-- 6&#45;&gt;14 -->
<g id="edge30" class="edge">
<title>6&#45;&gt;14</title>
<path fill="none" stroke="grey" stroke-width="2" d="M464.22,-361.08C467.35,-360.71 470.44,-360.35 473.5,-360 657.46,-339.11 706.01,-355.2 888.5,-324 888.6,-323.98 888.7,-323.97 888.81,-323.95"/>
<polygon fill="grey" stroke="grey" stroke-width="2" points="889.3,-327.42 898.47,-322.11 887.99,-320.54 889.3,-327.42"/>
</g>
<!-- 6&#45;&gt;15 -->
<g id="edge38" class="edge">
<title>6&#45;&gt;15</title>
<path fill="none" stroke="grey" stroke-width="2" d="M464.21,-361C467.34,-360.65 470.44,-360.32 473.5,-360 712.1,-335.41 777.66,-362.19 1018.85,-323.89"/>
<polygon fill="grey" stroke="grey" stroke-width="2" points="1019.66,-327.31 1028.98,-322.26 1018.55,-320.4 1019.66,-327.31"/>
</g>
<!-- 7 -->
<g id="node8" class="node">
<title>7</title>
<path fill="none" stroke="#d8b456" stroke-width="2" d="M660.5,-396C660.5,-396 494.5,-396 494.5,-396 488.5,-396 482.5,-390 482.5,-384 482.5,-384 482.5,-372 482.5,-372 482.5,-366 488.5,-360 494.5,-360 494.5,-360 660.5,-360 660.5,-360 666.5,-360 672.5,-366 672.5,-372 672.5,-372 672.5,-384 672.5,-384 672.5,-390 666.5,-396 660.5,-396"/>
<text text-anchor="middle" x="577.5" y="-381" font-family="sans" font-size="10.00">get_ccs</text>
<text text-anchor="middle" x="577.5" y="-370" font-family="sans" font-size="10.00">pacbioRun: pool1_E484K_210701_A</text>
</g>
<!-- 7&#45;&gt;4 -->
<g id="edge15" class="edge">
<title>7&#45;&gt;4</title>
<path fill="none" stroke="grey" stroke-width="2" d="M602.21,-359.88C615.17,-350.89 631.23,-339.76 645.27,-330.03"/>
<polygon fill="grey" stroke="grey" stroke-width="2" points="647.47,-332.76 653.7,-324.19 643.48,-327.01 647.47,-332.76"/>
</g>
<!-- 7&#45;&gt;13 -->
<g id="edge23" class="edge">
<title>7&#45;&gt;13</title>
<path fill="none" stroke="grey" stroke-width="2" d="M637.61,-359.97C674.31,-349.56 721.26,-336.26 758.92,-325.58"/>
<polygon fill="grey" stroke="grey" stroke-width="2" points="760.12,-328.88 768.78,-322.79 758.21,-322.15 760.12,-328.88"/>
</g>
<!-- 7&#45;&gt;14 -->
<g id="edge31" class="edge">
<title>7&#45;&gt;14</title>
<path fill="none" stroke="grey" stroke-width="2" d="M672.83,-361.17C756.34,-347.23 867.58,-328.47 888.5,-324 888.6,-323.98 888.7,-323.96 888.8,-323.93"/>
<polygon fill="grey" stroke="grey" stroke-width="2" points="889.41,-327.39 898.41,-321.79 887.88,-320.55 889.41,-327.39"/>
</g>
<!-- 7&#45;&gt;15 -->
<g id="edge39" class="edge">
<title>7&#45;&gt;15</title>
<path fill="none" stroke="grey" stroke-width="2" d="M672.68,-361.22C675.65,-360.8 678.6,-360.39 681.5,-360 828,-340.24 869.14,-350.71 1018.93,-323.93"/>
<polygon fill="grey" stroke="grey" stroke-width="2" points="1019.74,-327.34 1028.95,-322.11 1018.49,-320.45 1019.74,-327.34"/>
</g>
<!-- 8 -->
<g id="node9" class="node">
<title>8</title>
<path fill="none" stroke="#d8b456" stroke-width="2" d="M868.5,-396C868.5,-396 702.5,-396 702.5,-396 696.5,-396 690.5,-390 690.5,-384 690.5,-384 690.5,-372 690.5,-372 690.5,-366 696.5,-360 702.5,-360 702.5,-360 868.5,-360 868.5,-360 874.5,-360 880.5,-366 880.5,-372 880.5,-372 880.5,-384 880.5,-384 880.5,-390 874.5,-396 868.5,-396"/>
<text text-anchor="middle" x="785.5" y="-381" font-family="sans" font-size="10.00">get_ccs</text>
<text text-anchor="middle" x="785.5" y="-370" font-family="sans" font-size="10.00">pacbioRun: pool2_E484K_210701_A</text>
</g>
<!-- 8&#45;&gt;4 -->
<g id="edge16" class="edge">
<title>8&#45;&gt;4</title>
<path fill="none" stroke="grey" stroke-width="2" d="M759.32,-359.88C745.46,-350.81 728.26,-339.55 713.29,-329.76"/>
<polygon fill="grey" stroke="grey" stroke-width="2" points="715.06,-326.74 704.78,-324.19 711.23,-332.59 715.06,-326.74"/>
</g>
<!-- 8&#45;&gt;13 -->
<g id="edge24" class="edge">
<title>8&#45;&gt;13</title>
<path fill="none" stroke="grey" stroke-width="2" d="M795.14,-359.7C799.63,-351.64 805.06,-341.89 810.02,-332.98"/>
<polygon fill="grey" stroke="grey" stroke-width="2" points="813.16,-334.54 814.97,-324.1 807.05,-331.14 813.16,-334.54"/>
</g>
<!-- 8&#45;&gt;14 -->
<g id="edge32" class="edge">
<title>8&#45;&gt;14</title>
<path fill="none" stroke="grey" stroke-width="2" d="M826.84,-359.88C850.05,-350.26 879.19,-338.19 903.77,-328.01"/>
<polygon fill="grey" stroke="grey" stroke-width="2" points="905.39,-331.13 913.29,-324.07 902.71,-324.66 905.39,-331.13"/>
</g>
<!-- 8&#45;&gt;15 -->
<g id="edge40" class="edge">
<title>8&#45;&gt;15</title>
<path fill="none" stroke="grey" stroke-width="2" d="M863.65,-359.98C906.71,-350.44 961.34,-338.08 1018.85,-324.12"/>
<polygon fill="grey" stroke="grey" stroke-width="2" points="1019.97,-327.45 1028.86,-321.68 1018.32,-320.65 1019.97,-327.45"/>
</g>
<!-- 9 -->
<g id="node10" class="node">
<title>9</title>
<path fill="none" stroke="#d8b456" stroke-width="2" d="M1078,-396C1078,-396 911,-396 911,-396 905,-396 899,-390 899,-384 899,-384 899,-372 899,-372 899,-366 905,-360 911,-360 911,-360 1078,-360 1078,-360 1084,-360 1090,-366 1090,-372 1090,-372 1090,-384 1090,-384 1090,-390 1084,-396 1078,-396"/>
<text text-anchor="middle" x="994.5" y="-381" font-family="sans" font-size="10.00">get_ccs</text>
<text text-anchor="middle" x="994.5" y="-370" font-family="sans" font-size="10.00">pacbioRun: pool1_N501Y_210701_A</text>
</g>
<!-- 9&#45;&gt;4 -->
<g id="edge17" class="edge">
<title>9&#45;&gt;4</title>
<path fill="none" stroke="grey" stroke-width="2" d="M917.6,-359.97C870,-349.42 808.93,-335.89 760.42,-325.15"/>
<polygon fill="grey" stroke="grey" stroke-width="2" points="761.1,-321.71 750.58,-322.97 759.59,-328.55 761.1,-321.71"/>
</g>
<!-- 9&#45;&gt;13 -->
<g id="edge25" class="edge">
<title>9&#45;&gt;13</title>
<path fill="none" stroke="grey" stroke-width="2" d="M952.91,-359.88C929.47,-350.22 900,-338.09 875.2,-327.88"/>
<polygon fill="grey" stroke="grey" stroke-width="2" points="876.53,-324.64 865.95,-324.07 873.87,-331.11 876.53,-324.64"/>
</g>
<!-- 9&#45;&gt;14 -->
<g id="edge33" class="edge">
<title>9&#45;&gt;14</title>
<path fill="none" stroke="grey" stroke-width="2" d="M984.61,-359.7C980.01,-351.64 974.44,-341.89 969.35,-332.98"/>
<polygon fill="grey" stroke="grey" stroke-width="2" points="972.27,-331.05 964.27,-324.1 966.2,-334.52 972.27,-331.05"/>
</g>
<!-- 9&#45;&gt;15 -->
<g id="edge41" class="edge">
<title>9&#45;&gt;15</title>
<path fill="none" stroke="grey" stroke-width="2" d="M1016.75,-359.7C1028.08,-350.88 1042.03,-340.03 1054.32,-330.47"/>
<polygon fill="grey" stroke="grey" stroke-width="2" points="1056.76,-333.01 1062.51,-324.1 1052.47,-327.48 1056.76,-333.01"/>
</g>
<!-- 10 -->
<g id="node11" class="node">
<title>10</title>
<path fill="none" stroke="#d8b456" stroke-width="2" d="M1287,-396C1287,-396 1120,-396 1120,-396 1114,-396 1108,-390 1108,-384 1108,-384 1108,-372 1108,-372 1108,-366 1114,-360 1120,-360 1120,-360 1287,-360 1287,-360 1293,-360 1299,-366 1299,-372 1299,-372 1299,-384 1299,-384 1299,-390 1293,-396 1287,-396"/>
<text text-anchor="middle" x="1203.5" y="-381" font-family="sans" font-size="10.00">get_ccs</text>
<text text-anchor="middle" x="1203.5" y="-370" font-family="sans" font-size="10.00">pacbioRun: pool2_N501Y_210701_A</text>
</g>
<!-- 10&#45;&gt;4 -->
<g id="edge18" class="edge">
<title>10&#45;&gt;4</title>
<path fill="none" stroke="grey" stroke-width="2" d="M1107.96,-361.3C1104.77,-360.85 1101.61,-360.42 1098.5,-360 951.55,-340.32 910.9,-347.27 760.9,-324.13"/>
<polygon fill="grey" stroke="grey" stroke-width="2" points="761.28,-320.65 750.86,-322.56 760.2,-327.57 761.28,-320.65"/>
</g>
<!-- 10&#45;&gt;13 -->
<g id="edge26" class="edge">
<title>10&#45;&gt;13</title>
<path fill="none" stroke="grey" stroke-width="2" d="M1107.65,-361.26C1030.7,-348.56 930.23,-331.81 889.98,-323.91"/>
<polygon fill="grey" stroke="grey" stroke-width="2" points="890.59,-320.46 880.09,-321.89 889.19,-327.32 890.59,-320.46"/>
</g>
<!-- 10&#45;&gt;14 -->
<g id="edge34" class="edge">
<title>10&#45;&gt;14</title>
<path fill="none" stroke="grey" stroke-width="2" d="M1142.91,-359.97C1105.91,-349.56 1058.57,-336.26 1020.61,-325.58"/>
<polygon fill="grey" stroke="grey" stroke-width="2" points="1021.24,-322.13 1010.67,-322.79 1019.35,-328.87 1021.24,-322.13"/>
</g>
<!-- 10&#45;&gt;15 -->
<g id="edge42" class="edge">
<title>10&#45;&gt;15</title>
<path fill="none" stroke="grey" stroke-width="2" d="M1174.39,-359.88C1158.83,-350.72 1139.48,-339.34 1122.72,-329.48"/>
<polygon fill="grey" stroke="grey" stroke-width="2" points="1124.12,-326.24 1113.72,-324.19 1120.57,-332.28 1124.12,-326.24"/>
</g>
<!-- 11 -->
<g id="node12" class="node">
<title>11</title>
<path fill="none" stroke="#d8b456" stroke-width="2" d="M1495.5,-396C1495.5,-396 1329.5,-396 1329.5,-396 1323.5,-396 1317.5,-390 1317.5,-384 1317.5,-384 1317.5,-372 1317.5,-372 1317.5,-366 1323.5,-360 1329.5,-360 1329.5,-360 1495.5,-360 1495.5,-360 1501.5,-360 1507.5,-366 1507.5,-372 1507.5,-372 1507.5,-384 1507.5,-384 1507.5,-390 1501.5,-396 1495.5,-396"/>
<text text-anchor="middle" x="1412.5" y="-381" font-family="sans" font-size="10.00">get_ccs</text>
<text text-anchor="middle" x="1412.5" y="-370" font-family="sans" font-size="10.00">pacbioRun: pool1_B1351_210701_A</text>
</g>
<!-- 11&#45;&gt;4 -->
<g id="edge19" class="edge">
<title>11&#45;&gt;4</title>
<path fill="none" stroke="grey" stroke-width="2" d="M1317.34,-361.07C1314.36,-360.69 1311.41,-360.33 1308.5,-360 1068.88,-332.62 1003.54,-356.52 761.02,-324.09"/>
<polygon fill="grey" stroke="grey" stroke-width="2" points="761.21,-320.59 750.84,-322.71 760.27,-327.52 761.21,-320.59"/>
</g>
<!-- 11&#45;&gt;13 -->
<g id="edge27" class="edge">
<title>11&#45;&gt;13</title>
<path fill="none" stroke="grey" stroke-width="2" d="M1317.33,-361.14C1314.35,-360.74 1311.4,-360.36 1308.5,-360 1126.28,-337.31 1075.47,-355.11 890.11,-323.91"/>
<polygon fill="grey" stroke="grey" stroke-width="2" points="890.48,-320.42 880.03,-322.19 889.3,-327.32 890.48,-320.42"/>
</g>
<!-- 11&#45;&gt;14 -->
<g id="edge35" class="edge">
<title>11&#45;&gt;14</title>
<path fill="none" stroke="grey" stroke-width="2" d="M1317.31,-361.29C1314.34,-360.85 1311.4,-360.42 1308.5,-360 1183.64,-342.02 1148.39,-348.1 1020.92,-324.14"/>
<polygon fill="grey" stroke="grey" stroke-width="2" points="1021.24,-320.63 1010.77,-322.2 1019.93,-327.51 1021.24,-320.63"/>
</g>
<!-- 11&#45;&gt;15 -->
<g id="edge43" class="edge">
<title>11&#45;&gt;15</title>
<path fill="none" stroke="grey" stroke-width="2" d="M1332.68,-359.97C1276.65,-348.01 1202.64,-332.21 1150.06,-320.99"/>
<polygon fill="grey" stroke="grey" stroke-width="2" points="1150.68,-317.55 1140.17,-318.88 1149.22,-324.39 1150.68,-317.55"/>
</g>
<!-- 12 -->
<g id="node13" class="node">
<title>12</title>
<path fill="none" stroke="#d8b456" stroke-width="2" d="M1703.5,-396C1703.5,-396 1537.5,-396 1537.5,-396 1531.5,-396 1525.5,-390 1525.5,-384 1525.5,-384 1525.5,-372 1525.5,-372 1525.5,-366 1531.5,-360 1537.5,-360 1537.5,-360 1703.5,-360 1703.5,-360 1709.5,-360 1715.5,-366 1715.5,-372 1715.5,-372 1715.5,-384 1715.5,-384 1715.5,-390 1709.5,-396 1703.5,-396"/>
<text text-anchor="middle" x="1620.5" y="-381" font-family="sans" font-size="10.00">get_ccs</text>
<text text-anchor="middle" x="1620.5" y="-370" font-family="sans" font-size="10.00">pacbioRun: pool2_B1351_210701_A</text>
</g>
<!-- 12&#45;&gt;4 -->
<g id="edge20" class="edge">
<title>12&#45;&gt;4</title>
<path fill="none" stroke="grey" stroke-width="2" d="M1525.34,-361C1522.36,-360.64 1519.41,-360.31 1516.5,-360 1184.79,-325.12 1095.34,-365.92 760.8,-324.04"/>
<polygon fill="grey" stroke="grey" stroke-width="2" points="761.19,-320.56 750.83,-322.78 760.31,-327.5 761.19,-320.56"/>
</g>
<!-- 12&#45;&gt;13 -->
<g id="edge28" class="edge">
<title>12&#45;&gt;13</title>
<path fill="none" stroke="grey" stroke-width="2" d="M1525.34,-361.04C1522.36,-360.67 1519.41,-360.32 1516.5,-360 1242.3,-329.8 1166.97,-366.64 889.96,-323.85"/>
<polygon fill="grey" stroke="grey" stroke-width="2" points="890.44,-320.38 880.02,-322.29 889.35,-327.3 890.44,-320.38"/>
</g>
<!-- 12&#45;&gt;14 -->
<g id="edge36" class="edge">
<title>12&#45;&gt;14</title>
<path fill="none" stroke="grey" stroke-width="2" d="M1525.33,-361.09C1522.36,-360.71 1519.41,-360.34 1516.5,-360 1299.77,-334.49 1239.74,-359.42 1020.61,-324"/>
<polygon fill="grey" stroke="grey" stroke-width="2" points="1021.17,-320.55 1010.73,-322.38 1020.04,-327.45 1021.17,-320.55"/>
</g>
<!-- 12&#45;&gt;15 -->
<g id="edge44" class="edge">
<title>12&#45;&gt;15</title>
<path fill="none" stroke="grey" stroke-width="2" d="M1525.31,-361.28C1522.34,-360.84 1519.4,-360.41 1516.5,-360 1386.94,-341.47 1234.94,-323.75 1150.17,-314.23"/>
<polygon fill="grey" stroke="grey" stroke-width="2" points="1150.5,-310.75 1140.17,-313.11 1149.72,-317.7 1150.5,-310.75"/>
</g>
<!-- 13&#45;&gt;0 -->
<g id="edge5" class="edge">
<title>13&#45;&gt;0</title>
<path fill="none" stroke="grey" stroke-width="2" d="M772,-287.95C724.93,-269.55 658.77,-235.21 628.5,-180 614.63,-154.7 643.33,-74.64 645.5,-72 660.42,-53.82 682.93,-41.6 704.16,-33.52"/>
<polygon fill="grey" stroke="grey" stroke-width="2" points="705.55,-36.75 713.8,-30.1 703.2,-30.15 705.55,-36.75"/>
</g>
<!-- 13&#45;&gt;16 -->
<g id="edge46" class="edge">
<title>13&#45;&gt;16</title>
<path fill="none" stroke="grey" stroke-width="2" d="M824.99,-287.7C825.21,-279.98 825.48,-270.71 825.73,-262.11"/>
<polygon fill="grey" stroke="grey" stroke-width="2" points="829.22,-262.2 826.01,-252.1 822.23,-262 829.22,-262.2"/>
</g>
<!-- 13&#45;&gt;17 -->
<g id="edge50" class="edge">
<title>13&#45;&gt;17</title>
<path fill="none" stroke="grey" stroke-width="2" d="M843.92,-287.87C872.45,-262.71 925.8,-215.65 958.24,-187.04"/>
<polygon fill="grey" stroke="grey" stroke-width="2" points="960.83,-189.43 966.01,-180.19 956.2,-184.18 960.83,-189.43"/>
</g>
<!-- 13&#45;&gt;18 -->
<g id="edge55" class="edge">
<title>13&#45;&gt;18</title>
<path fill="none" stroke="grey" stroke-width="2" d="M800.75,-287.91C789.95,-278.65 778.3,-266.2 772.5,-252 766.45,-237.19 764.34,-229.76 772.5,-216 780.41,-202.66 792.99,-192.47 806.5,-184.75"/>
<polygon fill="grey" stroke="grey" stroke-width="2" points="808.26,-187.79 815.48,-180.04 805,-181.59 808.26,-187.79"/>
</g>
<!-- 14&#45;&gt;0 -->
<g id="edge6" class="edge">
<title>14&#45;&gt;0</title>
<path fill="none" stroke="grey" stroke-width="2" d="M973.59,-287.78C1003.62,-258.51 1056.13,-197.06 1032.5,-144 996.46,-63.08 887.68,-34.49 819.4,-24.43"/>
<polygon fill="grey" stroke="grey" stroke-width="2" points="819.6,-20.92 809.22,-23.02 818.65,-27.86 819.6,-20.92"/>
</g>
<!-- 14&#45;&gt;16 -->
<g id="edge47" class="edge">
<title>14&#45;&gt;16</title>
<path fill="none" stroke="grey" stroke-width="2" d="M923.19,-287.88C906.3,-278.64 885.25,-267.13 867.12,-257.21"/>
<polygon fill="grey" stroke="grey" stroke-width="2" points="868.39,-253.92 857.93,-252.19 865.03,-260.06 868.39,-253.92"/>
</g>
<!-- 14&#45;&gt;17 -->
<g id="edge51" class="edge">
<title>14&#45;&gt;17</title>
<path fill="none" stroke="grey" stroke-width="2" d="M958.24,-287.87C963.55,-263.56 973.31,-218.82 979.6,-190.01"/>
<polygon fill="grey" stroke="grey" stroke-width="2" points="983.03,-190.71 981.75,-180.19 976.2,-189.21 983.03,-190.71"/>
</g>
<!-- 14&#45;&gt;18 -->
<g id="edge56" class="edge">
<title>14&#45;&gt;18</title>
<path fill="none" stroke="grey" stroke-width="2" d="M944.25,-287.87C929.51,-263.24 902.21,-217.64 884.99,-188.88"/>
<polygon fill="grey" stroke="grey" stroke-width="2" points="887.93,-186.97 879.79,-180.19 881.92,-190.57 887.93,-186.97"/>
</g>
<!-- 15&#45;&gt;0 -->
<g id="edge7" class="edge">
<title>15&#45;&gt;0</title>
<path fill="none" stroke="grey" stroke-width="2" d="M1084.6,-287.85C1083.81,-242.97 1074.68,-122.07 1001.5,-72 947.19,-34.84 871.22,-23.22 819.39,-19.85"/>
<polygon fill="grey" stroke="grey" stroke-width="2" points="819.54,-16.35 809.36,-19.28 819.15,-23.34 819.54,-16.35"/>
</g>
<!-- 15&#45;&gt;16 -->
<g id="edge48" class="edge">
<title>15&#45;&gt;16</title>
<path fill="none" stroke="grey" stroke-width="2" d="M1028.84,-289.9C985.13,-278.04 924.62,-261.62 881.17,-249.83"/>
<polygon fill="grey" stroke="grey" stroke-width="2" points="881.91,-246.41 871.34,-247.17 880.08,-253.16 881.91,-246.41"/>
</g>
<!-- 15&#45;&gt;17 -->
<g id="edge52" class="edge">
<title>15&#45;&gt;17</title>
<path fill="none" stroke="grey" stroke-width="2" d="M1072.56,-287.87C1055.31,-263.14 1023.32,-217.24 1003.29,-188.51"/>
<polygon fill="grey" stroke="grey" stroke-width="2" points="1006.07,-186.39 997.48,-180.19 1000.33,-190.39 1006.07,-186.39"/>
</g>
<!-- 15&#45;&gt;18 -->
<g id="edge57" class="edge">
<title>15&#45;&gt;18</title>
<path fill="none" stroke="grey" stroke-width="2" d="M1058.57,-287.87C1019.91,-262.34 947.1,-214.25 903.99,-185.78"/>
<polygon fill="grey" stroke="grey" stroke-width="2" points="905.8,-182.78 895.53,-180.19 901.94,-188.62 905.8,-182.78"/>
</g>
<!-- 16&#45;&gt;0 -->
<g id="edge8" class="edge">
<title>16&#45;&gt;0</title>
<path fill="none" stroke="grey" stroke-width="2" d="M781.74,-226.35C732.85,-218.07 659.24,-202.25 642.5,-180 605.61,-130.98 676.16,-73.02 723.54,-41.75"/>
<polygon fill="grey" stroke="grey" stroke-width="2" points="725.58,-44.59 732.08,-36.23 721.78,-38.71 725.58,-44.59"/>
</g>
<!-- 16&#45;&gt;17 -->
<g id="edge53" class="edge">
<title>16&#45;&gt;17</title>
<path fill="none" stroke="grey" stroke-width="2" d="M865.4,-215.88C887.29,-206.24 914.81,-194.12 937.98,-183.92"/>
<polygon fill="grey" stroke="grey" stroke-width="2" points="939.54,-187.06 947.28,-179.83 936.72,-180.65 939.54,-187.06"/>
</g>
<!-- 16&#45;&gt;18 -->
<g id="edge58" class="edge">
<title>16&#45;&gt;18</title>
<path fill="none" stroke="grey" stroke-width="2" d="M837.13,-215.7C842.13,-207.56 848.19,-197.69 853.71,-188.7"/>
<polygon fill="grey" stroke="grey" stroke-width="2" points="856.74,-190.46 858.99,-180.1 850.78,-186.79 856.74,-190.46"/>
</g>
<!-- 17&#45;&gt;0 -->
<g id="edge9" class="edge">
<title>17&#45;&gt;0</title>
<path fill="none" stroke="grey" stroke-width="2" d="M977.33,-143.75C967.01,-123.73 947.42,-91.04 921.5,-72 891.37,-49.86 851.45,-36.62 819.03,-28.91"/>
<polygon fill="grey" stroke="grey" stroke-width="2" points="819.75,-25.48 809.22,-26.69 818.2,-32.31 819.75,-25.48"/>
</g>
<!-- 17&#45;&gt;19 -->
<g id="edge59" class="edge">
<title>17&#45;&gt;19</title>
<path fill="none" stroke="grey" stroke-width="2" d="M956.14,-143.88C940.45,-134.72 920.94,-123.34 904.05,-113.48"/>
<polygon fill="grey" stroke="grey" stroke-width="2" points="905.37,-110.21 894.97,-108.19 901.84,-116.25 905.37,-110.21"/>
</g>
<!-- 18&#45;&gt;0 -->
<g id="edge10" class="edge">
<title>18&#45;&gt;0</title>
<path fill="none" stroke="grey" stroke-width="2" d="M846.35,-143.79C834.39,-134.15 820.13,-121.39 809.5,-108 794.23,-88.77 781.32,-63.99 772.75,-45.46"/>
<polygon fill="grey" stroke="grey" stroke-width="2" points="775.85,-43.83 768.56,-36.14 769.47,-46.7 775.85,-43.83"/>
</g>
<!-- 18&#45;&gt;19 -->
<g id="edge60" class="edge">
<title>18&#45;&gt;19</title>
<path fill="none" stroke="grey" stroke-width="2" d="M868.51,-143.7C868.07,-135.98 867.54,-126.71 867.05,-118.11"/>
<polygon fill="grey" stroke="grey" stroke-width="2" points="870.54,-117.89 866.48,-108.1 863.55,-118.29 870.54,-117.89"/>
</g>
<!-- 19&#45;&gt;0 -->
<g id="edge11" class="edge">
<title>19&#45;&gt;0</title>
<path fill="none" stroke="grey" stroke-width="2" d="M840.06,-71.88C826.71,-62.89 810.18,-51.76 795.72,-42.03"/>
<polygon fill="grey" stroke="grey" stroke-width="2" points="797.29,-38.87 787.04,-36.19 793.38,-44.68 797.29,-38.87"/>
</g>
<!-- 20 -->
<g id="node21" class="node">
<title>20</title>
<path fill="none" stroke="#56d0d8" stroke-width="2" d="M1329,-108C1329,-108 1218,-108 1218,-108 1212,-108 1206,-102 1206,-96 1206,-96 1206,-84 1206,-84 1206,-78 1212,-72 1218,-72 1218,-72 1329,-72 1329,-72 1335,-72 1341,-78 1341,-84 1341,-84 1341,-96 1341,-96 1341,-102 1335,-108 1329,-108"/>
<text text-anchor="middle" x="1273.5" y="-87.5" font-family="sans" font-size="10.00">enumerate_UShER_subs</text>
</g>
<!-- 20&#45;&gt;0 -->
<g id="edge12" class="edge">
<title>20&#45;&gt;0</title>
<path fill="none" stroke="grey" stroke-width="2" d="M1205.77,-79.74C1104.29,-65.87 914.54,-39.92 819.24,-26.89"/>
<polygon fill="grey" stroke="grey" stroke-width="2" points="819.59,-23.41 809.2,-25.52 818.64,-30.34 819.59,-23.41"/>
</g>
<!-- 21 -->
<g id="node22" class="node">
<title>21</title>
<path fill="none" stroke="#56d8a2" stroke-width="2" d="M1239,-180C1239,-180 1168,-180 1168,-180 1162,-180 1156,-174 1156,-168 1156,-168 1156,-156 1156,-156 1156,-150 1162,-144 1168,-144 1168,-144 1239,-144 1239,-144 1245,-144 1251,-150 1251,-156 1251,-156 1251,-168 1251,-168 1251,-174 1245,-180 1239,-180"/>
<text text-anchor="middle" x="1203.5" y="-159.5" font-family="sans" font-size="10.00">get_UShER_tree</text>
</g>
<!-- 21&#45;&gt;20 -->
<g id="edge62" class="edge">
<title>21&#45;&gt;20</title>
<path fill="none" stroke="grey" stroke-width="2" d="M1220.8,-143.7C1229.36,-135.14 1239.84,-124.66 1249.2,-115.3"/>
<polygon fill="grey" stroke="grey" stroke-width="2" points="1251.8,-117.65 1256.4,-108.1 1246.85,-112.7 1251.8,-117.65"/>
</g>
<!-- 22 -->
<g id="node23" class="node">
<title>22</title>
<path fill="none" stroke="#68d856" stroke-width="2" d="M1366,-180C1366,-180 1281,-180 1281,-180 1275,-180 1269,-174 1269,-168 1269,-168 1269,-156 1269,-156 1269,-150 1275,-144 1281,-144 1281,-144 1366,-144 1366,-144 1372,-144 1378,-150 1378,-156 1378,-156 1378,-168 1378,-168 1378,-174 1372,-180 1366,-180"/>
<text text-anchor="middle" x="1323.5" y="-159.5" font-family="sans" font-size="10.00">get_UShER_gtf_file</text>
</g>
<!-- 22&#45;&gt;20 -->
<g id="edge63" class="edge">
<title>22&#45;&gt;20</title>
<path fill="none" stroke="grey" stroke-width="2" d="M1311.14,-143.7C1305.27,-135.47 1298.13,-125.48 1291.66,-116.42"/>
<polygon fill="grey" stroke="grey" stroke-width="2" points="1294.38,-114.21 1285.72,-108.1 1288.68,-118.28 1294.38,-114.21"/>
</g>
<!-- 23 -->
<g id="node24" class="node">
<title>23</title>
<path fill="none" stroke="#56b1d8" stroke-width="2" d="M1510.5,-180C1510.5,-180 1408.5,-180 1408.5,-180 1402.5,-180 1396.5,-174 1396.5,-168 1396.5,-168 1396.5,-156 1396.5,-156 1396.5,-150 1402.5,-144 1408.5,-144 1408.5,-144 1510.5,-144 1510.5,-144 1516.5,-144 1522.5,-150 1522.5,-156 1522.5,-156 1522.5,-168 1522.5,-168 1522.5,-174 1516.5,-180 1510.5,-180"/>
<text text-anchor="middle" x="1459.5" y="-159.5" font-family="sans" font-size="10.00">get_UShER_refseq_file</text>
</g>
<!-- 23&#45;&gt;20 -->
<g id="edge64" class="edge">
<title>23&#45;&gt;20</title>
<path fill="none" stroke="grey" stroke-width="2" d="M1414,-143.88C1388.12,-134.14 1355.53,-121.87 1328.26,-111.61"/>
<polygon fill="grey" stroke="grey" stroke-width="2" points="1329.44,-108.31 1318.85,-108.07 1326.98,-114.87 1329.44,-108.31"/>
</g>
</g>
</svg>
