<?xml version="1.0" encoding="UTF-8" standalone="no"?>
<!DOCTYPE svg PUBLIC "-//W3C//DTD SVG 1.1//EN"
 "http://www.w3.org/Graphics/SVG/1.1/DTD/svg11.dtd">
<!-- Generated by graphviz version 2.42.3 (20191010.1750)
 -->
<!-- Title: snakemake_dag Pages: 1 -->
<svg width="1716pt" height="404pt"
 viewBox="0.00 0.00 1716.00 404.00" xmlns="http://www.w3.org/2000/svg" xmlns:xlink="http://www.w3.org/1999/xlink">
<g id="graph0" class="graph" transform="scale(1 1) rotate(0) translate(4 400)">
<title>snakemake_dag</title>
<polygon fill="white" stroke="transparent" points="-4,4 -4,-400 1712,-400 1712,4 -4,4"/>
<!-- 0 -->
<g id="node1" class="node">
<title>0</title>
<path fill="none" stroke="#d85656" stroke-width="2" d="M719.5,-36C719.5,-36 647.5,-36 647.5,-36 641.5,-36 635.5,-30 635.5,-24 635.5,-24 635.5,-12 635.5,-12 635.5,-6 641.5,0 647.5,0 647.5,0 719.5,0 719.5,0 725.5,0 731.5,-6 731.5,-12 731.5,-12 731.5,-24 731.5,-24 731.5,-30 725.5,-36 719.5,-36"/>
<text text-anchor="middle" x="683.5" y="-15.5" font-family="sans" font-size="10.00">make_summary</text>
</g>
<!-- 1 -->
<g id="node2" class="node">
<title>1</title>
<path fill="none" stroke="#80d856" stroke-width="2" d="M398.5,-108C398.5,-108 354.5,-108 354.5,-108 348.5,-108 342.5,-102 342.5,-96 342.5,-96 342.5,-84 342.5,-84 342.5,-78 348.5,-72 354.5,-72 354.5,-72 398.5,-72 398.5,-72 404.5,-72 410.5,-78 410.5,-84 410.5,-84 410.5,-96 410.5,-96 410.5,-102 404.5,-108 398.5,-108"/>
<text text-anchor="middle" x="376.5" y="-87.5" font-family="sans" font-size="10.00">make_dag</text>
</g>
<!-- 1&#45;&gt;0 -->
<g id="edge1" class="edge">
<title>1&#45;&gt;0</title>
<path fill="none" stroke="grey" stroke-width="2" d="M410.57,-74.89C413.57,-73.85 416.57,-72.86 419.5,-72 488.99,-51.47 571.12,-36.37 625.11,-27.65"/>
<polygon fill="grey" stroke="grey" stroke-width="2" points="625.86,-31.07 635.18,-26.04 624.75,-24.16 625.86,-31.07"/>
</g>
<!-- 2 -->
<g id="node3" class="node">
<title>2</title>
<path fill="none" stroke="#afd856" stroke-width="2" d="M526.5,-108C526.5,-108 440.5,-108 440.5,-108 434.5,-108 428.5,-102 428.5,-96 428.5,-96 428.5,-84 428.5,-84 428.5,-78 434.5,-72 440.5,-72 440.5,-72 526.5,-72 526.5,-72 532.5,-72 538.5,-78 538.5,-84 538.5,-84 538.5,-96 538.5,-96 538.5,-102 532.5,-108 526.5,-108"/>
<text text-anchor="middle" x="483.5" y="-87.5" font-family="sans" font-size="10.00">get_mut_bind_expr</text>
</g>
<!-- 2&#45;&gt;0 -->
<g id="edge2" class="edge">
<title>2&#45;&gt;0</title>
<path fill="none" stroke="grey" stroke-width="2" d="M532.17,-71.97C560.32,-62.11 595.92,-49.65 625.52,-39.29"/>
<polygon fill="grey" stroke="grey" stroke-width="2" points="627.02,-42.48 635.31,-35.87 624.71,-35.87 627.02,-42.48"/>
</g>
<!-- 3 -->
<g id="node4" class="node">
<title>3</title>
<path fill="none" stroke="#56d8d8" stroke-width="2" d="M670.5,-324C670.5,-324 550.5,-324 550.5,-324 544.5,-324 538.5,-318 538.5,-312 538.5,-312 538.5,-300 538.5,-300 538.5,-294 544.5,-288 550.5,-288 550.5,-288 670.5,-288 670.5,-288 676.5,-288 682.5,-294 682.5,-300 682.5,-300 682.5,-312 682.5,-312 682.5,-318 676.5,-324 670.5,-324"/>
<text text-anchor="middle" x="610.5" y="-303.5" font-family="sans" font-size="10.00">process_ccs_Wuhan_Hu_1</text>
</g>
<!-- 3&#45;&gt;0 -->
<g id="edge3" class="edge">
<title>3&#45;&gt;0</title>
<path fill="none" stroke="grey" stroke-width="2" d="M602.71,-287.74C585.57,-246.99 549.29,-142.91 590.5,-72 598.7,-57.9 612.21,-47.23 626.42,-39.31"/>
<polygon fill="grey" stroke="grey" stroke-width="2" points="628.04,-42.41 635.32,-34.72 624.83,-36.19 628.04,-42.41"/>
</g>
<!-- 15 -->
<g id="node16" class="node">
<title>15</title>
<path fill="none" stroke="#56a9d8" stroke-width="2" d="M900,-252C900,-252 835,-252 835,-252 829,-252 823,-246 823,-240 823,-240 823,-228 823,-228 823,-222 829,-216 835,-216 835,-216 900,-216 900,-216 906,-216 912,-222 912,-228 912,-228 912,-240 912,-240 912,-246 906,-252 900,-252"/>
<text text-anchor="middle" x="867.5" y="-231.5" font-family="sans" font-size="10.00">count_variants</text>
</g>
<!-- 3&#45;&gt;15 -->
<g id="edge43" class="edge">
<title>3&#45;&gt;15</title>
<path fill="none" stroke="grey" stroke-width="2" d="M673.04,-287.97C715.87,-276.3 772.1,-260.98 813.08,-249.82"/>
<polygon fill="grey" stroke="grey" stroke-width="2" points="814.16,-253.16 822.89,-247.15 812.32,-246.4 814.16,-253.16"/>
</g>
<!-- 16 -->
<g id="node17" class="node">
<title>16</title>
<path fill="none" stroke="#d6d856" stroke-width="2" d="M706.5,-180C706.5,-180 654.5,-180 654.5,-180 648.5,-180 642.5,-174 642.5,-168 642.5,-168 642.5,-156 642.5,-156 642.5,-150 648.5,-144 654.5,-144 654.5,-144 706.5,-144 706.5,-144 712.5,-144 718.5,-150 718.5,-156 718.5,-156 718.5,-168 718.5,-168 718.5,-174 712.5,-180 706.5,-180"/>
<text text-anchor="middle" x="680.5" y="-159.5" font-family="sans" font-size="10.00">fit_titrations</text>
</g>
<!-- 3&#45;&gt;16 -->
<g id="edge47" class="edge">
<title>3&#45;&gt;16</title>
<path fill="none" stroke="grey" stroke-width="2" d="M618.94,-287.87C631.03,-263.35 653.37,-218.03 667.56,-189.26"/>
<polygon fill="grey" stroke="grey" stroke-width="2" points="670.74,-190.71 672.03,-180.19 664.47,-187.61 670.74,-190.71"/>
</g>
<!-- 17 -->
<g id="node18" class="node">
<title>17</title>
<path fill="none" stroke="#56d8a9" stroke-width="2" d="M844,-180C844,-180 749,-180 749,-180 743,-180 737,-174 737,-168 737,-168 737,-156 737,-156 737,-150 743,-144 749,-144 749,-144 844,-144 844,-144 850,-144 856,-150 856,-156 856,-156 856,-168 856,-168 856,-174 850,-180 844,-180"/>
<text text-anchor="middle" x="796.5" y="-159.5" font-family="sans" font-size="10.00">calculate_expression</text>
</g>
<!-- 3&#45;&gt;17 -->
<g id="edge52" class="edge">
<title>3&#45;&gt;17</title>
<path fill="none" stroke="grey" stroke-width="2" d="M632.94,-287.87C666.17,-262.5 728.58,-214.85 765.96,-186.32"/>
<polygon fill="grey" stroke="grey" stroke-width="2" points="768.16,-189.04 773.98,-180.19 763.91,-183.48 768.16,-189.04"/>
</g>
<!-- 4 -->
<g id="node5" class="node">
<title>4</title>
<path fill="none" stroke="#5682d8" stroke-width="2" d="M1248.5,-396C1248.5,-396 1050.5,-396 1050.5,-396 1044.5,-396 1038.5,-390 1038.5,-384 1038.5,-384 1038.5,-372 1038.5,-372 1038.5,-366 1044.5,-360 1050.5,-360 1050.5,-360 1248.5,-360 1248.5,-360 1254.5,-360 1260.5,-366 1260.5,-372 1260.5,-372 1260.5,-384 1260.5,-384 1260.5,-390 1254.5,-396 1248.5,-396"/>
<text text-anchor="middle" x="1149.5" y="-381" font-family="sans" font-size="10.00">get_ccs</text>
<text text-anchor="middle" x="1149.5" y="-370" font-family="sans" font-size="10.00">pacbioRun: pool1_Wuhan_Hu_1_210701_A</text>
</g>
<!-- 4&#45;&gt;3 -->
<g id="edge11" class="edge">
<title>4&#45;&gt;3</title>
<path fill="none" stroke="grey" stroke-width="2" d="M1038.37,-361.12C1035.39,-360.74 1032.42,-360.36 1029.5,-360 882.8,-341.8 842.45,-347.29 692.87,-324.13"/>
<polygon fill="grey" stroke="grey" stroke-width="2" points="693.28,-320.65 682.86,-322.56 692.19,-327.57 693.28,-320.65"/>
</g>
<!-- 12 -->
<g id="node13" class="node">
<title>12</title>
<path fill="none" stroke="#d88556" stroke-width="2" d="M800,-324C800,-324 713,-324 713,-324 707,-324 701,-318 701,-312 701,-312 701,-300 701,-300 701,-294 707,-288 713,-288 713,-288 800,-288 800,-288 806,-288 812,-294 812,-300 812,-300 812,-312 812,-312 812,-318 806,-324 800,-324"/>
<text text-anchor="middle" x="756.5" y="-303.5" font-family="sans" font-size="10.00">process_ccs_E484K</text>
</g>
<!-- 4&#45;&gt;12 -->
<g id="edge19" class="edge">
<title>4&#45;&gt;12</title>
<path fill="none" stroke="grey" stroke-width="2" d="M1038.19,-360.18C964.71,-348.87 874.08,-334.47 821.98,-323.96"/>
<polygon fill="grey" stroke="grey" stroke-width="2" points="822.59,-320.51 812.09,-321.91 821.17,-327.37 822.59,-320.51"/>
</g>
<!-- 13 -->
<g id="node14" class="node">
<title>13</title>
<path fill="none" stroke="#59d856" stroke-width="2" d="M930.5,-324C930.5,-324 842.5,-324 842.5,-324 836.5,-324 830.5,-318 830.5,-312 830.5,-312 830.5,-300 830.5,-300 830.5,-294 836.5,-288 842.5,-288 842.5,-288 930.5,-288 930.5,-288 936.5,-288 942.5,-294 942.5,-300 942.5,-300 942.5,-312 942.5,-312 942.5,-318 936.5,-324 930.5,-324"/>
<text text-anchor="middle" x="886.5" y="-303.5" font-family="sans" font-size="10.00">process_ccs_N501Y</text>
</g>
<!-- 4&#45;&gt;13 -->
<g id="edge27" class="edge">
<title>4&#45;&gt;13</title>
<path fill="none" stroke="grey" stroke-width="2" d="M1085.5,-359.97C1045.19,-349.24 993.26,-335.42 952.56,-324.58"/>
<polygon fill="grey" stroke="grey" stroke-width="2" points="953.3,-321.16 942.73,-321.97 951.5,-327.92 953.3,-321.16"/>
</g>
<!-- 14 -->
<g id="node15" class="node">
<title>14</title>
<path fill="none" stroke="#56d882" stroke-width="2" d="M1060,-324C1060,-324 973,-324 973,-324 967,-324 961,-318 961,-312 961,-312 961,-300 961,-300 961,-294 967,-288 973,-288 973,-288 1060,-288 1060,-288 1066,-288 1072,-294 1072,-300 1072,-300 1072,-312 1072,-312 1072,-318 1066,-324 1060,-324"/>
<text text-anchor="middle" x="1016.5" y="-303.5" font-family="sans" font-size="10.00">process_ccs_B1351</text>
</g>
<!-- 4&#45;&gt;14 -->
<g id="edge35" class="edge">
<title>4&#45;&gt;14</title>
<path fill="none" stroke="grey" stroke-width="2" d="M1116.96,-359.88C1099.25,-350.55 1077.15,-338.92 1058.18,-328.94"/>
<polygon fill="grey" stroke="grey" stroke-width="2" points="1059.64,-325.75 1049.16,-324.19 1056.38,-331.94 1059.64,-325.75"/>
</g>
<!-- 5 -->
<g id="node6" class="node">
<title>5</title>
<path fill="none" stroke="#5682d8" stroke-width="2" d="M1488.5,-396C1488.5,-396 1290.5,-396 1290.5,-396 1284.5,-396 1278.5,-390 1278.5,-384 1278.5,-384 1278.5,-372 1278.5,-372 1278.5,-366 1284.5,-360 1290.5,-360 1290.5,-360 1488.5,-360 1488.5,-360 1494.5,-360 1500.5,-366 1500.5,-372 1500.5,-372 1500.5,-384 1500.5,-384 1500.5,-390 1494.5,-396 1488.5,-396"/>
<text text-anchor="middle" x="1389.5" y="-381" font-family="sans" font-size="10.00">get_ccs</text>
<text text-anchor="middle" x="1389.5" y="-370" font-family="sans" font-size="10.00">pacbioRun: pool2_Wuhan_Hu_1_210701_A</text>
</g>
<!-- 5&#45;&gt;3 -->
<g id="edge12" class="edge">
<title>5&#45;&gt;3</title>
<path fill="none" stroke="grey" stroke-width="2" d="M1278.39,-360.95C1275.4,-360.61 1272.43,-360.3 1269.5,-360 1016.69,-334.26 948.29,-357.91 692.78,-324.06"/>
<polygon fill="grey" stroke="grey" stroke-width="2" points="693.21,-320.58 682.83,-322.72 692.28,-327.52 693.21,-320.58"/>
</g>
<!-- 5&#45;&gt;12 -->
<g id="edge20" class="edge">
<title>5&#45;&gt;12</title>
<path fill="none" stroke="grey" stroke-width="2" d="M1278.39,-361.02C1275.39,-360.66 1272.43,-360.32 1269.5,-360 1074.26,-338.35 1020.22,-356.77 822.18,-323.92"/>
<polygon fill="grey" stroke="grey" stroke-width="2" points="822.47,-320.42 812.03,-322.21 821.31,-327.32 822.47,-320.42"/>
</g>
<!-- 5&#45;&gt;13 -->
<g id="edge28" class="edge">
<title>5&#45;&gt;13</title>
<path fill="none" stroke="grey" stroke-width="2" d="M1278.37,-361.15C1275.38,-360.76 1272.42,-360.37 1269.5,-360 1128.85,-342.05 1091.94,-349.75 952.5,-324 952.4,-323.98 952.3,-323.96 952.19,-323.94"/>
<polygon fill="grey" stroke="grey" stroke-width="2" points="953.05,-320.54 942.55,-322 951.66,-327.41 953.05,-320.54"/>
</g>
<!-- 5&#45;&gt;14 -->
<g id="edge36" class="edge">
<title>5&#45;&gt;14</title>
<path fill="none" stroke="grey" stroke-width="2" d="M1298.73,-359.97C1231.87,-347.42 1142.48,-330.64 1082.38,-319.36"/>
<polygon fill="grey" stroke="grey" stroke-width="2" points="1082.72,-315.87 1072.25,-317.46 1081.43,-322.75 1082.72,-315.87"/>
</g>
<!-- 6 -->
<g id="node7" class="node">
<title>6</title>
<path fill="none" stroke="#5682d8" stroke-width="2" d="M1696,-396C1696,-396 1531,-396 1531,-396 1525,-396 1519,-390 1519,-384 1519,-384 1519,-372 1519,-372 1519,-366 1525,-360 1531,-360 1531,-360 1696,-360 1696,-360 1702,-360 1708,-366 1708,-372 1708,-372 1708,-384 1708,-384 1708,-390 1702,-396 1696,-396"/>
<text text-anchor="middle" x="1613.5" y="-381" font-family="sans" font-size="10.00">get_ccs</text>
<text text-anchor="middle" x="1613.5" y="-370" font-family="sans" font-size="10.00">pacbioRun: pool1_E484K_210701_A</text>
</g>
<!-- 6&#45;&gt;3 -->
<g id="edge13" class="edge">
<title>6&#45;&gt;3</title>
<path fill="none" stroke="grey" stroke-width="2" d="M1518.9,-361.05C1515.74,-360.67 1512.59,-360.32 1509.5,-360 1150.79,-322.92 1054.29,-368.68 692.78,-324.03"/>
<polygon fill="grey" stroke="grey" stroke-width="2" points="693.18,-320.56 682.82,-322.79 692.31,-327.5 693.18,-320.56"/>
</g>
<!-- 6&#45;&gt;12 -->
<g id="edge21" class="edge">
<title>6&#45;&gt;12</title>
<path fill="none" stroke="grey" stroke-width="2" d="M1518.9,-361.08C1515.73,-360.7 1512.59,-360.33 1509.5,-360 1208.33,-327.6 1125.84,-370.05 821.99,-323.85"/>
<polygon fill="grey" stroke="grey" stroke-width="2" points="822.43,-320.38 812.01,-322.31 821.36,-327.29 822.43,-320.38"/>
</g>
<!-- 6&#45;&gt;13 -->
<g id="edge29" class="edge">
<title>6&#45;&gt;13</title>
<path fill="none" stroke="grey" stroke-width="2" d="M1518.9,-361.13C1515.73,-360.73 1512.59,-360.35 1509.5,-360 1263.02,-331.96 1197.47,-363.11 952.5,-324 952.4,-323.98 952.3,-323.97 952.19,-323.95"/>
<polygon fill="grey" stroke="grey" stroke-width="2" points="952.98,-320.54 942.52,-322.19 951.73,-327.42 952.98,-320.54"/>
</g>
<!-- 6&#45;&gt;14 -->
<g id="edge37" class="edge">
<title>6&#45;&gt;14</title>
<path fill="none" stroke="grey" stroke-width="2" d="M1518.87,-361.31C1515.71,-360.85 1512.58,-360.42 1509.5,-360 1356.82,-339.33 1176.66,-321.66 1082.06,-312.89"/>
<polygon fill="grey" stroke="grey" stroke-width="2" points="1082.35,-309.4 1072.07,-311.97 1081.71,-316.37 1082.35,-309.4"/>
</g>
<!-- 7 -->
<g id="node8" class="node">
<title>7</title>
<path fill="none" stroke="#5682d8" stroke-width="2" d="M177,-396C177,-396 12,-396 12,-396 6,-396 0,-390 0,-384 0,-384 0,-372 0,-372 0,-366 6,-360 12,-360 12,-360 177,-360 177,-360 183,-360 189,-366 189,-372 189,-372 189,-384 189,-384 189,-390 183,-396 177,-396"/>
<text text-anchor="middle" x="94.5" y="-381" font-family="sans" font-size="10.00">get_ccs</text>
<text text-anchor="middle" x="94.5" y="-370" font-family="sans" font-size="10.00">pacbioRun: pool2_E484K_210701_A</text>
</g>
<!-- 7&#45;&gt;3 -->
<g id="edge14" class="edge">
<title>7&#45;&gt;3</title>
<path fill="none" stroke="grey" stroke-width="2" d="M189.14,-361.39C192.3,-360.91 195.42,-360.45 198.5,-360 312.56,-343.35 444.79,-326.83 528.05,-316.77"/>
<polygon fill="grey" stroke="grey" stroke-width="2" points="528.7,-320.22 538.21,-315.54 527.86,-313.27 528.7,-320.22"/>
</g>
<!-- 7&#45;&gt;12 -->
<g id="edge22" class="edge">
<title>7&#45;&gt;12</title>
<path fill="none" stroke="grey" stroke-width="2" d="M189.11,-361.17C192.27,-360.76 195.41,-360.36 198.5,-360 413.38,-334.64 472.97,-359.18 690.82,-323.9"/>
<polygon fill="grey" stroke="grey" stroke-width="2" points="691.67,-327.31 700.97,-322.24 690.54,-320.4 691.67,-327.31"/>
</g>
<!-- 7&#45;&gt;13 -->
<g id="edge30" class="edge">
<title>7&#45;&gt;13</title>
<path fill="none" stroke="grey" stroke-width="2" d="M189.1,-361.11C192.27,-360.71 195.41,-360.34 198.5,-360 473.74,-329.62 546.91,-366.74 820.5,-324 820.6,-323.98 820.7,-323.97 820.81,-323.95"/>
<polygon fill="grey" stroke="grey" stroke-width="2" points="821.26,-327.43 830.49,-322.22 820.02,-320.54 821.26,-327.43"/>
</g>
<!-- 7&#45;&gt;14 -->
<g id="edge38" class="edge">
<title>7&#45;&gt;14</title>
<path fill="none" stroke="grey" stroke-width="2" d="M189.1,-361.07C192.27,-360.68 195.41,-360.33 198.5,-360 528.45,-325.26 618.55,-373.7 951.08,-323.83"/>
<polygon fill="grey" stroke="grey" stroke-width="2" points="951.63,-327.29 960.99,-322.33 950.58,-320.37 951.63,-327.29"/>
</g>
<!-- 8 -->
<g id="node9" class="node">
<title>8</title>
<path fill="none" stroke="#5682d8" stroke-width="2" d="M385.5,-396C385.5,-396 219.5,-396 219.5,-396 213.5,-396 207.5,-390 207.5,-384 207.5,-384 207.5,-372 207.5,-372 207.5,-366 213.5,-360 219.5,-360 219.5,-360 385.5,-360 385.5,-360 391.5,-360 397.5,-366 397.5,-372 397.5,-372 397.5,-384 397.5,-384 397.5,-390 391.5,-396 385.5,-396"/>
<text text-anchor="middle" x="302.5" y="-381" font-family="sans" font-size="10.00">get_ccs</text>
<text text-anchor="middle" x="302.5" y="-370" font-family="sans" font-size="10.00">pacbioRun: pool1_N501Y_210701_A</text>
</g>
<!-- 8&#45;&gt;3 -->
<g id="edge15" class="edge">
<title>8&#45;&gt;3</title>
<path fill="none" stroke="grey" stroke-width="2" d="M377.45,-359.97C423.17,-349.58 481.63,-336.29 528.57,-325.62"/>
<polygon fill="grey" stroke="grey" stroke-width="2" points="529.43,-329.02 538.4,-323.39 527.87,-322.19 529.43,-329.02"/>
</g>
<!-- 8&#45;&gt;12 -->
<g id="edge23" class="edge">
<title>8&#45;&gt;12</title>
<path fill="none" stroke="grey" stroke-width="2" d="M397.69,-361.3C400.66,-360.85 403.6,-360.42 406.5,-360 529.65,-342.16 564.39,-347.89 690.87,-323.97"/>
<polygon fill="grey" stroke="grey" stroke-width="2" points="691.78,-327.36 700.94,-322.04 690.46,-320.48 691.78,-327.36"/>
</g>
<!-- 8&#45;&gt;13 -->
<g id="edge31" class="edge">
<title>8&#45;&gt;13</title>
<path fill="none" stroke="grey" stroke-width="2" d="M397.67,-361.15C400.65,-360.75 403.6,-360.36 406.5,-360 589.77,-337.09 638.45,-355.14 820.5,-324 820.6,-323.98 820.7,-323.97 820.81,-323.95"/>
<polygon fill="grey" stroke="grey" stroke-width="2" points="821.3,-327.42 830.47,-322.11 819.99,-320.54 821.3,-327.42"/>
</g>
<!-- 8&#45;&gt;14 -->
<g id="edge39" class="edge">
<title>8&#45;&gt;14</title>
<path fill="none" stroke="grey" stroke-width="2" d="M397.66,-361.07C400.64,-360.69 403.59,-360.33 406.5,-360 644.38,-332.77 710.1,-362.06 950.87,-323.89"/>
<polygon fill="grey" stroke="grey" stroke-width="2" points="951.66,-327.31 960.98,-322.26 950.55,-320.39 951.66,-327.31"/>
</g>
<!-- 9 -->
<g id="node10" class="node">
<title>9</title>
<path fill="none" stroke="#5682d8" stroke-width="2" d="M593.5,-396C593.5,-396 427.5,-396 427.5,-396 421.5,-396 415.5,-390 415.5,-384 415.5,-384 415.5,-372 415.5,-372 415.5,-366 421.5,-360 427.5,-360 427.5,-360 593.5,-360 593.5,-360 599.5,-360 605.5,-366 605.5,-372 605.5,-372 605.5,-384 605.5,-384 605.5,-390 599.5,-396 593.5,-396"/>
<text text-anchor="middle" x="510.5" y="-381" font-family="sans" font-size="10.00">get_ccs</text>
<text text-anchor="middle" x="510.5" y="-370" font-family="sans" font-size="10.00">pacbioRun: pool2_N501Y_210701_A</text>
</g>
<!-- 9&#45;&gt;3 -->
<g id="edge16" class="edge">
<title>9&#45;&gt;3</title>
<path fill="none" stroke="grey" stroke-width="2" d="M534.96,-359.88C547.8,-350.89 563.7,-339.76 577.59,-330.03"/>
<polygon fill="grey" stroke="grey" stroke-width="2" points="579.76,-332.79 585.94,-324.19 575.74,-327.06 579.76,-332.79"/>
</g>
<!-- 9&#45;&gt;12 -->
<g id="edge24" class="edge">
<title>9&#45;&gt;12</title>
<path fill="none" stroke="grey" stroke-width="2" d="M570.36,-359.97C606.79,-349.6 653.35,-336.35 690.79,-325.7"/>
<polygon fill="grey" stroke="grey" stroke-width="2" points="691.93,-329.01 700.59,-322.91 690.02,-322.28 691.93,-329.01"/>
</g>
<!-- 9&#45;&gt;13 -->
<g id="edge32" class="edge">
<title>9&#45;&gt;13</title>
<path fill="none" stroke="grey" stroke-width="2" d="M605.52,-361.16C688.76,-347.22 799.64,-328.46 820.5,-324 820.6,-323.98 820.7,-323.96 820.8,-323.93"/>
<polygon fill="grey" stroke="grey" stroke-width="2" points="821.41,-327.39 830.41,-321.79 819.88,-320.55 821.41,-327.39"/>
</g>
<!-- 9&#45;&gt;14 -->
<g id="edge40" class="edge">
<title>9&#45;&gt;14</title>
<path fill="none" stroke="grey" stroke-width="2" d="M605.68,-361.22C608.65,-360.8 611.6,-360.39 614.5,-360 760.57,-340.28 801.58,-350.66 950.96,-323.93"/>
<polygon fill="grey" stroke="grey" stroke-width="2" points="951.74,-327.34 960.95,-322.11 950.49,-320.45 951.74,-327.34"/>
</g>
<!-- 10 -->
<g id="node11" class="node">
<title>10</title>
<path fill="none" stroke="#5682d8" stroke-width="2" d="M801,-396C801,-396 636,-396 636,-396 630,-396 624,-390 624,-384 624,-384 624,-372 624,-372 624,-366 630,-360 636,-360 636,-360 801,-360 801,-360 807,-360 813,-366 813,-372 813,-372 813,-384 813,-384 813,-390 807,-396 801,-396"/>
<text text-anchor="middle" x="718.5" y="-381" font-family="sans" font-size="10.00">get_ccs</text>
<text text-anchor="middle" x="718.5" y="-370" font-family="sans" font-size="10.00">pacbioRun: pool1_B1351_210701_A</text>
</g>
<!-- 10&#45;&gt;3 -->
<g id="edge17" class="edge">
<title>10&#45;&gt;3</title>
<path fill="none" stroke="grey" stroke-width="2" d="M692.08,-359.88C678.09,-350.81 660.72,-339.55 645.61,-329.76"/>
<polygon fill="grey" stroke="grey" stroke-width="2" points="647.32,-326.69 637.02,-324.19 643.51,-332.57 647.32,-326.69"/>
</g>
<!-- 10&#45;&gt;12 -->
<g id="edge25" class="edge">
<title>10&#45;&gt;12</title>
<path fill="none" stroke="grey" stroke-width="2" d="M727.89,-359.7C732.26,-351.64 737.56,-341.89 742.4,-332.98"/>
<polygon fill="grey" stroke="grey" stroke-width="2" points="745.52,-334.56 747.21,-324.1 739.37,-331.22 745.52,-334.56"/>
</g>
<!-- 10&#45;&gt;13 -->
<g id="edge33" class="edge">
<title>10&#45;&gt;13</title>
<path fill="none" stroke="grey" stroke-width="2" d="M759.6,-359.88C782.67,-350.26 811.64,-338.19 836.07,-328.01"/>
<polygon fill="grey" stroke="grey" stroke-width="2" points="837.65,-331.15 845.54,-324.07 834.96,-324.68 837.65,-331.15"/>
</g>
<!-- 10&#45;&gt;14 -->
<g id="edge41" class="edge">
<title>10&#45;&gt;14</title>
<path fill="none" stroke="grey" stroke-width="2" d="M796.31,-359.96C839.19,-350.41 893.59,-338.05 950.89,-324.11"/>
<polygon fill="grey" stroke="grey" stroke-width="2" points="951.98,-327.45 960.86,-321.68 950.32,-320.65 951.98,-327.45"/>
</g>
<!-- 11 -->
<g id="node12" class="node">
<title>11</title>
<path fill="none" stroke="#5682d8" stroke-width="2" d="M1008,-396C1008,-396 843,-396 843,-396 837,-396 831,-390 831,-384 831,-384 831,-372 831,-372 831,-366 837,-360 843,-360 843,-360 1008,-360 1008,-360 1014,-360 1020,-366 1020,-372 1020,-372 1020,-384 1020,-384 1020,-390 1014,-396 1008,-396"/>
<text text-anchor="middle" x="925.5" y="-381" font-family="sans" font-size="10.00">get_ccs</text>
<text text-anchor="middle" x="925.5" y="-370" font-family="sans" font-size="10.00">pacbioRun: pool2_B1351_210701_A</text>
</g>
<!-- 11&#45;&gt;3 -->
<g id="edge18" class="edge">
<title>11&#45;&gt;3</title>
<path fill="none" stroke="grey" stroke-width="2" d="M848.85,-359.97C801.48,-349.44 740.73,-335.94 692.42,-325.21"/>
<polygon fill="grey" stroke="grey" stroke-width="2" points="693.15,-321.78 682.62,-323.03 691.63,-328.61 693.15,-321.78"/>
</g>
<!-- 11&#45;&gt;12 -->
<g id="edge26" class="edge">
<title>11&#45;&gt;12</title>
<path fill="none" stroke="grey" stroke-width="2" d="M884.16,-359.88C860.95,-350.26 831.81,-338.19 807.23,-328.01"/>
<polygon fill="grey" stroke="grey" stroke-width="2" points="808.29,-324.66 797.71,-324.07 805.61,-331.13 808.29,-324.66"/>
</g>
<!-- 11&#45;&gt;13 -->
<g id="edge34" class="edge">
<title>11&#45;&gt;13</title>
<path fill="none" stroke="grey" stroke-width="2" d="M915.86,-359.7C911.37,-351.64 905.94,-341.89 900.98,-332.98"/>
<polygon fill="grey" stroke="grey" stroke-width="2" points="903.95,-331.14 896.03,-324.1 897.84,-334.54 903.95,-331.14"/>
</g>
<!-- 11&#45;&gt;14 -->
<g id="edge42" class="edge">
<title>11&#45;&gt;14</title>
<path fill="none" stroke="grey" stroke-width="2" d="M947.99,-359.7C959.46,-350.88 973.56,-340.03 985.98,-330.47"/>
<polygon fill="grey" stroke="grey" stroke-width="2" points="988.47,-332.98 994.26,-324.1 984.2,-327.43 988.47,-332.98"/>
</g>
<!-- 12&#45;&gt;0 -->
<g id="edge4" class="edge">
<title>12&#45;&gt;0</title>
<path fill="none" stroke="grey" stroke-width="2" d="M730.03,-287.81C700.08,-266.61 652.94,-227.47 633.5,-180 614.44,-133.46 643.5,-76.85 664.66,-44.67"/>
<polygon fill="grey" stroke="grey" stroke-width="2" points="667.65,-46.5 670.38,-36.27 661.86,-42.57 667.65,-46.5"/>
</g>
<!-- 12&#45;&gt;15 -->
<g id="edge44" class="edge">
<title>12&#45;&gt;15</title>
<path fill="none" stroke="grey" stroke-width="2" d="M783.65,-287.88C798.03,-278.81 815.88,-267.55 831.41,-257.76"/>
<polygon fill="grey" stroke="grey" stroke-width="2" points="833.65,-260.48 840.24,-252.19 829.92,-254.56 833.65,-260.48"/>
</g>
<!-- 12&#45;&gt;16 -->
<g id="edge48" class="edge">
<title>12&#45;&gt;16</title>
<path fill="none" stroke="grey" stroke-width="2" d="M747.33,-287.87C734.21,-263.35 709.95,-218.03 694.55,-189.26"/>
<polygon fill="grey" stroke="grey" stroke-width="2" points="697.5,-187.35 689.7,-180.19 691.33,-190.66 697.5,-187.35"/>
</g>
<!-- 12&#45;&gt;17 -->
<g id="edge53" class="edge">
<title>12&#45;&gt;17</title>
<path fill="none" stroke="grey" stroke-width="2" d="M761.32,-287.87C768.17,-263.56 780.78,-218.82 788.89,-190.01"/>
<polygon fill="grey" stroke="grey" stroke-width="2" points="792.32,-190.76 791.66,-180.19 785.58,-188.87 792.32,-190.76"/>
</g>
<!-- 13&#45;&gt;0 -->
<g id="edge5" class="edge">
<title>13&#45;&gt;0</title>
<path fill="none" stroke="grey" stroke-width="2" d="M909.8,-287.82C920.4,-278.54 931.82,-266.09 937.5,-252 943.48,-237.16 942.35,-231.25 937.5,-216 913.71,-141.27 898.17,-119.15 835.5,-72 808.01,-51.32 771.82,-38.27 741.64,-30.3"/>
<polygon fill="grey" stroke="grey" stroke-width="2" points="742.22,-26.84 731.66,-27.79 740.51,-33.62 742.22,-26.84"/>
</g>
<!-- 13&#45;&gt;15 -->
<g id="edge45" class="edge">
<title>13&#45;&gt;15</title>
<path fill="none" stroke="grey" stroke-width="2" d="M881.8,-287.7C879.69,-279.9 877.14,-270.51 874.78,-261.83"/>
<polygon fill="grey" stroke="grey" stroke-width="2" points="878.14,-260.84 872.14,-252.1 871.38,-262.67 878.14,-260.84"/>
</g>
<!-- 13&#45;&gt;16 -->
<g id="edge49" class="edge">
<title>13&#45;&gt;16</title>
<path fill="none" stroke="grey" stroke-width="2" d="M861.65,-287.87C824.69,-262.39 755.14,-214.45 713.81,-185.96"/>
<polygon fill="grey" stroke="grey" stroke-width="2" points="715.66,-182.98 705.44,-180.19 711.68,-188.75 715.66,-182.98"/>
</g>
<!-- 13&#45;&gt;17 -->
<g id="edge54" class="edge">
<title>13&#45;&gt;17</title>
<path fill="none" stroke="grey" stroke-width="2" d="M902.03,-287.89C917.06,-269.17 935.53,-238.78 920.5,-216 907.92,-196.94 886.92,-184.71 865.74,-176.87"/>
<polygon fill="grey" stroke="grey" stroke-width="2" points="866.62,-173.47 856.03,-173.57 864.37,-180.1 866.62,-173.47"/>
</g>
<!-- 14&#45;&gt;0 -->
<g id="edge6" class="edge">
<title>14&#45;&gt;0</title>
<path fill="none" stroke="grey" stroke-width="2" d="M1011.49,-287.92C997.56,-243.74 953.84,-125.41 871.5,-72 832.24,-46.54 780.68,-33.12 741.49,-26.17"/>
<polygon fill="grey" stroke="grey" stroke-width="2" points="742,-22.71 731.55,-24.5 740.83,-29.61 742,-22.71"/>
</g>
<!-- 14&#45;&gt;15 -->
<g id="edge46" class="edge">
<title>14&#45;&gt;15</title>
<path fill="none" stroke="grey" stroke-width="2" d="M980.05,-287.88C959.86,-278.39 934.58,-266.51 913.09,-256.42"/>
<polygon fill="grey" stroke="grey" stroke-width="2" points="914.37,-253.15 903.83,-252.07 911.39,-259.49 914.37,-253.15"/>
</g>
<!-- 14&#45;&gt;16 -->
<g id="edge50" class="edge">
<title>14&#45;&gt;16</title>
<path fill="none" stroke="grey" stroke-width="2" d="M995.35,-287.87C983.13,-277.75 967.63,-264.5 954.5,-252 938.56,-236.83 939.82,-226.54 920.5,-216 846.66,-175.74 814.08,-200.93 728.42,-179.92"/>
<polygon fill="grey" stroke="grey" stroke-width="2" points="729.11,-176.48 718.55,-177.35 727.35,-183.25 729.11,-176.48"/>
</g>
<!-- 14&#45;&gt;17 -->
<g id="edge55" class="edge">
<title>14&#45;&gt;17</title>
<path fill="none" stroke="grey" stroke-width="2" d="M1005.05,-287.65C991.19,-267.85 966.1,-235.66 937.5,-216 916,-201.22 889.85,-189.91 865.93,-181.61"/>
<polygon fill="grey" stroke="grey" stroke-width="2" points="866.78,-178.21 856.19,-178.35 864.56,-184.85 866.78,-178.21"/>
</g>
<!-- 15&#45;&gt;0 -->
<g id="edge7" class="edge">
<title>15&#45;&gt;0</title>
<path fill="none" stroke="grey" stroke-width="2" d="M870.3,-215.89C872.56,-197.42 874,-167.51 864.5,-144 843.19,-91.28 785.43,-57.59 740.84,-38.64"/>
<polygon fill="grey" stroke="grey" stroke-width="2" points="742.12,-35.38 731.54,-34.82 739.46,-41.86 742.12,-35.38"/>
</g>
<!-- 15&#45;&gt;16 -->
<g id="edge51" class="edge">
<title>15&#45;&gt;16</title>
<path fill="none" stroke="grey" stroke-width="2" d="M822.71,-216.23C794.17,-205.55 757.23,-191.72 728.15,-180.84"/>
<polygon fill="grey" stroke="grey" stroke-width="2" points="729.2,-177.49 718.61,-177.27 726.75,-184.05 729.2,-177.49"/>
</g>
<!-- 15&#45;&gt;17 -->
<g id="edge56" class="edge">
<title>15&#45;&gt;17</title>
<path fill="none" stroke="grey" stroke-width="2" d="M849.95,-215.7C841.27,-207.14 830.64,-196.66 821.15,-187.3"/>
<polygon fill="grey" stroke="grey" stroke-width="2" points="823.43,-184.63 813.85,-180.1 818.51,-189.62 823.43,-184.63"/>
</g>
<!-- 16&#45;&gt;0 -->
<g id="edge8" class="edge">
<title>16&#45;&gt;0</title>
<path fill="none" stroke="grey" stroke-width="2" d="M674.26,-143.59C670.93,-133.37 667.18,-120.12 665.5,-108 663.3,-92.15 662.89,-87.79 665.5,-72 666.94,-63.28 669.63,-54.06 672.5,-45.8"/>
<polygon fill="grey" stroke="grey" stroke-width="2" points="675.83,-46.89 676.02,-36.3 669.27,-44.46 675.83,-46.89"/>
</g>
<!-- 18 -->
<g id="node19" class="node">
<title>18</title>
<path fill="none" stroke="#d8ac56" stroke-width="2" d="M756.5,-108C756.5,-108 686.5,-108 686.5,-108 680.5,-108 674.5,-102 674.5,-96 674.5,-96 674.5,-84 674.5,-84 674.5,-78 680.5,-72 686.5,-72 686.5,-72 756.5,-72 756.5,-72 762.5,-72 768.5,-78 768.5,-84 768.5,-84 768.5,-96 768.5,-96 768.5,-102 762.5,-108 756.5,-108"/>
<text text-anchor="middle" x="721.5" y="-87.5" font-family="sans" font-size="10.00">collapse_scores</text>
</g>
<!-- 16&#45;&gt;18 -->
<g id="edge57" class="edge">
<title>16&#45;&gt;18</title>
<path fill="none" stroke="grey" stroke-width="2" d="M690.63,-143.7C695.35,-135.64 701.06,-125.89 706.28,-116.98"/>
<polygon fill="grey" stroke="grey" stroke-width="2" points="709.45,-118.5 711.48,-108.1 703.41,-114.96 709.45,-118.5"/>
</g>
<!-- 17&#45;&gt;0 -->
<g id="edge9" class="edge">
<title>17&#45;&gt;0</title>
<path fill="none" stroke="grey" stroke-width="2" d="M796.87,-143.92C796.45,-124.66 793.13,-93.26 777.5,-72 767.94,-59 754.18,-48.75 740.11,-40.86"/>
<polygon fill="grey" stroke="grey" stroke-width="2" points="741.35,-37.56 730.87,-36.02 738.11,-43.76 741.35,-37.56"/>
</g>
<!-- 17&#45;&gt;18 -->
<g id="edge58" class="edge">
<title>17&#45;&gt;18</title>
<path fill="none" stroke="grey" stroke-width="2" d="M777.96,-143.7C768.7,-135.05 757.34,-124.45 747.24,-115.03"/>
<polygon fill="grey" stroke="grey" stroke-width="2" points="749.52,-112.37 739.83,-108.1 744.75,-117.49 749.52,-112.37"/>
</g>
<!-- 18&#45;&gt;0 -->
<g id="edge10" class="edge">
<title>18&#45;&gt;0</title>
<path fill="none" stroke="grey" stroke-width="2" d="M712.11,-71.7C707.74,-63.64 702.44,-53.89 697.6,-44.98"/>
<polygon fill="grey" stroke="grey" stroke-width="2" points="700.63,-43.22 692.79,-36.1 694.48,-46.56 700.63,-43.22"/>
</g>
</g>
</svg>
