<?xml version="1.0" encoding="UTF-8" standalone="no"?>
<!DOCTYPE svg PUBLIC "-//W3C//DTD SVG 1.1//EN"
 "http://www.w3.org/Graphics/SVG/1.1/DTD/svg11.dtd">
<!-- Generated by graphviz version 2.49.3 (20211104.1129)
 -->
<!-- Title: snakemake_dag Pages: 1 -->
<svg width="2624pt" height="404pt"
 viewBox="0.00 0.00 2624.00 404.00" xmlns="http://www.w3.org/2000/svg" xmlns:xlink="http://www.w3.org/1999/xlink">
<g id="graph0" class="graph" transform="scale(1 1) rotate(0) translate(4 400)">
<title>snakemake_dag</title>
<polygon fill="white" stroke="transparent" points="-4,4 -4,-400 2620,-400 2620,4 -4,4"/>
<!-- 0 -->
<g id="node1" class="node">
<title>0</title>
<path fill="none" stroke="#80d856" stroke-width="2" d="M1321,-36C1321,-36 1250,-36 1250,-36 1244,-36 1238,-30 1238,-24 1238,-24 1238,-12 1238,-12 1238,-6 1244,0 1250,0 1250,0 1321,0 1321,0 1327,0 1333,-6 1333,-12 1333,-12 1333,-24 1333,-24 1333,-30 1327,-36 1321,-36"/>
<text text-anchor="middle" x="1285.5" y="-15.5" font-family="sans" font-size="10.00">make_summary</text>
</g>
<!-- 1 -->
<g id="node2" class="node">
<title>1</title>
<path fill="none" stroke="#56d89a" stroke-width="2" d="M835,-108C835,-108 792,-108 792,-108 786,-108 780,-102 780,-96 780,-96 780,-84 780,-84 780,-78 786,-72 792,-72 792,-72 835,-72 835,-72 841,-72 847,-78 847,-84 847,-84 847,-96 847,-96 847,-102 841,-108 835,-108"/>
<text text-anchor="middle" x="813.5" y="-87.5" font-family="sans" font-size="10.00">make_dag</text>
</g>
<!-- 1&#45;&gt;0 -->
<g id="edge1" class="edge">
<title>1&#45;&gt;0</title>
<path fill="none" stroke="grey" stroke-width="2" d="M847.03,-74.81C850.2,-73.75 853.39,-72.79 856.5,-72 986.69,-38.8 1144.6,-26.11 1227.79,-21.49"/>
<polygon fill="grey" stroke="grey" stroke-width="2" points="1228,-24.98 1237.8,-20.95 1227.62,-17.99 1228,-24.98"/>
</g>
<!-- 2 -->
<g id="node3" class="node">
<title>2</title>
<path fill="none" stroke="#d8c356" stroke-width="2" d="M963.5,-108C963.5,-108 877.5,-108 877.5,-108 871.5,-108 865.5,-102 865.5,-96 865.5,-96 865.5,-84 865.5,-84 865.5,-78 871.5,-72 877.5,-72 877.5,-72 963.5,-72 963.5,-72 969.5,-72 975.5,-78 975.5,-84 975.5,-84 975.5,-96 975.5,-96 975.5,-102 969.5,-108 963.5,-108"/>
<text text-anchor="middle" x="920.5" y="-87.5" font-family="sans" font-size="10.00">get_mut_bind_expr</text>
</g>
<!-- 2&#45;&gt;0 -->
<g id="edge2" class="edge">
<title>2&#45;&gt;0</title>
<path fill="none" stroke="grey" stroke-width="2" d="M975.79,-75.05C980.42,-73.98 985.03,-72.95 989.5,-72 1071.93,-54.49 1168.09,-37.99 1227.89,-28.19"/>
<polygon fill="grey" stroke="grey" stroke-width="2" points="1228.59,-31.62 1237.9,-26.55 1227.46,-24.71 1228.59,-31.62"/>
</g>
<!-- 3 -->
<g id="node4" class="node">
<title>3</title>
<path fill="none" stroke="#56d8d0" stroke-width="2" d="M1235.5,-180C1235.5,-180 1119.5,-180 1119.5,-180 1113.5,-180 1107.5,-174 1107.5,-168 1107.5,-168 1107.5,-156 1107.5,-156 1107.5,-150 1113.5,-144 1119.5,-144 1119.5,-144 1235.5,-144 1235.5,-144 1241.5,-144 1247.5,-150 1247.5,-156 1247.5,-156 1247.5,-168 1247.5,-168 1247.5,-174 1241.5,-180 1235.5,-180"/>
<text text-anchor="middle" x="1177.5" y="-159.5" font-family="sans" font-size="10.00">get_delta_mut_bind_expr</text>
</g>
<!-- 3&#45;&gt;0 -->
<g id="edge3" class="edge">
<title>3&#45;&gt;0</title>
<path fill="none" stroke="grey" stroke-width="2" d="M1190.53,-143.87C1209.34,-119.14 1244.25,-73.24 1266.1,-44.51"/>
<polygon fill="grey" stroke="grey" stroke-width="2" points="1269.16,-46.27 1272.43,-36.19 1263.59,-42.03 1269.16,-46.27"/>
</g>
<!-- 24 -->
<g id="node25" class="node">
<title>24</title>
<path fill="none" stroke="#56d8b9" stroke-width="2" d="M1358.5,-108C1358.5,-108 1288.5,-108 1288.5,-108 1282.5,-108 1276.5,-102 1276.5,-96 1276.5,-96 1276.5,-84 1276.5,-84 1276.5,-78 1282.5,-72 1288.5,-72 1288.5,-72 1358.5,-72 1358.5,-72 1364.5,-72 1370.5,-78 1370.5,-84 1370.5,-84 1370.5,-96 1370.5,-96 1370.5,-102 1364.5,-108 1358.5,-108"/>
<text text-anchor="middle" x="1323.5" y="-87.5" font-family="sans" font-size="10.00">collapse_scores</text>
</g>
<!-- 3&#45;&gt;24 -->
<g id="edge79" class="edge">
<title>3&#45;&gt;24</title>
<path fill="none" stroke="grey" stroke-width="2" d="M1213.22,-143.88C1233,-134.39 1257.77,-122.51 1278.83,-112.42"/>
<polygon fill="grey" stroke="grey" stroke-width="2" points="1280.4,-115.55 1287.9,-108.07 1277.37,-109.24 1280.4,-115.55"/>
</g>
<!-- 4 -->
<g id="node5" class="node">
<title>4</title>
<path fill="none" stroke="#d87556" stroke-width="2" d="M1707,-108C1707,-108 1586,-108 1586,-108 1580,-108 1574,-102 1574,-96 1574,-96 1574,-84 1574,-84 1574,-78 1580,-72 1586,-72 1586,-72 1707,-72 1707,-72 1713,-72 1719,-78 1719,-84 1719,-84 1719,-96 1719,-96 1719,-102 1713,-108 1707,-108"/>
<text text-anchor="middle" x="1646.5" y="-87.5" font-family="sans" font-size="10.00">get_mut_antibody_escape</text>
</g>
<!-- 4&#45;&gt;0 -->
<g id="edge4" class="edge">
<title>4&#45;&gt;0</title>
<path fill="none" stroke="grey" stroke-width="2" d="M1573.87,-74.8C1569.01,-73.85 1564.18,-72.91 1559.5,-72 1484.73,-57.46 1398.46,-40.79 1343.01,-30.09"/>
<polygon fill="grey" stroke="grey" stroke-width="2" points="1343.51,-26.62 1333.02,-28.16 1342.18,-33.5 1343.51,-26.62"/>
</g>
<!-- 5 -->
<g id="node6" class="node">
<title>5</title>
<path fill="none" stroke="#5673d8" stroke-width="2" d="M1156.5,-324C1156.5,-324 1036.5,-324 1036.5,-324 1030.5,-324 1024.5,-318 1024.5,-312 1024.5,-312 1024.5,-300 1024.5,-300 1024.5,-294 1030.5,-288 1036.5,-288 1036.5,-288 1156.5,-288 1156.5,-288 1162.5,-288 1168.5,-294 1168.5,-300 1168.5,-300 1168.5,-312 1168.5,-312 1168.5,-318 1162.5,-324 1156.5,-324"/>
<text text-anchor="middle" x="1096.5" y="-303.5" font-family="sans" font-size="10.00">process_ccs_Wuhan_Hu_1</text>
</g>
<!-- 5&#45;&gt;0 -->
<g id="edge5" class="edge">
<title>5&#45;&gt;0</title>
<path fill="none" stroke="grey" stroke-width="2" d="M1089.47,-287.88C1073.18,-245.13 1038.35,-132.75 1094.5,-72 1128.34,-35.39 1185.06,-23.24 1227.91,-19.59"/>
<polygon fill="grey" stroke="grey" stroke-width="2" points="1228.21,-23.08 1237.94,-18.87 1227.71,-16.1 1228.21,-23.08"/>
</g>
<!-- 21 -->
<g id="node22" class="node">
<title>21</title>
<path fill="none" stroke="#56c1d8" stroke-width="2" d="M1277,-252C1277,-252 1212,-252 1212,-252 1206,-252 1200,-246 1200,-240 1200,-240 1200,-228 1200,-228 1200,-222 1206,-216 1212,-216 1212,-216 1277,-216 1277,-216 1283,-216 1289,-222 1289,-228 1289,-228 1289,-240 1289,-240 1289,-246 1283,-252 1277,-252"/>
<text text-anchor="middle" x="1244.5" y="-231.5" font-family="sans" font-size="10.00">count_variants</text>
</g>
<!-- 5&#45;&gt;21 -->
<g id="edge63" class="edge">
<title>5&#45;&gt;21</title>
<path fill="none" stroke="grey" stroke-width="2" d="M1132.7,-287.88C1152.76,-278.39 1177.87,-266.51 1199.21,-256.42"/>
<polygon fill="grey" stroke="grey" stroke-width="2" points="1200.87,-259.51 1208.41,-252.07 1197.88,-253.18 1200.87,-259.51"/>
</g>
<!-- 22 -->
<g id="node23" class="node">
<title>22</title>
<path fill="none" stroke="#56d882" stroke-width="2" d="M1329.5,-180C1329.5,-180 1277.5,-180 1277.5,-180 1271.5,-180 1265.5,-174 1265.5,-168 1265.5,-168 1265.5,-156 1265.5,-156 1265.5,-150 1271.5,-144 1277.5,-144 1277.5,-144 1329.5,-144 1329.5,-144 1335.5,-144 1341.5,-150 1341.5,-156 1341.5,-156 1341.5,-168 1341.5,-168 1341.5,-174 1335.5,-180 1329.5,-180"/>
<text text-anchor="middle" x="1303.5" y="-159.5" font-family="sans" font-size="10.00">fit_titrations</text>
</g>
<!-- 5&#45;&gt;22 -->
<g id="edge67" class="edge">
<title>5&#45;&gt;22</title>
<path fill="none" stroke="grey" stroke-width="2" d="M1096.07,-287.77C1096.54,-267.78 1100.47,-235.11 1119.5,-216 1161.76,-173.57 1193.19,-196.23 1255.53,-179.94"/>
<polygon fill="grey" stroke="grey" stroke-width="2" points="1256.73,-183.24 1265.38,-177.11 1254.8,-176.51 1256.73,-183.24"/>
</g>
<!-- 23 -->
<g id="node24" class="node">
<title>23</title>
<path fill="none" stroke="#61d856" stroke-width="2" d="M1467,-180C1467,-180 1372,-180 1372,-180 1366,-180 1360,-174 1360,-168 1360,-168 1360,-156 1360,-156 1360,-150 1366,-144 1372,-144 1372,-144 1467,-144 1467,-144 1473,-144 1479,-150 1479,-156 1479,-156 1479,-168 1479,-168 1479,-174 1473,-180 1467,-180"/>
<text text-anchor="middle" x="1419.5" y="-159.5" font-family="sans" font-size="10.00">calculate_expression</text>
</g>
<!-- 5&#45;&gt;23 -->
<g id="edge72" class="edge">
<title>5&#45;&gt;23</title>
<path fill="none" stroke="grey" stroke-width="2" d="M1109.78,-287.7C1126.4,-267.32 1156.78,-233.97 1190.5,-216 1252.06,-183.19 1277.36,-195.52 1349.65,-180.07"/>
<polygon fill="grey" stroke="grey" stroke-width="2" points="1350.69,-183.43 1359.68,-177.82 1349.15,-176.6 1350.69,-183.43"/>
</g>
<!-- 6 -->
<g id="node7" class="node">
<title>6</title>
<path fill="none" stroke="#97d856" stroke-width="2" d="M420,-396C420,-396 221,-396 221,-396 215,-396 209,-390 209,-384 209,-384 209,-372 209,-372 209,-366 215,-360 221,-360 221,-360 420,-360 420,-360 426,-360 432,-366 432,-372 432,-372 432,-384 432,-384 432,-390 426,-396 420,-396"/>
<text text-anchor="middle" x="320.5" y="-381" font-family="sans" font-size="10.00">get_ccs</text>
<text text-anchor="middle" x="320.5" y="-370" font-family="sans" font-size="10.00">pacbioRun: pool1_Wuhan_Hu_1_210701_A</text>
</g>
<!-- 6&#45;&gt;5 -->
<g id="edge15" class="edge">
<title>6&#45;&gt;5</title>
<path fill="none" stroke="grey" stroke-width="2" d="M432.25,-360.94C435.03,-360.62 437.78,-360.3 440.5,-360 646.22,-337.14 889.29,-320.09 1013.83,-312.08"/>
<polygon fill="grey" stroke="grey" stroke-width="2" points="1014.29,-315.56 1024.05,-311.42 1013.84,-308.57 1014.29,-315.56"/>
</g>
<!-- 18 -->
<g id="node19" class="node">
<title>18</title>
<path fill="none" stroke="#d8ac56" stroke-width="2" d="M1286,-324C1286,-324 1199,-324 1199,-324 1193,-324 1187,-318 1187,-312 1187,-312 1187,-300 1187,-300 1187,-294 1193,-288 1199,-288 1199,-288 1286,-288 1286,-288 1292,-288 1298,-294 1298,-300 1298,-300 1298,-312 1298,-312 1298,-318 1292,-324 1286,-324"/>
<text text-anchor="middle" x="1242.5" y="-303.5" font-family="sans" font-size="10.00">process_ccs_E484K</text>
</g>
<!-- 6&#45;&gt;18 -->
<g id="edge27" class="edge">
<title>6&#45;&gt;18</title>
<path fill="none" stroke="grey" stroke-width="2" d="M432.24,-360.83C435.02,-360.54 437.78,-360.26 440.5,-360 763.63,-329.29 851.55,-372.85 1176.8,-323.88"/>
<polygon fill="grey" stroke="grey" stroke-width="2" points="1177.63,-327.29 1186.99,-322.33 1176.58,-320.37 1177.63,-327.29"/>
</g>
<!-- 19 -->
<g id="node20" class="node">
<title>19</title>
<path fill="none" stroke="#ced856" stroke-width="2" d="M1416.5,-324C1416.5,-324 1328.5,-324 1328.5,-324 1322.5,-324 1316.5,-318 1316.5,-312 1316.5,-312 1316.5,-300 1316.5,-300 1316.5,-294 1322.5,-288 1328.5,-288 1328.5,-288 1416.5,-288 1416.5,-288 1422.5,-288 1428.5,-294 1428.5,-300 1428.5,-300 1428.5,-312 1428.5,-312 1428.5,-318 1422.5,-324 1416.5,-324"/>
<text text-anchor="middle" x="1372.5" y="-303.5" font-family="sans" font-size="10.00">process_ccs_N501Y</text>
</g>
<!-- 6&#45;&gt;19 -->
<g id="edge39" class="edge">
<title>6&#45;&gt;19</title>
<path fill="none" stroke="grey" stroke-width="2" d="M432.24,-360.8C435.02,-360.52 437.78,-360.25 440.5,-360 824.12,-324.94 925.42,-380.36 1306.5,-324 1306.6,-323.98 1306.7,-323.97 1306.81,-323.95"/>
<polygon fill="grey" stroke="grey" stroke-width="2" points="1307.24,-327.43 1316.49,-322.28 1306.05,-320.53 1307.24,-327.43"/>
</g>
<!-- 20 -->
<g id="node21" class="node">
<title>20</title>
<path fill="none" stroke="#d88d56" stroke-width="2" d="M1546,-324C1546,-324 1459,-324 1459,-324 1453,-324 1447,-318 1447,-312 1447,-312 1447,-300 1447,-300 1447,-294 1453,-288 1459,-288 1459,-288 1546,-288 1546,-288 1552,-288 1558,-294 1558,-300 1558,-300 1558,-312 1558,-312 1558,-318 1552,-324 1546,-324"/>
<text text-anchor="middle" x="1502.5" y="-303.5" font-family="sans" font-size="10.00">process_ccs_B1351</text>
</g>
<!-- 6&#45;&gt;20 -->
<g id="edge51" class="edge">
<title>6&#45;&gt;20</title>
<path fill="none" stroke="grey" stroke-width="2" d="M432.24,-360.78C435.02,-360.5 437.78,-360.24 440.5,-360 878.83,-321.15 997.03,-387.47 1436.88,-323.85"/>
<polygon fill="grey" stroke="grey" stroke-width="2" points="1437.61,-327.28 1447,-322.37 1436.6,-320.36 1437.61,-327.28"/>
</g>
<!-- 7 -->
<g id="node8" class="node">
<title>7</title>
<path fill="none" stroke="#97d856" stroke-width="2" d="M661,-396C661,-396 462,-396 462,-396 456,-396 450,-390 450,-384 450,-384 450,-372 450,-372 450,-366 456,-360 462,-360 462,-360 661,-360 661,-360 667,-360 673,-366 673,-372 673,-372 673,-384 673,-384 673,-390 667,-396 661,-396"/>
<text text-anchor="middle" x="561.5" y="-381" font-family="sans" font-size="10.00">get_ccs</text>
<text text-anchor="middle" x="561.5" y="-370" font-family="sans" font-size="10.00">pacbioRun: pool2_Wuhan_Hu_1_210701_A</text>
</g>
<!-- 7&#45;&gt;5 -->
<g id="edge16" class="edge">
<title>7&#45;&gt;5</title>
<path fill="none" stroke="grey" stroke-width="2" d="M673.24,-361.25C676.36,-360.83 679.45,-360.41 682.5,-360 797.58,-344.55 930.79,-327.68 1014.35,-317.22"/>
<polygon fill="grey" stroke="grey" stroke-width="2" points="1014.81,-320.69 1024.29,-315.97 1013.94,-313.74 1014.81,-320.69"/>
</g>
<!-- 7&#45;&gt;18 -->
<g id="edge28" class="edge">
<title>7&#45;&gt;18</title>
<path fill="none" stroke="grey" stroke-width="2" d="M673.21,-361.03C676.34,-360.67 679.44,-360.33 682.5,-360 898.63,-336.98 958.15,-359.38 1177.1,-323.86"/>
<polygon fill="grey" stroke="grey" stroke-width="2" points="1177.68,-327.31 1186.98,-322.24 1176.54,-320.41 1177.68,-327.31"/>
</g>
<!-- 7&#45;&gt;19 -->
<g id="edge40" class="edge">
<title>7&#45;&gt;19</title>
<path fill="none" stroke="grey" stroke-width="2" d="M673.21,-360.97C676.34,-360.63 679.44,-360.3 682.5,-360 958.95,-332.65 1032.03,-366.85 1306.5,-324 1306.6,-323.98 1306.7,-323.97 1306.81,-323.95"/>
<polygon fill="grey" stroke="grey" stroke-width="2" points="1307.26,-327.43 1316.49,-322.22 1306.03,-320.54 1307.26,-327.43"/>
</g>
<!-- 7&#45;&gt;20 -->
<g id="edge52" class="edge">
<title>7&#45;&gt;20</title>
<path fill="none" stroke="grey" stroke-width="2" d="M673.2,-360.93C676.33,-360.6 679.44,-360.29 682.5,-360 1013.7,-328.9 1103.67,-373.88 1437.06,-323.84"/>
<polygon fill="grey" stroke="grey" stroke-width="2" points="1437.63,-327.29 1446.99,-322.33 1436.58,-320.37 1437.63,-327.29"/>
</g>
<!-- 8 -->
<g id="node9" class="node">
<title>8</title>
<path fill="none" stroke="#97d856" stroke-width="2" d="M869.5,-396C869.5,-396 703.5,-396 703.5,-396 697.5,-396 691.5,-390 691.5,-384 691.5,-384 691.5,-372 691.5,-372 691.5,-366 697.5,-360 703.5,-360 703.5,-360 869.5,-360 869.5,-360 875.5,-360 881.5,-366 881.5,-372 881.5,-372 881.5,-384 881.5,-384 881.5,-390 875.5,-396 869.5,-396"/>
<text text-anchor="middle" x="786.5" y="-381" font-family="sans" font-size="10.00">get_ccs</text>
<text text-anchor="middle" x="786.5" y="-370" font-family="sans" font-size="10.00">pacbioRun: pool1_E484K_210701_A</text>
</g>
<!-- 8&#45;&gt;5 -->
<g id="edge17" class="edge">
<title>8&#45;&gt;5</title>
<path fill="none" stroke="grey" stroke-width="2" d="M861.94,-359.97C908.12,-349.54 967.23,-336.19 1014.55,-325.5"/>
<polygon fill="grey" stroke="grey" stroke-width="2" points="1015.48,-328.88 1024.46,-323.27 1013.94,-322.05 1015.48,-328.88"/>
</g>
<!-- 8&#45;&gt;18 -->
<g id="edge29" class="edge">
<title>8&#45;&gt;18</title>
<path fill="none" stroke="grey" stroke-width="2" d="M881.69,-361.29C884.66,-360.85 887.6,-360.42 890.5,-360 1014.5,-342.09 1049.5,-347.99 1176.8,-323.98"/>
<polygon fill="grey" stroke="grey" stroke-width="2" points="1177.78,-327.36 1186.94,-322.04 1176.46,-320.48 1177.78,-327.36"/>
</g>
<!-- 8&#45;&gt;19 -->
<g id="edge41" class="edge">
<title>8&#45;&gt;19</title>
<path fill="none" stroke="grey" stroke-width="2" d="M881.67,-361.15C884.65,-360.75 887.6,-360.36 890.5,-360 1074.65,-337.01 1123.57,-355.25 1306.5,-324 1306.6,-323.98 1306.7,-323.97 1306.81,-323.95"/>
<polygon fill="grey" stroke="grey" stroke-width="2" points="1307.3,-327.42 1316.47,-322.11 1305.99,-320.54 1307.3,-327.42"/>
</g>
<!-- 8&#45;&gt;20 -->
<g id="edge53" class="edge">
<title>8&#45;&gt;20</title>
<path fill="none" stroke="grey" stroke-width="2" d="M881.66,-361.07C884.64,-360.69 887.59,-360.33 890.5,-360 1129.25,-332.69 1195.21,-362.17 1436.83,-323.89"/>
<polygon fill="grey" stroke="grey" stroke-width="2" points="1437.66,-327.3 1446.98,-322.26 1436.55,-320.39 1437.66,-327.3"/>
</g>
<!-- 9 -->
<g id="node10" class="node">
<title>9</title>
<path fill="none" stroke="#97d856" stroke-width="2" d="M1077.5,-396C1077.5,-396 911.5,-396 911.5,-396 905.5,-396 899.5,-390 899.5,-384 899.5,-384 899.5,-372 899.5,-372 899.5,-366 905.5,-360 911.5,-360 911.5,-360 1077.5,-360 1077.5,-360 1083.5,-360 1089.5,-366 1089.5,-372 1089.5,-372 1089.5,-384 1089.5,-384 1089.5,-390 1083.5,-396 1077.5,-396"/>
<text text-anchor="middle" x="994.5" y="-381" font-family="sans" font-size="10.00">get_ccs</text>
<text text-anchor="middle" x="994.5" y="-370" font-family="sans" font-size="10.00">pacbioRun: pool2_E484K_210701_A</text>
</g>
<!-- 9&#45;&gt;5 -->
<g id="edge18" class="edge">
<title>9&#45;&gt;5</title>
<path fill="none" stroke="grey" stroke-width="2" d="M1019.45,-359.88C1032.54,-350.89 1048.76,-339.76 1062.94,-330.03"/>
<polygon fill="grey" stroke="grey" stroke-width="2" points="1065.19,-332.73 1071.45,-324.19 1061.23,-326.96 1065.19,-332.73"/>
</g>
<!-- 9&#45;&gt;18 -->
<g id="edge30" class="edge">
<title>9&#45;&gt;18</title>
<path fill="none" stroke="grey" stroke-width="2" d="M1054.85,-359.97C1091.83,-349.53 1139.18,-336.16 1177.06,-325.47"/>
<polygon fill="grey" stroke="grey" stroke-width="2" points="1178.31,-328.76 1186.98,-322.67 1176.4,-322.02 1178.31,-328.76"/>
</g>
<!-- 9&#45;&gt;19 -->
<g id="edge42" class="edge">
<title>9&#45;&gt;19</title>
<path fill="none" stroke="grey" stroke-width="2" d="M1089.73,-361.24C1173.56,-347.29 1285.48,-328.48 1306.5,-324 1306.6,-323.98 1306.7,-323.96 1306.8,-323.94"/>
<polygon fill="grey" stroke="grey" stroke-width="2" points="1307.41,-327.39 1316.41,-321.79 1305.88,-320.55 1307.41,-327.39"/>
</g>
<!-- 9&#45;&gt;20 -->
<g id="edge54" class="edge">
<title>9&#45;&gt;20</title>
<path fill="none" stroke="grey" stroke-width="2" d="M1089.68,-361.22C1092.65,-360.8 1095.6,-360.39 1098.5,-360 1245.43,-340.21 1286.69,-350.77 1436.9,-323.94"/>
<polygon fill="grey" stroke="grey" stroke-width="2" points="1437.74,-327.34 1446.95,-322.11 1436.49,-320.45 1437.74,-327.34"/>
</g>
<!-- 10 -->
<g id="node11" class="node">
<title>10</title>
<path fill="none" stroke="#97d856" stroke-width="2" d="M1287,-396C1287,-396 1120,-396 1120,-396 1114,-396 1108,-390 1108,-384 1108,-384 1108,-372 1108,-372 1108,-366 1114,-360 1120,-360 1120,-360 1287,-360 1287,-360 1293,-360 1299,-366 1299,-372 1299,-372 1299,-384 1299,-384 1299,-390 1293,-396 1287,-396"/>
<text text-anchor="middle" x="1203.5" y="-381" font-family="sans" font-size="10.00">get_ccs</text>
<text text-anchor="middle" x="1203.5" y="-370" font-family="sans" font-size="10.00">pacbioRun: pool1_N501Y_210701_A</text>
</g>
<!-- 10&#45;&gt;5 -->
<g id="edge19" class="edge">
<title>10&#45;&gt;5</title>
<path fill="none" stroke="grey" stroke-width="2" d="M1177.32,-359.88C1163.46,-350.81 1146.26,-339.55 1131.29,-329.76"/>
<polygon fill="grey" stroke="grey" stroke-width="2" points="1133.06,-326.74 1122.78,-324.19 1129.23,-332.59 1133.06,-326.74"/>
</g>
<!-- 10&#45;&gt;18 -->
<g id="edge31" class="edge">
<title>10&#45;&gt;18</title>
<path fill="none" stroke="grey" stroke-width="2" d="M1213.14,-359.7C1217.63,-351.64 1223.06,-341.89 1228.02,-332.98"/>
<polygon fill="grey" stroke="grey" stroke-width="2" points="1231.16,-334.54 1232.97,-324.1 1225.05,-331.14 1231.16,-334.54"/>
</g>
<!-- 10&#45;&gt;19 -->
<g id="edge43" class="edge">
<title>10&#45;&gt;19</title>
<path fill="none" stroke="grey" stroke-width="2" d="M1244.84,-359.88C1268.05,-350.26 1297.19,-338.19 1321.77,-328.01"/>
<polygon fill="grey" stroke="grey" stroke-width="2" points="1323.39,-331.13 1331.29,-324.07 1320.71,-324.66 1323.39,-331.13"/>
</g>
<!-- 10&#45;&gt;20 -->
<g id="edge55" class="edge">
<title>10&#45;&gt;20</title>
<path fill="none" stroke="grey" stroke-width="2" d="M1281.65,-359.98C1324.71,-350.44 1379.34,-338.08 1436.85,-324.12"/>
<polygon fill="grey" stroke="grey" stroke-width="2" points="1437.97,-327.45 1446.86,-321.68 1436.32,-320.65 1437.97,-327.45"/>
</g>
<!-- 11 -->
<g id="node12" class="node">
<title>11</title>
<path fill="none" stroke="#97d856" stroke-width="2" d="M1496,-396C1496,-396 1329,-396 1329,-396 1323,-396 1317,-390 1317,-384 1317,-384 1317,-372 1317,-372 1317,-366 1323,-360 1329,-360 1329,-360 1496,-360 1496,-360 1502,-360 1508,-366 1508,-372 1508,-372 1508,-384 1508,-384 1508,-390 1502,-396 1496,-396"/>
<text text-anchor="middle" x="1412.5" y="-381" font-family="sans" font-size="10.00">get_ccs</text>
<text text-anchor="middle" x="1412.5" y="-370" font-family="sans" font-size="10.00">pacbioRun: pool2_N501Y_210701_A</text>
</g>
<!-- 11&#45;&gt;5 -->
<g id="edge20" class="edge">
<title>11&#45;&gt;5</title>
<path fill="none" stroke="grey" stroke-width="2" d="M1335.6,-359.97C1288,-349.42 1226.93,-335.89 1178.42,-325.15"/>
<polygon fill="grey" stroke="grey" stroke-width="2" points="1179.1,-321.71 1168.58,-322.97 1177.59,-328.55 1179.1,-321.71"/>
</g>
<!-- 11&#45;&gt;18 -->
<g id="edge32" class="edge">
<title>11&#45;&gt;18</title>
<path fill="none" stroke="grey" stroke-width="2" d="M1370.91,-359.88C1347.47,-350.22 1318,-338.09 1293.2,-327.88"/>
<polygon fill="grey" stroke="grey" stroke-width="2" points="1294.53,-324.64 1283.95,-324.07 1291.87,-331.11 1294.53,-324.64"/>
</g>
<!-- 11&#45;&gt;19 -->
<g id="edge44" class="edge">
<title>11&#45;&gt;19</title>
<path fill="none" stroke="grey" stroke-width="2" d="M1402.61,-359.7C1398.01,-351.64 1392.44,-341.89 1387.35,-332.98"/>
<polygon fill="grey" stroke="grey" stroke-width="2" points="1390.27,-331.05 1382.27,-324.1 1384.2,-334.52 1390.27,-331.05"/>
</g>
<!-- 11&#45;&gt;20 -->
<g id="edge56" class="edge">
<title>11&#45;&gt;20</title>
<path fill="none" stroke="grey" stroke-width="2" d="M1434.75,-359.7C1446.08,-350.88 1460.03,-340.03 1472.32,-330.47"/>
<polygon fill="grey" stroke="grey" stroke-width="2" points="1474.76,-333.01 1480.51,-324.1 1470.47,-327.48 1474.76,-333.01"/>
</g>
<!-- 12 -->
<g id="node13" class="node">
<title>12</title>
<path fill="none" stroke="#97d856" stroke-width="2" d="M1704.5,-396C1704.5,-396 1538.5,-396 1538.5,-396 1532.5,-396 1526.5,-390 1526.5,-384 1526.5,-384 1526.5,-372 1526.5,-372 1526.5,-366 1532.5,-360 1538.5,-360 1538.5,-360 1704.5,-360 1704.5,-360 1710.5,-360 1716.5,-366 1716.5,-372 1716.5,-372 1716.5,-384 1716.5,-384 1716.5,-390 1710.5,-396 1704.5,-396"/>
<text text-anchor="middle" x="1621.5" y="-381" font-family="sans" font-size="10.00">get_ccs</text>
<text text-anchor="middle" x="1621.5" y="-370" font-family="sans" font-size="10.00">pacbioRun: pool1_B1351_210701_A</text>
</g>
<!-- 12&#45;&gt;5 -->
<g id="edge21" class="edge">
<title>12&#45;&gt;5</title>
<path fill="none" stroke="grey" stroke-width="2" d="M1526.25,-361.34C1522.96,-360.88 1519.7,-360.43 1516.5,-360 1369.55,-340.32 1328.9,-347.27 1178.9,-324.13"/>
<polygon fill="grey" stroke="grey" stroke-width="2" points="1179.28,-320.65 1168.86,-322.56 1178.2,-327.57 1179.28,-320.65"/>
</g>
<!-- 12&#45;&gt;18 -->
<g id="edge33" class="edge">
<title>12&#45;&gt;18</title>
<path fill="none" stroke="grey" stroke-width="2" d="M1526.46,-361.4C1449.43,-348.68 1348.41,-331.84 1308.01,-323.92"/>
<polygon fill="grey" stroke="grey" stroke-width="2" points="1308.59,-320.46 1298.09,-321.89 1307.19,-327.32 1308.59,-320.46"/>
</g>
<!-- 12&#45;&gt;19 -->
<g id="edge45" class="edge">
<title>12&#45;&gt;19</title>
<path fill="none" stroke="grey" stroke-width="2" d="M1560.91,-359.97C1523.91,-349.56 1476.57,-336.26 1438.61,-325.58"/>
<polygon fill="grey" stroke="grey" stroke-width="2" points="1439.24,-322.13 1428.67,-322.79 1437.35,-328.87 1439.24,-322.13"/>
</g>
<!-- 12&#45;&gt;20 -->
<g id="edge57" class="edge">
<title>12&#45;&gt;20</title>
<path fill="none" stroke="grey" stroke-width="2" d="M1592.39,-359.88C1576.83,-350.72 1557.48,-339.34 1540.72,-329.48"/>
<polygon fill="grey" stroke="grey" stroke-width="2" points="1542.12,-326.24 1531.72,-324.19 1538.57,-332.28 1542.12,-326.24"/>
</g>
<!-- 13 -->
<g id="node14" class="node">
<title>13</title>
<path fill="none" stroke="#97d856" stroke-width="2" d="M1912.5,-396C1912.5,-396 1746.5,-396 1746.5,-396 1740.5,-396 1734.5,-390 1734.5,-384 1734.5,-384 1734.5,-372 1734.5,-372 1734.5,-366 1740.5,-360 1746.5,-360 1746.5,-360 1912.5,-360 1912.5,-360 1918.5,-360 1924.5,-366 1924.5,-372 1924.5,-372 1924.5,-384 1924.5,-384 1924.5,-390 1918.5,-396 1912.5,-396"/>
<text text-anchor="middle" x="1829.5" y="-381" font-family="sans" font-size="10.00">get_ccs</text>
<text text-anchor="middle" x="1829.5" y="-370" font-family="sans" font-size="10.00">pacbioRun: pool2_B1351_210701_A</text>
</g>
<!-- 13&#45;&gt;5 -->
<g id="edge22" class="edge">
<title>13&#45;&gt;5</title>
<path fill="none" stroke="grey" stroke-width="2" d="M1734.34,-361.07C1731.36,-360.69 1728.41,-360.33 1725.5,-360 1486.31,-332.66 1421.09,-356.48 1179.01,-324.09"/>
<polygon fill="grey" stroke="grey" stroke-width="2" points="1179.21,-320.59 1168.84,-322.71 1178.27,-327.52 1179.21,-320.59"/>
</g>
<!-- 13&#45;&gt;18 -->
<g id="edge34" class="edge">
<title>13&#45;&gt;18</title>
<path fill="none" stroke="grey" stroke-width="2" d="M1734.33,-361.15C1731.35,-360.75 1728.4,-360.36 1725.5,-360 1543.72,-337.35 1493.02,-355.06 1308.09,-323.91"/>
<polygon fill="grey" stroke="grey" stroke-width="2" points="1308.48,-320.42 1298.03,-322.19 1307.3,-327.32 1308.48,-320.42"/>
</g>
<!-- 13&#45;&gt;19 -->
<g id="edge46" class="edge">
<title>13&#45;&gt;19</title>
<path fill="none" stroke="grey" stroke-width="2" d="M1734.31,-361.29C1731.34,-360.85 1728.4,-360.42 1725.5,-360 1601.07,-342.06 1565.94,-348.04 1438.89,-324.13"/>
<polygon fill="grey" stroke="grey" stroke-width="2" points="1439.25,-320.64 1428.77,-322.2 1437.93,-327.51 1439.25,-320.64"/>
</g>
<!-- 13&#45;&gt;20 -->
<g id="edge58" class="edge">
<title>13&#45;&gt;20</title>
<path fill="none" stroke="grey" stroke-width="2" d="M1749.92,-359.97C1694.07,-348.01 1620.28,-332.21 1567.86,-320.99"/>
<polygon fill="grey" stroke="grey" stroke-width="2" points="1568.52,-317.55 1558,-318.88 1567.05,-324.4 1568.52,-317.55"/>
</g>
<!-- 14 -->
<g id="node15" class="node">
<title>14</title>
<path fill="none" stroke="#97d856" stroke-width="2" d="M2154,-396C2154,-396 1955,-396 1955,-396 1949,-396 1943,-390 1943,-384 1943,-384 1943,-372 1943,-372 1943,-366 1949,-360 1955,-360 1955,-360 2154,-360 2154,-360 2160,-360 2166,-366 2166,-372 2166,-372 2166,-384 2166,-384 2166,-390 2160,-396 2154,-396"/>
<text text-anchor="middle" x="2054.5" y="-381" font-family="sans" font-size="10.00">get_ccs</text>
<text text-anchor="middle" x="2054.5" y="-370" font-family="sans" font-size="10.00">pacbioRun: pool1_Wuhan_Hu_1_211118_A</text>
</g>
<!-- 14&#45;&gt;5 -->
<g id="edge23" class="edge">
<title>14&#45;&gt;5</title>
<path fill="none" stroke="grey" stroke-width="2" d="M1942.8,-360.92C1939.67,-360.6 1936.56,-360.29 1933.5,-360 1601.86,-328.87 1512.89,-365.94 1178.78,-324.04"/>
<polygon fill="grey" stroke="grey" stroke-width="2" points="1179.19,-320.56 1168.83,-322.78 1178.31,-327.51 1179.19,-320.56"/>
</g>
<!-- 14&#45;&gt;18 -->
<g id="edge35" class="edge">
<title>14&#45;&gt;18</title>
<path fill="none" stroke="grey" stroke-width="2" d="M1942.79,-360.97C1939.66,-360.63 1936.56,-360.3 1933.5,-360 1659.42,-332.91 1584.52,-366.66 1307.94,-323.85"/>
<polygon fill="grey" stroke="grey" stroke-width="2" points="1308.44,-320.38 1298.02,-322.29 1307.35,-327.3 1308.44,-320.38"/>
</g>
<!-- 14&#45;&gt;19 -->
<g id="edge47" class="edge">
<title>14&#45;&gt;19</title>
<path fill="none" stroke="grey" stroke-width="2" d="M1942.79,-361.03C1939.66,-360.67 1936.56,-360.33 1933.5,-360 1717.04,-336.97 1657.35,-359.41 1438.92,-324.05"/>
<polygon fill="grey" stroke="grey" stroke-width="2" points="1439.17,-320.55 1428.73,-322.38 1438.04,-327.45 1439.17,-320.55"/>
</g>
<!-- 14&#45;&gt;20 -->
<g id="edge59" class="edge">
<title>14&#45;&gt;20</title>
<path fill="none" stroke="grey" stroke-width="2" d="M1942.76,-361.23C1939.64,-360.81 1936.55,-360.4 1933.5,-360 1804.22,-342.97 1652.88,-324.76 1568.31,-314.74"/>
<polygon fill="grey" stroke="grey" stroke-width="2" points="1568.67,-311.25 1558.33,-313.55 1567.85,-318.21 1568.67,-311.25"/>
</g>
<!-- 15 -->
<g id="node16" class="node">
<title>15</title>
<path fill="none" stroke="#97d856" stroke-width="2" d="M2395,-396C2395,-396 2196,-396 2196,-396 2190,-396 2184,-390 2184,-384 2184,-384 2184,-372 2184,-372 2184,-366 2190,-360 2196,-360 2196,-360 2395,-360 2395,-360 2401,-360 2407,-366 2407,-372 2407,-372 2407,-384 2407,-384 2407,-390 2401,-396 2395,-396"/>
<text text-anchor="middle" x="2295.5" y="-381" font-family="sans" font-size="10.00">get_ccs</text>
<text text-anchor="middle" x="2295.5" y="-370" font-family="sans" font-size="10.00">pacbioRun: pool1_Wuhan_Hu_1_211118_B</text>
</g>
<!-- 15&#45;&gt;5 -->
<g id="edge24" class="edge">
<title>15&#45;&gt;5</title>
<path fill="none" stroke="grey" stroke-width="2" d="M2183.76,-360.78C2180.98,-360.5 2178.22,-360.24 2175.5,-360 1736.73,-321.11 1619.84,-376.92 1178.96,-324.05"/>
<polygon fill="grey" stroke="grey" stroke-width="2" points="1179.17,-320.55 1168.82,-322.82 1178.33,-327.49 1179.17,-320.55"/>
</g>
<!-- 15&#45;&gt;18 -->
<g id="edge36" class="edge">
<title>15&#45;&gt;18</title>
<path fill="none" stroke="grey" stroke-width="2" d="M2183.76,-360.8C2180.98,-360.52 2178.22,-360.25 2175.5,-360 1794.28,-325.18 1691.11,-380.22 1307.98,-323.84"/>
<polygon fill="grey" stroke="grey" stroke-width="2" points="1308.41,-320.36 1298.01,-322.35 1307.38,-327.29 1308.41,-320.36"/>
</g>
<!-- 15&#45;&gt;19 -->
<g id="edge48" class="edge">
<title>15&#45;&gt;19</title>
<path fill="none" stroke="grey" stroke-width="2" d="M2183.76,-360.83C2180.98,-360.54 2178.22,-360.26 2175.5,-360 1851.93,-329.25 1763.89,-372.9 1438.9,-324.01"/>
<polygon fill="grey" stroke="grey" stroke-width="2" points="1439.13,-320.51 1428.72,-322.46 1438.08,-327.43 1439.13,-320.51"/>
</g>
<!-- 15&#45;&gt;20 -->
<g id="edge60" class="edge">
<title>15&#45;&gt;20</title>
<path fill="none" stroke="grey" stroke-width="2" d="M2183.75,-360.94C2180.97,-360.61 2178.22,-360.3 2175.5,-360 1953.35,-335.54 1688.73,-318.11 1568.18,-310.81"/>
<polygon fill="grey" stroke="grey" stroke-width="2" points="1568.2,-307.31 1558.01,-310.2 1567.78,-314.29 1568.2,-307.31"/>
</g>
<!-- 16 -->
<g id="node17" class="node">
<title>16</title>
<path fill="none" stroke="#97d856" stroke-width="2" d="M2604,-396C2604,-396 2437,-396 2437,-396 2431,-396 2425,-390 2425,-384 2425,-384 2425,-372 2425,-372 2425,-366 2431,-360 2437,-360 2437,-360 2604,-360 2604,-360 2610,-360 2616,-366 2616,-372 2616,-372 2616,-384 2616,-384 2616,-390 2610,-396 2604,-396"/>
<text text-anchor="middle" x="2520.5" y="-381" font-family="sans" font-size="10.00">get_ccs</text>
<text text-anchor="middle" x="2520.5" y="-370" font-family="sans" font-size="10.00">pacbioRun: pool1_N501Y_211118_A</text>
</g>
<!-- 16&#45;&gt;5 -->
<g id="edge25" class="edge">
<title>16&#45;&gt;5</title>
<path fill="none" stroke="grey" stroke-width="2" d="M2424.79,-360.86C2422,-360.55 2419.23,-360.26 2416.5,-360 1871.46,-307.77 1726.34,-387.85 1178.95,-324.03"/>
<polygon fill="grey" stroke="grey" stroke-width="2" points="1179.16,-320.54 1168.82,-322.84 1178.34,-327.49 1179.16,-320.54"/>
</g>
<!-- 16&#45;&gt;18 -->
<g id="edge37" class="edge">
<title>16&#45;&gt;18</title>
<path fill="none" stroke="grey" stroke-width="2" d="M2424.79,-360.88C2422,-360.56 2419.23,-360.27 2416.5,-360 1929.04,-312.45 1797.33,-393.71 1308.15,-323.85"/>
<polygon fill="grey" stroke="grey" stroke-width="2" points="1308.4,-320.35 1298,-322.39 1307.4,-327.28 1308.4,-320.35"/>
</g>
<!-- 16&#45;&gt;19 -->
<g id="edge49" class="edge">
<title>16&#45;&gt;19</title>
<path fill="none" stroke="grey" stroke-width="2" d="M2424.79,-360.89C2422,-360.57 2419.23,-360.27 2416.5,-360 1986.52,-317.12 1870.01,-386.4 1438.64,-323.96"/>
<polygon fill="grey" stroke="grey" stroke-width="2" points="1439.12,-320.49 1428.71,-322.51 1438.1,-327.42 1439.12,-320.49"/>
</g>
<!-- 16&#45;&gt;20 -->
<g id="edge61" class="edge">
<title>16&#45;&gt;20</title>
<path fill="none" stroke="grey" stroke-width="2" d="M2424.78,-360.97C2421.99,-360.63 2419.23,-360.3 2416.5,-360 2099.71,-325.02 1718.43,-312.32 1568.05,-308.46"/>
<polygon fill="grey" stroke="grey" stroke-width="2" points="1568.13,-304.96 1558.05,-308.21 1567.96,-311.96 1568.13,-304.96"/>
</g>
<!-- 17 -->
<g id="node18" class="node">
<title>17</title>
<path fill="none" stroke="#97d856" stroke-width="2" d="M179,-396C179,-396 12,-396 12,-396 6,-396 0,-390 0,-384 0,-384 0,-372 0,-372 0,-366 6,-360 12,-360 12,-360 179,-360 179,-360 185,-360 191,-366 191,-372 191,-372 191,-384 191,-384 191,-390 185,-396 179,-396"/>
<text text-anchor="middle" x="95.5" y="-381" font-family="sans" font-size="10.00">get_ccs</text>
<text text-anchor="middle" x="95.5" y="-370" font-family="sans" font-size="10.00">pacbioRun: pool1_N501Y_211118_B</text>
</g>
<!-- 17&#45;&gt;5 -->
<g id="edge26" class="edge">
<title>17&#45;&gt;5</title>
<path fill="none" stroke="grey" stroke-width="2" d="M191.22,-360.97C194.01,-360.63 196.77,-360.3 199.5,-360 498.57,-326.81 856.21,-313.55 1014.36,-309.02"/>
<polygon fill="grey" stroke="grey" stroke-width="2" points="1014.59,-312.52 1024.49,-308.74 1014.39,-305.52 1014.59,-312.52"/>
</g>
<!-- 17&#45;&gt;18 -->
<g id="edge38" class="edge">
<title>17&#45;&gt;18</title>
<path fill="none" stroke="grey" stroke-width="2" d="M191.21,-360.89C194,-360.57 196.77,-360.27 199.5,-360 629.04,-317.16 745.43,-386.35 1177.07,-323.82"/>
<polygon fill="grey" stroke="grey" stroke-width="2" points="1177.61,-327.28 1187,-322.37 1176.59,-320.36 1177.61,-327.28"/>
</g>
<!-- 17&#45;&gt;19 -->
<g id="edge50" class="edge">
<title>17&#45;&gt;19</title>
<path fill="none" stroke="grey" stroke-width="2" d="M191.21,-360.88C194,-360.56 196.77,-360.27 199.5,-360 686.08,-312.52 817.42,-392.7 1306,-323.83"/>
<polygon fill="grey" stroke="grey" stroke-width="2" points="1306.73,-327.26 1316.14,-322.38 1305.75,-320.33 1306.73,-327.26"/>
</g>
<!-- 17&#45;&gt;20 -->
<g id="edge62" class="edge">
<title>17&#45;&gt;20</title>
<path fill="none" stroke="grey" stroke-width="2" d="M191.21,-360.86C194,-360.55 196.77,-360.26 199.5,-360 744.1,-307.8 890.83,-400.99 1436.55,-323.91"/>
<polygon fill="grey" stroke="grey" stroke-width="2" points="1437.24,-327.34 1446.64,-322.47 1436.25,-320.41 1437.24,-327.34"/>
</g>
<!-- 18&#45;&gt;0 -->
<g id="edge6" class="edge">
<title>18&#45;&gt;0</title>
<path fill="none" stroke="grey" stroke-width="2" d="M1206.54,-287.93C1169.16,-267.95 1112.78,-230.99 1088.5,-180 1081.62,-165.55 1084.91,-159.59 1088.5,-144 1096.48,-109.33 1096.69,-95.39 1123.5,-72 1152.5,-46.7 1193.84,-33.43 1227.5,-26.49"/>
<polygon fill="grey" stroke="grey" stroke-width="2" points="1228.52,-29.86 1237.68,-24.54 1227.2,-22.99 1228.52,-29.86"/>
</g>
<!-- 18&#45;&gt;21 -->
<g id="edge64" class="edge">
<title>18&#45;&gt;21</title>
<path fill="none" stroke="grey" stroke-width="2" d="M1242.99,-287.7C1243.21,-279.98 1243.48,-270.71 1243.73,-262.11"/>
<polygon fill="grey" stroke="grey" stroke-width="2" points="1247.22,-262.2 1244.01,-252.1 1240.23,-262 1247.22,-262.2"/>
</g>
<!-- 18&#45;&gt;22 -->
<g id="edge68" class="edge">
<title>18&#45;&gt;22</title>
<path fill="none" stroke="grey" stroke-width="2" d="M1218.75,-287.91C1207.95,-278.65 1196.3,-266.2 1190.5,-252 1184.45,-237.19 1181.92,-229.5 1190.5,-216 1194.5,-209.71 1226.85,-194.87 1255.91,-182.49"/>
<polygon fill="grey" stroke="grey" stroke-width="2" points="1257.35,-185.68 1265.2,-178.57 1254.62,-179.23 1257.35,-185.68"/>
</g>
<!-- 18&#45;&gt;23 -->
<g id="edge73" class="edge">
<title>18&#45;&gt;23</title>
<path fill="none" stroke="grey" stroke-width="2" d="M1263.85,-287.87C1295.35,-262.6 1354.37,-215.25 1389.98,-186.68"/>
<polygon fill="grey" stroke="grey" stroke-width="2" points="1392.46,-189.18 1398.07,-180.19 1388.08,-183.72 1392.46,-189.18"/>
</g>
<!-- 19&#45;&gt;0 -->
<g id="edge7" class="edge">
<title>19&#45;&gt;0</title>
<path fill="none" stroke="grey" stroke-width="2" d="M1400.52,-287.85C1442.37,-259.88 1513.64,-201.73 1487.5,-144 1461.19,-85.88 1392.92,-52.36 1343.01,-34.93"/>
<polygon fill="grey" stroke="grey" stroke-width="2" points="1343.88,-31.53 1333.29,-31.66 1341.65,-38.17 1343.88,-31.53"/>
</g>
<!-- 19&#45;&gt;21 -->
<g id="edge65" class="edge">
<title>19&#45;&gt;21</title>
<path fill="none" stroke="grey" stroke-width="2" d="M1341.19,-287.88C1324.3,-278.64 1303.25,-267.13 1285.12,-257.21"/>
<polygon fill="grey" stroke="grey" stroke-width="2" points="1286.39,-253.92 1275.93,-252.19 1283.03,-260.06 1286.39,-253.92"/>
</g>
<!-- 19&#45;&gt;22 -->
<g id="edge69" class="edge">
<title>19&#45;&gt;22</title>
<path fill="none" stroke="grey" stroke-width="2" d="M1364.18,-287.87C1352.26,-263.35 1330.24,-218.03 1316.26,-189.26"/>
<polygon fill="grey" stroke="grey" stroke-width="2" points="1319.37,-187.65 1311.85,-180.19 1313.08,-190.71 1319.37,-187.65"/>
</g>
<!-- 19&#45;&gt;23 -->
<g id="edge74" class="edge">
<title>19&#45;&gt;23</title>
<path fill="none" stroke="grey" stroke-width="2" d="M1378.17,-287.87C1386.21,-263.56 1401.02,-218.82 1410.56,-190.01"/>
<polygon fill="grey" stroke="grey" stroke-width="2" points="1413.99,-190.78 1413.81,-180.19 1407.35,-188.58 1413.99,-190.78"/>
</g>
<!-- 20&#45;&gt;0 -->
<g id="edge8" class="edge">
<title>20&#45;&gt;0</title>
<path fill="none" stroke="grey" stroke-width="2" d="M1506.07,-287.6C1511.51,-257.55 1519.73,-194.3 1504.5,-144 1493.36,-107.19 1487.31,-95.02 1456.5,-72 1423.53,-47.36 1378.91,-34.03 1343.52,-26.91"/>
<polygon fill="grey" stroke="grey" stroke-width="2" points="1343.8,-23.4 1333.33,-24.97 1342.5,-30.27 1343.8,-23.4"/>
</g>
<!-- 20&#45;&gt;21 -->
<g id="edge66" class="edge">
<title>20&#45;&gt;21</title>
<path fill="none" stroke="grey" stroke-width="2" d="M1446.84,-289.9C1403.13,-278.04 1342.62,-261.62 1299.17,-249.83"/>
<polygon fill="grey" stroke="grey" stroke-width="2" points="1299.91,-246.41 1289.34,-247.17 1298.08,-253.16 1299.91,-246.41"/>
</g>
<!-- 20&#45;&gt;22 -->
<g id="edge70" class="edge">
<title>20&#45;&gt;22</title>
<path fill="none" stroke="grey" stroke-width="2" d="M1478.5,-287.87C1442.86,-262.44 1375.89,-214.65 1335.93,-186.14"/>
<polygon fill="grey" stroke="grey" stroke-width="2" points="1337.76,-183.15 1327.59,-180.19 1333.7,-188.85 1337.76,-183.15"/>
</g>
<!-- 20&#45;&gt;23 -->
<g id="edge75" class="edge">
<title>20&#45;&gt;23</title>
<path fill="none" stroke="grey" stroke-width="2" d="M1492.49,-287.87C1478.09,-263.24 1451.44,-217.64 1434.63,-188.88"/>
<polygon fill="grey" stroke="grey" stroke-width="2" points="1437.62,-187.06 1429.55,-180.19 1431.57,-190.59 1437.62,-187.06"/>
</g>
<!-- 21&#45;&gt;0 -->
<g id="edge9" class="edge">
<title>21&#45;&gt;0</title>
<path fill="none" stroke="grey" stroke-width="2" d="M1199.66,-229.96C1165.71,-225.03 1121.17,-212.35 1098.5,-180 1089.32,-166.9 1090.96,-158.11 1098.5,-144 1125.82,-92.87 1184.33,-59.01 1228.68,-39.58"/>
<polygon fill="grey" stroke="grey" stroke-width="2" points="1230.08,-42.79 1237.91,-35.65 1227.34,-36.35 1230.08,-42.79"/>
</g>
<!-- 21&#45;&gt;22 -->
<g id="edge71" class="edge">
<title>21&#45;&gt;22</title>
<path fill="none" stroke="grey" stroke-width="2" d="M1259.08,-215.7C1266.16,-207.3 1274.78,-197.07 1282.55,-187.86"/>
<polygon fill="grey" stroke="grey" stroke-width="2" points="1285.31,-190.01 1289.08,-180.1 1279.96,-185.49 1285.31,-190.01"/>
</g>
<!-- 21&#45;&gt;23 -->
<g id="edge76" class="edge">
<title>21&#45;&gt;23</title>
<path fill="none" stroke="grey" stroke-width="2" d="M1287.31,-215.88C1311.45,-206.22 1341.78,-194.09 1367.31,-183.88"/>
<polygon fill="grey" stroke="grey" stroke-width="2" points="1368.84,-187.03 1376.83,-180.07 1366.24,-180.53 1368.84,-187.03"/>
</g>
<!-- 22&#45;&gt;0 -->
<g id="edge10" class="edge">
<title>22&#45;&gt;0</title>
<path fill="none" stroke="grey" stroke-width="2" d="M1287.89,-143.77C1280.13,-134.03 1271.55,-121.18 1267.5,-108 1261.2,-87.5 1266.68,-63.65 1273.2,-45.8"/>
<polygon fill="grey" stroke="grey" stroke-width="2" points="1276.53,-46.9 1276.97,-36.31 1270.02,-44.32 1276.53,-46.9"/>
</g>
<!-- 22&#45;&gt;24 -->
<g id="edge77" class="edge">
<title>22&#45;&gt;24</title>
<path fill="none" stroke="grey" stroke-width="2" d="M1308.44,-143.7C1310.67,-135.9 1313.35,-126.51 1315.83,-117.83"/>
<polygon fill="grey" stroke="grey" stroke-width="2" points="1319.23,-118.68 1318.61,-108.1 1312.5,-116.76 1319.23,-118.68"/>
</g>
<!-- 23&#45;&gt;0 -->
<g id="edge11" class="edge">
<title>23&#45;&gt;0</title>
<path fill="none" stroke="grey" stroke-width="2" d="M1415.27,-143.78C1409.78,-124.4 1398.57,-92.89 1379.5,-72 1367.99,-59.4 1352.77,-49.05 1337.94,-40.95"/>
<polygon fill="grey" stroke="grey" stroke-width="2" points="1339.28,-37.7 1328.79,-36.2 1336.05,-43.92 1339.28,-37.7"/>
</g>
<!-- 23&#45;&gt;24 -->
<g id="edge78" class="edge">
<title>23&#45;&gt;24</title>
<path fill="none" stroke="grey" stroke-width="2" d="M1395.77,-143.7C1383.56,-134.8 1368.51,-123.82 1355.32,-114.2"/>
<polygon fill="grey" stroke="grey" stroke-width="2" points="1357.1,-111.17 1346.96,-108.1 1352.98,-116.82 1357.1,-111.17"/>
</g>
<!-- 24&#45;&gt;0 -->
<g id="edge12" class="edge">
<title>24&#45;&gt;0</title>
<path fill="none" stroke="grey" stroke-width="2" d="M1314.11,-71.7C1309.74,-63.64 1304.44,-53.89 1299.6,-44.98"/>
<polygon fill="grey" stroke="grey" stroke-width="2" points="1302.63,-43.22 1294.79,-36.1 1296.48,-46.56 1302.63,-43.22"/>
</g>
<!-- 25 -->
<g id="node26" class="node">
<title>25</title>
<path fill="none" stroke="#56d863" stroke-width="2" d="M1820,-180C1820,-180 1709,-180 1709,-180 1703,-180 1697,-174 1697,-168 1697,-168 1697,-156 1697,-156 1697,-150 1703,-144 1709,-144 1709,-144 1820,-144 1820,-144 1826,-144 1832,-150 1832,-156 1832,-156 1832,-168 1832,-168 1832,-174 1826,-180 1820,-180"/>
<text text-anchor="middle" x="1764.5" y="-159.5" font-family="sans" font-size="10.00">enumerate_UShER_subs</text>
</g>
<!-- 25&#45;&gt;0 -->
<g id="edge13" class="edge">
<title>25&#45;&gt;0</title>
<path fill="none" stroke="grey" stroke-width="2" d="M1762.52,-143.79C1759.16,-123.18 1750.31,-89.27 1727.5,-72 1668.32,-27.19 1449.06,-19.79 1343.3,-18.88"/>
<polygon fill="grey" stroke="grey" stroke-width="2" points="1343.15,-15.38 1333.12,-18.81 1343.1,-22.38 1343.15,-15.38"/>
</g>
<!-- 29 -->
<g id="node30" class="node">
<title>29</title>
<path fill="none" stroke="#568ad8" stroke-width="2" d="M1909.5,-108C1909.5,-108 1787.5,-108 1787.5,-108 1781.5,-108 1775.5,-102 1775.5,-96 1775.5,-96 1775.5,-84 1775.5,-84 1775.5,-78 1781.5,-72 1787.5,-72 1787.5,-72 1909.5,-72 1909.5,-72 1915.5,-72 1921.5,-78 1921.5,-84 1921.5,-84 1921.5,-96 1921.5,-96 1921.5,-102 1915.5,-108 1909.5,-108"/>
<text text-anchor="middle" x="1848.5" y="-87.5" font-family="sans" font-size="10.00">parse_UShER_subs_N501Y</text>
</g>
<!-- 25&#45;&gt;29 -->
<g id="edge84" class="edge">
<title>25&#45;&gt;29</title>
<path fill="none" stroke="grey" stroke-width="2" d="M1785.26,-143.7C1795.74,-134.97 1808.61,-124.24 1820,-114.75"/>
<polygon fill="grey" stroke="grey" stroke-width="2" points="1822.53,-117.19 1827.97,-108.1 1818.05,-111.82 1822.53,-117.19"/>
</g>
<!-- 26 -->
<g id="node27" class="node">
<title>26</title>
<path fill="none" stroke="#d85656" stroke-width="2" d="M1929,-252C1929,-252 1858,-252 1858,-252 1852,-252 1846,-246 1846,-240 1846,-240 1846,-228 1846,-228 1846,-222 1852,-216 1858,-216 1858,-216 1929,-216 1929,-216 1935,-216 1941,-222 1941,-228 1941,-228 1941,-240 1941,-240 1941,-246 1935,-252 1929,-252"/>
<text text-anchor="middle" x="1893.5" y="-231.5" font-family="sans" font-size="10.00">get_UShER_tree</text>
</g>
<!-- 26&#45;&gt;25 -->
<g id="edge80" class="edge">
<title>26&#45;&gt;25</title>
<path fill="none" stroke="grey" stroke-width="2" d="M1861.94,-215.88C1844.84,-206.6 1823.52,-195.03 1805.18,-185.08"/>
<polygon fill="grey" stroke="grey" stroke-width="2" points="1806.64,-181.88 1796.18,-180.19 1803.3,-188.04 1806.64,-181.88"/>
</g>
<!-- 26&#45;&gt;29 -->
<g id="edge83" class="edge">
<title>26&#45;&gt;29</title>
<path fill="none" stroke="grey" stroke-width="2" d="M1888.07,-215.87C1880.37,-191.56 1866.19,-146.82 1857.06,-118.01"/>
<polygon fill="grey" stroke="grey" stroke-width="2" points="1860.3,-116.66 1853.95,-108.19 1853.63,-118.78 1860.3,-116.66"/>
</g>
<!-- 27 -->
<g id="node28" class="node">
<title>27</title>
<path fill="none" stroke="#b6d856" stroke-width="2" d="M1671,-252C1671,-252 1586,-252 1586,-252 1580,-252 1574,-246 1574,-240 1574,-240 1574,-228 1574,-228 1574,-222 1580,-216 1586,-216 1586,-216 1671,-216 1671,-216 1677,-216 1683,-222 1683,-228 1683,-228 1683,-240 1683,-240 1683,-246 1677,-252 1671,-252"/>
<text text-anchor="middle" x="1628.5" y="-231.5" font-family="sans" font-size="10.00">get_UShER_gtf_file</text>
</g>
<!-- 27&#45;&gt;25 -->
<g id="edge81" class="edge">
<title>27&#45;&gt;25</title>
<path fill="none" stroke="grey" stroke-width="2" d="M1661.77,-215.88C1679.96,-206.51 1702.69,-194.81 1722.14,-184.8"/>
<polygon fill="grey" stroke="grey" stroke-width="2" points="1723.81,-187.88 1731.1,-180.19 1720.61,-181.65 1723.81,-187.88"/>
</g>
<!-- 28 -->
<g id="node29" class="node">
<title>28</title>
<path fill="none" stroke="#56a9d8" stroke-width="2" d="M1815.5,-252C1815.5,-252 1713.5,-252 1713.5,-252 1707.5,-252 1701.5,-246 1701.5,-240 1701.5,-240 1701.5,-228 1701.5,-228 1701.5,-222 1707.5,-216 1713.5,-216 1713.5,-216 1815.5,-216 1815.5,-216 1821.5,-216 1827.5,-222 1827.5,-228 1827.5,-228 1827.5,-240 1827.5,-240 1827.5,-246 1821.5,-252 1815.5,-252"/>
<text text-anchor="middle" x="1764.5" y="-231.5" font-family="sans" font-size="10.00">get_UShER_refseq_file</text>
</g>
<!-- 28&#45;&gt;25 -->
<g id="edge82" class="edge">
<title>28&#45;&gt;25</title>
<path fill="none" stroke="grey" stroke-width="2" d="M1764.5,-215.7C1764.5,-207.98 1764.5,-198.71 1764.5,-190.11"/>
<polygon fill="grey" stroke="grey" stroke-width="2" points="1768,-190.1 1764.5,-180.1 1761,-190.1 1768,-190.1"/>
</g>
<!-- 29&#45;&gt;0 -->
<g id="edge14" class="edge">
<title>29&#45;&gt;0</title>
<path fill="none" stroke="grey" stroke-width="2" d="M1775.47,-74.28C1770.75,-73.47 1766.06,-72.7 1761.5,-72 1611.33,-49.01 1433.05,-31.84 1343.28,-23.89"/>
<polygon fill="grey" stroke="grey" stroke-width="2" points="1343.57,-20.4 1333.3,-23.01 1342.96,-27.38 1343.57,-20.4"/>
</g>
</g>
</svg>
