<?xml version="1.0" encoding="UTF-8" standalone="no"?>
<!DOCTYPE svg PUBLIC "-//W3C//DTD SVG 1.1//EN"
 "http://www.w3.org/Graphics/SVG/1.1/DTD/svg11.dtd">
<!-- Generated by graphviz version 2.50.0 (20211209.0339)
 -->
<!-- Title: snakemake_dag Pages: 1 -->
<svg width="2624pt" height="548pt"
 viewBox="0.00 0.00 2624.00 548.00" xmlns="http://www.w3.org/2000/svg" xmlns:xlink="http://www.w3.org/1999/xlink">
<g id="graph0" class="graph" transform="scale(1 1) rotate(0) translate(4 544)">
<title>snakemake_dag</title>
<polygon fill="white" stroke="transparent" points="-4,4 -4,-544 2620,-544 2620,4 -4,4"/>
<!-- 0 -->
<g id="node1" class="node">
<title>0</title>
<path fill="none" stroke="#d8c356" stroke-width="2" d="M1505.5,-36C1505.5,-36 1434.5,-36 1434.5,-36 1428.5,-36 1422.5,-30 1422.5,-24 1422.5,-24 1422.5,-12 1422.5,-12 1422.5,-6 1428.5,0 1434.5,0 1434.5,0 1505.5,0 1505.5,0 1511.5,0 1517.5,-6 1517.5,-12 1517.5,-12 1517.5,-24 1517.5,-24 1517.5,-30 1511.5,-36 1505.5,-36"/>
<text text-anchor="middle" x="1470" y="-15.5" font-family="sans" font-size="10.00">make_summary</text>
</g>
<!-- 1 -->
<g id="node2" class="node">
<title>1</title>
<path fill="none" stroke="#bed856" stroke-width="2" d="M886.5,-108C886.5,-108 843.5,-108 843.5,-108 837.5,-108 831.5,-102 831.5,-96 831.5,-96 831.5,-84 831.5,-84 831.5,-78 837.5,-72 843.5,-72 843.5,-72 886.5,-72 886.5,-72 892.5,-72 898.5,-78 898.5,-84 898.5,-84 898.5,-96 898.5,-96 898.5,-102 892.5,-108 886.5,-108"/>
<text text-anchor="middle" x="865" y="-87.5" font-family="sans" font-size="10.00">make_dag</text>
</g>
<!-- 1&#45;&gt;0 -->
<g id="edge1" class="edge">
<title>1&#45;&gt;0</title>
<path fill="none" stroke="grey" stroke-width="2" d="M898.51,-74.71C901.68,-73.68 904.88,-72.75 908,-72 1088.36,-28.77 1309.19,-20.49 1412.09,-19.11"/>
<polygon fill="grey" stroke="grey" stroke-width="2" points="1412.31,-22.61 1422.26,-18.99 1412.22,-15.61 1412.31,-22.61"/>
</g>
<!-- 2 -->
<g id="node3" class="node">
<title>2</title>
<path fill="none" stroke="#d88556" stroke-width="2" d="M1015,-108C1015,-108 929,-108 929,-108 923,-108 917,-102 917,-96 917,-96 917,-84 917,-84 917,-78 923,-72 929,-72 929,-72 1015,-72 1015,-72 1021,-72 1027,-78 1027,-84 1027,-84 1027,-96 1027,-96 1027,-102 1021,-108 1015,-108"/>
<text text-anchor="middle" x="972" y="-87.5" font-family="sans" font-size="10.00">get_mut_bind_expr</text>
</g>
<!-- 2&#45;&gt;0 -->
<g id="edge2" class="edge">
<title>2&#45;&gt;0</title>
<path fill="none" stroke="grey" stroke-width="2" d="M1027.24,-74.78C1031.88,-73.77 1036.51,-72.83 1041,-72 1172.82,-47.71 1329.53,-31.51 1412.23,-23.94"/>
<polygon fill="grey" stroke="grey" stroke-width="2" points="1412.78,-27.41 1422.43,-23.02 1412.15,-20.43 1412.78,-27.41"/>
</g>
<!-- 3 -->
<g id="node4" class="node">
<title>3</title>
<path fill="none" stroke="#56d892" stroke-width="2" d="M1408,-324C1408,-324 1292,-324 1292,-324 1286,-324 1280,-318 1280,-312 1280,-312 1280,-300 1280,-300 1280,-294 1286,-288 1292,-288 1292,-288 1408,-288 1408,-288 1414,-288 1420,-294 1420,-300 1420,-300 1420,-312 1420,-312 1420,-318 1414,-324 1408,-324"/>
<text text-anchor="middle" x="1350" y="-303.5" font-family="sans" font-size="10.00">get_delta_mut_bind_expr</text>
</g>
<!-- 3&#45;&gt;0 -->
<g id="edge3" class="edge">
<title>3&#45;&gt;0</title>
<path fill="none" stroke="grey" stroke-width="2" d="M1420.08,-289.19C1483.57,-274.71 1567.59,-255.06 1570,-252 1600.21,-213.64 1597.81,-180.38 1530,-72 1523.02,-60.84 1512.99,-50.69 1503.13,-42.32"/>
<polygon fill="grey" stroke="grey" stroke-width="2" points="1505.3,-39.57 1495.32,-36.01 1500.9,-45.02 1505.3,-39.57"/>
</g>
<!-- 24 -->
<g id="node25" class="node">
<title>24</title>
<path fill="none" stroke="#d6d856" stroke-width="2" d="M1385,-252C1385,-252 1315,-252 1315,-252 1309,-252 1303,-246 1303,-240 1303,-240 1303,-228 1303,-228 1303,-222 1309,-216 1315,-216 1315,-216 1385,-216 1385,-216 1391,-216 1397,-222 1397,-228 1397,-228 1397,-240 1397,-240 1397,-246 1391,-252 1385,-252"/>
<text text-anchor="middle" x="1350" y="-231.5" font-family="sans" font-size="10.00">collapse_scores</text>
</g>
<!-- 3&#45;&gt;24 -->
<g id="edge83" class="edge">
<title>3&#45;&gt;24</title>
<path fill="none" stroke="grey" stroke-width="2" d="M1350,-287.7C1350,-279.98 1350,-270.71 1350,-262.11"/>
<polygon fill="grey" stroke="grey" stroke-width="2" points="1353.5,-262.1 1350,-252.1 1346.5,-262.1 1353.5,-262.1"/>
</g>
<!-- 4 -->
<g id="node5" class="node">
<title>4</title>
<path fill="none" stroke="#61d856" stroke-width="2" d="M1548.5,-252C1548.5,-252 1427.5,-252 1427.5,-252 1421.5,-252 1415.5,-246 1415.5,-240 1415.5,-240 1415.5,-228 1415.5,-228 1415.5,-222 1421.5,-216 1427.5,-216 1427.5,-216 1548.5,-216 1548.5,-216 1554.5,-216 1560.5,-222 1560.5,-228 1560.5,-228 1560.5,-240 1560.5,-240 1560.5,-246 1554.5,-252 1548.5,-252"/>
<text text-anchor="middle" x="1488" y="-231.5" font-family="sans" font-size="10.00">get_mut_antibody_escape</text>
</g>
<!-- 4&#45;&gt;0 -->
<g id="edge4" class="edge">
<title>4&#45;&gt;0</title>
<path fill="none" stroke="grey" stroke-width="2" d="M1507.47,-215.92C1516.82,-206.4 1527.05,-193.72 1532,-180 1537.43,-164.95 1534.56,-159.79 1532,-144 1526.6,-110.7 1523.33,-102.04 1508,-72 1503.14,-62.47 1496.69,-52.75 1490.48,-44.29"/>
<polygon fill="grey" stroke="grey" stroke-width="2" points="1493.25,-42.15 1484.43,-36.29 1487.67,-46.38 1493.25,-42.15"/>
</g>
<!-- 30 -->
<g id="node31" class="node">
<title>30</title>
<path fill="none" stroke="#56d8d0" stroke-width="2" d="M1511,-180C1511,-180 1445,-180 1445,-180 1439,-180 1433,-174 1433,-168 1433,-168 1433,-156 1433,-156 1433,-150 1439,-144 1445,-144 1445,-144 1511,-144 1511,-144 1517,-144 1523,-150 1523,-156 1523,-156 1523,-168 1523,-168 1523,-174 1517,-180 1511,-180"/>
<text text-anchor="middle" x="1478" y="-159.5" font-family="sans" font-size="10.00">epistatic_shifts</text>
</g>
<!-- 4&#45;&gt;30 -->
<g id="edge90" class="edge">
<title>4&#45;&gt;30</title>
<path fill="none" stroke="grey" stroke-width="2" d="M1485.53,-215.7C1484.43,-207.98 1483.1,-198.71 1481.87,-190.11"/>
<polygon fill="grey" stroke="grey" stroke-width="2" points="1485.32,-189.51 1480.44,-180.1 1478.39,-190.5 1485.32,-189.51"/>
</g>
<!-- 5 -->
<g id="node6" class="node">
<title>5</title>
<path fill="none" stroke="#56d8a2" stroke-width="2" d="M1190,-468C1190,-468 1070,-468 1070,-468 1064,-468 1058,-462 1058,-456 1058,-456 1058,-444 1058,-444 1058,-438 1064,-432 1070,-432 1070,-432 1190,-432 1190,-432 1196,-432 1202,-438 1202,-444 1202,-444 1202,-456 1202,-456 1202,-462 1196,-468 1190,-468"/>
<text text-anchor="middle" x="1130" y="-447.5" font-family="sans" font-size="10.00">process_ccs_Wuhan_Hu_1</text>
</g>
<!-- 5&#45;&gt;0 -->
<g id="edge5" class="edge">
<title>5&#45;&gt;0</title>
<path fill="none" stroke="grey" stroke-width="2" d="M1113.73,-431.73C1091.67,-406.45 1055,-356.91 1055,-307 1055,-307 1055,-307 1055,-161 1055,-114.27 1071.85,-97.53 1111,-72 1159.54,-40.34 1323.71,-26.82 1412.25,-21.71"/>
<polygon fill="grey" stroke="grey" stroke-width="2" points="1412.61,-25.19 1422.4,-21.14 1412.22,-18.2 1412.61,-25.19"/>
</g>
<!-- 21 -->
<g id="node22" class="node">
<title>21</title>
<path fill="none" stroke="#78d856" stroke-width="2" d="M1419.5,-396C1419.5,-396 1354.5,-396 1354.5,-396 1348.5,-396 1342.5,-390 1342.5,-384 1342.5,-384 1342.5,-372 1342.5,-372 1342.5,-366 1348.5,-360 1354.5,-360 1354.5,-360 1419.5,-360 1419.5,-360 1425.5,-360 1431.5,-366 1431.5,-372 1431.5,-372 1431.5,-384 1431.5,-384 1431.5,-390 1425.5,-396 1419.5,-396"/>
<text text-anchor="middle" x="1387" y="-375.5" font-family="sans" font-size="10.00">count_variants</text>
</g>
<!-- 5&#45;&gt;21 -->
<g id="edge67" class="edge">
<title>5&#45;&gt;21</title>
<path fill="none" stroke="grey" stroke-width="2" d="M1192.54,-431.97C1235.37,-420.3 1291.6,-404.98 1332.58,-393.82"/>
<polygon fill="grey" stroke="grey" stroke-width="2" points="1333.66,-397.16 1342.39,-391.15 1331.82,-390.4 1333.66,-397.16"/>
</g>
<!-- 22 -->
<g id="node23" class="node">
<title>22</title>
<path fill="none" stroke="#56d8b9" stroke-width="2" d="M1250,-324C1250,-324 1198,-324 1198,-324 1192,-324 1186,-318 1186,-312 1186,-312 1186,-300 1186,-300 1186,-294 1192,-288 1198,-288 1198,-288 1250,-288 1250,-288 1256,-288 1262,-294 1262,-300 1262,-300 1262,-312 1262,-312 1262,-318 1256,-324 1250,-324"/>
<text text-anchor="middle" x="1224" y="-303.5" font-family="sans" font-size="10.00">fit_titrations</text>
</g>
<!-- 5&#45;&gt;22 -->
<g id="edge71" class="edge">
<title>5&#45;&gt;22</title>
<path fill="none" stroke="grey" stroke-width="2" d="M1141.34,-431.87C1157.64,-407.24 1187.83,-361.64 1206.87,-332.88"/>
<polygon fill="grey" stroke="grey" stroke-width="2" points="1210.02,-334.46 1212.62,-324.19 1204.18,-330.6 1210.02,-334.46"/>
</g>
<!-- 23 -->
<g id="node24" class="node">
<title>23</title>
<path fill="none" stroke="#a7d856" stroke-width="2" d="M1545.5,-324C1545.5,-324 1450.5,-324 1450.5,-324 1444.5,-324 1438.5,-318 1438.5,-312 1438.5,-312 1438.5,-300 1438.5,-300 1438.5,-294 1444.5,-288 1450.5,-288 1450.5,-288 1545.5,-288 1545.5,-288 1551.5,-288 1557.5,-294 1557.5,-300 1557.5,-300 1557.5,-312 1557.5,-312 1557.5,-318 1551.5,-324 1545.5,-324"/>
<text text-anchor="middle" x="1498" y="-303.5" font-family="sans" font-size="10.00">calculate_expression</text>
</g>
<!-- 5&#45;&gt;23 -->
<g id="edge76" class="edge">
<title>5&#45;&gt;23</title>
<path fill="none" stroke="grey" stroke-width="2" d="M1157.79,-431.87C1190.54,-412.27 1247.11,-380.28 1299,-360 1311.34,-355.18 1376.08,-338.18 1428.42,-324.71"/>
<polygon fill="grey" stroke="grey" stroke-width="2" points="1429.55,-328.04 1438.37,-322.16 1427.81,-321.26 1429.55,-328.04"/>
</g>
<!-- 6 -->
<g id="node7" class="node">
<title>6</title>
<path fill="none" stroke="#56b1d8" stroke-width="2" d="M1319.5,-540C1319.5,-540 1120.5,-540 1120.5,-540 1114.5,-540 1108.5,-534 1108.5,-528 1108.5,-528 1108.5,-516 1108.5,-516 1108.5,-510 1114.5,-504 1120.5,-504 1120.5,-504 1319.5,-504 1319.5,-504 1325.5,-504 1331.5,-510 1331.5,-516 1331.5,-516 1331.5,-528 1331.5,-528 1331.5,-534 1325.5,-540 1319.5,-540"/>
<text text-anchor="middle" x="1220" y="-525" font-family="sans" font-size="10.00">get_ccs</text>
<text text-anchor="middle" x="1220" y="-514" font-family="sans" font-size="10.00">pacbioRun: pool1_Wuhan_Hu_1_210701_A</text>
</g>
<!-- 6&#45;&gt;5 -->
<g id="edge19" class="edge">
<title>6&#45;&gt;5</title>
<path fill="none" stroke="grey" stroke-width="2" d="M1197.75,-503.7C1186.42,-494.88 1172.47,-484.03 1160.18,-474.47"/>
<polygon fill="grey" stroke="grey" stroke-width="2" points="1162.03,-471.48 1151.99,-468.1 1157.74,-477.01 1162.03,-471.48"/>
</g>
<!-- 18 -->
<g id="node19" class="node">
<title>18</title>
<path fill="none" stroke="#d89c56" stroke-width="2" d="M1319.5,-468C1319.5,-468 1232.5,-468 1232.5,-468 1226.5,-468 1220.5,-462 1220.5,-456 1220.5,-456 1220.5,-444 1220.5,-444 1220.5,-438 1226.5,-432 1232.5,-432 1232.5,-432 1319.5,-432 1319.5,-432 1325.5,-432 1331.5,-438 1331.5,-444 1331.5,-444 1331.5,-456 1331.5,-456 1331.5,-462 1325.5,-468 1319.5,-468"/>
<text text-anchor="middle" x="1276" y="-447.5" font-family="sans" font-size="10.00">process_ccs_E484K</text>
</g>
<!-- 6&#45;&gt;18 -->
<g id="edge31" class="edge">
<title>6&#45;&gt;18</title>
<path fill="none" stroke="grey" stroke-width="2" d="M1233.84,-503.7C1240.49,-495.39 1248.58,-485.28 1255.89,-476.14"/>
<polygon fill="grey" stroke="grey" stroke-width="2" points="1258.8,-478.1 1262.32,-468.1 1253.34,-473.73 1258.8,-478.1"/>
</g>
<!-- 19 -->
<g id="node20" class="node">
<title>19</title>
<path fill="none" stroke="#d8b456" stroke-width="2" d="M1579,-468C1579,-468 1491,-468 1491,-468 1485,-468 1479,-462 1479,-456 1479,-456 1479,-444 1479,-444 1479,-438 1485,-432 1491,-432 1491,-432 1579,-432 1579,-432 1585,-432 1591,-438 1591,-444 1591,-444 1591,-456 1591,-456 1591,-462 1585,-468 1579,-468"/>
<text text-anchor="middle" x="1535" y="-447.5" font-family="sans" font-size="10.00">process_ccs_N501Y</text>
</g>
<!-- 6&#45;&gt;19 -->
<g id="edge43" class="edge">
<title>6&#45;&gt;19</title>
<path fill="none" stroke="grey" stroke-width="2" d="M1305.27,-503.96C1351.15,-494.54 1408.91,-482.3 1468.67,-468.26"/>
<polygon fill="grey" stroke="grey" stroke-width="2" points="1469.74,-471.61 1478.67,-465.91 1468.13,-464.8 1469.74,-471.61"/>
</g>
<!-- 20 -->
<g id="node21" class="node">
<title>20</title>
<path fill="none" stroke="#569ad8" stroke-width="2" d="M1448.5,-468C1448.5,-468 1361.5,-468 1361.5,-468 1355.5,-468 1349.5,-462 1349.5,-456 1349.5,-456 1349.5,-444 1349.5,-444 1349.5,-438 1355.5,-432 1361.5,-432 1361.5,-432 1448.5,-432 1448.5,-432 1454.5,-432 1460.5,-438 1460.5,-444 1460.5,-444 1460.5,-456 1460.5,-456 1460.5,-462 1454.5,-468 1448.5,-468"/>
<text text-anchor="middle" x="1405" y="-447.5" font-family="sans" font-size="10.00">process_ccs_B1351</text>
</g>
<!-- 6&#45;&gt;20 -->
<g id="edge55" class="edge">
<title>6&#45;&gt;20</title>
<path fill="none" stroke="grey" stroke-width="2" d="M1265.26,-503.88C1291,-494.14 1323.41,-481.87 1350.54,-471.61"/>
<polygon fill="grey" stroke="grey" stroke-width="2" points="1351.78,-474.88 1359.89,-468.07 1349.3,-468.33 1351.78,-474.88"/>
</g>
<!-- 7 -->
<g id="node8" class="node">
<title>7</title>
<path fill="none" stroke="#56b1d8" stroke-width="2" d="M1560.5,-540C1560.5,-540 1361.5,-540 1361.5,-540 1355.5,-540 1349.5,-534 1349.5,-528 1349.5,-528 1349.5,-516 1349.5,-516 1349.5,-510 1355.5,-504 1361.5,-504 1361.5,-504 1560.5,-504 1560.5,-504 1566.5,-504 1572.5,-510 1572.5,-516 1572.5,-516 1572.5,-528 1572.5,-528 1572.5,-534 1566.5,-540 1560.5,-540"/>
<text text-anchor="middle" x="1461" y="-525" font-family="sans" font-size="10.00">get_ccs</text>
<text text-anchor="middle" x="1461" y="-514" font-family="sans" font-size="10.00">pacbioRun: pool2_Wuhan_Hu_1_210701_A</text>
</g>
<!-- 7&#45;&gt;5 -->
<g id="edge20" class="edge">
<title>7&#45;&gt;5</title>
<path fill="none" stroke="grey" stroke-width="2" d="M1380.45,-503.97C1329.41,-493.17 1263.58,-479.25 1212.22,-468.39"/>
<polygon fill="grey" stroke="grey" stroke-width="2" points="1212.66,-464.9 1202.15,-466.26 1211.21,-471.75 1212.66,-464.9"/>
</g>
<!-- 7&#45;&gt;18 -->
<g id="edge32" class="edge">
<title>7&#45;&gt;18</title>
<path fill="none" stroke="grey" stroke-width="2" d="M1415.74,-503.88C1390,-494.14 1357.59,-481.87 1330.46,-471.61"/>
<polygon fill="grey" stroke="grey" stroke-width="2" points="1331.7,-468.33 1321.11,-468.07 1329.22,-474.88 1331.7,-468.33"/>
</g>
<!-- 7&#45;&gt;19 -->
<g id="edge44" class="edge">
<title>7&#45;&gt;19</title>
<path fill="none" stroke="grey" stroke-width="2" d="M1479.29,-503.7C1488.43,-495.05 1499.64,-484.45 1509.6,-475.03"/>
<polygon fill="grey" stroke="grey" stroke-width="2" points="1512.06,-477.52 1516.92,-468.1 1507.25,-472.43 1512.06,-477.52"/>
</g>
<!-- 7&#45;&gt;20 -->
<g id="edge56" class="edge">
<title>7&#45;&gt;20</title>
<path fill="none" stroke="grey" stroke-width="2" d="M1447.16,-503.7C1440.51,-495.39 1432.42,-485.28 1425.11,-476.14"/>
<polygon fill="grey" stroke="grey" stroke-width="2" points="1427.66,-473.73 1418.68,-468.1 1422.2,-478.1 1427.66,-473.73"/>
</g>
<!-- 8 -->
<g id="node9" class="node">
<title>8</title>
<path fill="none" stroke="#56b1d8" stroke-width="2" d="M1769,-540C1769,-540 1603,-540 1603,-540 1597,-540 1591,-534 1591,-528 1591,-528 1591,-516 1591,-516 1591,-510 1597,-504 1603,-504 1603,-504 1769,-504 1769,-504 1775,-504 1781,-510 1781,-516 1781,-516 1781,-528 1781,-528 1781,-534 1775,-540 1769,-540"/>
<text text-anchor="middle" x="1686" y="-525" font-family="sans" font-size="10.00">get_ccs</text>
<text text-anchor="middle" x="1686" y="-514" font-family="sans" font-size="10.00">pacbioRun: pool1_E484K_210701_A</text>
</g>
<!-- 8&#45;&gt;5 -->
<g id="edge21" class="edge">
<title>8&#45;&gt;5</title>
<path fill="none" stroke="grey" stroke-width="2" d="M1590.82,-505.19C1587.85,-504.78 1584.9,-504.38 1582,-504 1421.36,-483.08 1377.07,-492.42 1212.35,-467.94"/>
<polygon fill="grey" stroke="grey" stroke-width="2" points="1212.77,-464.47 1202.36,-466.44 1211.73,-471.39 1212.77,-464.47"/>
</g>
<!-- 8&#45;&gt;18 -->
<g id="edge33" class="edge">
<title>8&#45;&gt;18</title>
<path fill="none" stroke="grey" stroke-width="2" d="M1590.79,-505.38C1587.83,-504.91 1584.89,-504.45 1582,-504 1478.14,-487.75 1448.8,-489.6 1341.51,-467.98"/>
<polygon fill="grey" stroke="grey" stroke-width="2" points="1342.07,-464.52 1331.58,-465.96 1340.68,-471.38 1342.07,-464.52"/>
</g>
<!-- 8&#45;&gt;19 -->
<g id="edge45" class="edge">
<title>8&#45;&gt;19</title>
<path fill="none" stroke="grey" stroke-width="2" d="M1649.06,-503.88C1628.51,-494.35 1602.75,-482.41 1580.91,-472.28"/>
<polygon fill="grey" stroke="grey" stroke-width="2" points="1582.36,-469.1 1571.82,-468.07 1579.42,-475.45 1582.36,-469.1"/>
</g>
<!-- 8&#45;&gt;20 -->
<g id="edge57" class="edge">
<title>8&#45;&gt;20</title>
<path fill="none" stroke="grey" stroke-width="2" d="M1615.4,-503.96C1575.57,-494.28 1524.63,-481.79 1470.45,-468.1"/>
<polygon fill="grey" stroke="grey" stroke-width="2" points="1471.21,-464.68 1460.65,-465.62 1469.49,-471.46 1471.21,-464.68"/>
</g>
<!-- 9 -->
<g id="node10" class="node">
<title>9</title>
<path fill="none" stroke="#56b1d8" stroke-width="2" d="M1977,-540C1977,-540 1811,-540 1811,-540 1805,-540 1799,-534 1799,-528 1799,-528 1799,-516 1799,-516 1799,-510 1805,-504 1811,-504 1811,-504 1977,-504 1977,-504 1983,-504 1989,-510 1989,-516 1989,-516 1989,-528 1989,-528 1989,-534 1983,-540 1977,-540"/>
<text text-anchor="middle" x="1894" y="-525" font-family="sans" font-size="10.00">get_ccs</text>
<text text-anchor="middle" x="1894" y="-514" font-family="sans" font-size="10.00">pacbioRun: pool2_E484K_210701_A</text>
</g>
<!-- 9&#45;&gt;5 -->
<g id="edge22" class="edge">
<title>9&#45;&gt;5</title>
<path fill="none" stroke="grey" stroke-width="2" d="M1798.84,-505.05C1795.86,-504.68 1792.91,-504.33 1790,-504 1537.48,-475.57 1468.84,-501.53 1212.33,-467.91"/>
<polygon fill="grey" stroke="grey" stroke-width="2" points="1212.72,-464.43 1202.34,-466.58 1211.79,-471.37 1212.72,-464.43"/>
</g>
<!-- 9&#45;&gt;18 -->
<g id="edge34" class="edge">
<title>9&#45;&gt;18</title>
<path fill="none" stroke="grey" stroke-width="2" d="M1798.83,-505.12C1795.85,-504.73 1792.91,-504.35 1790,-504 1594.47,-480.22 1540.12,-500.77 1341.41,-467.87"/>
<polygon fill="grey" stroke="grey" stroke-width="2" points="1341.97,-464.41 1331.53,-466.21 1340.81,-471.32 1341.97,-464.41"/>
</g>
<!-- 9&#45;&gt;19 -->
<g id="edge46" class="edge">
<title>9&#45;&gt;19</title>
<path fill="none" stroke="grey" stroke-width="2" d="M1806.64,-503.97C1743.3,-491.62 1658.96,-475.17 1601.16,-463.9"/>
<polygon fill="grey" stroke="grey" stroke-width="2" points="1601.53,-460.41 1591.04,-461.93 1600.19,-467.28 1601.53,-460.41"/>
</g>
<!-- 9&#45;&gt;20 -->
<g id="edge58" class="edge">
<title>9&#45;&gt;20</title>
<path fill="none" stroke="grey" stroke-width="2" d="M1798.81,-505.25C1795.84,-504.82 1792.9,-504.4 1790,-504 1651.41,-484.89 1612.44,-493.75 1470.5,-467.93"/>
<polygon fill="grey" stroke="grey" stroke-width="2" points="1471.02,-464.46 1460.55,-466.09 1469.75,-471.35 1471.02,-464.46"/>
</g>
<!-- 10 -->
<g id="node11" class="node">
<title>10</title>
<path fill="none" stroke="#56b1d8" stroke-width="2" d="M2186.5,-540C2186.5,-540 2019.5,-540 2019.5,-540 2013.5,-540 2007.5,-534 2007.5,-528 2007.5,-528 2007.5,-516 2007.5,-516 2007.5,-510 2013.5,-504 2019.5,-504 2019.5,-504 2186.5,-504 2186.5,-504 2192.5,-504 2198.5,-510 2198.5,-516 2198.5,-516 2198.5,-528 2198.5,-528 2198.5,-534 2192.5,-540 2186.5,-540"/>
<text text-anchor="middle" x="2103" y="-525" font-family="sans" font-size="10.00">get_ccs</text>
<text text-anchor="middle" x="2103" y="-514" font-family="sans" font-size="10.00">pacbioRun: pool1_N501Y_210701_A</text>
</g>
<!-- 10&#45;&gt;5 -->
<g id="edge23" class="edge">
<title>10&#45;&gt;5</title>
<path fill="none" stroke="grey" stroke-width="2" d="M2007.49,-505.06C2004.29,-504.68 2001.12,-504.32 1998,-504 1653.47,-468.34 1560.73,-510.81 1212.45,-467.91"/>
<polygon fill="grey" stroke="grey" stroke-width="2" points="1212.69,-464.41 1202.33,-466.64 1211.82,-471.35 1212.69,-464.41"/>
</g>
<!-- 10&#45;&gt;18 -->
<g id="edge35" class="edge">
<title>10&#45;&gt;18</title>
<path fill="none" stroke="grey" stroke-width="2" d="M2007.49,-505.1C2004.29,-504.7 2001.12,-504.34 1998,-504 1710.52,-472.94 1631.68,-512.32 1341.48,-467.85"/>
<polygon fill="grey" stroke="grey" stroke-width="2" points="1341.93,-464.38 1331.51,-466.3 1340.86,-471.3 1341.93,-464.38"/>
</g>
<!-- 10&#45;&gt;19 -->
<g id="edge47" class="edge">
<title>10&#45;&gt;19</title>
<path fill="none" stroke="grey" stroke-width="2" d="M2007.46,-505.34C2004.27,-504.88 2001.11,-504.43 1998,-504 1856.97,-484.52 1691.06,-466.78 1601.11,-457.59"/>
<polygon fill="grey" stroke="grey" stroke-width="2" points="1601.36,-454.1 1591.05,-456.57 1600.65,-461.06 1601.36,-454.1"/>
</g>
<!-- 10&#45;&gt;20 -->
<g id="edge59" class="edge">
<title>10&#45;&gt;20</title>
<path fill="none" stroke="grey" stroke-width="2" d="M2007.48,-505.15C2004.29,-504.74 2001.12,-504.36 1998,-504 1767.63,-477.56 1703.93,-505.12 1470.68,-467.9"/>
<polygon fill="grey" stroke="grey" stroke-width="2" points="1470.95,-464.4 1460.52,-466.25 1469.83,-471.31 1470.95,-464.4"/>
</g>
<!-- 11 -->
<g id="node12" class="node">
<title>11</title>
<path fill="none" stroke="#56b1d8" stroke-width="2" d="M2395.5,-540C2395.5,-540 2228.5,-540 2228.5,-540 2222.5,-540 2216.5,-534 2216.5,-528 2216.5,-528 2216.5,-516 2216.5,-516 2216.5,-510 2222.5,-504 2228.5,-504 2228.5,-504 2395.5,-504 2395.5,-504 2401.5,-504 2407.5,-510 2407.5,-516 2407.5,-516 2407.5,-528 2407.5,-528 2407.5,-534 2401.5,-540 2395.5,-540"/>
<text text-anchor="middle" x="2312" y="-525" font-family="sans" font-size="10.00">get_ccs</text>
<text text-anchor="middle" x="2312" y="-514" font-family="sans" font-size="10.00">pacbioRun: pool2_N501Y_210701_A</text>
</g>
<!-- 11&#45;&gt;5 -->
<g id="edge24" class="edge">
<title>11&#45;&gt;5</title>
<path fill="none" stroke="grey" stroke-width="2" d="M2216.29,-504.89C2213.5,-504.57 2210.73,-504.27 2208,-504 1770.55,-460.52 1653.52,-520.23 1212.48,-467.9"/>
<polygon fill="grey" stroke="grey" stroke-width="2" points="1212.67,-464.4 1202.33,-466.68 1211.84,-471.35 1212.67,-464.4"/>
</g>
<!-- 11&#45;&gt;18 -->
<g id="edge36" class="edge">
<title>11&#45;&gt;18</title>
<path fill="none" stroke="grey" stroke-width="2" d="M2216.29,-504.91C2213.5,-504.58 2210.73,-504.28 2208,-504 1827.61,-465.16 1724.17,-524.1 1341.46,-467.83"/>
<polygon fill="grey" stroke="grey" stroke-width="2" points="1341.91,-464.36 1331.51,-466.35 1340.88,-471.29 1341.91,-464.36"/>
</g>
<!-- 11&#45;&gt;19 -->
<g id="edge48" class="edge">
<title>11&#45;&gt;19</title>
<path fill="none" stroke="grey" stroke-width="2" d="M2216.27,-505.04C2213.49,-504.68 2210.72,-504.33 2208,-504 1986.69,-477.24 1722.72,-460.99 1601.66,-454.4"/>
<polygon fill="grey" stroke="grey" stroke-width="2" points="1601.61,-450.89 1591.44,-453.85 1601.24,-457.88 1601.61,-450.89"/>
</g>
<!-- 11&#45;&gt;20 -->
<g id="edge60" class="edge">
<title>11&#45;&gt;20</title>
<path fill="none" stroke="grey" stroke-width="2" d="M2216.29,-504.94C2213.5,-504.6 2210.73,-504.29 2208,-504 1884.78,-469.81 1796.4,-516.83 1470.71,-467.88"/>
<polygon fill="grey" stroke="grey" stroke-width="2" points="1470.92,-464.37 1460.51,-466.33 1469.87,-471.29 1470.92,-464.37"/>
</g>
<!-- 12 -->
<g id="node13" class="node">
<title>12</title>
<path fill="none" stroke="#56b1d8" stroke-width="2" d="M2604,-540C2604,-540 2438,-540 2438,-540 2432,-540 2426,-534 2426,-528 2426,-528 2426,-516 2426,-516 2426,-510 2432,-504 2438,-504 2438,-504 2604,-504 2604,-504 2610,-504 2616,-510 2616,-516 2616,-516 2616,-528 2616,-528 2616,-534 2610,-540 2604,-540"/>
<text text-anchor="middle" x="2521" y="-525" font-family="sans" font-size="10.00">get_ccs</text>
<text text-anchor="middle" x="2521" y="-514" font-family="sans" font-size="10.00">pacbioRun: pool1_B1351_210701_A</text>
</g>
<!-- 12&#45;&gt;5 -->
<g id="edge25" class="edge">
<title>12&#45;&gt;5</title>
<path fill="none" stroke="grey" stroke-width="2" d="M2425.85,-504.93C2422.87,-504.59 2419.91,-504.28 2417,-504 1887.06,-453 1745.91,-529.64 1212.59,-467.91"/>
<polygon fill="grey" stroke="grey" stroke-width="2" points="1212.66,-464.39 1202.33,-466.71 1211.85,-471.35 1212.66,-464.39"/>
</g>
<!-- 12&#45;&gt;18 -->
<g id="edge37" class="edge">
<title>12&#45;&gt;18</title>
<path fill="none" stroke="grey" stroke-width="2" d="M2425.85,-504.94C2422.87,-504.6 2419.91,-504.29 2417,-504 1944.17,-457.64 1816.3,-535.84 1341.71,-467.86"/>
<polygon fill="grey" stroke="grey" stroke-width="2" points="1341.9,-464.35 1331.5,-466.38 1340.9,-471.28 1341.9,-464.35"/>
</g>
<!-- 12&#45;&gt;19 -->
<g id="edge49" class="edge">
<title>12&#45;&gt;19</title>
<path fill="none" stroke="grey" stroke-width="2" d="M2425.84,-505.05C2422.86,-504.67 2419.91,-504.32 2417,-504 2113.46,-470.16 1748.58,-456.9 1601.37,-452.68"/>
<polygon fill="grey" stroke="grey" stroke-width="2" points="1601.24,-449.17 1591.15,-452.39 1601.05,-456.17 1601.24,-449.17"/>
</g>
<!-- 12&#45;&gt;20 -->
<g id="edge61" class="edge">
<title>12&#45;&gt;20</title>
<path fill="none" stroke="grey" stroke-width="2" d="M2425.85,-504.96C2422.87,-504.61 2419.91,-504.29 2417,-504 2001.19,-462.27 1888.41,-528.6 1470.44,-467.83"/>
<polygon fill="grey" stroke="grey" stroke-width="2" points="1470.91,-464.36 1460.5,-466.37 1469.89,-471.28 1470.91,-464.36"/>
</g>
<!-- 13 -->
<g id="node14" class="node">
<title>13</title>
<path fill="none" stroke="#56b1d8" stroke-width="2" d="M178,-540C178,-540 12,-540 12,-540 6,-540 0,-534 0,-528 0,-528 0,-516 0,-516 0,-510 6,-504 12,-504 12,-504 178,-504 178,-504 184,-504 190,-510 190,-516 190,-516 190,-528 190,-528 190,-534 184,-540 178,-540"/>
<text text-anchor="middle" x="95" y="-525" font-family="sans" font-size="10.00">get_ccs</text>
<text text-anchor="middle" x="95" y="-514" font-family="sans" font-size="10.00">pacbioRun: pool2_B1351_210701_A</text>
</g>
<!-- 13&#45;&gt;5 -->
<g id="edge26" class="edge">
<title>13&#45;&gt;5</title>
<path fill="none" stroke="grey" stroke-width="2" d="M190.16,-505.03C193.14,-504.67 196.09,-504.32 199,-504 511.18,-469.7 884.84,-456.95 1047.54,-452.78"/>
<polygon fill="grey" stroke="grey" stroke-width="2" points="1048.04,-456.27 1057.95,-452.52 1047.86,-449.28 1048.04,-456.27"/>
</g>
<!-- 13&#45;&gt;18 -->
<g id="edge38" class="edge">
<title>13&#45;&gt;18</title>
<path fill="none" stroke="grey" stroke-width="2" d="M190.15,-504.95C193.13,-504.61 196.09,-504.29 199,-504 643.59,-459.93 763.95,-532.26 1210.56,-467.82"/>
<polygon fill="grey" stroke="grey" stroke-width="2" points="1211.11,-471.28 1220.5,-466.38 1210.1,-464.35 1211.11,-471.28"/>
</g>
<!-- 13&#45;&gt;19 -->
<g id="edge50" class="edge">
<title>13&#45;&gt;19</title>
<path fill="none" stroke="grey" stroke-width="2" d="M190.15,-504.92C193.13,-504.59 196.09,-504.28 199,-504 758.26,-450.61 908.82,-546.87 1468.84,-467.95"/>
<polygon fill="grey" stroke="grey" stroke-width="2" points="1469.38,-471.41 1478.79,-466.54 1468.4,-464.48 1469.38,-471.41"/>
</g>
<!-- 13&#45;&gt;20 -->
<g id="edge62" class="edge">
<title>13&#45;&gt;20</title>
<path fill="none" stroke="grey" stroke-width="2" d="M190.15,-504.94C193.13,-504.6 196.09,-504.28 199,-504 701.1,-455.26 836.78,-540.52 1339.26,-468.06"/>
<polygon fill="grey" stroke="grey" stroke-width="2" points="1339.92,-471.5 1349.31,-466.59 1338.91,-464.57 1339.92,-471.5"/>
</g>
<!-- 14 -->
<g id="node15" class="node">
<title>14</title>
<path fill="none" stroke="#56b1d8" stroke-width="2" d="M419.5,-540C419.5,-540 220.5,-540 220.5,-540 214.5,-540 208.5,-534 208.5,-528 208.5,-528 208.5,-516 208.5,-516 208.5,-510 214.5,-504 220.5,-504 220.5,-504 419.5,-504 419.5,-504 425.5,-504 431.5,-510 431.5,-516 431.5,-516 431.5,-528 431.5,-528 431.5,-534 425.5,-540 419.5,-540"/>
<text text-anchor="middle" x="320" y="-525" font-family="sans" font-size="10.00">get_ccs</text>
<text text-anchor="middle" x="320" y="-514" font-family="sans" font-size="10.00">pacbioRun: pool1_Wuhan_Hu_1_211118_A</text>
</g>
<!-- 14&#45;&gt;5 -->
<g id="edge27" class="edge">
<title>14&#45;&gt;5</title>
<path fill="none" stroke="grey" stroke-width="2" d="M431.75,-504.93C434.53,-504.61 437.28,-504.3 440,-504 658.91,-480.11 918.05,-463.26 1047.6,-455.62"/>
<polygon fill="grey" stroke="grey" stroke-width="2" points="1048.06,-459.1 1057.84,-455.02 1047.65,-452.11 1048.06,-459.1"/>
</g>
<!-- 14&#45;&gt;18 -->
<g id="edge39" class="edge">
<title>14&#45;&gt;18</title>
<path fill="none" stroke="grey" stroke-width="2" d="M431.74,-504.82C434.52,-504.53 437.28,-504.26 440,-504 778.28,-472.21 870.13,-518.78 1210.6,-467.83"/>
<polygon fill="grey" stroke="grey" stroke-width="2" points="1211.13,-471.29 1220.49,-466.33 1210.08,-464.37 1211.13,-471.29"/>
</g>
<!-- 14&#45;&gt;19 -->
<g id="edge51" class="edge">
<title>14&#45;&gt;19</title>
<path fill="none" stroke="grey" stroke-width="2" d="M431.74,-504.78C434.52,-504.5 437.28,-504.24 440,-504 892.95,-464.11 1014.99,-533.33 1468.69,-467.98"/>
<polygon fill="grey" stroke="grey" stroke-width="2" points="1469.39,-471.42 1478.79,-466.51 1468.39,-464.49 1469.39,-471.42"/>
</g>
<!-- 14&#45;&gt;20 -->
<g id="edge63" class="edge">
<title>14&#45;&gt;20</title>
<path fill="none" stroke="grey" stroke-width="2" d="M431.74,-504.79C434.52,-504.51 437.28,-504.25 440,-504 835.82,-468.15 942.95,-526.81 1339.29,-468.07"/>
<polygon fill="grey" stroke="grey" stroke-width="2" points="1339.93,-471.51 1349.3,-466.57 1338.9,-464.59 1339.93,-471.51"/>
</g>
<!-- 15 -->
<g id="node16" class="node">
<title>15</title>
<path fill="none" stroke="#56b1d8" stroke-width="2" d="M660.5,-540C660.5,-540 461.5,-540 461.5,-540 455.5,-540 449.5,-534 449.5,-528 449.5,-528 449.5,-516 449.5,-516 449.5,-510 455.5,-504 461.5,-504 461.5,-504 660.5,-504 660.5,-504 666.5,-504 672.5,-510 672.5,-516 672.5,-516 672.5,-528 672.5,-528 672.5,-534 666.5,-540 660.5,-540"/>
<text text-anchor="middle" x="561" y="-525" font-family="sans" font-size="10.00">get_ccs</text>
<text text-anchor="middle" x="561" y="-514" font-family="sans" font-size="10.00">pacbioRun: pool1_Wuhan_Hu_1_211118_B</text>
</g>
<!-- 15&#45;&gt;5 -->
<g id="edge28" class="edge">
<title>15&#45;&gt;5</title>
<path fill="none" stroke="grey" stroke-width="2" d="M672.77,-505.08C675.54,-504.71 678.29,-504.35 681,-504 808.79,-487.41 957.34,-470.3 1047.46,-460.16"/>
<polygon fill="grey" stroke="grey" stroke-width="2" points="1048.07,-463.62 1057.61,-459.02 1047.29,-456.66 1048.07,-463.62"/>
</g>
<!-- 15&#45;&gt;18 -->
<g id="edge40" class="edge">
<title>15&#45;&gt;18</title>
<path fill="none" stroke="grey" stroke-width="2" d="M672.75,-504.9C675.53,-504.58 678.28,-504.28 681,-504 912.49,-479.77 976.19,-505.29 1210.28,-467.9"/>
<polygon fill="grey" stroke="grey" stroke-width="2" points="1211.17,-471.31 1220.48,-466.25 1210.05,-464.4 1211.17,-471.31"/>
</g>
<!-- 15&#45;&gt;19 -->
<g id="edge52" class="edge">
<title>15&#45;&gt;19</title>
<path fill="none" stroke="grey" stroke-width="2" d="M672.74,-504.81C675.52,-504.53 678.28,-504.25 681,-504 1027.18,-471.66 1121.16,-519.77 1468.69,-468"/>
<polygon fill="grey" stroke="grey" stroke-width="2" points="1469.41,-471.43 1478.78,-466.48 1468.37,-464.51 1469.41,-471.43"/>
</g>
<!-- 15&#45;&gt;20 -->
<g id="edge64" class="edge">
<title>15&#45;&gt;20</title>
<path fill="none" stroke="grey" stroke-width="2" d="M672.74,-504.85C675.52,-504.55 678.28,-504.27 681,-504 970.09,-475.69 1049.08,-513.09 1339.32,-468.08"/>
<polygon fill="grey" stroke="grey" stroke-width="2" points="1339.96,-471.53 1349.3,-466.52 1338.87,-464.61 1339.96,-471.53"/>
</g>
<!-- 16 -->
<g id="node17" class="node">
<title>16</title>
<path fill="none" stroke="#56b1d8" stroke-width="2" d="M869.5,-540C869.5,-540 702.5,-540 702.5,-540 696.5,-540 690.5,-534 690.5,-528 690.5,-528 690.5,-516 690.5,-516 690.5,-510 696.5,-504 702.5,-504 702.5,-504 869.5,-504 869.5,-504 875.5,-504 881.5,-510 881.5,-516 881.5,-516 881.5,-528 881.5,-528 881.5,-534 875.5,-540 869.5,-540"/>
<text text-anchor="middle" x="786" y="-525" font-family="sans" font-size="10.00">get_ccs</text>
<text text-anchor="middle" x="786" y="-514" font-family="sans" font-size="10.00">pacbioRun: pool1_N501Y_211118_A</text>
</g>
<!-- 16&#45;&gt;5 -->
<g id="edge29" class="edge">
<title>16&#45;&gt;5</title>
<path fill="none" stroke="grey" stroke-width="2" d="M869.71,-503.97C923.91,-492.94 994.16,-478.64 1048.02,-467.68"/>
<polygon fill="grey" stroke="grey" stroke-width="2" points="1048.77,-471.1 1057.88,-465.68 1047.38,-464.24 1048.77,-471.1"/>
</g>
<!-- 16&#45;&gt;18 -->
<g id="edge41" class="edge">
<title>16&#45;&gt;18</title>
<path fill="none" stroke="grey" stroke-width="2" d="M881.74,-505.16C884.52,-504.76 887.28,-504.37 890,-504 1029.02,-484.85 1068.11,-493.8 1210.47,-467.93"/>
<polygon fill="grey" stroke="grey" stroke-width="2" points="1211.25,-471.35 1220.45,-466.09 1209.98,-464.46 1211.25,-471.35"/>
</g>
<!-- 16&#45;&gt;19 -->
<g id="edge53" class="edge">
<title>16&#45;&gt;19</title>
<path fill="none" stroke="grey" stroke-width="2" d="M881.72,-504.98C884.51,-504.64 887.27,-504.31 890,-504 1143.4,-475.5 1213.21,-508.02 1468.82,-468"/>
<polygon fill="grey" stroke="grey" stroke-width="2" points="1469.44,-471.44 1478.77,-466.42 1468.35,-464.53 1469.44,-471.44"/>
</g>
<!-- 16&#45;&gt;20 -->
<g id="edge65" class="edge">
<title>16&#45;&gt;20</title>
<path fill="none" stroke="grey" stroke-width="2" d="M881.73,-505.05C884.51,-504.68 887.28,-504.33 890,-504 1086.4,-480.15 1141.05,-501.25 1339.42,-468.1"/>
<polygon fill="grey" stroke="grey" stroke-width="2" points="1340.01,-471.55 1349.28,-466.43 1338.84,-464.65 1340.01,-471.55"/>
</g>
<!-- 17 -->
<g id="node18" class="node">
<title>17</title>
<path fill="none" stroke="#56b1d8" stroke-width="2" d="M1078.5,-540C1078.5,-540 911.5,-540 911.5,-540 905.5,-540 899.5,-534 899.5,-528 899.5,-528 899.5,-516 899.5,-516 899.5,-510 905.5,-504 911.5,-504 911.5,-504 1078.5,-504 1078.5,-504 1084.5,-504 1090.5,-510 1090.5,-516 1090.5,-516 1090.5,-528 1090.5,-528 1090.5,-534 1084.5,-540 1078.5,-540"/>
<text text-anchor="middle" x="995" y="-525" font-family="sans" font-size="10.00">get_ccs</text>
<text text-anchor="middle" x="995" y="-514" font-family="sans" font-size="10.00">pacbioRun: pool1_N501Y_211118_B</text>
</g>
<!-- 17&#45;&gt;5 -->
<g id="edge30" class="edge">
<title>17&#45;&gt;5</title>
<path fill="none" stroke="grey" stroke-width="2" d="M1028.02,-503.88C1046.08,-494.51 1068.65,-482.81 1087.95,-472.8"/>
<polygon fill="grey" stroke="grey" stroke-width="2" points="1089.58,-475.9 1096.85,-468.19 1086.36,-469.69 1089.58,-475.9"/>
</g>
<!-- 17&#45;&gt;18 -->
<g id="edge42" class="edge">
<title>17&#45;&gt;18</title>
<path fill="none" stroke="grey" stroke-width="2" d="M1065.6,-503.96C1105.43,-494.28 1156.37,-481.79 1210.55,-468.1"/>
<polygon fill="grey" stroke="grey" stroke-width="2" points="1211.51,-471.46 1220.35,-465.62 1209.79,-464.68 1211.51,-471.46"/>
</g>
<!-- 17&#45;&gt;19 -->
<g id="edge54" class="edge">
<title>17&#45;&gt;19</title>
<path fill="none" stroke="grey" stroke-width="2" d="M1090.53,-505.27C1093.72,-504.83 1096.89,-504.4 1100,-504 1260.65,-483.2 1305.6,-496.45 1468.85,-468.04"/>
<polygon fill="grey" stroke="grey" stroke-width="2" points="1469.51,-471.48 1478.75,-466.3 1468.29,-464.59 1469.51,-471.48"/>
</g>
<!-- 17&#45;&gt;20 -->
<g id="edge66" class="edge">
<title>17&#45;&gt;20</title>
<path fill="none" stroke="grey" stroke-width="2" d="M1090.56,-505.48C1093.75,-504.98 1096.9,-504.48 1100,-504 1203.88,-487.83 1233.24,-489.8 1339.41,-468.22"/>
<polygon fill="grey" stroke="grey" stroke-width="2" points="1340.15,-471.64 1349.24,-466.2 1338.74,-464.79 1340.15,-471.64"/>
</g>
<!-- 18&#45;&gt;0 -->
<g id="edge6" class="edge">
<title>18&#45;&gt;0</title>
<path fill="none" stroke="grey" stroke-width="2" d="M1220.1,-431.97C1166.28,-411.71 1093,-372.15 1093,-307 1093,-307 1093,-307 1093,-161 1093,-108.7 1124.51,-97.82 1170,-72 1210.47,-49.03 1337.06,-32.6 1412.24,-24.57"/>
<polygon fill="grey" stroke="grey" stroke-width="2" points="1412.92,-28.01 1422.5,-23.49 1412.19,-21.05 1412.92,-28.01"/>
</g>
<!-- 18&#45;&gt;21 -->
<g id="edge68" class="edge">
<title>18&#45;&gt;21</title>
<path fill="none" stroke="grey" stroke-width="2" d="M1303.15,-431.88C1317.53,-422.81 1335.38,-411.55 1350.91,-401.76"/>
<polygon fill="grey" stroke="grey" stroke-width="2" points="1353.15,-404.48 1359.74,-396.19 1349.42,-398.56 1353.15,-404.48"/>
</g>
<!-- 18&#45;&gt;22 -->
<g id="edge72" class="edge">
<title>18&#45;&gt;22</title>
<path fill="none" stroke="grey" stroke-width="2" d="M1269.73,-431.87C1260.79,-407.46 1244.3,-362.43 1233.75,-333.64"/>
<polygon fill="grey" stroke="grey" stroke-width="2" points="1237.02,-332.38 1230.29,-324.19 1230.45,-334.78 1237.02,-332.38"/>
</g>
<!-- 18&#45;&gt;23 -->
<g id="edge77" class="edge">
<title>18&#45;&gt;23</title>
<path fill="none" stroke="grey" stroke-width="2" d="M1282.96,-431.71C1291.9,-411.66 1309.24,-378.93 1334,-360 1349.33,-348.28 1390.84,-334.91 1428.26,-324.54"/>
<polygon fill="grey" stroke="grey" stroke-width="2" points="1429.44,-327.84 1438.17,-321.83 1427.6,-321.09 1429.44,-327.84"/>
</g>
<!-- 19&#45;&gt;0 -->
<g id="edge7" class="edge">
<title>19&#45;&gt;0</title>
<path fill="none" stroke="grey" stroke-width="2" d="M1591.37,-449.74C1696.56,-449.95 1917.13,-444.4 1973,-396 2003.96,-369.17 1997,-347.97 1997,-307 1997,-307 1997,-307 1997,-161 1997,-120.03 2004.17,-98.59 1973,-72 1939.7,-43.59 1653.12,-27.29 1528.02,-21.46"/>
<polygon fill="grey" stroke="grey" stroke-width="2" points="1528.01,-17.96 1517.86,-21 1527.69,-24.95 1528.01,-17.96"/>
</g>
<!-- 19&#45;&gt;21 -->
<g id="edge69" class="edge">
<title>19&#45;&gt;21</title>
<path fill="none" stroke="grey" stroke-width="2" d="M1498.8,-431.88C1478.74,-422.39 1453.63,-410.51 1432.29,-400.42"/>
<polygon fill="grey" stroke="grey" stroke-width="2" points="1433.62,-397.18 1423.09,-396.07 1430.63,-403.51 1433.62,-397.18"/>
</g>
<!-- 19&#45;&gt;22 -->
<g id="edge73" class="edge">
<title>19&#45;&gt;22</title>
<path fill="none" stroke="grey" stroke-width="2" d="M1522.05,-431.99C1505.54,-411.57 1475.03,-377.86 1441,-360 1375.42,-325.58 1347.58,-343.55 1272.04,-323.99"/>
<polygon fill="grey" stroke="grey" stroke-width="2" points="1272.64,-320.53 1262.08,-321.27 1270.8,-327.28 1272.64,-320.53"/>
</g>
<!-- 19&#45;&gt;23 -->
<g id="edge78" class="edge">
<title>19&#45;&gt;23</title>
<path fill="none" stroke="grey" stroke-width="2" d="M1530.62,-431.93C1526.01,-414.01 1518.54,-385.01 1512,-360 1509.8,-351.58 1507.39,-342.42 1505.19,-334.12"/>
<polygon fill="grey" stroke="grey" stroke-width="2" points="1508.5,-332.95 1502.56,-324.18 1501.74,-334.74 1508.5,-332.95"/>
</g>
<!-- 20&#45;&gt;0 -->
<g id="edge8" class="edge">
<title>20&#45;&gt;0</title>
<path fill="none" stroke="grey" stroke-width="2" d="M1460.53,-433.78C1463.72,-433.12 1466.89,-432.52 1470,-432 1521.65,-423.34 1900.57,-430.47 1940,-396 1970.45,-369.38 1959,-347.45 1959,-307 1959,-307 1959,-307 1959,-161 1959,-72.13 1657.38,-35.27 1527.91,-23.53"/>
<polygon fill="grey" stroke="grey" stroke-width="2" points="1528.05,-20.03 1517.78,-22.64 1527.43,-27.01 1528.05,-20.03"/>
</g>
<!-- 20&#45;&gt;21 -->
<g id="edge70" class="edge">
<title>20&#45;&gt;21</title>
<path fill="none" stroke="grey" stroke-width="2" d="M1400.55,-431.7C1398.55,-423.9 1396.13,-414.51 1393.9,-405.83"/>
<polygon fill="grey" stroke="grey" stroke-width="2" points="1397.28,-404.92 1391.4,-396.1 1390.5,-406.66 1397.28,-404.92"/>
</g>
<!-- 20&#45;&gt;22 -->
<g id="edge74" class="edge">
<title>20&#45;&gt;22</title>
<path fill="none" stroke="grey" stroke-width="2" d="M1381.48,-431.8C1367.57,-421.54 1349.67,-408.18 1334,-396 1306.14,-374.34 1274.91,-348.97 1252.87,-330.87"/>
<polygon fill="grey" stroke="grey" stroke-width="2" points="1254.84,-327.96 1244.89,-324.31 1250.39,-333.36 1254.84,-327.96"/>
</g>
<!-- 20&#45;&gt;23 -->
<g id="edge79" class="edge">
<title>20&#45;&gt;23</title>
<path fill="none" stroke="grey" stroke-width="2" d="M1416.79,-431.89C1423.88,-421.55 1433.04,-408.07 1441,-396 1454.94,-374.87 1470.41,-350.67 1481.71,-332.84"/>
<polygon fill="grey" stroke="grey" stroke-width="2" points="1484.82,-334.47 1487.21,-324.15 1478.9,-330.73 1484.82,-334.47"/>
</g>
<!-- 21&#45;&gt;0 -->
<g id="edge9" class="edge">
<title>21&#45;&gt;0</title>
<path fill="none" stroke="grey" stroke-width="2" d="M1431.67,-374.21C1510.25,-366.61 1665,-338.51 1665,-235 1665,-235 1665,-235 1665,-161 1665,-117.99 1658.57,-101.2 1627,-72 1599.82,-46.86 1560.3,-33.6 1527.7,-26.64"/>
<polygon fill="grey" stroke="grey" stroke-width="2" points="1528.32,-23.19 1517.83,-24.67 1526.95,-30.06 1528.32,-23.19"/>
</g>
<!-- 21&#45;&gt;22 -->
<g id="edge75" class="edge">
<title>21&#45;&gt;22</title>
<path fill="none" stroke="grey" stroke-width="2" d="M1347.13,-359.88C1324.24,-350.05 1295.38,-337.65 1271.35,-327.33"/>
<polygon fill="grey" stroke="grey" stroke-width="2" points="1272.63,-324.08 1262.06,-323.35 1269.87,-330.51 1272.63,-324.08"/>
</g>
<!-- 21&#45;&gt;23 -->
<g id="edge80" class="edge">
<title>21&#45;&gt;23</title>
<path fill="none" stroke="grey" stroke-width="2" d="M1414.15,-359.88C1428.53,-350.81 1446.38,-339.55 1461.91,-329.76"/>
<polygon fill="grey" stroke="grey" stroke-width="2" points="1464.15,-332.48 1470.74,-324.19 1460.42,-326.56 1464.15,-332.48"/>
</g>
<!-- 22&#45;&gt;0 -->
<g id="edge10" class="edge">
<title>22&#45;&gt;0</title>
<path fill="none" stroke="grey" stroke-width="2" d="M1213.95,-287.73C1190.03,-244.14 1136.05,-129.04 1197,-72 1227.49,-43.46 1341.44,-29.29 1412.12,-23.1"/>
<polygon fill="grey" stroke="grey" stroke-width="2" points="1412.55,-26.58 1422.22,-22.25 1411.96,-19.6 1412.55,-26.58"/>
</g>
<!-- 22&#45;&gt;24 -->
<g id="edge81" class="edge">
<title>22&#45;&gt;24</title>
<path fill="none" stroke="grey" stroke-width="2" d="M1254.82,-287.88C1271.45,-278.64 1292.16,-267.13 1310.02,-257.21"/>
<polygon fill="grey" stroke="grey" stroke-width="2" points="1312.02,-260.11 1319.06,-252.19 1308.62,-253.99 1312.02,-260.11"/>
</g>
<!-- 23&#45;&gt;0 -->
<g id="edge11" class="edge">
<title>23&#45;&gt;0</title>
<path fill="none" stroke="grey" stroke-width="2" d="M1557.74,-288.33C1575.39,-280.32 1592.73,-268.69 1603,-252 1644.93,-183.87 1647.89,-138.22 1603,-72 1586.11,-47.08 1555.42,-33.88 1527.78,-26.88"/>
<polygon fill="grey" stroke="grey" stroke-width="2" points="1528.3,-23.41 1517.77,-24.58 1526.73,-30.23 1528.3,-23.41"/>
</g>
<!-- 23&#45;&gt;24 -->
<g id="edge82" class="edge">
<title>23&#45;&gt;24</title>
<path fill="none" stroke="grey" stroke-width="2" d="M1461.8,-287.88C1441.74,-278.39 1416.63,-266.51 1395.29,-256.42"/>
<polygon fill="grey" stroke="grey" stroke-width="2" points="1396.62,-253.18 1386.09,-252.07 1393.63,-259.51 1396.62,-253.18"/>
</g>
<!-- 24&#45;&gt;0 -->
<g id="edge12" class="edge">
<title>24&#45;&gt;0</title>
<path fill="none" stroke="grey" stroke-width="2" d="M1302.7,-231.71C1264.85,-227.88 1213.97,-215.82 1188,-180 1178.61,-167.05 1183.22,-159.27 1188,-144 1199.64,-106.82 1205.72,-93.81 1238,-72 1290.2,-36.73 1362.54,-24.67 1412.49,-20.69"/>
<polygon fill="grey" stroke="grey" stroke-width="2" points="1412.76,-24.18 1422.49,-19.97 1412.26,-17.2 1412.76,-24.18"/>
</g>
<!-- 24&#45;&gt;30 -->
<g id="edge89" class="edge">
<title>24&#45;&gt;30</title>
<path fill="none" stroke="grey" stroke-width="2" d="M1381.31,-215.88C1398.2,-206.64 1419.25,-195.13 1437.38,-185.21"/>
<polygon fill="grey" stroke="grey" stroke-width="2" points="1439.47,-188.06 1446.57,-180.19 1436.11,-181.92 1439.47,-188.06"/>
</g>
<!-- 31 -->
<g id="node32" class="node">
<title>31</title>
<path fill="none" stroke="#8fd856" stroke-width="2" d="M1341.5,-108C1341.5,-108 1270.5,-108 1270.5,-108 1264.5,-108 1258.5,-102 1258.5,-96 1258.5,-96 1258.5,-84 1258.5,-84 1258.5,-78 1264.5,-72 1270.5,-72 1270.5,-72 1341.5,-72 1341.5,-72 1347.5,-72 1353.5,-78 1353.5,-84 1353.5,-84 1353.5,-96 1353.5,-96 1353.5,-102 1347.5,-108 1341.5,-108"/>
<text text-anchor="middle" x="1306" y="-87.5" font-family="sans" font-size="10.00">structural_shifts</text>
</g>
<!-- 24&#45;&gt;31 -->
<g id="edge92" class="edge">
<title>24&#45;&gt;31</title>
<path fill="none" stroke="grey" stroke-width="2" d="M1352.79,-215.68C1355.02,-197.3 1356.55,-167.7 1348,-144 1344.35,-133.9 1337.95,-124.24 1331.22,-116.01"/>
<polygon fill="grey" stroke="grey" stroke-width="2" points="1333.69,-113.52 1324.48,-108.29 1328.42,-118.12 1333.69,-113.52"/>
</g>
<!-- 32 -->
<g id="node33" class="node">
<title>32</title>
<path fill="none" stroke="#5682d8" stroke-width="2" d="M1472.5,-108C1472.5,-108 1383.5,-108 1383.5,-108 1377.5,-108 1371.5,-102 1371.5,-96 1371.5,-96 1371.5,-84 1371.5,-84 1371.5,-78 1377.5,-72 1383.5,-72 1383.5,-72 1472.5,-72 1472.5,-72 1478.5,-72 1484.5,-78 1484.5,-84 1484.5,-84 1484.5,-96 1484.5,-96 1484.5,-102 1478.5,-108 1472.5,-108"/>
<text text-anchor="middle" x="1428" y="-87.5" font-family="sans" font-size="10.00">interactive_jsd_plot</text>
</g>
<!-- 24&#45;&gt;32 -->
<g id="edge94" class="edge">
<title>24&#45;&gt;32</title>
<path fill="none" stroke="grey" stroke-width="2" d="M1359.41,-215.87C1372.88,-191.35 1397.77,-146.03 1413.58,-117.26"/>
<polygon fill="grey" stroke="grey" stroke-width="2" points="1416.81,-118.64 1418.56,-108.19 1410.68,-115.27 1416.81,-118.64"/>
</g>
<!-- 33 -->
<g id="node34" class="node">
<title>33</title>
<path fill="none" stroke="#566bd8" stroke-width="2" d="M1327,-180C1327,-180 1209,-180 1209,-180 1203,-180 1197,-174 1197,-168 1197,-168 1197,-156 1197,-156 1197,-150 1203,-144 1209,-144 1209,-144 1327,-144 1327,-144 1333,-144 1339,-150 1339,-156 1339,-156 1339,-168 1339,-168 1339,-174 1333,-180 1327,-180"/>
<text text-anchor="middle" x="1268" y="-159.5" font-family="sans" font-size="10.00">interactive_heatmap_plot</text>
</g>
<!-- 24&#45;&gt;33 -->
<g id="edge96" class="edge">
<title>24&#45;&gt;33</title>
<path fill="none" stroke="grey" stroke-width="2" d="M1329.73,-215.7C1319.5,-206.97 1306.94,-196.24 1295.82,-186.75"/>
<polygon fill="grey" stroke="grey" stroke-width="2" points="1297.91,-183.94 1288.04,-180.1 1293.37,-189.26 1297.91,-183.94"/>
</g>
<!-- 25 -->
<g id="node26" class="node">
<title>25</title>
<path fill="none" stroke="#d85656" stroke-width="2" d="M1854.5,-324C1854.5,-324 1743.5,-324 1743.5,-324 1737.5,-324 1731.5,-318 1731.5,-312 1731.5,-312 1731.5,-300 1731.5,-300 1731.5,-294 1737.5,-288 1743.5,-288 1743.5,-288 1854.5,-288 1854.5,-288 1860.5,-288 1866.5,-294 1866.5,-300 1866.5,-300 1866.5,-312 1866.5,-312 1866.5,-318 1860.5,-324 1854.5,-324"/>
<text text-anchor="middle" x="1799" y="-303.5" font-family="sans" font-size="10.00">enumerate_UShER_subs</text>
</g>
<!-- 25&#45;&gt;0 -->
<g id="edge13" class="edge">
<title>25&#45;&gt;0</title>
<path fill="none" stroke="grey" stroke-width="2" d="M1821.15,-287.87C1831.41,-278.52 1842.52,-266 1848,-252 1853.83,-237.1 1853.99,-230.84 1848,-216 1814.69,-133.52 1786.6,-115.47 1709,-72 1652.46,-40.32 1578.47,-27.58 1527.89,-22.45"/>
<polygon fill="grey" stroke="grey" stroke-width="2" points="1528.06,-18.95 1517.78,-21.5 1527.41,-25.92 1528.06,-18.95"/>
</g>
<!-- 29 -->
<g id="node30" class="node">
<title>29</title>
<path fill="none" stroke="#56c9d8" stroke-width="2" d="M1827,-252C1827,-252 1705,-252 1705,-252 1699,-252 1693,-246 1693,-240 1693,-240 1693,-228 1693,-228 1693,-222 1699,-216 1705,-216 1705,-216 1827,-216 1827,-216 1833,-216 1839,-222 1839,-228 1839,-228 1839,-240 1839,-240 1839,-246 1833,-252 1827,-252"/>
<text text-anchor="middle" x="1766" y="-231.5" font-family="sans" font-size="10.00">parse_UShER_subs_N501Y</text>
</g>
<!-- 25&#45;&gt;29 -->
<g id="edge88" class="edge">
<title>25&#45;&gt;29</title>
<path fill="none" stroke="grey" stroke-width="2" d="M1790.84,-287.7C1787.09,-279.73 1782.55,-270.1 1778.38,-261.26"/>
<polygon fill="grey" stroke="grey" stroke-width="2" points="1781.49,-259.66 1774.06,-252.1 1775.16,-262.64 1781.49,-259.66"/>
</g>
<!-- 26 -->
<g id="node27" class="node">
<title>26</title>
<path fill="none" stroke="#d86e56" stroke-width="2" d="M1647.5,-396C1647.5,-396 1576.5,-396 1576.5,-396 1570.5,-396 1564.5,-390 1564.5,-384 1564.5,-384 1564.5,-372 1564.5,-372 1564.5,-366 1570.5,-360 1576.5,-360 1576.5,-360 1647.5,-360 1647.5,-360 1653.5,-360 1659.5,-366 1659.5,-372 1659.5,-372 1659.5,-384 1659.5,-384 1659.5,-390 1653.5,-396 1647.5,-396"/>
<text text-anchor="middle" x="1612" y="-375.5" font-family="sans" font-size="10.00">get_UShER_tree</text>
</g>
<!-- 26&#45;&gt;25 -->
<g id="edge84" class="edge">
<title>26&#45;&gt;25</title>
<path fill="none" stroke="grey" stroke-width="2" d="M1657.75,-359.88C1683.76,-350.14 1716.53,-337.87 1743.95,-327.61"/>
<polygon fill="grey" stroke="grey" stroke-width="2" points="1745.26,-330.85 1753.4,-324.07 1742.81,-324.3 1745.26,-330.85"/>
</g>
<!-- 26&#45;&gt;29 -->
<g id="edge87" class="edge">
<title>26&#45;&gt;29</title>
<path fill="none" stroke="grey" stroke-width="2" d="M1635.23,-359.79C1648.4,-349.75 1665,-336.6 1679,-324 1702.04,-303.25 1726.59,-277.8 1743.71,-259.44"/>
<polygon fill="grey" stroke="grey" stroke-width="2" points="1746.34,-261.75 1750.57,-252.03 1741.21,-256.99 1746.34,-261.75"/>
</g>
<!-- 27 -->
<g id="node28" class="node">
<title>27</title>
<path fill="none" stroke="#56d87b" stroke-width="2" d="M1774.5,-396C1774.5,-396 1689.5,-396 1689.5,-396 1683.5,-396 1677.5,-390 1677.5,-384 1677.5,-384 1677.5,-372 1677.5,-372 1677.5,-366 1683.5,-360 1689.5,-360 1689.5,-360 1774.5,-360 1774.5,-360 1780.5,-360 1786.5,-366 1786.5,-372 1786.5,-372 1786.5,-384 1786.5,-384 1786.5,-390 1780.5,-396 1774.5,-396"/>
<text text-anchor="middle" x="1732" y="-375.5" font-family="sans" font-size="10.00">get_UShER_gtf_file</text>
</g>
<!-- 27&#45;&gt;25 -->
<g id="edge85" class="edge">
<title>27&#45;&gt;25</title>
<path fill="none" stroke="grey" stroke-width="2" d="M1748.56,-359.7C1756.68,-351.22 1766.59,-340.86 1775.47,-331.58"/>
<polygon fill="grey" stroke="grey" stroke-width="2" points="1778.24,-333.75 1782.63,-324.1 1773.19,-328.91 1778.24,-333.75"/>
</g>
<!-- 28 -->
<g id="node29" class="node">
<title>28</title>
<path fill="none" stroke="#56d863" stroke-width="2" d="M1919,-396C1919,-396 1817,-396 1817,-396 1811,-396 1805,-390 1805,-384 1805,-384 1805,-372 1805,-372 1805,-366 1811,-360 1817,-360 1817,-360 1919,-360 1919,-360 1925,-360 1931,-366 1931,-372 1931,-372 1931,-384 1931,-384 1931,-390 1925,-396 1919,-396"/>
<text text-anchor="middle" x="1868" y="-375.5" font-family="sans" font-size="10.00">get_UShER_refseq_file</text>
</g>
<!-- 28&#45;&gt;25 -->
<g id="edge86" class="edge">
<title>28&#45;&gt;25</title>
<path fill="none" stroke="grey" stroke-width="2" d="M1850.94,-359.7C1842.5,-351.14 1832.18,-340.66 1822.96,-331.3"/>
<polygon fill="grey" stroke="grey" stroke-width="2" points="1825.37,-328.77 1815.86,-324.1 1820.39,-333.68 1825.37,-328.77"/>
</g>
<!-- 29&#45;&gt;0 -->
<g id="edge14" class="edge">
<title>29&#45;&gt;0</title>
<path fill="none" stroke="grey" stroke-width="2" d="M1761.72,-215.91C1752.51,-182.81 1727.62,-109.88 1679,-72 1635.62,-38.21 1573.22,-25.74 1527.9,-21.26"/>
<polygon fill="grey" stroke="grey" stroke-width="2" points="1528.19,-17.77 1517.92,-20.37 1527.57,-24.75 1528.19,-17.77"/>
</g>
<!-- 29&#45;&gt;30 -->
<g id="edge91" class="edge">
<title>29&#45;&gt;30</title>
<path fill="none" stroke="grey" stroke-width="2" d="M1695.92,-215.97C1645.81,-203.79 1579.33,-187.63 1533.03,-176.37"/>
<polygon fill="grey" stroke="grey" stroke-width="2" points="1533.72,-172.94 1523.18,-173.98 1532.07,-179.74 1533.72,-172.94"/>
</g>
<!-- 30&#45;&gt;0 -->
<g id="edge15" class="edge">
<title>30&#45;&gt;0</title>
<path fill="none" stroke="grey" stroke-width="2" d="M1485.06,-143.87C1491.53,-125.9 1499.37,-96.86 1494,-72 1492.04,-62.92 1488.39,-53.52 1484.51,-45.2"/>
<polygon fill="grey" stroke="grey" stroke-width="2" points="1487.54,-43.42 1479.95,-36.02 1481.27,-46.53 1487.54,-43.42"/>
</g>
<!-- 30&#45;&gt;31 -->
<g id="edge93" class="edge">
<title>30&#45;&gt;31</title>
<path fill="none" stroke="grey" stroke-width="2" d="M1435.92,-143.88C1412.2,-134.22 1382.38,-122.09 1357.3,-111.88"/>
<polygon fill="grey" stroke="grey" stroke-width="2" points="1358.52,-108.6 1347.94,-108.07 1355.88,-115.08 1358.52,-108.6"/>
</g>
<!-- 30&#45;&gt;32 -->
<g id="edge95" class="edge">
<title>30&#45;&gt;32</title>
<path fill="none" stroke="grey" stroke-width="2" d="M1465.64,-143.7C1459.77,-135.47 1452.63,-125.48 1446.16,-116.42"/>
<polygon fill="grey" stroke="grey" stroke-width="2" points="1448.88,-114.21 1440.22,-108.1 1443.18,-118.28 1448.88,-114.21"/>
</g>
<!-- 31&#45;&gt;0 -->
<g id="edge16" class="edge">
<title>31&#45;&gt;0</title>
<path fill="none" stroke="grey" stroke-width="2" d="M1346.12,-71.88C1368.64,-62.26 1396.92,-50.19 1420.77,-40.01"/>
<polygon fill="grey" stroke="grey" stroke-width="2" points="1422.19,-43.21 1430.01,-36.07 1419.44,-36.77 1422.19,-43.21"/>
</g>
<!-- 32&#45;&gt;0 -->
<g id="edge17" class="edge">
<title>32&#45;&gt;0</title>
<path fill="none" stroke="grey" stroke-width="2" d="M1438.38,-71.7C1443.26,-63.56 1449.19,-53.69 1454.58,-44.7"/>
<polygon fill="grey" stroke="grey" stroke-width="2" points="1457.59,-46.48 1459.74,-36.1 1451.59,-42.88 1457.59,-46.48"/>
</g>
<!-- 33&#45;&gt;0 -->
<g id="edge18" class="edge">
<title>33&#45;&gt;0</title>
<path fill="none" stroke="grey" stroke-width="2" d="M1257.08,-143.71C1246.33,-124.25 1233.71,-92.68 1250,-72 1269.84,-46.82 1353.79,-32.2 1412.05,-24.92"/>
<polygon fill="grey" stroke="grey" stroke-width="2" points="1412.74,-28.36 1422.25,-23.68 1411.9,-21.41 1412.74,-28.36"/>
</g>
</g>
</svg>
