<?xml version="1.0" encoding="UTF-8" standalone="no"?>
<!DOCTYPE svg PUBLIC "-//W3C//DTD SVG 1.1//EN"
 "http://www.w3.org/Graphics/SVG/1.1/DTD/svg11.dtd">
<!-- Generated by graphviz version 2.50.0 (20211209.0339)
 -->
<!-- Title: snakemake_dag Pages: 1 -->
<svg width="2624pt" height="476pt"
 viewBox="0.00 0.00 2624.00 476.00" xmlns="http://www.w3.org/2000/svg" xmlns:xlink="http://www.w3.org/1999/xlink">
<g id="graph0" class="graph" transform="scale(1 1) rotate(0) translate(4 472)">
<title>snakemake_dag</title>
<polygon fill="white" stroke="transparent" points="-4,4 -4,-472 2620,-472 2620,4 -4,4"/>
<!-- 0 -->
<g id="node1" class="node">
<title>0</title>
<path fill="none" stroke="#d8a456" stroke-width="2" d="M1294,-36C1294,-36 1223,-36 1223,-36 1217,-36 1211,-30 1211,-24 1211,-24 1211,-12 1211,-12 1211,-6 1217,0 1223,0 1223,0 1294,0 1294,0 1300,0 1306,-6 1306,-12 1306,-12 1306,-24 1306,-24 1306,-30 1300,-36 1294,-36"/>
<text text-anchor="middle" x="1258.5" y="-15.5" font-family="sans" font-size="10.00">make_summary</text>
</g>
<!-- 1 -->
<g id="node2" class="node">
<title>1</title>
<path fill="none" stroke="#56c1d8" stroke-width="2" d="M837,-108C837,-108 794,-108 794,-108 788,-108 782,-102 782,-96 782,-96 782,-84 782,-84 782,-78 788,-72 794,-72 794,-72 837,-72 837,-72 843,-72 849,-78 849,-84 849,-84 849,-96 849,-96 849,-102 843,-108 837,-108"/>
<text text-anchor="middle" x="815.5" y="-87.5" font-family="sans" font-size="10.00">make_dag</text>
</g>
<!-- 1&#45;&gt;0 -->
<g id="edge1" class="edge">
<title>1&#45;&gt;0</title>
<path fill="none" stroke="grey" stroke-width="2" d="M849.04,-74.84C852.21,-73.78 855.39,-72.81 858.5,-72 977.89,-40.99 1122.3,-27.56 1200.81,-22.2"/>
<polygon fill="grey" stroke="grey" stroke-width="2" points="1201.23,-25.68 1210.98,-21.53 1200.77,-18.7 1201.23,-25.68"/>
</g>
<!-- 2 -->
<g id="node3" class="node">
<title>2</title>
<path fill="none" stroke="#56d8c1" stroke-width="2" d="M965.5,-108C965.5,-108 879.5,-108 879.5,-108 873.5,-108 867.5,-102 867.5,-96 867.5,-96 867.5,-84 867.5,-84 867.5,-78 873.5,-72 879.5,-72 879.5,-72 965.5,-72 965.5,-72 971.5,-72 977.5,-78 977.5,-84 977.5,-84 977.5,-96 977.5,-96 977.5,-102 971.5,-108 965.5,-108"/>
<text text-anchor="middle" x="922.5" y="-87.5" font-family="sans" font-size="10.00">get_mut_bind_expr</text>
</g>
<!-- 2&#45;&gt;0 -->
<g id="edge2" class="edge">
<title>2&#45;&gt;0</title>
<path fill="none" stroke="grey" stroke-width="2" d="M977.81,-75.14C982.43,-74.05 987.04,-72.99 991.5,-72 1063.23,-56.05 1146.31,-39.93 1200.51,-29.72"/>
<polygon fill="grey" stroke="grey" stroke-width="2" points="1201.43,-33.11 1210.61,-27.82 1200.14,-26.23 1201.43,-33.11"/>
</g>
<!-- 3 -->
<g id="node4" class="node">
<title>3</title>
<path fill="none" stroke="#70d856" stroke-width="2" d="M1237.5,-252C1237.5,-252 1121.5,-252 1121.5,-252 1115.5,-252 1109.5,-246 1109.5,-240 1109.5,-240 1109.5,-228 1109.5,-228 1109.5,-222 1115.5,-216 1121.5,-216 1121.5,-216 1237.5,-216 1237.5,-216 1243.5,-216 1249.5,-222 1249.5,-228 1249.5,-228 1249.5,-240 1249.5,-240 1249.5,-246 1243.5,-252 1237.5,-252"/>
<text text-anchor="middle" x="1179.5" y="-231.5" font-family="sans" font-size="10.00">get_delta_mut_bind_expr</text>
</g>
<!-- 3&#45;&gt;0 -->
<g id="edge3" class="edge">
<title>3&#45;&gt;0</title>
<path fill="none" stroke="grey" stroke-width="2" d="M1172.85,-215.63C1169.3,-205.42 1165.3,-192.17 1163.5,-180 1156.45,-132.22 1148.88,-112.3 1175.5,-72 1183.77,-59.48 1196.12,-49.32 1208.79,-41.37"/>
<polygon fill="grey" stroke="grey" stroke-width="2" points="1210.71,-44.3 1217.56,-36.21 1207.16,-38.26 1210.71,-44.3"/>
</g>
<!-- 24 -->
<g id="node25" class="node">
<title>24</title>
<path fill="none" stroke="#568ad8" stroke-width="2" d="M1431.5,-180C1431.5,-180 1361.5,-180 1361.5,-180 1355.5,-180 1349.5,-174 1349.5,-168 1349.5,-168 1349.5,-156 1349.5,-156 1349.5,-150 1355.5,-144 1361.5,-144 1361.5,-144 1431.5,-144 1431.5,-144 1437.5,-144 1443.5,-150 1443.5,-156 1443.5,-156 1443.5,-168 1443.5,-168 1443.5,-174 1437.5,-180 1431.5,-180"/>
<text text-anchor="middle" x="1396.5" y="-159.5" font-family="sans" font-size="10.00">collapse_scores</text>
</g>
<!-- 3&#45;&gt;24 -->
<g id="edge80" class="edge">
<title>3&#45;&gt;24</title>
<path fill="none" stroke="grey" stroke-width="2" d="M1232.31,-215.97C1264.85,-205.47 1306.56,-192.01 1339.8,-181.29"/>
<polygon fill="grey" stroke="grey" stroke-width="2" points="1340.94,-184.6 1349.38,-178.2 1338.79,-177.94 1340.94,-184.6"/>
</g>
<!-- 4 -->
<g id="node5" class="node">
<title>4</title>
<path fill="none" stroke="#5673d8" stroke-width="2" d="M1319,-180C1319,-180 1198,-180 1198,-180 1192,-180 1186,-174 1186,-168 1186,-168 1186,-156 1186,-156 1186,-150 1192,-144 1198,-144 1198,-144 1319,-144 1319,-144 1325,-144 1331,-150 1331,-156 1331,-156 1331,-168 1331,-168 1331,-174 1325,-180 1319,-180"/>
<text text-anchor="middle" x="1258.5" y="-159.5" font-family="sans" font-size="10.00">get_mut_antibody_escape</text>
</g>
<!-- 4&#45;&gt;0 -->
<g id="edge4" class="edge">
<title>4&#45;&gt;0</title>
<path fill="none" stroke="grey" stroke-width="2" d="M1258.5,-143.87C1258.5,-119.67 1258.5,-75.21 1258.5,-46.39"/>
<polygon fill="grey" stroke="grey" stroke-width="2" points="1262,-46.19 1258.5,-36.19 1255,-46.19 1262,-46.19"/>
</g>
<!-- 30 -->
<g id="node31" class="node">
<title>30</title>
<path fill="none" stroke="#d6d856" stroke-width="2" d="M1422.5,-108C1422.5,-108 1356.5,-108 1356.5,-108 1350.5,-108 1344.5,-102 1344.5,-96 1344.5,-96 1344.5,-84 1344.5,-84 1344.5,-78 1350.5,-72 1356.5,-72 1356.5,-72 1422.5,-72 1422.5,-72 1428.5,-72 1434.5,-78 1434.5,-84 1434.5,-84 1434.5,-96 1434.5,-96 1434.5,-102 1428.5,-108 1422.5,-108"/>
<text text-anchor="middle" x="1389.5" y="-87.5" font-family="sans" font-size="10.00">epistatic_shifts</text>
</g>
<!-- 4&#45;&gt;30 -->
<g id="edge87" class="edge">
<title>4&#45;&gt;30</title>
<path fill="none" stroke="grey" stroke-width="2" d="M1290.55,-143.88C1307.99,-134.55 1329.77,-122.92 1348.44,-112.94"/>
<polygon fill="grey" stroke="grey" stroke-width="2" points="1350.16,-115.99 1357.33,-108.19 1346.86,-109.82 1350.16,-115.99"/>
</g>
<!-- 5 -->
<g id="node6" class="node">
<title>5</title>
<path fill="none" stroke="#d8bc56" stroke-width="2" d="M1327.5,-396C1327.5,-396 1207.5,-396 1207.5,-396 1201.5,-396 1195.5,-390 1195.5,-384 1195.5,-384 1195.5,-372 1195.5,-372 1195.5,-366 1201.5,-360 1207.5,-360 1207.5,-360 1327.5,-360 1327.5,-360 1333.5,-360 1339.5,-366 1339.5,-372 1339.5,-372 1339.5,-384 1339.5,-384 1339.5,-390 1333.5,-396 1327.5,-396"/>
<text text-anchor="middle" x="1267.5" y="-375.5" font-family="sans" font-size="10.00">process_ccs_Wuhan_Hu_1</text>
</g>
<!-- 5&#45;&gt;0 -->
<g id="edge5" class="edge">
<title>5&#45;&gt;0</title>
<path fill="none" stroke="grey" stroke-width="2" d="M1224.84,-359.9C1159.85,-332.48 1043.5,-277.48 1043.5,-235 1043.5,-235 1043.5,-235 1043.5,-161 1043.5,-85.42 1137.16,-47.75 1200.84,-30.87"/>
<polygon fill="grey" stroke="grey" stroke-width="2" points="1201.96,-34.2 1210.78,-28.34 1200.23,-27.42 1201.96,-34.2"/>
</g>
<!-- 21 -->
<g id="node22" class="node">
<title>21</title>
<path fill="none" stroke="#56d873" stroke-width="2" d="M1312,-324C1312,-324 1247,-324 1247,-324 1241,-324 1235,-318 1235,-312 1235,-312 1235,-300 1235,-300 1235,-294 1241,-288 1247,-288 1247,-288 1312,-288 1312,-288 1318,-288 1324,-294 1324,-300 1324,-300 1324,-312 1324,-312 1324,-318 1318,-324 1312,-324"/>
<text text-anchor="middle" x="1279.5" y="-303.5" font-family="sans" font-size="10.00">count_variants</text>
</g>
<!-- 5&#45;&gt;21 -->
<g id="edge64" class="edge">
<title>5&#45;&gt;21</title>
<path fill="none" stroke="grey" stroke-width="2" d="M1270.47,-359.7C1271.79,-351.98 1273.38,-342.71 1274.85,-334.11"/>
<polygon fill="grey" stroke="grey" stroke-width="2" points="1278.33,-334.55 1276.57,-324.1 1271.43,-333.37 1278.33,-334.55"/>
</g>
<!-- 22 -->
<g id="node23" class="node">
<title>22</title>
<path fill="none" stroke="#56d8d8" stroke-width="2" d="M1331.5,-252C1331.5,-252 1279.5,-252 1279.5,-252 1273.5,-252 1267.5,-246 1267.5,-240 1267.5,-240 1267.5,-228 1267.5,-228 1267.5,-222 1273.5,-216 1279.5,-216 1279.5,-216 1331.5,-216 1331.5,-216 1337.5,-216 1343.5,-222 1343.5,-228 1343.5,-228 1343.5,-240 1343.5,-240 1343.5,-246 1337.5,-252 1331.5,-252"/>
<text text-anchor="middle" x="1305.5" y="-231.5" font-family="sans" font-size="10.00">fit_titrations</text>
</g>
<!-- 5&#45;&gt;22 -->
<g id="edge68" class="edge">
<title>5&#45;&gt;22</title>
<path fill="none" stroke="grey" stroke-width="2" d="M1250.03,-359.98C1233.64,-341.86 1213.45,-312.47 1226.5,-288 1233.64,-274.62 1245.81,-264.02 1258.5,-255.93"/>
<polygon fill="grey" stroke="grey" stroke-width="2" points="1260.48,-258.82 1267.31,-250.72 1256.92,-252.8 1260.48,-258.82"/>
</g>
<!-- 23 -->
<g id="node24" class="node">
<title>23</title>
<path fill="none" stroke="#56a2d8" stroke-width="2" d="M1469,-252C1469,-252 1374,-252 1374,-252 1368,-252 1362,-246 1362,-240 1362,-240 1362,-228 1362,-228 1362,-222 1368,-216 1374,-216 1374,-216 1469,-216 1469,-216 1475,-216 1481,-222 1481,-228 1481,-228 1481,-240 1481,-240 1481,-246 1475,-252 1469,-252"/>
<text text-anchor="middle" x="1421.5" y="-231.5" font-family="sans" font-size="10.00">calculate_expression</text>
</g>
<!-- 5&#45;&gt;23 -->
<g id="edge73" class="edge">
<title>5&#45;&gt;23</title>
<path fill="none" stroke="grey" stroke-width="2" d="M1290.02,-359.95C1303.03,-349.85 1319.53,-336.6 1333.5,-324 1356.51,-303.24 1381.2,-277.99 1398.55,-259.69"/>
<polygon fill="grey" stroke="grey" stroke-width="2" points="1401.2,-261.99 1405.51,-252.31 1396.1,-257.19 1401.2,-261.99"/>
</g>
<!-- 6 -->
<g id="node7" class="node">
<title>6</title>
<path fill="none" stroke="#d85656" stroke-width="2" d="M870,-468C870,-468 671,-468 671,-468 665,-468 659,-462 659,-456 659,-456 659,-444 659,-444 659,-438 665,-432 671,-432 671,-432 870,-432 870,-432 876,-432 882,-438 882,-444 882,-444 882,-456 882,-456 882,-462 876,-468 870,-468"/>
<text text-anchor="middle" x="770.5" y="-453" font-family="sans" font-size="10.00">get_ccs</text>
<text text-anchor="middle" x="770.5" y="-442" font-family="sans" font-size="10.00">pacbioRun: pool1_Wuhan_Hu_1_210701_A</text>
</g>
<!-- 6&#45;&gt;5 -->
<g id="edge16" class="edge">
<title>6&#45;&gt;5</title>
<path fill="none" stroke="grey" stroke-width="2" d="M882.24,-433.23C885.36,-432.81 888.45,-432.4 891.5,-432 1019.26,-415.23 1054.49,-417.46 1185.14,-396.15"/>
<polygon fill="grey" stroke="grey" stroke-width="2" points="1185.84,-399.59 1195.13,-394.51 1184.7,-392.68 1185.84,-399.59"/>
</g>
<!-- 18 -->
<g id="node19" class="node">
<title>18</title>
<path fill="none" stroke="#a7d856" stroke-width="2" d="M1165,-396C1165,-396 1078,-396 1078,-396 1072,-396 1066,-390 1066,-384 1066,-384 1066,-372 1066,-372 1066,-366 1072,-360 1078,-360 1078,-360 1165,-360 1165,-360 1171,-360 1177,-366 1177,-372 1177,-372 1177,-384 1177,-384 1177,-390 1171,-396 1165,-396"/>
<text text-anchor="middle" x="1121.5" y="-375.5" font-family="sans" font-size="10.00">process_ccs_E484K</text>
</g>
<!-- 6&#45;&gt;18 -->
<g id="edge28" class="edge">
<title>6&#45;&gt;18</title>
<path fill="none" stroke="grey" stroke-width="2" d="M855.92,-431.97C917.56,-419.67 999.54,-403.32 1056.03,-392.06"/>
<polygon fill="grey" stroke="grey" stroke-width="2" points="1056.8,-395.47 1065.92,-390.08 1055.43,-388.61 1056.8,-395.47"/>
</g>
<!-- 19 -->
<g id="node20" class="node">
<title>19</title>
<path fill="none" stroke="#d86e56" stroke-width="2" d="M1457.5,-396C1457.5,-396 1369.5,-396 1369.5,-396 1363.5,-396 1357.5,-390 1357.5,-384 1357.5,-384 1357.5,-372 1357.5,-372 1357.5,-366 1363.5,-360 1369.5,-360 1369.5,-360 1457.5,-360 1457.5,-360 1463.5,-360 1469.5,-366 1469.5,-372 1469.5,-372 1469.5,-384 1469.5,-384 1469.5,-390 1463.5,-396 1457.5,-396"/>
<text text-anchor="middle" x="1413.5" y="-375.5" font-family="sans" font-size="10.00">process_ccs_N501Y</text>
</g>
<!-- 6&#45;&gt;19 -->
<g id="edge40" class="edge">
<title>6&#45;&gt;19</title>
<path fill="none" stroke="grey" stroke-width="2" d="M882.22,-433.05C885.34,-432.69 888.44,-432.33 891.5,-432 1090.77,-410.17 1145.84,-429.27 1347.25,-396.04"/>
<polygon fill="grey" stroke="grey" stroke-width="2" points="1347.98,-399.46 1357.26,-394.36 1346.82,-392.56 1347.98,-399.46"/>
</g>
<!-- 20 -->
<g id="node21" class="node">
<title>20</title>
<path fill="none" stroke="#59d856" stroke-width="2" d="M1587,-396C1587,-396 1500,-396 1500,-396 1494,-396 1488,-390 1488,-384 1488,-384 1488,-372 1488,-372 1488,-366 1494,-360 1500,-360 1500,-360 1587,-360 1587,-360 1593,-360 1599,-366 1599,-372 1599,-372 1599,-384 1599,-384 1599,-390 1593,-396 1587,-396"/>
<text text-anchor="middle" x="1543.5" y="-375.5" font-family="sans" font-size="10.00">process_ccs_B1351</text>
</g>
<!-- 6&#45;&gt;20 -->
<g id="edge52" class="edge">
<title>6&#45;&gt;20</title>
<path fill="none" stroke="grey" stroke-width="2" d="M882.21,-432.98C885.34,-432.64 888.44,-432.31 891.5,-432 1148.26,-406.13 1218.62,-436.47 1477.89,-395.88"/>
<polygon fill="grey" stroke="grey" stroke-width="2" points="1478.65,-399.3 1487.98,-394.28 1477.56,-392.39 1478.65,-399.3"/>
</g>
<!-- 7 -->
<g id="node8" class="node">
<title>7</title>
<path fill="none" stroke="#d85656" stroke-width="2" d="M1111,-468C1111,-468 912,-468 912,-468 906,-468 900,-462 900,-456 900,-456 900,-444 900,-444 900,-438 906,-432 912,-432 912,-432 1111,-432 1111,-432 1117,-432 1123,-438 1123,-444 1123,-444 1123,-456 1123,-456 1123,-462 1117,-468 1111,-468"/>
<text text-anchor="middle" x="1011.5" y="-453" font-family="sans" font-size="10.00">get_ccs</text>
<text text-anchor="middle" x="1011.5" y="-442" font-family="sans" font-size="10.00">pacbioRun: pool2_Wuhan_Hu_1_210701_A</text>
</g>
<!-- 7&#45;&gt;5 -->
<g id="edge17" class="edge">
<title>7&#45;&gt;5</title>
<path fill="none" stroke="grey" stroke-width="2" d="M1073.8,-431.97C1110.34,-421.97 1156.69,-409.3 1194.89,-398.85"/>
<polygon fill="grey" stroke="grey" stroke-width="2" points="1196.2,-402.12 1204.92,-396.11 1194.35,-395.37 1196.2,-402.12"/>
</g>
<!-- 7&#45;&gt;18 -->
<g id="edge29" class="edge">
<title>7&#45;&gt;18</title>
<path fill="none" stroke="grey" stroke-width="2" d="M1038.41,-431.88C1052.66,-422.81 1070.35,-411.55 1085.74,-401.76"/>
<polygon fill="grey" stroke="grey" stroke-width="2" points="1087.93,-404.51 1094.49,-396.19 1084.17,-398.61 1087.93,-404.51"/>
</g>
<!-- 7&#45;&gt;19 -->
<g id="edge41" class="edge">
<title>7&#45;&gt;19</title>
<path fill="none" stroke="grey" stroke-width="2" d="M1123.34,-432.64C1199.23,-421.32 1293.84,-406.72 1347.12,-396.15"/>
<polygon fill="grey" stroke="grey" stroke-width="2" points="1348.11,-399.52 1357.21,-394.09 1346.71,-392.66 1348.11,-399.52"/>
</g>
<!-- 7&#45;&gt;20 -->
<g id="edge53" class="edge">
<title>7&#45;&gt;20</title>
<path fill="none" stroke="grey" stroke-width="2" d="M1123.23,-433.15C1126.35,-432.76 1129.45,-432.37 1132.5,-432 1282.67,-413.64 1324.59,-423.21 1477.71,-395.97"/>
<polygon fill="grey" stroke="grey" stroke-width="2" points="1478.73,-399.34 1487.96,-394.12 1477.49,-392.45 1478.73,-399.34"/>
</g>
<!-- 8 -->
<g id="node9" class="node">
<title>8</title>
<path fill="none" stroke="#d85656" stroke-width="2" d="M1319.5,-468C1319.5,-468 1153.5,-468 1153.5,-468 1147.5,-468 1141.5,-462 1141.5,-456 1141.5,-456 1141.5,-444 1141.5,-444 1141.5,-438 1147.5,-432 1153.5,-432 1153.5,-432 1319.5,-432 1319.5,-432 1325.5,-432 1331.5,-438 1331.5,-444 1331.5,-444 1331.5,-456 1331.5,-456 1331.5,-462 1325.5,-468 1319.5,-468"/>
<text text-anchor="middle" x="1236.5" y="-453" font-family="sans" font-size="10.00">get_ccs</text>
<text text-anchor="middle" x="1236.5" y="-442" font-family="sans" font-size="10.00">pacbioRun: pool1_E484K_210701_A</text>
</g>
<!-- 8&#45;&gt;5 -->
<g id="edge18" class="edge">
<title>8&#45;&gt;5</title>
<path fill="none" stroke="grey" stroke-width="2" d="M1244.16,-431.7C1247.69,-423.73 1251.96,-414.1 1255.87,-405.26"/>
<polygon fill="grey" stroke="grey" stroke-width="2" points="1259.08,-406.67 1259.93,-396.1 1252.68,-403.83 1259.08,-406.67"/>
</g>
<!-- 8&#45;&gt;18 -->
<g id="edge30" class="edge">
<title>8&#45;&gt;18</title>
<path fill="none" stroke="grey" stroke-width="2" d="M1208.37,-431.88C1193.33,-422.72 1174.63,-411.34 1158.44,-401.48"/>
<polygon fill="grey" stroke="grey" stroke-width="2" points="1160.1,-398.4 1149.74,-396.19 1156.46,-404.38 1160.1,-398.4"/>
</g>
<!-- 8&#45;&gt;19 -->
<g id="edge42" class="edge">
<title>8&#45;&gt;19</title>
<path fill="none" stroke="grey" stroke-width="2" d="M1279.8,-431.88C1304.21,-422.22 1334.9,-410.09 1360.71,-399.88"/>
<polygon fill="grey" stroke="grey" stroke-width="2" points="1362.33,-403 1370.34,-396.07 1359.76,-396.49 1362.33,-403"/>
</g>
<!-- 8&#45;&gt;20 -->
<g id="edge54" class="edge">
<title>8&#45;&gt;20</title>
<path fill="none" stroke="grey" stroke-width="2" d="M1318.18,-431.97C1362.7,-422.48 1418.98,-410.16 1477.99,-396.08"/>
<polygon fill="grey" stroke="grey" stroke-width="2" points="1478.96,-399.44 1487.87,-393.71 1477.33,-392.64 1478.96,-399.44"/>
</g>
<!-- 9 -->
<g id="node10" class="node">
<title>9</title>
<path fill="none" stroke="#d85656" stroke-width="2" d="M1527.5,-468C1527.5,-468 1361.5,-468 1361.5,-468 1355.5,-468 1349.5,-462 1349.5,-456 1349.5,-456 1349.5,-444 1349.5,-444 1349.5,-438 1355.5,-432 1361.5,-432 1361.5,-432 1527.5,-432 1527.5,-432 1533.5,-432 1539.5,-438 1539.5,-444 1539.5,-444 1539.5,-456 1539.5,-456 1539.5,-462 1533.5,-468 1527.5,-468"/>
<text text-anchor="middle" x="1444.5" y="-453" font-family="sans" font-size="10.00">get_ccs</text>
<text text-anchor="middle" x="1444.5" y="-442" font-family="sans" font-size="10.00">pacbioRun: pool2_E484K_210701_A</text>
</g>
<!-- 9&#45;&gt;5 -->
<g id="edge19" class="edge">
<title>9&#45;&gt;5</title>
<path fill="none" stroke="grey" stroke-width="2" d="M1401.2,-431.88C1376.79,-422.22 1346.1,-410.09 1320.29,-399.88"/>
<polygon fill="grey" stroke="grey" stroke-width="2" points="1321.24,-396.49 1310.66,-396.07 1318.67,-403 1321.24,-396.49"/>
</g>
<!-- 9&#45;&gt;18 -->
<g id="edge31" class="edge">
<title>9&#45;&gt;18</title>
<path fill="none" stroke="grey" stroke-width="2" d="M1355.59,-431.95C1308.27,-422.58 1248.89,-410.38 1187.06,-396.07"/>
<polygon fill="grey" stroke="grey" stroke-width="2" points="1187.65,-392.61 1177.12,-393.75 1186.07,-399.43 1187.65,-392.61"/>
</g>
<!-- 9&#45;&gt;19 -->
<g id="edge43" class="edge">
<title>9&#45;&gt;19</title>
<path fill="none" stroke="grey" stroke-width="2" d="M1436.84,-431.7C1433.31,-423.73 1429.04,-414.1 1425.13,-405.26"/>
<polygon fill="grey" stroke="grey" stroke-width="2" points="1428.32,-403.83 1421.07,-396.1 1421.92,-406.67 1428.32,-403.83"/>
</g>
<!-- 9&#45;&gt;20 -->
<g id="edge55" class="edge">
<title>9&#45;&gt;20</title>
<path fill="none" stroke="grey" stroke-width="2" d="M1468.72,-431.88C1481.42,-422.89 1497.16,-411.76 1510.92,-402.03"/>
<polygon fill="grey" stroke="grey" stroke-width="2" points="1513.04,-404.82 1519.19,-396.19 1509,-399.11 1513.04,-404.82"/>
</g>
<!-- 10 -->
<g id="node11" class="node">
<title>10</title>
<path fill="none" stroke="#d85656" stroke-width="2" d="M1737,-468C1737,-468 1570,-468 1570,-468 1564,-468 1558,-462 1558,-456 1558,-456 1558,-444 1558,-444 1558,-438 1564,-432 1570,-432 1570,-432 1737,-432 1737,-432 1743,-432 1749,-438 1749,-444 1749,-444 1749,-456 1749,-456 1749,-462 1743,-468 1737,-468"/>
<text text-anchor="middle" x="1653.5" y="-453" font-family="sans" font-size="10.00">get_ccs</text>
<text text-anchor="middle" x="1653.5" y="-442" font-family="sans" font-size="10.00">pacbioRun: pool1_N501Y_210701_A</text>
</g>
<!-- 10&#45;&gt;5 -->
<g id="edge20" class="edge">
<title>10&#45;&gt;5</title>
<path fill="none" stroke="grey" stroke-width="2" d="M1557.87,-433.26C1500.27,-423.57 1425.21,-410.58 1350.02,-396.26"/>
<polygon fill="grey" stroke="grey" stroke-width="2" points="1350.38,-392.77 1339.9,-394.33 1349.06,-399.64 1350.38,-392.77"/>
</g>
<!-- 10&#45;&gt;18 -->
<g id="edge32" class="edge">
<title>10&#45;&gt;18</title>
<path fill="none" stroke="grey" stroke-width="2" d="M1557.97,-433.28C1554.78,-432.83 1551.61,-432.41 1548.5,-432 1391.47,-411.5 1347.44,-424 1187.26,-395.95"/>
<polygon fill="grey" stroke="grey" stroke-width="2" points="1187.5,-392.44 1177.04,-394.14 1186.28,-399.33 1187.5,-392.44"/>
</g>
<!-- 10&#45;&gt;19 -->
<g id="edge44" class="edge">
<title>10&#45;&gt;19</title>
<path fill="none" stroke="grey" stroke-width="2" d="M1595.1,-431.97C1560.22,-421.79 1515.82,-408.84 1479.65,-398.29"/>
<polygon fill="grey" stroke="grey" stroke-width="2" points="1480.26,-394.83 1469.68,-395.39 1478.3,-401.55 1480.26,-394.83"/>
</g>
<!-- 10&#45;&gt;20 -->
<g id="edge56" class="edge">
<title>10&#45;&gt;20</title>
<path fill="none" stroke="grey" stroke-width="2" d="M1626.59,-431.88C1612.34,-422.81 1594.65,-411.55 1579.26,-401.76"/>
<polygon fill="grey" stroke="grey" stroke-width="2" points="1580.83,-398.61 1570.51,-396.19 1577.07,-404.51 1580.83,-398.61"/>
</g>
<!-- 11 -->
<g id="node12" class="node">
<title>11</title>
<path fill="none" stroke="#d85656" stroke-width="2" d="M1946,-468C1946,-468 1779,-468 1779,-468 1773,-468 1767,-462 1767,-456 1767,-456 1767,-444 1767,-444 1767,-438 1773,-432 1779,-432 1779,-432 1946,-432 1946,-432 1952,-432 1958,-438 1958,-444 1958,-444 1958,-456 1958,-456 1958,-462 1952,-468 1946,-468"/>
<text text-anchor="middle" x="1862.5" y="-453" font-family="sans" font-size="10.00">get_ccs</text>
<text text-anchor="middle" x="1862.5" y="-442" font-family="sans" font-size="10.00">pacbioRun: pool2_N501Y_210701_A</text>
</g>
<!-- 11&#45;&gt;5 -->
<g id="edge21" class="edge">
<title>11&#45;&gt;5</title>
<path fill="none" stroke="grey" stroke-width="2" d="M1766.77,-433.08C1763.98,-432.7 1761.22,-432.34 1758.5,-432 1580.28,-409.64 1531.21,-422.35 1349.99,-396.12"/>
<polygon fill="grey" stroke="grey" stroke-width="2" points="1350.25,-392.62 1339.85,-394.63 1349.23,-399.55 1350.25,-392.62"/>
</g>
<!-- 11&#45;&gt;18 -->
<g id="edge33" class="edge">
<title>11&#45;&gt;18</title>
<path fill="none" stroke="grey" stroke-width="2" d="M1766.78,-432.99C1763.99,-432.64 1761.23,-432.31 1758.5,-432 1508.72,-403.8 1439.81,-435.55 1187.24,-395.9"/>
<polygon fill="grey" stroke="grey" stroke-width="2" points="1187.44,-392.39 1177.02,-394.27 1186.34,-399.3 1187.44,-392.39"/>
</g>
<!-- 11&#45;&gt;19 -->
<g id="edge45" class="edge">
<title>11&#45;&gt;19</title>
<path fill="none" stroke="grey" stroke-width="2" d="M1766.75,-433.22C1763.97,-432.81 1761.22,-432.4 1758.5,-432 1634.79,-413.91 1602.27,-419.64 1479.5,-396 1479.4,-395.98 1479.3,-395.96 1479.19,-395.94"/>
<polygon fill="grey" stroke="grey" stroke-width="2" points="1480.06,-392.55 1469.56,-393.94 1478.64,-399.4 1480.06,-392.55"/>
</g>
<!-- 11&#45;&gt;20 -->
<g id="edge57" class="edge">
<title>11&#45;&gt;20</title>
<path fill="none" stroke="grey" stroke-width="2" d="M1784.87,-431.97C1731.1,-420.17 1660.3,-404.63 1609.3,-393.44"/>
<polygon fill="grey" stroke="grey" stroke-width="2" points="1609.89,-389.99 1599.37,-391.26 1608.39,-396.82 1609.89,-389.99"/>
</g>
<!-- 12 -->
<g id="node13" class="node">
<title>12</title>
<path fill="none" stroke="#d85656" stroke-width="2" d="M2154.5,-468C2154.5,-468 1988.5,-468 1988.5,-468 1982.5,-468 1976.5,-462 1976.5,-456 1976.5,-456 1976.5,-444 1976.5,-444 1976.5,-438 1982.5,-432 1988.5,-432 1988.5,-432 2154.5,-432 2154.5,-432 2160.5,-432 2166.5,-438 2166.5,-444 2166.5,-444 2166.5,-456 2166.5,-456 2166.5,-462 2160.5,-468 2154.5,-468"/>
<text text-anchor="middle" x="2071.5" y="-453" font-family="sans" font-size="10.00">get_ccs</text>
<text text-anchor="middle" x="2071.5" y="-442" font-family="sans" font-size="10.00">pacbioRun: pool1_B1351_210701_A</text>
</g>
<!-- 12&#45;&gt;5 -->
<g id="edge22" class="edge">
<title>12&#45;&gt;5</title>
<path fill="none" stroke="grey" stroke-width="2" d="M1976.34,-433.04C1973.36,-432.67 1970.41,-432.32 1967.5,-432 1696.94,-402.1 1623.45,-431.66 1350.06,-396.09"/>
<polygon fill="grey" stroke="grey" stroke-width="2" points="1350.2,-392.57 1339.83,-394.74 1349.29,-399.51 1350.2,-392.57"/>
</g>
<!-- 12&#45;&gt;18 -->
<g id="edge34" class="edge">
<title>12&#45;&gt;18</title>
<path fill="none" stroke="grey" stroke-width="2" d="M1976.34,-432.99C1973.37,-432.64 1970.41,-432.3 1967.5,-432 1625.19,-396.26 1531.8,-447.26 1187.02,-395.85"/>
<polygon fill="grey" stroke="grey" stroke-width="2" points="1187.42,-392.37 1177.01,-394.34 1186.37,-399.29 1187.42,-392.37"/>
</g>
<!-- 12&#45;&gt;19 -->
<g id="edge46" class="edge">
<title>12&#45;&gt;19</title>
<path fill="none" stroke="grey" stroke-width="2" d="M1976.33,-433.1C1973.36,-432.71 1970.41,-432.34 1967.5,-432 1751.53,-406.43 1694.1,-431.26 1479.5,-396 1479.4,-395.98 1479.3,-395.97 1479.19,-395.95"/>
<polygon fill="grey" stroke="grey" stroke-width="2" points="1480,-392.54 1469.52,-394.16 1478.72,-399.42 1480,-392.54"/>
</g>
<!-- 12&#45;&gt;20 -->
<g id="edge58" class="edge">
<title>12&#45;&gt;20</title>
<path fill="none" stroke="grey" stroke-width="2" d="M1976.31,-433.29C1973.34,-432.85 1970.4,-432.42 1967.5,-432 1840.98,-413.76 1692.68,-396.06 1609.25,-386.44"/>
<polygon fill="grey" stroke="grey" stroke-width="2" points="1609.49,-382.94 1599.15,-385.28 1608.69,-389.9 1609.49,-382.94"/>
</g>
<!-- 13 -->
<g id="node14" class="node">
<title>13</title>
<path fill="none" stroke="#d85656" stroke-width="2" d="M2362.5,-468C2362.5,-468 2196.5,-468 2196.5,-468 2190.5,-468 2184.5,-462 2184.5,-456 2184.5,-456 2184.5,-444 2184.5,-444 2184.5,-438 2190.5,-432 2196.5,-432 2196.5,-432 2362.5,-432 2362.5,-432 2368.5,-432 2374.5,-438 2374.5,-444 2374.5,-444 2374.5,-456 2374.5,-456 2374.5,-462 2368.5,-468 2362.5,-468"/>
<text text-anchor="middle" x="2279.5" y="-453" font-family="sans" font-size="10.00">get_ccs</text>
<text text-anchor="middle" x="2279.5" y="-442" font-family="sans" font-size="10.00">pacbioRun: pool2_B1351_210701_A</text>
</g>
<!-- 13&#45;&gt;5 -->
<g id="edge23" class="edge">
<title>13&#45;&gt;5</title>
<path fill="none" stroke="grey" stroke-width="2" d="M2184.35,-432.98C2181.37,-432.63 2178.41,-432.3 2175.5,-432 1812.84,-394.6 1715.28,-441.08 1349.88,-396.04"/>
<polygon fill="grey" stroke="grey" stroke-width="2" points="1350.18,-392.55 1339.82,-394.79 1349.31,-399.5 1350.18,-392.55"/>
</g>
<!-- 13&#45;&gt;18 -->
<g id="edge35" class="edge">
<title>13&#45;&gt;18</title>
<path fill="none" stroke="grey" stroke-width="2" d="M2184.35,-432.96C2181.37,-432.61 2178.41,-432.29 2175.5,-432 1741.13,-388.77 1623.44,-458.95 1187.04,-395.84"/>
<polygon fill="grey" stroke="grey" stroke-width="2" points="1187.4,-392.36 1177,-394.37 1186.39,-399.28 1187.4,-392.36"/>
</g>
<!-- 13&#45;&gt;19 -->
<g id="edge47" class="edge">
<title>13&#45;&gt;19</title>
<path fill="none" stroke="grey" stroke-width="2" d="M2184.34,-433.01C2181.36,-432.65 2178.41,-432.31 2175.5,-432 1867.52,-398.97 1785.68,-442.87 1479.5,-396 1479.4,-395.98 1479.3,-395.97 1479.19,-395.95"/>
<polygon fill="grey" stroke="grey" stroke-width="2" points="1479.97,-392.54 1469.51,-394.24 1478.75,-399.43 1479.97,-392.54"/>
</g>
<!-- 13&#45;&gt;20 -->
<g id="edge59" class="edge">
<title>13&#45;&gt;20</title>
<path fill="none" stroke="grey" stroke-width="2" d="M2184.33,-433.14C2181.35,-432.74 2178.41,-432.36 2175.5,-432 1969.45,-406.56 1724.06,-389.84 1609.07,-382.8"/>
<polygon fill="grey" stroke="grey" stroke-width="2" points="1609.22,-379.3 1599.02,-382.19 1608.79,-386.29 1609.22,-379.3"/>
</g>
<!-- 14 -->
<g id="node15" class="node">
<title>14</title>
<path fill="none" stroke="#d85656" stroke-width="2" d="M2604,-468C2604,-468 2405,-468 2405,-468 2399,-468 2393,-462 2393,-456 2393,-456 2393,-444 2393,-444 2393,-438 2399,-432 2405,-432 2405,-432 2604,-432 2604,-432 2610,-432 2616,-438 2616,-444 2616,-444 2616,-456 2616,-456 2616,-462 2610,-468 2604,-468"/>
<text text-anchor="middle" x="2504.5" y="-453" font-family="sans" font-size="10.00">get_ccs</text>
<text text-anchor="middle" x="2504.5" y="-442" font-family="sans" font-size="10.00">pacbioRun: pool1_Wuhan_Hu_1_211118_A</text>
</g>
<!-- 14&#45;&gt;5 -->
<g id="edge24" class="edge">
<title>14&#45;&gt;5</title>
<path fill="none" stroke="grey" stroke-width="2" d="M2392.8,-432.87C2389.67,-432.56 2386.56,-432.27 2383.5,-432 1928.33,-392.22 1807.19,-450.61 1350,-396.05"/>
<polygon fill="grey" stroke="grey" stroke-width="2" points="1350.17,-392.54 1339.82,-394.82 1349.33,-399.49 1350.17,-392.54"/>
</g>
<!-- 14&#45;&gt;18 -->
<g id="edge36" class="edge">
<title>14&#45;&gt;18</title>
<path fill="none" stroke="grey" stroke-width="2" d="M2392.8,-432.85C2389.67,-432.55 2386.56,-432.26 2383.5,-432 1856.54,-387.19 1715.1,-470.75 1187.17,-395.85"/>
<polygon fill="grey" stroke="grey" stroke-width="2" points="1187.4,-392.35 1177,-394.4 1186.4,-399.28 1187.4,-392.35"/>
</g>
<!-- 14&#45;&gt;19 -->
<g id="edge48" class="edge">
<title>14&#45;&gt;19</title>
<path fill="none" stroke="grey" stroke-width="2" d="M2392.8,-432.89C2389.67,-432.57 2386.56,-432.28 2383.5,-432 1983.02,-395.98 1877.32,-454.48 1479.5,-396 1479.4,-395.98 1479.3,-395.97 1479.19,-395.95"/>
<polygon fill="grey" stroke="grey" stroke-width="2" points="1479.95,-392.53 1469.5,-394.29 1478.77,-399.43 1479.95,-392.53"/>
</g>
<!-- 14&#45;&gt;20 -->
<g id="edge60" class="edge">
<title>14&#45;&gt;20</title>
<path fill="none" stroke="grey" stroke-width="2" d="M2392.79,-432.99C2389.66,-432.64 2386.56,-432.31 2383.5,-432 2095.95,-402.77 1751.28,-387.07 1609.42,-381.44"/>
<polygon fill="grey" stroke="grey" stroke-width="2" points="1609.28,-377.93 1599.16,-381.04 1609.01,-384.93 1609.28,-377.93"/>
</g>
<!-- 15 -->
<g id="node16" class="node">
<title>15</title>
<path fill="none" stroke="#d85656" stroke-width="2" d="M211,-468C211,-468 12,-468 12,-468 6,-468 0,-462 0,-456 0,-456 0,-444 0,-444 0,-438 6,-432 12,-432 12,-432 211,-432 211,-432 217,-432 223,-438 223,-444 223,-444 223,-456 223,-456 223,-462 217,-468 211,-468"/>
<text text-anchor="middle" x="111.5" y="-453" font-family="sans" font-size="10.00">get_ccs</text>
<text text-anchor="middle" x="111.5" y="-442" font-family="sans" font-size="10.00">pacbioRun: pool1_Wuhan_Hu_1_211118_B</text>
</g>
<!-- 15&#45;&gt;5 -->
<g id="edge25" class="edge">
<title>15&#45;&gt;5</title>
<path fill="none" stroke="grey" stroke-width="2" d="M223.24,-432.79C226.02,-432.51 228.78,-432.24 231.5,-432 651.25,-394.46 763.18,-446.97 1185.15,-396.03"/>
<polygon fill="grey" stroke="grey" stroke-width="2" points="1185.68,-399.5 1195.18,-394.81 1184.83,-392.55 1185.68,-399.5"/>
</g>
<!-- 15&#45;&gt;18 -->
<g id="edge37" class="edge">
<title>15&#45;&gt;18</title>
<path fill="none" stroke="grey" stroke-width="2" d="M223.25,-432.87C226.02,-432.56 228.78,-432.27 231.5,-432 538.89,-401.13 907.94,-386.18 1055.67,-381.09"/>
<polygon fill="grey" stroke="grey" stroke-width="2" points="1056.04,-384.58 1065.92,-380.74 1055.8,-377.58 1056.04,-384.58"/>
</g>
<!-- 15&#45;&gt;19 -->
<g id="edge49" class="edge">
<title>15&#45;&gt;19</title>
<path fill="none" stroke="grey" stroke-width="2" d="M223.24,-432.77C226.02,-432.49 228.77,-432.24 231.5,-432 722.96,-389.39 855.14,-466.22 1347.08,-395.99"/>
<polygon fill="grey" stroke="grey" stroke-width="2" points="1347.89,-399.41 1357.29,-394.52 1346.89,-392.49 1347.89,-399.41"/>
</g>
<!-- 15&#45;&gt;20 -->
<g id="edge61" class="edge">
<title>15&#45;&gt;20</title>
<path fill="none" stroke="grey" stroke-width="2" d="M223.24,-432.75C226.02,-432.48 228.77,-432.23 231.5,-432 780.59,-385.33 927.86,-473.56 1477.47,-395.92"/>
<polygon fill="grey" stroke="grey" stroke-width="2" points="1478.24,-399.34 1487.64,-394.47 1477.25,-392.41 1478.24,-399.34"/>
</g>
<!-- 16 -->
<g id="node17" class="node">
<title>16</title>
<path fill="none" stroke="#d85656" stroke-width="2" d="M420,-468C420,-468 253,-468 253,-468 247,-468 241,-462 241,-456 241,-456 241,-444 241,-444 241,-438 247,-432 253,-432 253,-432 420,-432 420,-432 426,-432 432,-438 432,-444 432,-444 432,-456 432,-456 432,-462 426,-468 420,-468"/>
<text text-anchor="middle" x="336.5" y="-453" font-family="sans" font-size="10.00">get_ccs</text>
<text text-anchor="middle" x="336.5" y="-442" font-family="sans" font-size="10.00">pacbioRun: pool1_N501Y_211118_A</text>
</g>
<!-- 16&#45;&gt;5 -->
<g id="edge26" class="edge">
<title>16&#45;&gt;5</title>
<path fill="none" stroke="grey" stroke-width="2" d="M432.01,-433.07C435.21,-432.69 438.38,-432.33 441.5,-432 767.81,-397.81 855.9,-437.35 1184.87,-396.08"/>
<polygon fill="grey" stroke="grey" stroke-width="2" points="1185.69,-399.51 1195.17,-394.77 1184.81,-392.56 1185.69,-399.51"/>
</g>
<!-- 16&#45;&gt;18 -->
<g id="edge38" class="edge">
<title>16&#45;&gt;18</title>
<path fill="none" stroke="grey" stroke-width="2" d="M432.02,-433.19C435.22,-432.77 438.38,-432.37 441.5,-432 665.99,-405.13 933.88,-388.86 1055.55,-382.32"/>
<polygon fill="grey" stroke="grey" stroke-width="2" points="1056.02,-385.8 1065.82,-381.78 1055.64,-378.81 1056.02,-385.8"/>
</g>
<!-- 16&#45;&gt;19 -->
<g id="edge50" class="edge">
<title>16&#45;&gt;19</title>
<path fill="none" stroke="grey" stroke-width="2" d="M432,-433.04C435.2,-432.66 438.38,-432.31 441.5,-432 839.58,-392.02 947.68,-454.34 1347.19,-395.99"/>
<polygon fill="grey" stroke="grey" stroke-width="2" points="1347.9,-399.42 1357.28,-394.5 1346.88,-392.5 1347.9,-399.42"/>
</g>
<!-- 16&#45;&gt;20 -->
<g id="edge62" class="edge">
<title>16&#45;&gt;20</title>
<path fill="none" stroke="grey" stroke-width="2" d="M432,-433.01C435.2,-432.65 438.38,-432.31 441.5,-432 897.11,-387.39 1020.39,-461.65 1477.82,-395.86"/>
<polygon fill="grey" stroke="grey" stroke-width="2" points="1478.6,-399.28 1488,-394.38 1477.6,-392.35 1478.6,-399.28"/>
</g>
<!-- 17 -->
<g id="node18" class="node">
<title>17</title>
<path fill="none" stroke="#d85656" stroke-width="2" d="M629,-468C629,-468 462,-468 462,-468 456,-468 450,-462 450,-456 450,-456 450,-444 450,-444 450,-438 456,-432 462,-432 462,-432 629,-432 629,-432 635,-432 641,-438 641,-444 641,-444 641,-456 641,-456 641,-462 635,-468 629,-468"/>
<text text-anchor="middle" x="545.5" y="-453" font-family="sans" font-size="10.00">get_ccs</text>
<text text-anchor="middle" x="545.5" y="-442" font-family="sans" font-size="10.00">pacbioRun: pool1_N501Y_211118_B</text>
</g>
<!-- 17&#45;&gt;5 -->
<g id="edge27" class="edge">
<title>17&#45;&gt;5</title>
<path fill="none" stroke="grey" stroke-width="2" d="M641.02,-433.15C644.21,-432.74 647.38,-432.36 650.5,-432 884.47,-405.26 948.24,-427.96 1185.21,-396.06"/>
<polygon fill="grey" stroke="grey" stroke-width="2" points="1185.73,-399.52 1195.16,-394.7 1184.78,-392.59 1185.73,-399.52"/>
</g>
<!-- 17&#45;&gt;18 -->
<g id="edge39" class="edge">
<title>17&#45;&gt;18</title>
<path fill="none" stroke="grey" stroke-width="2" d="M641.04,-433.33C644.23,-432.87 647.39,-432.43 650.5,-432 794.74,-412.22 964.58,-394.46 1055.74,-385.38"/>
<polygon fill="grey" stroke="grey" stroke-width="2" points="1056.32,-388.84 1065.92,-384.37 1055.63,-381.88 1056.32,-388.84"/>
</g>
<!-- 17&#45;&gt;19 -->
<g id="edge51" class="edge">
<title>17&#45;&gt;19</title>
<path fill="none" stroke="grey" stroke-width="2" d="M641.01,-433.08C644.21,-432.7 647.38,-432.33 650.5,-432 956.07,-399.48 1039.74,-442.6 1347.18,-396"/>
<polygon fill="grey" stroke="grey" stroke-width="2" points="1347.92,-399.43 1357.28,-394.46 1346.86,-392.51 1347.92,-399.43"/>
</g>
<!-- 17&#45;&gt;20 -->
<g id="edge63" class="edge">
<title>17&#45;&gt;20</title>
<path fill="none" stroke="grey" stroke-width="2" d="M641.01,-433.05C644.21,-432.67 647.38,-432.32 650.5,-432 1013.62,-394.84 1112.49,-449.9 1477.93,-395.85"/>
<polygon fill="grey" stroke="grey" stroke-width="2" points="1478.62,-399.29 1487.99,-394.35 1477.58,-392.36 1478.62,-399.29"/>
</g>
<!-- 18&#45;&gt;0 -->
<g id="edge6" class="edge">
<title>18&#45;&gt;0</title>
<path fill="none" stroke="grey" stroke-width="2" d="M1093.72,-359.88C1059.4,-336.35 1005.5,-290.55 1005.5,-235 1005.5,-235 1005.5,-235 1005.5,-161 1005.5,-115.19 1021.03,-99.72 1057.5,-72 1098.99,-40.46 1157.64,-27.64 1200.88,-22.45"/>
<polygon fill="grey" stroke="grey" stroke-width="2" points="1201.41,-25.92 1210.97,-21.35 1200.65,-18.96 1201.41,-25.92"/>
</g>
<!-- 18&#45;&gt;21 -->
<g id="edge65" class="edge">
<title>18&#45;&gt;21</title>
<path fill="none" stroke="grey" stroke-width="2" d="M1160.15,-359.88C1181.75,-350.31 1208.85,-338.3 1231.77,-328.15"/>
<polygon fill="grey" stroke="grey" stroke-width="2" points="1233.25,-331.32 1240.97,-324.07 1230.41,-324.92 1233.25,-331.32"/>
</g>
<!-- 18&#45;&gt;22 -->
<g id="edge69" class="edge">
<title>18&#45;&gt;22</title>
<path fill="none" stroke="grey" stroke-width="2" d="M1123.01,-359.9C1125.65,-340.02 1132.87,-307.48 1152.5,-288 1185.68,-255.08 1208.63,-266.77 1257.52,-252.08"/>
<polygon fill="grey" stroke="grey" stroke-width="2" points="1258.88,-255.31 1267.3,-248.89 1256.71,-248.66 1258.88,-255.31"/>
</g>
<!-- 18&#45;&gt;23 -->
<g id="edge74" class="edge">
<title>18&#45;&gt;23</title>
<path fill="none" stroke="grey" stroke-width="2" d="M1137.25,-359.66C1156.45,-339.57 1190.76,-306.8 1226.5,-288 1237.93,-281.99 1300.73,-265.35 1352.03,-252.31"/>
<polygon fill="grey" stroke="grey" stroke-width="2" points="1352.95,-255.69 1361.78,-249.84 1351.23,-248.9 1352.95,-255.69"/>
</g>
<!-- 19&#45;&gt;0 -->
<g id="edge7" class="edge">
<title>19&#45;&gt;0</title>
<path fill="none" stroke="grey" stroke-width="2" d="M1428.42,-359.88C1447.18,-337.08 1478.41,-294.67 1490.5,-252 1505.86,-197.78 1494.16,-102.1 1466.5,-72 1446.42,-50.15 1370.85,-34.98 1316.58,-26.63"/>
<polygon fill="grey" stroke="grey" stroke-width="2" points="1316.78,-23.12 1306.37,-25.1 1315.75,-30.04 1316.78,-23.12"/>
</g>
<!-- 19&#45;&gt;21 -->
<g id="edge66" class="edge">
<title>19&#45;&gt;21</title>
<path fill="none" stroke="grey" stroke-width="2" d="M1380.72,-359.88C1362.87,-350.55 1340.6,-338.92 1321.5,-328.94"/>
<polygon fill="grey" stroke="grey" stroke-width="2" points="1322.89,-325.72 1312.41,-324.19 1319.65,-331.92 1322.89,-325.72"/>
</g>
<!-- 19&#45;&gt;22 -->
<g id="edge70" class="edge">
<title>19&#45;&gt;22</title>
<path fill="none" stroke="grey" stroke-width="2" d="M1400.47,-359.87C1381.66,-335.14 1346.75,-289.24 1324.9,-260.51"/>
<polygon fill="grey" stroke="grey" stroke-width="2" points="1327.41,-258.03 1318.57,-252.19 1321.84,-262.27 1327.41,-258.03"/>
</g>
<!-- 19&#45;&gt;23 -->
<g id="edge75" class="edge">
<title>19&#45;&gt;23</title>
<path fill="none" stroke="grey" stroke-width="2" d="M1414.46,-359.87C1415.83,-335.67 1418.33,-291.21 1419.96,-262.39"/>
<polygon fill="grey" stroke="grey" stroke-width="2" points="1423.46,-262.37 1420.53,-252.19 1416.47,-261.98 1423.46,-262.37"/>
</g>
<!-- 20&#45;&gt;0 -->
<g id="edge8" class="edge">
<title>20&#45;&gt;0</title>
<path fill="none" stroke="grey" stroke-width="2" d="M1599.2,-377.34C1697.93,-376.75 1897.93,-369.76 1947.5,-324 1977.22,-296.56 1966.5,-275.45 1966.5,-235 1966.5,-235 1966.5,-235 1966.5,-161 1966.5,-28.69 1485.16,-18.03 1316.25,-18.36"/>
<polygon fill="grey" stroke="grey" stroke-width="2" points="1316.04,-14.86 1306.05,-18.4 1316.07,-21.86 1316.04,-14.86"/>
</g>
<!-- 20&#45;&gt;21 -->
<g id="edge67" class="edge">
<title>20&#45;&gt;21</title>
<path fill="none" stroke="grey" stroke-width="2" d="M1487.83,-362.24C1442.55,-350.23 1379,-333.38 1334.02,-321.46"/>
<polygon fill="grey" stroke="grey" stroke-width="2" points="1334.72,-318.02 1324.15,-318.84 1332.92,-324.79 1334.72,-318.02"/>
</g>
<!-- 20&#45;&gt;22 -->
<g id="edge71" class="edge">
<title>20&#45;&gt;22</title>
<path fill="none" stroke="grey" stroke-width="2" d="M1514.79,-359.87C1471.82,-334.23 1390.73,-285.85 1343.09,-257.43"/>
<polygon fill="grey" stroke="grey" stroke-width="2" points="1344.69,-254.31 1334.31,-252.19 1341.1,-260.32 1344.69,-254.31"/>
</g>
<!-- 20&#45;&gt;23 -->
<g id="edge76" class="edge">
<title>20&#45;&gt;23</title>
<path fill="none" stroke="grey" stroke-width="2" d="M1528.78,-359.87C1507.44,-335.03 1467.76,-288.85 1443.1,-260.14"/>
<polygon fill="grey" stroke="grey" stroke-width="2" points="1445.44,-257.49 1436.27,-252.19 1440.13,-262.06 1445.44,-257.49"/>
</g>
<!-- 21&#45;&gt;0 -->
<g id="edge9" class="edge">
<title>21&#45;&gt;0</title>
<path fill="none" stroke="grey" stroke-width="2" d="M1234.65,-297.95C1187.08,-289.44 1116.6,-273.55 1100.5,-252 1064.61,-203.94 1078.78,-156.76 1154.5,-72 1167.2,-57.78 1184.61,-46.86 1201.56,-38.72"/>
<polygon fill="grey" stroke="grey" stroke-width="2" points="1203.23,-41.81 1210.89,-34.49 1200.34,-35.43 1203.23,-41.81"/>
</g>
<!-- 21&#45;&gt;22 -->
<g id="edge72" class="edge">
<title>21&#45;&gt;22</title>
<path fill="none" stroke="grey" stroke-width="2" d="M1285.93,-287.7C1288.86,-279.81 1292.39,-270.3 1295.64,-261.55"/>
<polygon fill="grey" stroke="grey" stroke-width="2" points="1298.95,-262.7 1299.15,-252.1 1292.38,-260.26 1298.95,-262.7"/>
</g>
<!-- 21&#45;&gt;23 -->
<g id="edge77" class="edge">
<title>21&#45;&gt;23</title>
<path fill="none" stroke="grey" stroke-width="2" d="M1314.24,-287.88C1333.32,-278.47 1357.18,-266.71 1377.55,-256.67"/>
<polygon fill="grey" stroke="grey" stroke-width="2" points="1379.21,-259.75 1386.63,-252.19 1376.11,-253.47 1379.21,-259.75"/>
</g>
<!-- 22&#45;&gt;0 -->
<g id="edge10" class="edge">
<title>22&#45;&gt;0</title>
<path fill="none" stroke="grey" stroke-width="2" d="M1267.49,-218.45C1230.75,-204.2 1180.21,-184.05 1177.5,-180 1146.95,-134.29 1196.5,-75.48 1230.58,-43.09"/>
<polygon fill="grey" stroke="grey" stroke-width="2" points="1233.05,-45.57 1238.01,-36.21 1228.29,-40.44 1233.05,-45.57"/>
</g>
<!-- 22&#45;&gt;24 -->
<g id="edge78" class="edge">
<title>22&#45;&gt;24</title>
<path fill="none" stroke="grey" stroke-width="2" d="M1327.99,-215.7C1339.46,-206.88 1353.56,-196.03 1365.98,-186.47"/>
<polygon fill="grey" stroke="grey" stroke-width="2" points="1368.47,-188.98 1374.26,-180.1 1364.2,-183.43 1368.47,-188.98"/>
</g>
<!-- 23&#45;&gt;0 -->
<g id="edge11" class="edge">
<title>23&#45;&gt;0</title>
<path fill="none" stroke="grey" stroke-width="2" d="M1434.65,-215.91C1441.42,-206.01 1448.99,-192.96 1452.5,-180 1465.1,-133.51 1474.83,-108.59 1443.5,-72 1412.29,-35.54 1357.85,-23.31 1316.08,-19.6"/>
<polygon fill="grey" stroke="grey" stroke-width="2" points="1316.26,-16.1 1306.03,-18.84 1315.74,-23.08 1316.26,-16.1"/>
</g>
<!-- 23&#45;&gt;24 -->
<g id="edge79" class="edge">
<title>23&#45;&gt;24</title>
<path fill="none" stroke="grey" stroke-width="2" d="M1415.32,-215.7C1412.5,-207.81 1409.11,-198.3 1405.98,-189.55"/>
<polygon fill="grey" stroke="grey" stroke-width="2" points="1409.27,-188.34 1402.61,-180.1 1402.68,-190.7 1409.27,-188.34"/>
</g>
<!-- 24&#45;&gt;0 -->
<g id="edge12" class="edge">
<title>24&#45;&gt;0</title>
<path fill="none" stroke="grey" stroke-width="2" d="M1375.23,-143.8C1363.2,-133.75 1348.09,-120.61 1335.5,-108 1314.97,-87.43 1293.49,-62.25 1278.45,-43.93"/>
<polygon fill="grey" stroke="grey" stroke-width="2" points="1281.05,-41.57 1272.02,-36.03 1275.62,-46 1281.05,-41.57"/>
</g>
<!-- 24&#45;&gt;30 -->
<g id="edge86" class="edge">
<title>24&#45;&gt;30</title>
<path fill="none" stroke="grey" stroke-width="2" d="M1394.77,-143.7C1394,-135.98 1393.07,-126.71 1392.21,-118.11"/>
<polygon fill="grey" stroke="grey" stroke-width="2" points="1395.69,-117.71 1391.21,-108.1 1388.72,-118.4 1395.69,-117.71"/>
</g>
<!-- 25 -->
<g id="node26" class="node">
<title>25</title>
<path fill="none" stroke="#56d88a" stroke-width="2" d="M1767,-252C1767,-252 1656,-252 1656,-252 1650,-252 1644,-246 1644,-240 1644,-240 1644,-228 1644,-228 1644,-222 1650,-216 1656,-216 1656,-216 1767,-216 1767,-216 1773,-216 1779,-222 1779,-228 1779,-228 1779,-240 1779,-240 1779,-246 1773,-252 1767,-252"/>
<text text-anchor="middle" x="1711.5" y="-231.5" font-family="sans" font-size="10.00">enumerate_UShER_subs</text>
</g>
<!-- 25&#45;&gt;0 -->
<g id="edge13" class="edge">
<title>25&#45;&gt;0</title>
<path fill="none" stroke="grey" stroke-width="2" d="M1711.94,-215.87C1711.58,-196.56 1708.31,-165.12 1692.5,-144 1652.23,-90.18 1622.98,-94.11 1559.5,-72 1477.79,-43.53 1378.05,-29.83 1316.4,-23.63"/>
<polygon fill="grey" stroke="grey" stroke-width="2" points="1316.38,-20.11 1306.09,-22.63 1315.71,-27.08 1316.38,-20.11"/>
</g>
<!-- 29 -->
<g id="node30" class="node">
<title>29</title>
<path fill="none" stroke="#bed856" stroke-width="2" d="M1671.5,-180C1671.5,-180 1549.5,-180 1549.5,-180 1543.5,-180 1537.5,-174 1537.5,-168 1537.5,-168 1537.5,-156 1537.5,-156 1537.5,-150 1543.5,-144 1549.5,-144 1549.5,-144 1671.5,-144 1671.5,-144 1677.5,-144 1683.5,-150 1683.5,-156 1683.5,-156 1683.5,-168 1683.5,-168 1683.5,-174 1677.5,-180 1671.5,-180"/>
<text text-anchor="middle" x="1610.5" y="-159.5" font-family="sans" font-size="10.00">parse_UShER_subs_N501Y</text>
</g>
<!-- 25&#45;&gt;29 -->
<g id="edge85" class="edge">
<title>25&#45;&gt;29</title>
<path fill="none" stroke="grey" stroke-width="2" d="M1686.79,-215.88C1673.83,-206.89 1657.77,-195.76 1643.73,-186.03"/>
<polygon fill="grey" stroke="grey" stroke-width="2" points="1645.52,-183.01 1635.3,-180.19 1641.53,-188.76 1645.52,-183.01"/>
</g>
<!-- 26 -->
<g id="node27" class="node">
<title>26</title>
<path fill="none" stroke="#56d8a2" stroke-width="2" d="M1654,-324C1654,-324 1583,-324 1583,-324 1577,-324 1571,-318 1571,-312 1571,-312 1571,-300 1571,-300 1571,-294 1577,-288 1583,-288 1583,-288 1654,-288 1654,-288 1660,-288 1666,-294 1666,-300 1666,-300 1666,-312 1666,-312 1666,-318 1660,-324 1654,-324"/>
<text text-anchor="middle" x="1618.5" y="-303.5" font-family="sans" font-size="10.00">get_UShER_tree</text>
</g>
<!-- 26&#45;&gt;25 -->
<g id="edge81" class="edge">
<title>26&#45;&gt;25</title>
<path fill="none" stroke="grey" stroke-width="2" d="M1641.49,-287.7C1653.31,-278.8 1667.89,-267.82 1680.68,-258.2"/>
<polygon fill="grey" stroke="grey" stroke-width="2" points="1682.89,-260.91 1688.78,-252.1 1678.68,-255.32 1682.89,-260.91"/>
</g>
<!-- 26&#45;&gt;29 -->
<g id="edge84" class="edge">
<title>26&#45;&gt;29</title>
<path fill="none" stroke="grey" stroke-width="2" d="M1617.54,-287.87C1616.17,-263.67 1613.67,-219.21 1612.04,-190.39"/>
<polygon fill="grey" stroke="grey" stroke-width="2" points="1615.53,-189.98 1611.47,-180.19 1608.54,-190.37 1615.53,-189.98"/>
</g>
<!-- 27 -->
<g id="node28" class="node">
<title>27</title>
<path fill="none" stroke="#d88d56" stroke-width="2" d="M1926,-324C1926,-324 1841,-324 1841,-324 1835,-324 1829,-318 1829,-312 1829,-312 1829,-300 1829,-300 1829,-294 1835,-288 1841,-288 1841,-288 1926,-288 1926,-288 1932,-288 1938,-294 1938,-300 1938,-300 1938,-312 1938,-312 1938,-318 1932,-324 1926,-324"/>
<text text-anchor="middle" x="1883.5" y="-303.5" font-family="sans" font-size="10.00">get_UShER_gtf_file</text>
</g>
<!-- 27&#45;&gt;25 -->
<g id="edge82" class="edge">
<title>27&#45;&gt;25</title>
<path fill="none" stroke="grey" stroke-width="2" d="M1841.42,-287.88C1817.7,-278.22 1787.88,-266.09 1762.8,-255.88"/>
<polygon fill="grey" stroke="grey" stroke-width="2" points="1764.02,-252.6 1753.44,-252.07 1761.38,-259.08 1764.02,-252.6"/>
</g>
<!-- 28 -->
<g id="node29" class="node">
<title>28</title>
<path fill="none" stroke="#88d856" stroke-width="2" d="M1798.5,-324C1798.5,-324 1696.5,-324 1696.5,-324 1690.5,-324 1684.5,-318 1684.5,-312 1684.5,-312 1684.5,-300 1684.5,-300 1684.5,-294 1690.5,-288 1696.5,-288 1696.5,-288 1798.5,-288 1798.5,-288 1804.5,-288 1810.5,-294 1810.5,-300 1810.5,-300 1810.5,-312 1810.5,-312 1810.5,-318 1804.5,-324 1798.5,-324"/>
<text text-anchor="middle" x="1747.5" y="-303.5" font-family="sans" font-size="10.00">get_UShER_refseq_file</text>
</g>
<!-- 28&#45;&gt;25 -->
<g id="edge83" class="edge">
<title>28&#45;&gt;25</title>
<path fill="none" stroke="grey" stroke-width="2" d="M1738.6,-287.7C1734.5,-279.73 1729.55,-270.1 1725.01,-261.26"/>
<polygon fill="grey" stroke="grey" stroke-width="2" points="1727.98,-259.4 1720.3,-252.1 1721.76,-262.6 1727.98,-259.4"/>
</g>
<!-- 29&#45;&gt;0 -->
<g id="edge14" class="edge">
<title>29&#45;&gt;0</title>
<path fill="none" stroke="grey" stroke-width="2" d="M1598.84,-143.91C1583.88,-123.41 1555.98,-89.62 1523.5,-72 1458.28,-36.62 1372.5,-24.72 1316.46,-20.8"/>
<polygon fill="grey" stroke="grey" stroke-width="2" points="1316.55,-17.3 1306.35,-20.16 1316.11,-24.29 1316.55,-17.3"/>
</g>
<!-- 29&#45;&gt;30 -->
<g id="edge88" class="edge">
<title>29&#45;&gt;30</title>
<path fill="none" stroke="grey" stroke-width="2" d="M1556.72,-143.97C1522.65,-133.17 1478.7,-119.25 1444.42,-108.39"/>
<polygon fill="grey" stroke="grey" stroke-width="2" points="1445.15,-104.96 1434.56,-105.27 1443.04,-111.63 1445.15,-104.96"/>
</g>
<!-- 30&#45;&gt;0 -->
<g id="edge15" class="edge">
<title>30&#45;&gt;0</title>
<path fill="none" stroke="grey" stroke-width="2" d="M1357.45,-71.88C1340.01,-62.55 1318.23,-50.92 1299.56,-40.94"/>
<polygon fill="grey" stroke="grey" stroke-width="2" points="1301.14,-37.82 1290.67,-36.19 1297.84,-43.99 1301.14,-37.82"/>
</g>
</g>
</svg>
